<?xml version="1.0" encoding="utf-8"?>
<!-- Generator: Adobe Illustrator 22.1.0, SVG Export Plug-In . SVG Version: 6.00 Build 0)  -->
<svg version="1.1" id="Layer_1" xmlns="http://www.w3.org/2000/svg" xmlns:xlink="http://www.w3.org/1999/xlink" x="0px" y="0px"
	 viewBox="0 0 392.8 392.8" style="enable-background:new 0 0 392.8 392.8;" xml:space="preserve">
<style type="text/css">
	.st0{opacity:0.85;fill:url(#SVGID_1_);}
</style>
<radialGradient id="SVGID_1_" cx="78.0563" cy="79.8953" r="414.6988" gradientUnits="userSpaceOnUse">
	<stop  offset="0" style="stop-color:#34B2F7"/>
	<stop  offset="1" style="stop-color:#694DCF"/>
</radialGradient>
<path class="st0" d="M209,0.4c96.6,6,176,84.4,183.2,180.9c2.4,32.8-3.2,64-15.1,91.9c0,0,0,0,0,0c-3.3,7.7-7.1,15.2-11.3,22.4
	c-10.6,31-4.2,65.9,13.6,83.7c-11.8,3.9-64.8-2.5-89.7-10.2c-33,17.9-71.7,26.5-112.6,22.6C87,383.2,12.9,311.7,1.6,221.9
	C-14,97.8,86.3-7.3,209,0.4z"/>
</svg>
