<?xml version="1.0" encoding="utf-8"?>
<!-- Generator: Adobe Illustrator 22.1.0, SVG Export Plug-In . SVG Version: 6.00 Build 0)  -->
<svg version="1.1" id="Layer_1" xmlns="http://www.w3.org/2000/svg" xmlns:xlink="http://www.w3.org/1999/xlink" x="0px" y="0px"
	 viewBox="0 0 521.4 57.1" style="enable-background:new 0 0 521.4 57.1;" xml:space="preserve">
<style type="text/css">
	.st0{fill:#35E3B2;}
</style>
<g>
	<path class="st0" d="M516,0.4c-2.9,0-5.3,2.4-5.3,5.4v29.9L487.1,5c-0.1-0.1-0.2-0.2-0.3-0.4c-1-1.4-3.1-4.2-6.3-4.2
		c-2.9,0-5.3,2.4-5.3,5.4v45.9c0,3,2.4,5.4,5.3,5.4c3,0,5.4-2.4,5.4-5.4V21.1c6.1,8,25.2,33,25.6,33.5c1.3,1.6,2.7,2.4,4.5,2.4
		c3,0,5.4-2.4,5.4-5.4V5.8C521.4,2.8,519,0.4,516,0.4z"/>
	<path class="st0" d="M40.4,41.3c-3.2,3-7.5,4.7-12.1,4.7c-9.7,0-17.6-7.9-17.6-17.6c0-9.7,7.9-17.6,17.6-17.6
		c4.4,0,8.6,1.6,11.9,4.5c1,0.9,2.4,1.4,3.8,1.4c1.4-0.1,2.7-0.7,3.7-1.7c1-1.1,1.5-2.5,1.4-3.9c-0.1-1.4-0.7-2.7-1.8-3.7
		c-5.2-4.7-11.9-7.2-19-7.2C12.7,0.1,0,12.8,0,28.4C0,44,12.7,56.7,28.3,56.7c7.1,0,14-2.7,19.3-7.6c2.1-2,2.2-5.4,0.2-7.5
		C45.8,39.4,42.4,39.3,40.4,41.3z"/>
	<path class="st0" d="M77.8,0C62.1,0,49.4,12.7,49.4,28.3c0,15.6,12.7,28.4,28.4,28.4c15.6,0,28.3-12.7,28.3-28.3
		C106.1,12.7,93.4,0,77.8,0z M95.4,28.3c0,9.7-7.9,17.6-17.6,17.6c-9.7,0-17.6-7.9-17.6-17.6c0-9.7,7.9-17.6,17.6-17.6
		C87.5,10.7,95.4,18.6,95.4,28.3z"/>
	<path class="st0" d="M159.5,9.5c0-5.5,0-6.8-3.3-8.7l-0.2-0.1c-4.2-1.4-6.1,1.6-8,4.4c-0.7,1.1-1.5,2.2-2.4,3.2L135,22.8L123.2,6.6
		c-0.4-0.4-0.7-1-1.1-1.6c-1.8-2.6-4.1-6.1-8.4-4.2c-3.4,1.8-3.3,4.4-3.2,7.8c0,1.2,0.1,2.6,0,4.2v38.7c0,3,2.4,5.4,5.3,5.4
		c3,0,5.4-2.4,5.4-5.4V22.2l9.5,13c1.1,1.4,2.7,2.2,4.3,2.2c1.7,0,3.3-0.8,4.3-2.2l9.4-12.9v29.4c0,3,2.4,5.4,5.4,5.4
		c3,0,5.4-2.4,5.4-5.4V15C159.5,12.7,159.5,10.9,159.5,9.5z"/>
	<path class="st0" d="M171.2,0c-2.9,0-5.3,2.4-5.3,5.4v45.9c0,3,2.4,5.4,5.3,5.4c3,0,5.4-2.4,5.4-5.4V5.4C176.6,2.4,174.2,0,171.2,0
		z"/>
	<path class="st0" d="M288.7,28.7c0-2.9-2.4-5.3-5.4-5.3h-14c-3,0-5.4,2.4-5.4,5.3c0,3,2.4,5.4,5.4,5.4h8.2
		c-1.8,7.3-8.1,11.9-16.3,11.9c-9.5,0-16.9-7.8-16.9-17.6c0-9.7,7.9-17.6,17.6-17.6c4.5,0,8.8,1.7,12.1,4.8c1,1,2.4,1.5,3.8,1.4
		c1.4-0.1,2.7-0.7,3.7-1.7c1-1,1.5-2.4,1.5-3.8c0-1.4-0.6-2.8-1.7-3.8C276,2.7,269.1,0,261.9,0c-15.6,0-28.4,12.7-28.4,28.3
		c0,15.9,12.1,28.4,27.6,28.4c16,0,27.6-11.3,27.6-26.9c0-0.3,0-0.6-0.1-0.9V28.7z"/>
	<path class="st0" d="M335.2,24.3c-1.9-0.4-3.7-0.6-5.5-0.7l-0.9-0.1c-2.7-0.1-5.2-0.3-6.8-1.4c-1.7-1.1-3.1-3.4-2.5-5.5
		c0.7-2.6,3.3-4.7,6.4-5.2c4.1-0.6,8.5,0.5,11.6,3c2.3,1.8,5.6,1.4,7.5-0.9c1.8-2.3,1.4-5.6-0.9-7.4C338.6,2,331.3,0,324.5,1
		c-7.2,1.1-13.3,6.2-15.1,12.8c-1.7,6.2,1,13.2,6.7,17c4.1,2.8,8.4,3,12.2,3.3l0.1,0c1.6,0.1,3.2,0.1,4.6,0.5c3.1,0.7,5.2,3.3,5.1,6
		c-0.2,3.1-3.6,5-6.8,5.4c-5,0.7-10.3-1.1-13.3-4.6c-1.9-2.2-5.2-2.5-7.4-0.6c-2.2,1.9-2.5,5.2-0.6,7.4c4.5,5.3,11.6,8.4,19.1,8.4
		c1.2,0,2.5-0.1,3.7-0.2c7.2-1.1,15.3-6.3,15.8-15.3v0C349,33.3,343.2,26.1,335.2,24.3z"/>
	<path class="st0" d="M381.3,0C365.7,0,353,12.7,353,28.3c0,15.6,12.7,28.4,28.4,28.4c15.6,0,28.3-12.7,28.3-28.3
		C409.6,12.7,396.9,0,381.3,0z M398.9,28.3c0,9.7-7.9,17.6-17.6,17.6c-9.7,0-17.6-7.9-17.6-17.6c0-9.7,7.9-17.6,17.6-17.6
		C391,10.7,398.9,18.6,398.9,28.3z"/>
	<path class="st0" d="M442.5,0c-15.6,0-28.4,12.7-28.4,28.3c0,15.6,12.7,28.4,28.4,28.4c15.6,0,28.3-12.7,28.3-28.3
		C470.8,12.7,458.1,0,442.5,0z M460,28.3c0,9.7-7.9,17.6-17.6,17.6c-9.7,0-17.6-7.9-17.6-17.6c0-9.7,7.9-17.6,17.6-17.6
		C452.2,10.7,460,18.6,460,28.3z"/>
	<path class="st0" d="M223.9,0.4c-2.9,0-5.3,2.4-5.3,5.4v29.9L195.1,5c-0.1-0.1-0.2-0.2-0.3-0.4c-1-1.4-3.1-4.2-6.3-4.2
		c-2.9,0-5.3,2.4-5.3,5.4v45.9c0,3,2.4,5.4,5.3,5.4c3,0,5.4-2.4,5.4-5.4V21.1c6.1,8,25.2,33,25.6,33.5c1.3,1.6,2.7,2.4,4.5,2.4
		c3,0,5.4-2.4,5.4-5.4V5.8C229.3,2.8,227,0.4,223.9,0.4z"/>
</g>
</svg>
