<?xml version="1.0" encoding="utf-8"?>
<!-- Generator: Adobe Illustrator 22.1.0, SVG Export Plug-In . SVG Version: 6.00 Build 0)  -->
<svg version="1.1" id="Layer_1" xmlns="http://www.w3.org/2000/svg" xmlns:xlink="http://www.w3.org/1999/xlink" x="0px" y="0px"
	 viewBox="0 0 255.3 255.3" style="enable-background:new 0 0 255.3 255.3;" xml:space="preserve">
<style type="text/css">
	.st0{opacity:0.85;fill:url(#SVGID_1_);}
</style>
<radialGradient id="SVGID_1_" cx="13.7691" cy="67.3573" r="259.5926" gradientUnits="userSpaceOnUse">
	<stop  offset="0" style="stop-color:#35E3B2"/>
	<stop  offset="1" style="stop-color:#1FBFBA"/>
</radialGradient>
<path class="st0" d="M135.8,0.3c62.8,3.9,114.4,54.9,119.1,117.6c1.6,21.3-2.1,41.6-9.8,59.7c0,0,0,0,0,0c-2.1,5-4.6,9.9-7.4,14.5
	c-6.9,20.2-2.8,42.8,8.8,54.4c-7.6,2.5-42.2-1.6-58.3-6.6c-21.4,11.6-46.6,17.3-73.2,14.7C56.5,249.1,8.4,202.6,1,144.2
	C-9.1,63.6,56.1-4.7,135.8,0.3z"/>
</svg>
