<?xml version="1.0" encoding="utf-8"?>
<!-- Generator: Adobe Illustrator 22.1.0, SVG Export Plug-In . SVG Version: 6.00 Build 0)  -->
<svg version="1.1" id="Layer_1" xmlns="http://www.w3.org/2000/svg" xmlns:xlink="http://www.w3.org/1999/xlink" x="0px" y="0px"
	 viewBox="0 0 716 716" style="enable-background:new 0 0 716 716;" xml:space="preserve">
<style type="text/css">
	.st0{fill:url(#SVGID_1_);}
	.st1{fill:url(#SVGID_2_);}
</style>
<g>
	
		<linearGradient id="SVGID_1_" gradientUnits="userSpaceOnUse" x1="292.8192" y1="349.8152" x2="477.1572" y2="127.9351" gradientTransform="matrix(1 0 0 -1 0 716.8)">
		<stop  offset="0.1227" style="stop-color:#F7FAFA"/>
		<stop  offset="0.4998" style="stop-color:#F4DDE3"/>
		<stop  offset="0.9993" style="stop-color:#EFB1BF"/>
	</linearGradient>
	<path class="st0" d="M358,0C160.3,0,0,160.3,0,358c0,49.7,10.2,97.1,28.5,140.1l0,0c0,0,0,0,0,0.1c6,14.1,12.9,27.7,20.6,40.8
		c19.4,56.5,7.7,120.1-24.7,152.6c21.4,7.1,118.2-4.5,163.5-18.5C238.5,700.5,296.4,716,358,716c197.7,0,358-160.3,358-358
		S555.8,0,358,0z"/>
	
		<radialGradient id="SVGID_2_" cx="291.6739" cy="894.5135" r="545.5073" fx="-72.3331" fy="871.1233" gradientTransform="matrix(0.5297 0.8482 1.3303 -0.8308 -1095.4489 1004.2681)" gradientUnits="userSpaceOnUse">
		<stop  offset="0.3854" style="stop-color:#F7FAFA"/>
		<stop  offset="0.5172" style="stop-color:#F6F5F6"/>
		<stop  offset="0.6717" style="stop-color:#F5E7EB"/>
		<stop  offset="0.8371" style="stop-color:#F2CFD8"/>
		<stop  offset="0.9993" style="stop-color:#EFB1BF"/>
	</radialGradient>
	<circle class="st1" cx="358" cy="358" r="358"/>
</g>
</svg>
