<?xml version="1.0" encoding="utf-8"?>
<!-- Generator: Adobe Illustrator 22.1.0, SVG Export Plug-In . SVG Version: 6.00 Build 0)  -->
<svg version="1.1" id="Layer_1" xmlns="http://www.w3.org/2000/svg" xmlns:xlink="http://www.w3.org/1999/xlink" x="0px" y="0px"
	 viewBox="0 0 373.1 373.1" style="enable-background:new 0 0 373.1 373.1;" xml:space="preserve">
<style type="text/css">
	.st0{opacity:0.85;fill:url(#SVGID_1_);}
</style>
<radialGradient id="SVGID_1_" cx="293.796" cy="60.6198" r="416.0909" gradientUnits="userSpaceOnUse">
	<stop  offset="0" style="stop-color:#FEB666"/>
	<stop  offset="1" style="stop-color:#F43C71"/>
</radialGradient>
<path class="st0" d="M174.6,0.4C82.9,6.1,7.4,80.6,0.5,172.3c-2.3,31.1,3,60.8,14.3,87.3c0,0,0,0,0,0c3.1,7.3,6.7,14.4,10.8,21.3
	c10.1,29.5,4,62.6-12.9,79.5c11.2,3.7,61.6-2.4,85.2-9.7c31.3,17,68.1,25.2,107,21.5c85.6-8.2,155.9-76.1,166.7-161.4
	C386.4,92.9,291.1-6.9,174.6,0.4z"/>
</svg>
