<?xml version="1.0" encoding="utf-8"?>
<!-- Generator: Adobe Illustrator 22.1.0, SVG Export Plug-In . SVG Version: 6.00 Build 0)  -->
<svg version="1.1" id="Layer_1" xmlns="http://www.w3.org/2000/svg" xmlns:xlink="http://www.w3.org/1999/xlink" x="0px" y="0px"
	 viewBox="0 0 353.5 353.5" style="enable-background:new 0 0 353.5 353.5;" xml:space="preserve">
<style type="text/css">
	.st0{opacity:0.85;fill:url(#SVGID_1_);}
</style>
<radialGradient id="SVGID_1_" cx="310.1783" cy="84.5304" r="409.7853" gradientUnits="userSpaceOnUse">
	<stop  offset="0" style="stop-color:#FF38BD"/>
	<stop  offset="1" style="stop-color:#E63556"/>
</radialGradient>
<path class="st0" d="M165.4,0.4C78.5,5.8,7,76.4,0.5,163.2c-2.2,29.5,2.9,57.6,13.6,82.7c0,0,0,0,0,0c3,7,6.4,13.7,10.2,20.1
	c9.6,27.9,3.8,59.3-12.2,75.3c10.6,3.5,58.4-2.2,80.7-9.1c29.7,16.1,64.5,23.9,101.4,20.4c81.1-7.8,147.7-72.1,157.9-153
	C366.1,88,275.8-6.5,165.4,0.4z"/>
</svg>
