<?xml version="1.0" encoding="utf-8"?>
<!-- Generator: Adobe Illustrator 22.1.0, SVG Export Plug-In . SVG Version: 6.00 Build 0)  -->
<svg version="1.1" id="Layer_1" xmlns="http://www.w3.org/2000/svg" xmlns:xlink="http://www.w3.org/1999/xlink" x="0px" y="0px"
	 viewBox="0 0 510.6 510.6" style="enable-background:new 0 0 510.6 510.6;" xml:space="preserve">
<style type="text/css">
	.st0{opacity:0.85;fill:url(#SVGID_1_);}
</style>
<radialGradient id="SVGID_1_" cx="389.8056" cy="57.323" r="549.3417" gradientUnits="userSpaceOnUse">
	<stop  offset="0" style="stop-color:#D7A2FF"/>
	<stop  offset="1" style="stop-color:#7EA8FF"/>
</radialGradient>
<path class="st0" d="M238.9,0.5C113.4,8.3,10.1,110.3,0.7,235.7c-3.2,42.6,4.1,83.2,19.6,119.5c0,0,0,0,0,0
	c4.3,10.1,9.2,19.8,14.7,29.1c13.8,40.3,5.5,85.7-17.6,108.8c15.3,5.1,84.3-3.2,116.6-13.2c42.9,23.2,93.2,34.5,146.4,29.4
	c117.1-11.2,213.4-104.2,228.1-220.9C528.8,127.1,398.4-9.4,238.9,0.5z"/>
</svg>
