<?xml version="1.0" encoding="utf-8"?>
<!-- Generator: Adobe Illustrator 22.1.0, SVG Export Plug-In . SVG Version: 6.00 Build 0)  -->
<svg version="1.1" id="Layer_1" xmlns="http://www.w3.org/2000/svg" xmlns:xlink="http://www.w3.org/1999/xlink" x="0px" y="0px"
	 viewBox="0 0 274.9 274.9" style="enable-background:new 0 0 274.9 274.9;" xml:space="preserve">
<style type="text/css">
	.st0{opacity:0.85;fill:url(#SVGID_1_);}
</style>
<radialGradient id="SVGID_1_" cx="72.877" cy="45.6046" r="221.0701" gradientUnits="userSpaceOnUse">
	<stop  offset="0" style="stop-color:#FFD249"/>
	<stop  offset="1" style="stop-color:#FFB156"/>
</radialGradient>
<path class="st0" d="M146.3,0.3c67.6,4.2,123.2,59.1,128.3,126.7c1.7,22.9-2.2,44.8-10.5,64.3c0,0,0,0,0,0c-2.3,5.4-5,10.6-7.9,15.7
	c-7.4,21.7-3,46.1,9.5,58.6c-8.2,2.7-45.4-1.7-62.8-7.1c-23.1,12.5-50.2,18.6-78.8,15.8c-63.1-6-114.9-56.1-122.8-119
	C-9.8,68.4,60.4-5.1,146.3,0.3z"/>
</svg>
