<?xml version="1.0" encoding="utf-8"?>
<!-- Generator: Adobe Illustrator 23.0.0, SVG Export Plug-In . SVG Version: 6.00 Build 0)  -->
<svg version="1.1" id="Layer_1" xmlns="http://www.w3.org/2000/svg" xmlns:xlink="http://www.w3.org/1999/xlink" x="0px" y="0px"
	 viewBox="0 0 372.4 372.4" style="enable-background:new 0 0 372.4 372.4;" xml:space="preserve">
<style type="text/css">
	.st0{fill:url(#SVGID_1_);}
	.st1{fill:url(#SVGID_2_);}
	.st2{fill:url(#SVGID_3_);}
	.st3{fill:url(#SVGID_4_);}
	.st4{fill:url(#SVGID_5_);}
	.st5{fill:url(#SVGID_6_);}
	.st6{fill:url(#SVGID_7_);}
	.st7{fill:url(#SVGID_8_);}
</style>
<g>
	
		<linearGradient id="SVGID_1_" gradientUnits="userSpaceOnUse" x1="145.1064" y1="-0.6909" x2="149.1064" y2="370.3091" gradientTransform="matrix(1 0 0 -1 0 371.8898)">
		<stop  offset="0" style="stop-color:#FFFFFF;stop-opacity:0.8"/>
		<stop  offset="1" style="stop-color:#FFFFFF;stop-opacity:0.3"/>
	</linearGradient>
	<polygon class="st0" points="118,215 175.2,253.1 175.2,220.8 141.9,198.8 	"/>
	
		<linearGradient id="SVGID_2_" gradientUnits="userSpaceOnUse" x1="144.2364" y1="-0.6815" x2="148.2364" y2="370.3185" gradientTransform="matrix(1 0 0 -1 0 371.8898)">
		<stop  offset="0" style="stop-color:#FFFFFF;stop-opacity:0.8"/>
		<stop  offset="1" style="stop-color:#FFFFFF;stop-opacity:0.3"/>
	</linearGradient>
	<polygon class="st1" points="175.2,150.1 175.2,118.5 118,156.6 141.8,172 	"/>
	
		<linearGradient id="SVGID_3_" gradientUnits="userSpaceOnUse" x1="223.2569" y1="-1.5335" x2="227.2569" y2="369.4665" gradientTransform="matrix(1 0 0 -1 0 371.8898)">
		<stop  offset="0" style="stop-color:#FFFFFF;stop-opacity:0.8"/>
		<stop  offset="1" style="stop-color:#FFFFFF;stop-opacity:0.3"/>
	</linearGradient>
	<polygon class="st2" points="254.4,156.6 197.2,118.5 197.2,150.1 230.5,172.8 	"/>
	
		<linearGradient id="SVGID_4_" gradientUnits="userSpaceOnUse" x1="183.786" y1="-1.1079" x2="187.786" y2="369.8921" gradientTransform="matrix(1 0 0 -1 0 371.8898)">
		<stop  offset="0" style="stop-color:#FFFFFF;stop-opacity:0.8"/>
		<stop  offset="1" style="stop-color:#FFFFFF;stop-opacity:0.3"/>
	</linearGradient>
	<polygon class="st3" points="185.8,170 161.9,186.2 185.8,202.4 209.7,186.2 	"/>
	
		<linearGradient id="SVGID_5_" gradientUnits="userSpaceOnUse" x1="113.894" y1="-0.3544" x2="117.894" y2="370.6456" gradientTransform="matrix(1 0 0 -1 0 371.8898)">
		<stop  offset="0" style="stop-color:#FFFFFF;stop-opacity:0.8"/>
		<stop  offset="1" style="stop-color:#FFFFFF;stop-opacity:0.3"/>
	</linearGradient>
	<polygon class="st4" points="109.3,176.9 109.3,194.8 122.6,186.2 	"/>
	
		<linearGradient id="SVGID_6_" gradientUnits="userSpaceOnUse" x1="184.186" y1="-1.1122" x2="188.186" y2="369.8878" gradientTransform="matrix(1 0 0 -1 0 371.8898)">
		<stop  offset="0" style="stop-color:#FFFFFF;stop-opacity:0.8"/>
		<stop  offset="1" style="stop-color:#FFFFFF;stop-opacity:0.3"/>
	</linearGradient>
	<path class="st5" d="M186.2,0C83.4,0,0,83.4,0,186.2s83.4,186.2,186.2,186.2S372.4,289,372.4,186.2S289,0,186.2,0z M285.1,217
		l-0.2,0.4c-0.3,0.6-0.8,1.5-49.3,34.9c-11.9,8.2-24.1,16.5-33.3,22.7c-15.6,10.6-15.7,10.6-16.5,10.6s-0.9,0-16.5-10.6
		c-9-6.1-21.1-14.3-33.2-22.6c-12.9-8.8-24.6-16.9-33.1-22.8c-15.8-11-15.8-11-15.8-12.2v-63.9l0.5-0.5c0.8-0.8,47-32,49-33.3
		c9.3-6.2,22.5-15.2,33.3-22.3C185.6,87,185.7,87,186.5,87s0.8,0,16.5,10.4c9,6,21.1,14.1,33.2,22.3c12.9,8.7,24.6,16.7,33.1,22.5
		c15.8,10.8,15.8,10.8,15.8,12.1L285.1,217L285.1,217z"/>
	
		<linearGradient id="SVGID_7_" gradientUnits="userSpaceOnUse" x1="254.4779" y1="-1.8701" x2="258.4779" y2="369.1299" gradientTransform="matrix(1 0 0 -1 0 371.8898)">
		<stop  offset="0" style="stop-color:#FFFFFF;stop-opacity:0.8"/>
		<stop  offset="1" style="stop-color:#FFFFFF;stop-opacity:0.3"/>
	</linearGradient>
	<polygon class="st6" points="263.1,195.5 263.1,177.6 249.8,186.2 	"/>
	
		<linearGradient id="SVGID_8_" gradientUnits="userSpaceOnUse" x1="224.1306" y1="-1.5429" x2="228.1306" y2="369.4571" gradientTransform="matrix(1 0 0 -1 0 371.8898)">
		<stop  offset="0" style="stop-color:#FFFFFF;stop-opacity:0.8"/>
		<stop  offset="1" style="stop-color:#FFFFFF;stop-opacity:0.3"/>
	</linearGradient>
	<polygon class="st7" points="197.2,221.5 197.2,253.1 254.4,215.7 230.5,199.6 	"/>
</g>
</svg>
