<?xml version="1.0" encoding="utf-8"?>
<!-- Generator: Adobe Illustrator 23.0.0, SVG Export Plug-In . SVG Version: 6.00 Build 0)  -->
<svg version="1.1" id="Capa_1" xmlns="http://www.w3.org/2000/svg" xmlns:xlink="http://www.w3.org/1999/xlink" x="0px" y="0px"
	 viewBox="0 0 372.4 372.4" style="enable-background:new 0 0 372.4 372.4;" xml:space="preserve">
<style type="text/css">
	.st0{fill:url(#SVGID_1_);}
	.st1{fill:url(#SVGID_2_);}
	.st2{fill:url(#SVGID_3_);}
	.st3{fill:url(#SVGID_4_);}
	.st4{fill:url(#SVGID_5_);}
	.st5{fill:url(#SVGID_6_);}
	.st6{fill:url(#SVGID_7_);}
</style>
<g>
	
		<linearGradient id="SVGID_1_" gradientUnits="userSpaceOnUse" x1="175.4193" y1="4.0431" x2="181.4193" y2="379.0431" gradientTransform="matrix(1 0 0 -1 0 371.8898)">
		<stop  offset="0" style="stop-color:#FFFFFF;stop-opacity:0.8"/>
		<stop  offset="1" style="stop-color:#FFFFFF;stop-opacity:0.3"/>
	</linearGradient>
	<path class="st0" d="M160.1,225c-6.5,5.9-12.1,12.8-16.7,20.4c13.1,8.9,27.9,13.6,42.8,13.6c7.5,0,14.3-1.5,21-2.9
		c1.4-0.3,2.7-0.6,4-0.9c-3.3-21-9-39-13.7-52.5C184.4,206.6,172.5,213.7,160.1,225z"/>
	
		<linearGradient id="SVGID_2_" gradientUnits="userSpaceOnUse" x1="144.5432" y1="4.5371" x2="150.5432" y2="379.5371" gradientTransform="matrix(1 0 0 -1 0 371.8898)">
		<stop  offset="0" style="stop-color:#FFFFFF;stop-opacity:0.8"/>
		<stop  offset="1" style="stop-color:#FFFFFF;stop-opacity:0.3"/>
	</linearGradient>
	<path class="st1" d="M178.9,160c-8.8-17.4-18.2-29.7-23.4-36.4c-0.6-0.8-1.1-1.5-1.6-2.1c-19,9.3-32.5,26-37.2,46.1h5.4
		C129.2,167.5,153.9,167,178.9,160z"/>
	
		<linearGradient id="SVGID_3_" gradientUnits="userSpaceOnUse" x1="197.2157" y1="3.6943" x2="203.2157" y2="378.6943" gradientTransform="matrix(1 0 0 -1 0 371.8898)">
		<stop  offset="0" style="stop-color:#FFFFFF;stop-opacity:0.8"/>
		<stop  offset="1" style="stop-color:#FFFFFF;stop-opacity:0.3"/>
	</linearGradient>
	<path class="st2" d="M230.5,129.2c-13-10.3-28.3-15.8-44.3-15.8c-4.8,0-9.2,0.6-14.4,2c6.1,7.8,15.1,20.5,24.1,38.6
		C211.4,147.1,222.5,139.2,230.5,129.2z"/>
	
		<linearGradient id="SVGID_4_" gradientUnits="userSpaceOnUse" x1="148.7885" y1="4.4691" x2="154.7885" y2="379.4691" gradientTransform="matrix(1 0 0 -1 0 371.8898)">
		<stop  offset="0" style="stop-color:#FFFFFF;stop-opacity:0.8"/>
		<stop  offset="1" style="stop-color:#FFFFFF;stop-opacity:0.3"/>
	</linearGradient>
	<path class="st3" d="M149,209.1c8.3-7.7,22.1-18,41-24.2c-0.8-2.7-2.1-5.4-3.4-8.1c-26.8,8-52.9,9.2-66.1,9.2h-7.1v0.1
		c0,15.7,5.6,31.9,15.7,45.7C135.7,222.8,142.2,215.4,149,209.1z"/>
	
		<linearGradient id="SVGID_5_" gradientUnits="userSpaceOnUse" x1="183.2916" y1="3.9171" x2="189.2916" y2="378.9171" gradientTransform="matrix(1 0 0 -1 0 371.8898)">
		<stop  offset="0" style="stop-color:#FFFFFF;stop-opacity:0.8"/>
		<stop  offset="1" style="stop-color:#FFFFFF;stop-opacity:0.3"/>
	</linearGradient>
	<path class="st4" d="M186.2,0C83.4,0,0,83.4,0,186.2s83.4,186.2,186.2,186.2S372.4,289,372.4,186.2S289,0,186.2,0z M186.2,280.7
		c-52.1,0-94.5-42.4-94.5-94.5s42.4-94.5,94.5-94.5s94.5,42.4,94.5,94.5S238.3,280.7,186.2,280.7z"/>
	
		<linearGradient id="SVGID_6_" gradientUnits="userSpaceOnUse" x1="233.5812" y1="3.1125" x2="239.5812" y2="378.1125" gradientTransform="matrix(1 0 0 -1 0 371.8898)">
		<stop  offset="0" style="stop-color:#FFFFFF;stop-opacity:0.8"/>
		<stop  offset="1" style="stop-color:#FFFFFF;stop-opacity:0.3"/>
	</linearGradient>
	<path class="st5" d="M215.3,197.7c5.4,17.2,9.5,32.4,12.8,47.5c15-10.8,25.4-26.8,29.2-45.2c-9.5-2-18.7-3-28.1-3
		C224.1,197.1,219.6,197.1,215.3,197.7z"/>
	
		<linearGradient id="SVGID_7_" gradientUnits="userSpaceOnUse" x1="228.908" y1="3.1872" x2="234.908" y2="378.1872" gradientTransform="matrix(1 0 0 -1 0 371.8898)">
		<stop  offset="0" style="stop-color:#FFFFFF;stop-opacity:0.8"/>
		<stop  offset="1" style="stop-color:#FFFFFF;stop-opacity:0.3"/>
	</linearGradient>
	<path class="st6" d="M205.1,169.4l4.2,10.6c6-0.7,12.9-1.5,20.7-1.5c10,0,19.3,0.9,28.9,3c-0.9-14.7-5.9-28-14.9-39.5
		C233.1,154.1,219.7,163.6,205.1,169.4z"/>
</g>
</svg>
