<?xml version="1.0" encoding="utf-8"?>
<!-- Generator: Adobe Illustrator 23.0.0, SVG Export Plug-In . SVG Version: 6.00 Build 0)  -->
<svg version="1.1" id="Layer_1" xmlns="http://www.w3.org/2000/svg" xmlns:xlink="http://www.w3.org/1999/xlink" x="0px" y="0px"
	 viewBox="0 0 372.4 372.4" style="enable-background:new 0 0 372.4 372.4;" xml:space="preserve">
<style type="text/css">
	.st0{fill:url(#SVGID_1_);}
	.st1{fill:url(#SVGID_2_);}
</style>
<g>
	
		<linearGradient id="SVGID_1_" gradientUnits="userSpaceOnUse" x1="190.1485" y1="-31.9751" x2="180.1485" y2="430.0249" gradientTransform="matrix(1 0 0 -1 0 371.8898)">
		<stop  offset="0" style="stop-color:#FFFFFF;stop-opacity:0.8"/>
		<stop  offset="1" style="stop-color:#FFFFFF;stop-opacity:0.3"/>
	</linearGradient>
	<path class="st0" d="M249.2,191c-13.6-12.5-36.6-5.9-62.7-5.9c-0.1,0-0.2,0-0.3,0s-0.2,0-0.3,0c-26.1,0-49.1-6.6-62.7,5.9
		c-8.1,7.5-11.6,16.5-11.6,26.2c0,40.6,32.5,45.6,74.2,45.6h0.6c41.7,0,74.2-5,74.2-45.6C260.8,207.5,257.3,198.4,249.2,191z
		 M151,240.5c-7.9,0-14.4-8.9-14.4-19.9s6.4-19.9,14.4-19.9c7.9,0,14.4,8.9,14.4,19.9S159,240.5,151,240.5z M221.4,240.5
		c-7.9,0-14.4-8.9-14.4-19.9s6.4-19.9,14.4-19.9c7.9,0,14.4,8.9,14.4,19.9C235.8,231.6,229.3,240.5,221.4,240.5z"/>
	
		<linearGradient id="SVGID_2_" gradientUnits="userSpaceOnUse" x1="190.911" y1="-31.9586" x2="180.911" y2="430.0414" gradientTransform="matrix(1 0 0 -1 0 371.8898)">
		<stop  offset="0" style="stop-color:#FFFFFF;stop-opacity:0.8"/>
		<stop  offset="1" style="stop-color:#FFFFFF;stop-opacity:0.3"/>
	</linearGradient>
	<path class="st1" d="M186.2,0C83.4,0,0,83.4,0,186.2s83.4,186.2,186.2,186.2S372.4,289,372.4,186.2S289,0,186.2,0z M205.4,272.5
		c-3.8,0-11.3,0-19.2,0s-15.4,0-19.2,0c-16.7,0-82.6-1.3-82.6-80.8c0-18.3,6.3-31.7,16.5-42.8c-1.6-4-1.7-27,7-49
		c0,0,20,2.2,50.4,23c6.4-1.8,17.1-2.6,27.9-2.6c10.8,0,21.5,0.9,27.9,2.6c30.3-20.8,50.4-23,50.4-23c8.7,22,8.7,44.9,7,49
		c10.3,11.1,16.5,24.5,16.5,42.8C288,271.2,222,272.5,205.4,272.5z"/>
</g>
</svg>
