<?xml version="1.0" encoding="utf-8"?>
<!-- Generator: Adobe Illustrator 23.0.0, SVG Export Plug-In . SVG Version: 6.00 Build 0)  -->
<svg version="1.1" id="Layer_1" xmlns="http://www.w3.org/2000/svg" xmlns:xlink="http://www.w3.org/1999/xlink" x="0px" y="0px"
	 viewBox="0 0 372.4 372.4" style="enable-background:new 0 0 372.4 372.4;" xml:space="preserve">
<style type="text/css">
	.st0{fill:url(#SVGID_1_);}
	.st1{fill:url(#SVGID_2_);}
	.st2{fill:url(#SVGID_3_);}
</style>
<g>
	
		<linearGradient id="SVGID_1_" gradientUnits="userSpaceOnUse" x1="187.5949" y1="-10.9886" x2="184.5949" y2="412.0112" gradientTransform="matrix(1 0 0 -1 0 371.8898)">
		<stop  offset="0" style="stop-color:#FFFFFF;stop-opacity:0.8"/>
		<stop  offset="1" style="stop-color:#FFFFFF;stop-opacity:0.3"/>
	</linearGradient>
	<path class="st0" d="M222.1,115.9h-71.8c-19,0-34.4,15.4-34.4,34.4v71.8c0,19,15.4,34.4,34.4,34.4h71.8c19,0,34.4-15.4,34.4-34.4
		v-71.8C256.5,131.3,241.1,115.9,222.1,115.9z M186.2,229.8c-24.1,0-43.6-19.6-43.6-43.6c0-24.1,19.6-43.6,43.6-43.6
		c24.1,0,43.6,19.6,43.6,43.6C229.8,210.3,210.3,229.8,186.2,229.8z M232.3,153.3c-6,0-10.9-4.9-10.9-10.9s4.9-10.9,10.9-10.9
		s10.9,4.9,10.9,10.9C243.1,148.5,238.3,153.3,232.3,153.3z"/>
	
		<linearGradient id="SVGID_2_" gradientUnits="userSpaceOnUse" x1="187.5949" y1="-10.9886" x2="184.5949" y2="412.0112" gradientTransform="matrix(1 0 0 -1 0 371.8898)">
		<stop  offset="0" style="stop-color:#FFFFFF;stop-opacity:0.8"/>
		<stop  offset="1" style="stop-color:#FFFFFF;stop-opacity:0.3"/>
	</linearGradient>
	<path class="st1" d="M186.2,164.1c-12.2,0-22.1,9.9-22.1,22.1c0,12.2,9.9,22.1,22.1,22.1c12.2,0,22.1-9.9,22.1-22.1
		S198.4,164.1,186.2,164.1z"/>
	
		<linearGradient id="SVGID_3_" gradientUnits="userSpaceOnUse" x1="187.5949" y1="-10.9886" x2="184.5949" y2="412.0112" gradientTransform="matrix(1 0 0 -1 0 371.8898)">
		<stop  offset="0" style="stop-color:#FFFFFF;stop-opacity:0.8"/>
		<stop  offset="1" style="stop-color:#FFFFFF;stop-opacity:0.3"/>
	</linearGradient>
	<path class="st2" d="M186.2,0C83.4,0,0,83.4,0,186.2s83.4,186.2,186.2,186.2S372.4,289,372.4,186.2S289,0,186.2,0z M283.1,222.1
		c0,33.6-27.4,61-61,61h-71.8c-33.6,0-61-27.4-61-61v-71.8c0-33.6,27.4-61,61-61h71.8c33.6,0,61,27.4,61,61V222.1z"/>
</g>
</svg>
