<?xml version="1.0" encoding="utf-8"?>
<!-- Generator: Adobe Illustrator 23.0.0, SVG Export Plug-In . SVG Version: 6.00 Build 0)  -->
<svg version="1.1" id="Layer_1" xmlns="http://www.w3.org/2000/svg" xmlns:xlink="http://www.w3.org/1999/xlink" x="0px" y="0px"
	 viewBox="0 0 372.4 372.4" style="enable-background:new 0 0 372.4 372.4;" xml:space="preserve">
<style type="text/css">
	.st0{fill:url(#SVGID_1_);}
</style>
<linearGradient id="SVGID_1_" gradientUnits="userSpaceOnUse" x1="188.9575" y1="-6.8717" x2="182.9574" y2="412.1283" gradientTransform="matrix(1 0 0 -1 0 371.8898)">
	<stop  offset="0" style="stop-color:#FFFFFF;stop-opacity:0.8"/>
	<stop  offset="1" style="stop-color:#FFFFFF;stop-opacity:0.3"/>
</linearGradient>
<path class="st0" d="M186.2,0C83.4,0,0,83.4,0,186.2s83.4,186.2,186.2,186.2S372.4,289,372.4,186.2S289,0,186.2,0z M123.7,77.4
	c10.7,0,19.3,8.7,19.3,19.3c0,10.7-8.7,19.3-19.3,19.3c-10.7,0-19.3-8.7-19.3-19.3C104.4,86,113.1,77.4,123.7,77.4z M143.9,254
	h-39.5V132.6h39.5V254z M281.1,254h-39.5c0,0,0-50,0-77.3c-12.6-30.5-42.5,11-42.5,11V254h-39.5V132.6h39.5v23.2
	c4.8-6.5,19.4-23.2,42.5-23.2c2.7,0,5,0.3,7.1,0.7c0.5,0.1,1.1,0.2,1.6,0.3c0.4,0.1,0.8,0.3,1.3,0.4c17,4.4,29.5,19.7,29.5,38.1
	L281.1,254L281.1,254z"/>
</svg>
