<?xml version="1.0" encoding="utf-8"?>
<!-- Generator: Adobe Illustrator 23.0.0, SVG Export Plug-In . SVG Version: 6.00 Build 0)  -->
<svg version="1.1" id="Layer_1" xmlns="http://www.w3.org/2000/svg" xmlns:xlink="http://www.w3.org/1999/xlink" x="0px" y="0px"
	 viewBox="0 0 372.4 372.4" style="enable-background:new 0 0 372.4 372.4;" xml:space="preserve">
<style type="text/css">
	.st0{fill:url(#SVGID_1_);}
</style>
<linearGradient id="SVGID_1_" gradientUnits="userSpaceOnUse" x1="187.7266" y1="368.8837" x2="184.7266" y2="9.8837">
	<stop  offset="0" style="stop-color:#FFFFFF;stop-opacity:0.8"/>
	<stop  offset="1" style="stop-color:#FFFFFF;stop-opacity:0.3"/>
</linearGradient>
<path class="st0" d="M186.2,0C83.4,0,0,83.4,0,186.2s83.4,186.2,186.2,186.2S372.4,289,372.4,186.2S289,0,186.2,0z M267.1,149.8
	c0.1,1.7,0.1,3.4,0.1,5.1c0,52.4-39.9,112.9-112.9,112.9c-22.5,0-43.3-6.5-60.8-17.8c3.1,0.4,6.2,0.5,9.5,0.5
	c18.5,0,35.7-6.4,49.2-16.9c-17.3-0.4-31.9-11.9-37.1-27.6c2.4,0.5,5,0.7,7.5,0.7c3.7,0,7.2-0.4,10.4-1.3c-18-3.7-31.8-19.7-31.8-39
	c0-0.2,0-0.3,0-0.4c5.3,2.9,11.5,4.8,17.9,4.9c-10.5-7-17.6-19.2-17.6-33c0-7.3,2-14.1,5.4-20c19.6,24.1,48.8,39.9,81.7,41.5
	c-0.7-2.9-0.9-5.9-0.9-9c0-21.8,17.7-39.7,39.6-39.7c11.3,0,21.7,4.8,29,12.6c9-1.8,17.5-5,25.1-9.6c-3,9.3-9.2,17-17.4,21.9
	c8-1,15.7-3.1,22.9-6.3C281.5,137.2,274.9,144.2,267.1,149.8z"/>
</svg>
