<?xml version="1.0" encoding="utf-8"?>
<!-- Generator: Adobe Illustrator 22.1.0, SVG Export Plug-In . SVG Version: 6.00 Build 0)  -->
<svg version="1.1" id="Layer_1" xmlns="http://www.w3.org/2000/svg" xmlns:xlink="http://www.w3.org/1999/xlink" x="0px" y="0px"
	 viewBox="0 0 290.5 290.5" style="enable-background:new 0 0 290.5 290.5;" xml:space="preserve">
<style type="text/css">
	.st0{fill:#9593CF;}
</style>
<g>
	<path class="st0" d="M174.3,172.3c0.5,0,0.9-0.4,0.9-0.9s-0.4-0.9-0.9-0.9h-3l-1-2.1h3.9c0.5,0,0.9-0.4,0.9-0.9s-0.4-0.9-0.9-0.9
		h-4.8L159,144.1l5.9-5.9c0.3-0.3,0.3-0.9,0-1.3c-0.3-0.3-0.9-0.3-1.3,0l-5.4,5.4l-1.2-2.6l5.6-5.6c0.3-0.3,0.3-0.9,0-1.3
		c-0.3-0.3-0.9-0.3-1.3,0l-5.1,5.1l-9.9-21.1l3.4-7.3c0.2-0.4,0-1-0.4-1.2s-1,0-1.2,0.4l-2.8,5.9l-2.8-5.9c-0.2-0.4-0.7-0.6-1.2-0.4
		c-0.4,0.2-0.6,0.7-0.4,1.2l3.4,7.3l-10,21.4l-5.5-5.5c-0.3-0.3-0.9-0.3-1.3,0c-0.3,0.3-0.3,0.9,0,1.3l5.9,5.9l-1.1,2.3l-5.4-5.4
		c-0.3-0.3-0.9-0.3-1.3,0c-0.3,0.3-0.3,0.9,0,1.3l5.9,5.9L121,166.7h-4.9c-0.5,0-0.9,0.4-0.9,0.9s0.4,0.9,0.9,0.9h4.1l-1,2.1h-3.1
		c-0.5,0-0.9,0.4-0.9,0.9s0.4,0.9,0.9,0.9h2.3l-3.7,7.8h20.8l9.8-9.8l9.8,9.8h20.8l-3.7-7.8L174.3,172.3L174.3,172.3z M145.3,119
		l9.5,20.3l-9.7,9.7l-9.4-9.4L145.3,119z M145.1,151.6l10.5-10.5l1.2,2.6l-11.5,11.5l-11.5-11.5l1.1-2.3L145.1,151.6z M134.8,178.4
		h-17.3l2.8-6h4.8c0.5,0,0.9-0.4,0.9-0.9s-0.4-0.9-0.9-0.9h-4l1-2.1h3c0.5,0,0.9-0.4,0.9-0.9s-0.4-0.9-0.9-0.9H123l10-21.3
		l11.1,11.1l-6.3,6.3l6.3,6.3L134.8,178.4z M145.3,157.8l5,5l-5,5l-5-5L145.3,157.8z M173.1,178.4h-17.3l-9.3-9.3l6.3-6.3l-6.3-6.3
		l11.1-11.1l10,21.3h-2.3c-0.5,0-0.9,0.4-0.9,0.9s0.4,0.9,0.9,0.9h3.2l1,2.1h-4.1c-0.5,0-0.9,0.4-0.9,0.9s0.4,0.9,0.9,0.9h5
		L173.1,178.4z"/>
</g>
</svg>
