<?xml version="1.0" encoding="utf-8"?>
<!-- Generator: Adobe Illustrator 22.1.0, SVG Export Plug-In . SVG Version: 6.00 Build 0)  -->
<svg version="1.1" id="Layer_1" xmlns="http://www.w3.org/2000/svg" xmlns:xlink="http://www.w3.org/1999/xlink" x="0px" y="0px"
	 viewBox="0 0 97.3 140.2" style="enable-background:new 0 0 97.3 140.2;" xml:space="preserve">
<style type="text/css">
	.st0{fill:url(#SVGID_1_);}
	.st1{fill:url(#SVGID_2_);}
</style>
<linearGradient id="SVGID_1_" gradientUnits="userSpaceOnUse" x1="-14.1216" y1="137.4921" x2="109.4794" y2="13.8912" gradientTransform="matrix(1 0 0 -1 0 142)">
	<stop  offset="0" style="stop-color:#00DAB1"/>
	<stop  offset="1" style="stop-color:#00DAD7"/>
</linearGradient>
<path class="st0" d="M80.9,4.6c0-0.4,0.3-0.6,0.6-0.6h9.8c0.4,0,0.6,0.3,0.6,0.6v30.2c0,0.2-0.3,0.3-0.4,0.1
	c-2.3-4.6-5.2-8.7-8.5-12.2l0,0l0,0l0,0l0,0l0,0l0,0c-0.7-0.7-1.4-1.4-2-1.9c0,0-0.1-0.1-0.1-0.1v-7.9V4.6z M43.8,67.8v-9.7
	c0-0.4,0.3-0.6,0.6-0.6h8.4c0.4,0,0.6,0.3,0.6,0.6v9.7V70c0,1.4-1.2,2.6-2.6,2.6h-4.5c-1.4,0-2.6-1.2-2.6-2.6v-2.2H43.8z M52.9,53.5
	h-8.4c-2.6,0-4.6,2.1-4.6,4.6v7.5c0,0.1-0.1,0.2-0.2,0.2H29.2c-6.3,0-11.4-5.1-11.4-11.4v-3V25.1c0-0.1,0-0.1,0.1-0.1
	c0.7-0.6,1.3-1.3,1.9-1.8c3.3-2.7,6.6-4.5,10.1-5.1l0,0c1-0.2,2-0.3,3-0.3h31.6c1,0,2,0.1,3,0.3l0,0c3.4,0.6,6.8,2.4,10.1,5.1
	c0.7,0.6,1.4,1.2,1.9,1.8c0,0,0.1,0.1,0.1,0.1v26.3v3c0,6.3-5.1,11.4-11.4,11.4H57.7c-0.1,0-0.2-0.1-0.2-0.2v-7.5
	C57.5,55.6,55.5,53.5,52.9,53.5z M37.4,8.6h22.5c2.6,0,4.9,2.5,5.7,5.1c-0.4,0-0.7-0.1-1.1-0.1H32.9c-0.4,0-0.7,0-1.1,0.1
	C32.6,11.2,34.8,8.6,37.4,8.6z M6.3,4h9.6c0.4,0,0.6,0.3,0.6,0.6v8.1v7.9c0,0.1,0,0.1-0.1,0.1c-0.7,0.7-1.5,1.3-2,1.9l0,0l0,0l0,0
	l0,0l0,0l0,0c-3.3,3.4-6.2,7.6-8.5,12.2c-0.1,0.2-0.4,0.1-0.4-0.1v-30C5.5,4.4,5.9,4,6.3,4z M0,83.8 M17.1,140.2h63.1
	c8.7,0,17.1-7.2,17.1-16.9l0-66.5c0-3.2-0.5-6.6-1.4-10.2c0,0,0,0,0,0v-42C95.9,2,93.8,0,91.3,0h-9.8c-2.6,0-4.6,2.1-4.6,4.6v8.1
	v4.5c0,0.2-0.2,0.2-0.3,0.2c-2.2-1.4-4.5-2.4-6.8-3c0-0.1,0-0.1,0-0.2c-0.6-4.6-4.6-9.6-9.8-9.6H37.4c-5.3,0-9.2,5-9.8,9.6
	c0,0.1,0,0.1,0,0.2c-2.3,0.6-4.6,1.6-6.8,3c-0.1,0.1-0.3,0-0.3-0.2v-4.5V4.6C20.5,2,18.4,0,15.9,0H6.1C3.5,0,1.5,2.1,1.5,4.6v41.9
	c0,0,0,0,0,0c-0.9,3.6-1.4,7-1.4,10.2L0,123.4C0,128.7,3.8,140.2,17.1,140.2z M80.2,136.4h-63c-4.6,0-8.9-2.5-11.3-6.5
	c-1.2-2-1.8-4.3-1.8-6.5V81.5V56.8c0-2.9,0.4-6.1,1.3-9.5l0,0c1.5-6.1,4.4-12.2,8-17.2c0.1-0.2,0.4-0.1,0.4,0.1v21.1v3
	c0,8.5,6.9,15.4,15.4,15.4h10.4c0.1,0,0.2,0.1,0.2,0.2v0c0,3.6,3,6.6,6.6,6.6h4.5c3.6,0,6.6-3,6.6-6.6v0c0-0.1,0.1-0.2,0.2-0.2h10.4
	c8.5,0,15.4-6.9,15.4-15.4v-3V30.2c0-0.2,0.3-0.3,0.4-0.1c3.6,5,6.5,11.1,8,17.2l0,0c0.9,3.4,1.3,6.6,1.3,9.5v24.7v41.8
	c0,2.3-0.6,4.5-1.8,6.5C89.2,133.9,84.8,136.4,80.2,136.4z"/>
<linearGradient id="SVGID_2_" gradientUnits="userSpaceOnUse" x1="-28.3689" y1="123.8688" x2="100.8209" y2="-5.3209" gradientTransform="matrix(1 0 0 -1 0 142)">
	<stop  offset="0" style="stop-color:#00DAB1"/>
	<stop  offset="1" style="stop-color:#00DAD7"/>
</linearGradient>
<path class="st1" d="M76.1,93.2H21.3c-1.1,0-2,0.9-2,2s0.9,2,2,2h54.8c1.1,0,2-0.9,2-2S77.2,93.2,76.1,93.2z"/>
</svg>
