<?xml version="1.0" encoding="utf-8"?>
<!-- Generator: Adobe Illustrator 22.1.0, SVG Export Plug-In . SVG Version: 6.00 Build 0)  -->
<svg version="1.1" xmlns="http://www.w3.org/2000/svg" xmlns:xlink="http://www.w3.org/1999/xlink" x="0px" y="0px"
	 viewBox="0 0 355.8 97.6" style="enable-background:new 0 0 355.8 97.6;" xml:space="preserve">
<style type="text/css">
	.st0{fill:#FDFEFF;}
	.st1{fill:#FFFFFF;}
</style>
<g id="Layer_2">
</g>
<g id="Layer_3">
	<g>
		<path class="st0" d="M46.8,42.5h-2.3c-0.8,0-1.5,0.7-1.5,1.5s0.7,1.5,1.5,1.5h2.3v19.2c0,0.8,0.7,1.5,1.5,1.5s1.5-0.7,1.5-1.5
			V45.5H53c0.8,0,1.5-0.7,1.5-1.5s-0.7-1.5-1.5-1.5h-3.2v-2.9l1.2-1.2h7c0.8,0,1.5-0.7,1.5-1.5s-0.7-1.5-1.5-1.5h-8.2l-2.9,2.9V42.5
			z"/>
		<path class="st0" d="M97.6,42.6l-2.1-2.1l-6.2,6.2L50.9,8.3l6.2-6.2L55,0l-6.2,6.2L42.6,0l-2.1,2.1l6.2,6.2L8.3,46.7l-6.2-6.2
			L0,42.6l6.2,6.2l0,0L0,54.9l2.1,2.1l6.2-6.2l38.4,38.4l-6.2,6.2l2.1,2.1l6.2-6.2l6.2,6.2l2.1-2.1l-6.2-6.2l38.4-38.4l6.2,6.2
			l2.1-2.1l-6.2-6.2L97.6,42.6z M48.8,87.2L10.4,48.8l38.4-38.4l38.4,38.4L48.8,87.2z"/>
	</g>
	<g>
		<path class="st1" d="M226.7,42.6l-2.1-2.1l-6.2,6.2L180,8.3l6.2-6.2L184.1,0l-6.2,6.2L171.8,0l-2.1,2.1l6.2,6.2l-38.4,38.4
			l-6.2-6.2l-2.1,2.1l6.2,6.2l0,0l-6.2,6.2l2.1,2.1l6.2-6.2l38.4,38.4l-6.2,6.2l2.1,2.1l6.2-6.2l6.2,6.2l2.1-2.1l-6.2-6.2l38.4-38.4
			l6.2,6.2l2.1-2.1l-6.2-6.2L226.7,42.6z M177.9,87.2l-38.4-38.4l38.4-38.4l38.4,38.4L177.9,87.2z"/>
		<polygon class="st1" points="177.7,33.6 174.7,33.6 174.7,58.2 177.5,61 183.7,61 183.7,58 178.7,58 177.7,57 177.7,47.3 
			183.7,47.3 183.7,44.3 177.7,44.3 		"/>
	</g>
	<g>
		<path class="st1" d="M355.8,42.6l-2.1-2.1l-6.2,6.2L309.2,8.3l6.2-6.2L313.2,0L307,6.2L300.9,0l-2.1,2.1l6.2,6.2l-38.4,38.4
			l-6.2-6.2l-2.1,2.1l6.2,6.2l-6.2,6.2l2.1,2.1l6.2-6.2l38.4,38.4l-6.2,6.2l2.1,2.1l6.2-6.2l6.2,6.2l2.1-2.1l-6.2-6.2l38.4-38.4
			l6.2,6.2l2.1-2.1l-6.2-6.2L355.8,42.6z M307,87.2l-38.4-38.4L307,10.4l38.4,38.4L307,87.2z"/>
		<path class="st1" d="M295.5,47.2l1.4,8.2l6.4,5.4h8.3l6.4-5.4l1.4-8.2l-4.2-7.2l-7.8-2.8l-7.8,2.8L295.5,47.2z M307.5,40.3
			l5.8,2.1l3.1,5.3l-1.1,6.1l-4.7,4h-6.1l-4.7-3.9l-1.1-6.1l3.1-5.3L307.5,40.3z"/>
		<polygon class="st1" points="319.5,37.8 321.3,37.8 322.7,36.6 323,34.8 322.1,33.3 320.4,32.6 318.7,33.3 317.8,34.8 318.1,36.6 
					"/>
	</g>
</g>
</svg>
