<?xml version="1.0" encoding="utf-8"?>
<!-- Generator: Adobe Illustrator 22.1.0, SVG Export Plug-In . SVG Version: 6.00 Build 0)  -->
<svg version="1.1" id="Layer_1" xmlns="http://www.w3.org/2000/svg" xmlns:xlink="http://www.w3.org/1999/xlink" x="0px" y="0px"
	 viewBox="0 0 112.5 76.9" style="enable-background:new 0 0 112.5 76.9;" xml:space="preserve">
<style type="text/css">
	.st0{fill:#9593CF;}
</style>
<g>
	<path class="st0" d="M89.6,42l-9.7,7.9L45.6,0L0,76.9h112.5L89.6,42z M107.1,73.8H55.8l24.7-20.5l0,0l8.4-6.9L107.1,73.8z
		 M45.8,5.6l12.4,18l-4.8-1l-6.1,2.9l-4.8-4l-10,6.5L45.8,5.6z M29.2,33.5c0.2,0,0.5-0.1,0.7-0.2l12.3-8.1l4.6,3.8l6.9-3.3l6.9,1.4
		l16.9,24.6L51,73.7L5.3,73.8L29.2,33.5z"/>
	<path class="st0" d="M84,22.5c4.5-0.1,8.2-3.8,8.1-8.4S88.3,6,83.7,6c-4.5,0.1-8.2,3.8-8.1,8.4S79.4,22.6,84,22.5z M83.8,8.5
		c3.2,0,5.8,2.5,5.8,5.7S87.1,20,83.9,20s-5.8-2.5-5.8-5.7S80.6,8.6,83.8,8.5z"/>
</g>
</svg>
