<?xml version="1.0" encoding="utf-8"?>
<!-- Generator: Adobe Illustrator 22.1.0, SVG Export Plug-In . SVG Version: 6.00 Build 0)  -->
<svg version="1.1" id="Layer_1" xmlns="http://www.w3.org/2000/svg" xmlns:xlink="http://www.w3.org/1999/xlink" x="0px" y="0px"
	 viewBox="0 0 8.5 31.4" style="enable-background:new 0 0 8.5 31.4;" xml:space="preserve">
<style type="text/css">
	.st0{fill:url(#SVGID_1_);}
</style>
<g>
	
		<linearGradient id="SVGID_1_" gradientUnits="userSpaceOnUse" x1="-85.1312" y1="-45.6688" x2="39.9947" y2="79.4572" gradientTransform="matrix(1 0 0 -1 0 62)">
		<stop  offset="0" style="stop-color:#00DAB1"/>
		<stop  offset="1" style="stop-color:#00DAD7"/>
	</linearGradient>
	<path class="st0" d="M6.8,31.4c-0.9,0-1.7-0.8-1.7-1.7c0-0.8-0.5-1.2-1.8-2.1c-1.4-1-3.3-2.3-3.3-4.9c0-2.7,1.9-4,3.3-4.9
		c1.3-0.9,1.8-1.3,1.8-2.1c0-0.8-0.5-1.2-1.8-2.1C1.9,12.6,0,11.3,0,8.7s1.9-4,3.3-4.9c1.3-0.9,1.8-1.3,1.8-2.1C5.1,0.8,5.9,0,6.8,0
		s1.7,0.8,1.7,1.7c0,2.7-1.9,4-3.3,4.9C3.9,7.5,3.4,7.9,3.4,8.7c0,0.8,0.5,1.2,1.8,2.1c1.4,1,3.3,2.3,3.3,4.9c0,2.7-1.9,4-3.3,4.9
		c-1.3,0.9-1.8,1.3-1.8,2.1s0.5,1.2,1.8,2.1c1.4,1,3.3,2.3,3.3,4.9C8.5,30.7,7.8,31.4,6.8,31.4z"/>
</g>
</svg>
