<?xml version="1.0" encoding="utf-8"?>
<!-- Generator: Adobe Illustrator 22.1.0, SVG Export Plug-In . SVG Version: 6.00 Build 0)  -->
<svg version="1.1" id="Layer_1" xmlns="http://www.w3.org/2000/svg" xmlns:xlink="http://www.w3.org/1999/xlink" x="0px" y="0px"
	 viewBox="0 0 290.5 290.5" style="enable-background:new 0 0 290.5 290.5;" xml:space="preserve">
<style type="text/css">
	.st0{fill:#9593CF;}
</style>
<g>
	<path class="st0" d="M204,86.6c0.2,0.2,0.5,0.5,0.7,0.7l-1.1,1.1c-0.2-0.2-0.4-0.4-0.7-0.7l-0.7-0.7l1.1-1.1L204,86.6z M206,88.8
		c0.5,0.5,0.8,1,1.3,1.5l-1.1,1c-0.5-0.5-0.8-1-1.3-1.5L206,88.8z M201.8,84.5l-1,1.1c-0.5-0.5-1-0.8-1.5-1.3l1-1.1
		C200.8,83.6,201.3,84,201.8,84.5z M208.8,91.8c0.4,0.6,0.8,1,1.3,1.6l-1.2,0.9c-0.4-0.6-0.8-1-1.3-1.6L208.8,91.8z M198.7,81.8
		l-1,1.1c-0.6-0.4-1-0.8-1.6-1.3l0.9-1.2C197.7,80.9,198.2,81.4,198.7,81.8z M211.3,94.9c0.4,0.6,0.8,1.1,1.2,1.6l-1.2,0.9
		c-0.4-0.6-0.8-1.1-1.2-1.6L211.3,94.9z M195.6,79.2l-0.9,1.2c-0.6-0.4-1.1-0.8-1.6-1.2L194,78C194.6,78.5,195.1,78.9,195.6,79.2z
		 M213.6,98.3c0.4,0.6,0.8,1.1,1.1,1.7l-1.3,0.8c-0.4-0.5-0.7-1.1-1.1-1.6L213.6,98.3z M192.3,76.9l-0.8,1.3
		c-0.6-0.4-1.1-0.8-1.6-1.1l0.8-1.3C191.2,76.1,191.8,76.6,192.3,76.9z M215.8,101.6c0.4,0.6,0.7,1.1,1.1,1.8l-1.3,0.8
		c-0.3-0.6-0.7-1.1-1-1.7L215.8,101.6z M189,74.7l-0.8,1.3c-0.6-0.3-1.1-0.7-1.7-1l0.8-1.3C187.8,74,188.3,74.4,189,74.7z
		 M217.9,105.1c0.3,0.6,0.6,1.2,0.9,1.8l-1.3,0.7c-0.3-0.6-0.6-1.2-0.9-1.8L217.9,105.1z M185.5,72.7l-0.7,1.3
		c-0.6-0.3-1.2-0.6-1.8-0.9l0.7-1.3C184.3,72,184.9,72.3,185.5,72.7z M219.8,108.7c0.3,0.6,0.6,1.2,0.8,1.8l-1.3,0.6
		c-0.3-0.6-0.5-1.2-0.8-1.8L219.8,108.7z M181.9,70.8l-0.6,1.3c-0.6-0.3-1.1-0.6-1.8-0.8l0.6-1.3C180.7,70.3,181.3,70.5,181.9,70.8z
		 M221.5,112.3c0.3,0.6,0.6,1.3,0.8,1.9l-1.4,0.6c-0.2-0.6-0.5-1.2-0.7-1.8L221.5,112.3z M178.2,69.1l-0.6,1.4
		c-0.6-0.3-1.2-0.5-1.8-0.7l0.6-1.4C177,68.6,177.6,68.8,178.2,69.1z M223,116.1c0.2,0.6,0.4,1.3,0.6,1.9l-1.4,0.4
		c-0.2-0.6-0.4-1.3-0.7-1.8L223,116.1z M174.5,67.6l-0.6,1.4c-0.6-0.2-1.3-0.4-1.8-0.7l0.4-1.4C173.2,67.2,173.8,67.4,174.5,67.6z
		 M170.6,66.3l-0.4,1.4c-0.6-0.2-1.3-0.4-1.8-0.6l0.4-1.4C169.4,65.9,170,66.1,170.6,66.3z M224.2,119.9c0.2,0.6,0.4,1.3,0.6,1.9
		l-1.4,0.4c-0.2-0.6-0.4-1.3-0.6-1.9L224.2,119.9z M166.8,65.2l-0.4,1.5c-0.6-0.2-1.3-0.3-1.9-0.5l0.4-1.5
		C165.5,64.8,166.2,65,166.8,65.2z M225.5,123.8c0.2,0.6,0.4,1.3,0.5,1.9l-1.5,0.4c-0.2-0.6-0.3-1.3-0.5-1.9L225.5,123.8z
		 M162.9,64.2l-0.4,1.5c-0.7-0.1-1.3-0.3-2-0.4l0.3-1.4C161.6,63.9,162.2,64.1,162.9,64.2z M226.4,127.7c0.1,0.7,0.3,1.3,0.4,2
		l-1.4,0.3c-0.1-0.6-0.3-1.3-0.4-2L226.4,127.7z M158.9,63.5l-0.2,1.5c-0.6-0.1-1.3-0.2-2-0.3l0.2-1.5
		C157.6,63.3,158.3,63.4,158.9,63.5z M227.1,131.7c0.1,0.6,0.2,1.3,0.3,2l-1.5,0.2c-0.1-0.6-0.2-1.3-0.3-2L227.1,131.7z M155,62.9
		l-0.2,1.5c-0.6-0.1-1.3-0.1-1.9-0.2l0.1-1.6C153.6,62.7,154.3,62.8,155,62.9z M227.7,135.7c0.1,0.6,0.1,1.3,0.2,2.1l-1.6,0.1
		c-0.1-0.6-0.1-1.3-0.1-2L227.7,135.7z M150.9,62.6l-0.1,1.5c-0.6-0.1-1.3-0.1-2-0.1l0.1-1.5C149.6,62.5,150.3,62.5,150.9,62.6z
		 M228.1,139.7c0.1,0.6,0.1,1.3,0.1,2l-1.5,0.1c-0.1-0.6-0.1-1.3-0.1-2L228.1,139.7z M146.9,62.3l-0.1,1.5c-0.7,0-1.3,0-2,0v-1.6
		C145.5,62.3,146.2,62.3,146.9,62.3z M228.3,143.7c0,0.7,0.1,1.3,0,2h-1.6c0-0.7,0-1.3,0-2L228.3,143.7z M142.9,62.4l0.1,1.5
		c-0.7,0-1.3,0.1-2,0.1l-0.1-1.5C141.5,62.5,142.2,62.4,142.9,62.4z M228.2,147.8c0,0.7-0.1,1.3-0.1,2.1l-1.5-0.1
		c0.1-0.6,0.1-1.3,0.1-2H228.2z M138.8,62.6l0.1,1.5c-0.6,0.1-1.3,0.1-2,0.1l-0.2-1.5C137.5,62.7,138.1,62.6,138.8,62.6z M228,151.8
		c-0.1,0.6-0.1,1.3-0.2,2.1l-1.5-0.2c0.1-0.6,0.1-1.3,0.1-2L228,151.8z M134.8,63l0.2,1.5c-0.6,0.1-1.3,0.2-2,0.3l-0.2-1.5
		C133.5,63.2,134.2,63,134.8,63z M227.6,155.9c-0.1,0.6-0.2,1.3-0.3,2l-1.5-0.2c0.1-0.6,0.2-1.3,0.3-2L227.6,155.9z M130.8,63.6
		l0.2,1.5c-0.6,0.1-1.3,0.2-1.9,0.4l-0.3-1.4C129.5,63.9,130.1,63.7,130.8,63.6z M227,159.9c-0.1,0.7-0.2,1.3-0.4,2l-1.4-0.3
		c0.1-0.6,0.3-1.3,0.4-1.9L227,159.9z M126.9,64.4l0.4,1.5c-0.7,0.1-1.3,0.3-1.9,0.5l-0.4-1.5C125.5,64.7,126.2,64.5,126.9,64.4z
		 M226.2,163.8c-0.1,0.7-0.3,1.3-0.4,2l-1.5-0.4c0.2-0.6,0.3-1.3,0.5-1.9L226.2,163.8z M122.9,65.4l0.4,1.4
		c-0.6,0.2-1.3,0.4-1.9,0.5l-0.4-1.4C121.6,65.8,122.3,65.6,122.9,65.4z M225.2,167.6c-0.2,0.6-0.4,1.3-0.6,2l-1.4-0.4
		c0.2-0.6,0.4-1.3,0.6-1.8L225.2,167.6z M224,171.5c-0.2,0.6-0.4,1.3-0.6,1.9l-1.4-0.6c0.2-0.6,0.4-1.3,0.6-1.9L224,171.5z
		 M119,66.6l0.4,1.4c-0.6,0.2-1.3,0.4-1.9,0.6l-0.6-1.4C117.8,67,118.4,66.8,119,66.6z M222.6,175.3c-0.2,0.6-0.5,1.2-0.8,1.9
		l-1.4-0.6c0.2-0.6,0.5-1.2,0.7-1.8L222.6,175.3z M115.3,67.9l0.6,1.4c-0.6,0.2-1.2,0.5-1.8,0.7l-0.6-1.4
		C114,68.5,114.6,68.2,115.3,67.9z M221.1,179.1c-0.3,0.6-0.6,1.3-0.8,1.8l-1.3-0.6c0.3-0.6,0.5-1.2,0.8-1.8L221.1,179.1z
		 M111.5,69.6l0.6,1.3c-0.6,0.3-1.2,0.5-1.8,0.8l-0.6-1.3C110.3,70.1,110.9,69.8,111.5,69.6z M219.3,182.7c-0.3,0.6-0.6,1.2-0.9,1.8
		l-1.3-0.7c0.3-0.6,0.6-1.2,0.9-1.8L219.3,182.7z M107.9,71.3l0.6,1.3c-0.6,0.3-1.2,0.6-1.8,0.9l-0.7-1.3
		C106.7,71.9,107.3,71.5,107.9,71.3z M217.5,186.2c-0.3,0.6-0.7,1.1-1.1,1.8l-1.3-0.8c0.3-0.6,0.7-1.1,1-1.7L217.5,186.2z
		 M104.3,73.2l0.7,1.3c-0.6,0.3-1.1,0.7-1.7,1l-0.8-1.3C103.1,73.9,103.8,73.5,104.3,73.2z M215.4,189.7c-0.4,0.6-0.7,1.1-1.1,1.7
		l-1.3-0.8c0.4-0.5,0.7-1.1,1.1-1.6L215.4,189.7z M100.9,75.3l0.8,1.3c-0.5,0.4-1.1,0.7-1.6,1.1l-0.8-1.3
		C99.7,76,100.2,75.6,100.9,75.3z M213.1,193c-0.4,0.6-0.8,1.1-1.2,1.6l-1.2-0.9c0.4-0.6,0.8-1.1,1.2-1.6L213.1,193z M97.5,77.5
		l0.8,1.3c-0.6,0.4-1.1,0.8-1.6,1.2l-0.9-1.2C96.4,78.3,97,77.9,97.5,77.5z M210.7,196.3c-0.4,0.6-0.8,1.1-1.3,1.6l-1.1-1
		c0.4-0.6,0.8-1,1.3-1.6L210.7,196.3z M94.2,79.9l0.9,1.2c-0.6,0.4-1.1,0.8-1.6,1.3l-1-1.1C93.2,80.8,93.7,80.3,94.2,79.9z
		 M208.1,199.4c-0.5,0.5-0.8,1-1.3,1.5l-1.1-1c0.5-0.5,0.8-1,1.3-1.5L208.1,199.4z M91.1,82.5l1,1.1c-0.5,0.5-1,0.8-1.5,1.3l-1-1.1
		C90.1,83.3,90.7,82.9,91.1,82.5z M205.4,202.3c-0.5,0.5-0.9,0.9-1.4,1.4l-1.1-1.1c0.5-0.5,0.9-0.9,1.4-1.4L205.4,202.3z M88.1,85.2
		l1.1,1.1c-0.5,0.5-0.9,0.9-1.4,1.4l-0.1,0.1l-1.1-1.1l0.1-0.1C87.1,86.2,87.6,85.7,88.1,85.2z M201.6,204.1l1.1,1.1
		c-0.5,0.5-0.9,0.9-1.5,1.3l-1-1.1C200.6,205.1,201.1,204.6,201.6,204.1z M86.3,89.1c-0.5,0.5-0.9,0.9-1.3,1.5l-1.1-1
		c0.5-0.5,0.8-1,1.3-1.5L86.3,89.1z M198.6,206.8l1,1.1c-0.5,0.5-1,0.8-1.6,1.3l-1-1.1C197.6,207.7,198.1,207.3,198.6,206.8z
		 M83.6,92.1c-0.5,0.5-0.8,1-1.3,1.6l-1.1-1c0.4-0.6,0.8-1,1.3-1.6L83.6,92.1z M195.5,209.4l0.9,1.2c-0.6,0.4-1.1,0.8-1.6,1.2
		l-0.9-1.2C194.5,210.2,195,209.8,195.5,209.4z M81.1,95.2c-0.4,0.6-0.8,1.1-1.2,1.6l-1.2-0.9c0.4-0.6,0.8-1.1,1.2-1.6L81.1,95.2z
		 M192.4,211.8l0.8,1.3c-0.6,0.4-1.1,0.8-1.7,1.1l-0.8-1.3C191.3,212.5,191.9,212.1,192.4,211.8z M78.7,98.4
		c-0.4,0.6-0.8,1.1-1.1,1.6l-1.3-0.8c0.4-0.6,0.7-1.1,1.1-1.7L78.7,98.4z M189,213.9l0.8,1.3c-0.6,0.4-1.1,0.7-1.8,1.1l-0.8-1.3
		C187.9,214.7,188.5,214.3,189,213.9z M76.5,101.7c-0.4,0.5-0.7,1.1-1,1.7l-1.3-0.8c0.4-0.6,0.7-1.1,1.1-1.8L76.5,101.7z M185.7,216
		l0.7,1.3c-0.6,0.4-1.2,0.6-1.8,0.9l-0.7-1.3C184.5,216.6,185.1,216.3,185.7,216z M74.5,105.1c-0.3,0.6-0.6,1.2-0.9,1.8l-1.3-0.7
		c0.3-0.6,0.6-1.2,0.9-1.8L74.5,105.1z M182.2,217.8l0.6,1.3c-0.6,0.3-1.2,0.6-1.8,0.8l-0.6-1.3C181,218.5,181.6,218.1,182.2,217.8z
		 M72.6,108.6c-0.3,0.6-0.6,1.2-0.9,1.8l-1.3-0.6c0.3-0.6,0.6-1.2,0.8-1.8L72.6,108.6z M178.6,219.6l0.6,1.3
		c-0.6,0.3-1.3,0.6-1.8,0.8l-0.6-1.4C177.4,220.1,178,219.9,178.6,219.6z M70.9,112.1c-0.3,0.6-0.5,1.2-0.8,1.8l-1.4-0.6
		c0.2-0.6,0.5-1.2,0.8-1.8L70.9,112.1z M175,221.1l0.6,1.4c-0.6,0.2-1.3,0.4-1.8,0.7l-0.6-1.4C173.7,221.7,174.3,221.4,175,221.1z
		 M69.4,115.8c-0.2,0.6-0.5,1.2-0.7,1.8l-1.4-0.6c0.2-0.6,0.4-1.3,0.7-1.8L69.4,115.8z M171.2,222.4l0.4,1.4
		c-0.6,0.2-1.3,0.4-1.9,0.6l-0.4-1.4C169.9,222.9,170.6,222.6,171.2,222.4z M68,119.5c-0.2,0.6-0.4,1.3-0.6,1.9L66,121
		c0.2-0.6,0.4-1.3,0.6-1.9L68,119.5z M167.4,223.7l0.4,1.4c-0.6,0.2-1.3,0.4-2,0.6l-0.4-1.5C166.1,224,166.8,223.8,167.4,223.7z
		 M66.9,123.4c-0.2,0.6-0.3,1.3-0.5,1.9l-1.5-0.4c0.2-0.6,0.4-1.3,0.5-1.9L66.9,123.4z M163.5,224.6l0.4,1.5c-0.7,0.1-1.3,0.3-2,0.4
		l-0.4-1.5C162.2,224.9,162.9,224.8,163.5,224.6z M65.9,127.2c-0.1,0.7-0.3,1.3-0.4,2l-1.4-0.3c0.1-0.7,0.3-1.3,0.4-2L65.9,127.2z
		 M159.6,225.4l0.2,1.5c-0.7,0.1-1.3,0.2-2,0.3l-0.2-1.5C158.3,225.7,159.1,225.5,159.6,225.4z M65.2,131c-0.1,0.6-0.2,1.3-0.3,2
		l-1.5-0.2c0.1-0.6,0.2-1.3,0.3-2L65.2,131z M155.7,226l0.2,1.5c-0.6,0.1-1.3,0.2-2.1,0.2l-0.1-1.5
		C154.5,226.2,155.1,226.1,155.7,226z M64.6,134.9c-0.1,0.6-0.1,1.3-0.3,2l-1.5-0.2c0.1-0.6,0.1-1.3,0.2-2.1L64.6,134.9z
		 M151.8,226.5l0.1,1.5c-0.6,0.1-1.3,0.1-2,0.1l-0.1-1.5C150.4,226.5,151.1,226.5,151.8,226.5z M64.2,138.9c-0.1,0.6-0.1,1.3-0.1,2
		l-1.5-0.1c0.1-0.6,0.1-1.3,0.1-2L64.2,138.9z M147.8,226.6l0.1,1.5c-0.7,0-1.3,0.1-2.1,0.1v-1.6
		C146.5,226.7,147.2,226.7,147.8,226.6z M63.9,142.9c0,0.7-0.1,1.3,0,2h-1.6c0-0.7,0.1-1.3,0.1-2.1L63.9,142.9z M143.9,226.6
		l-0.1,1.5c-0.7,0-1.3-0.1-2.1-0.1l0.1-1.5C142.6,226.6,143.2,226.7,143.9,226.6z M63.9,146.8c0,0.7,0.1,1.3,0,2l-1.5,0.1
		c0-0.7-0.1-1.3-0.1-2.1H63.9z M139.9,226.5l-0.1,1.5c-0.6-0.1-1.3-0.1-2-0.1l0.1-1.6C138.5,226.4,139.3,226.4,139.9,226.5z
		 M64.1,150.8c0.1,0.6,0.1,1.3,0.1,2l-1.6,0.1c-0.1-0.6-0.1-1.3-0.1-2L64.1,150.8z M136,226.1l-0.2,1.5c-0.6-0.1-1.3-0.2-2-0.3
		l0.2-1.5C134.6,226,135.3,226.1,136,226.1z M64.4,154.7c0.1,0.6,0.1,1.3,0.3,2l-1.5,0.2c-0.1-0.6-0.2-1.3-0.3-2L64.4,154.7z
		 M132,225.5l-0.2,1.5c-0.6-0.1-1.3-0.2-2.1-0.4l0.3-1.4C130.8,225.4,131.4,225.5,132,225.5z M65,158.6c0.1,0.6,0.2,1.3,0.4,1.9
		l-1.4,0.3c-0.1-0.7-0.2-1.3-0.4-2.1L65,158.6z M128.2,224.9l-0.4,1.5c-0.7-0.1-1.3-0.3-2-0.4l0.4-1.5
		C126.8,224.6,127.5,224.7,128.2,224.9z M65.8,162.5c0.1,0.7,0.3,1.3,0.4,2l-1.5,0.4c-0.1-0.7-0.3-1.3-0.4-2L65.8,162.5z
		 M124.3,223.9l-0.4,1.5c-0.6-0.2-1.3-0.4-2-0.6l0.4-1.4C123,223.6,123.6,223.8,124.3,223.9z M66.7,166.4c0.2,0.6,0.4,1.3,0.5,1.9
		l-1.4,0.4c-0.2-0.6-0.4-1.3-0.6-2L66.7,166.4z M120.5,222.8l-0.4,1.4c-0.6-0.2-1.3-0.4-1.9-0.6l0.4-1.4
		C119.2,222.4,119.9,222.6,120.5,222.8z M67.8,170.2c0.2,0.6,0.4,1.3,0.6,1.9l-1.5,0.5c-0.2-0.6-0.4-1.3-0.6-1.9L67.8,170.2z
		 M116.8,221.6l-0.6,1.4c-0.6-0.2-1.2-0.5-1.8-0.7l0.6-1.4C115.6,221.1,116.2,221.3,116.8,221.6z M69.1,173.9
		c0.2,0.6,0.5,1.2,0.7,1.8l-1.4,0.6c-0.2-0.6-0.5-1.2-0.8-1.9L69.1,173.9z M113.1,220l-0.6,1.4c-0.6-0.3-1.3-0.6-1.8-0.8l0.6-1.3
		C111.9,219.5,112.5,219.7,113.1,220z M70.6,177.7c0.3,0.6,0.5,1.2,0.8,1.8l-1.3,0.6c-0.3-0.6-0.6-1.3-0.8-1.8L70.6,177.7z
		 M109.5,218.4l-0.6,1.3c-0.6-0.3-1.2-0.6-1.8-0.9l0.6-1.3C108.4,217.8,108.9,218.1,109.5,218.4z M72.3,181.2
		c0.3,0.6,0.6,1.2,0.9,1.8l-1.3,0.7c-0.3-0.6-0.6-1.2-0.9-1.8L72.3,181.2z M105.9,216.6l-0.7,1.3c-0.6-0.3-1.2-0.6-1.7-1l0.8-1.3
		C104.9,215.9,105.4,216.3,105.9,216.6z M74.1,184.7c0.3,0.6,0.6,1.2,1,1.7l-1.3,0.8c-0.4-0.6-0.7-1.1-1-1.7L74.1,184.7z
		 M102.6,214.6l-0.8,1.3c-0.6-0.4-1.1-0.7-1.7-1.1l0.8-1.3C101.4,213.9,102,214.2,102.6,214.6z M76.2,188.2c0.4,0.5,0.7,1.1,1.1,1.6
		l-1.3,0.8c-0.4-0.6-0.7-1.1-1.1-1.7L76.2,188.2z M99.2,212.4l-0.8,1.3c-0.6-0.4-1.1-0.8-1.6-1.2l0.9-1.2
		C98.2,211.6,98.7,212,99.2,212.4z M78.3,191.5c0.4,0.5,0.8,1.1,1.2,1.6l-1.2,0.9c-0.4-0.6-0.8-1.1-1.2-1.6L78.3,191.5z M96.1,210.1
		l-0.9,1.2c-0.6-0.4-1.1-0.8-1.6-1.3l0.9-1.2C95,209.3,95.5,209.6,96.1,210.1z M80.7,194.7c0.4,0.6,0.8,1.1,1.3,1.6l-1.2,0.9
		c-0.4-0.6-0.8-1.1-1.3-1.6L80.7,194.7z M93,207.6l-1,1.1c-0.6-0.4-1-0.8-1.5-1.3l1-1.1C91.9,206.7,92.4,207.2,93,207.6z
		 M83.1,197.8c0.4,0.6,0.8,1,1.3,1.5l-1.1,1c-0.5-0.5-0.8-1-1.3-1.5L83.1,197.8z M90,205l-1,1.1c-0.5-0.5-0.9-0.9-1.5-1.3l1.1-1.1
		C89,204,89.5,204.5,90,205z M85.8,200.8c0.5,0.5,0.9,0.9,1.4,1.4l-1.1,1.1c-0.5-0.5-0.9-0.9-1.4-1.4L85.8,200.8z"/>
</g>
<g>
	<path class="st0" d="M243.7,46.9l0.7,0.7l-1.1,1.1l-0.6-0.6l-0.7-0.7l1.1-1.1L243.7,46.9z M245.8,49c0.5,0.5,0.9,0.9,1.3,1.5
		l-1.1,1c-0.5-0.5-0.9-0.9-1.3-1.5L245.8,49z M241.6,44.7l-1.1,1.1c-0.5-0.5-0.9-0.9-1.5-1.3l1-1.1C240.5,43.8,241,44.3,241.6,44.7z
		 M248.5,51.9c0.5,0.5,0.8,1,1.3,1.5l-1.1,1c-0.5-0.5-0.8-1-1.3-1.5L248.5,51.9z M238.5,42l-1,1.1c-0.5-0.5-1-0.8-1.5-1.3l1-1.1
		C237.5,41.1,238.1,41.6,238.5,42z M251.2,54.9c0.4,0.6,0.8,1,1.3,1.6l-1.1,1c-0.4-0.6-0.8-1-1.3-1.6L251.2,54.9z M235.5,39.4
		l-1,1.1c-0.6-0.4-1-0.8-1.6-1.3l1-1.1C234.5,38.5,235,38.9,235.5,39.4z M253.7,58c0.4,0.6,0.8,1,1.3,1.6l-1.2,0.9
		c-0.4-0.6-0.8-1.1-1.3-1.6L253.7,58z M232.5,36.7l-0.9,1.2c-0.6-0.4-1-0.8-1.6-1.3l0.9-1.2C231.4,36,231.9,36.3,232.5,36.7z
		 M256.2,61.2c0.4,0.6,0.8,1.1,1.2,1.6l-1.2,0.9c-0.4-0.6-0.8-1.1-1.2-1.6L256.2,61.2z M229.3,34.3l-0.9,1.2
		c-0.6-0.4-1.1-0.8-1.6-1.2l0.9-1.2C228.2,33.5,228.7,33.8,229.3,34.3z M258.6,64.5c0.4,0.6,0.8,1.1,1.2,1.6l-1.3,0.8
		c-0.4-0.6-0.8-1.1-1.2-1.6L258.6,64.5z M226,31.9l-0.9,1.2c-0.6-0.4-1.1-0.8-1.6-1.2l0.8-1.3C224.9,31.2,225.5,31.5,226,31.9z
		 M260.9,67.8c0.4,0.6,0.7,1.1,1.1,1.7l-1.3,0.8c-0.4-0.5-0.7-1.1-1.1-1.7L260.9,67.8z M222.8,29.6l-0.8,1.3
		c-0.6-0.4-1.1-0.7-1.7-1.1l0.8-1.3C221.6,28.9,222.1,29.2,222.8,29.6z M263.1,71.2c0.4,0.6,0.7,1.1,1.1,1.8l-1.3,0.8
		c-0.3-0.6-0.7-1.1-1-1.7L263.1,71.2z M219.3,27.4l-0.8,1.3c-0.5-0.4-1.1-0.7-1.7-1l0.8-1.3C218.2,26.7,218.8,27.1,219.3,27.4z
		 M265.2,74.6c0.4,0.6,0.7,1.1,1,1.7l-1.3,0.7c-0.3-0.6-0.7-1.1-1-1.7L265.2,74.6z M215.9,25.3l-0.8,1.3c-0.6-0.3-1.1-0.7-1.7-1
		l0.7-1.3C214.7,24.7,215.3,25,215.9,25.3z M267.2,78.1c0.3,0.6,0.6,1.2,0.9,1.8l-1.3,0.7c-0.3-0.6-0.6-1.2-0.9-1.8L267.2,78.1z
		 M212.4,23.3l-0.7,1.3c-0.6-0.3-1.2-0.6-1.8-0.9l0.7-1.3C211.2,22.7,211.8,23,212.4,23.3z M269.1,81.6c0.3,0.6,0.6,1.2,0.9,1.8
		l-1.3,0.6c-0.3-0.6-0.6-1.2-0.9-1.8L269.1,81.6z M208.8,21.5l-0.6,1.3c-0.6-0.3-1.2-0.6-1.8-0.9l0.6-1.3
		C207.6,20.8,208.2,21.1,208.8,21.5z M270.9,85.3c0.3,0.6,0.6,1.3,0.8,1.8l-1.3,0.6c-0.3-0.6-0.6-1.3-0.8-1.8L270.9,85.3z
		 M205.2,19.7l-0.6,1.3c-0.6-0.3-1.2-0.6-1.8-0.8l0.6-1.3C204,19.1,204.6,19.3,205.2,19.7z M272.6,88.9c0.3,0.6,0.6,1.3,0.8,1.8
		l-1.4,0.6c-0.3-0.6-0.5-1.2-0.8-1.8L272.6,88.9z M201.6,18l-0.6,1.3c-0.6-0.3-1.2-0.5-1.8-0.8l0.6-1.4
		C200.3,17.4,201,17.7,201.6,18z M274.2,92.7c0.2,0.6,0.5,1.2,0.8,1.9l-1.4,0.6c-0.2-0.6-0.5-1.2-0.7-1.8L274.2,92.7z M197.9,16.5
		l-0.6,1.4c-0.6-0.2-1.2-0.5-1.8-0.7l0.6-1.4C196.6,15.9,197.2,16.1,197.9,16.5z M275.7,96.5c0.2,0.6,0.4,1.3,0.6,1.9l-1.4,0.6
		c-0.2-0.6-0.4-1.3-0.7-1.8L275.7,96.5z M194.1,15l-0.6,1.4c-0.6-0.2-1.3-0.4-1.8-0.7l0.6-1.4C192.9,14.5,193.5,14.8,194.1,15z
		 M190.4,13.6L190,15c-0.6-0.2-1.3-0.4-1.9-0.6l0.4-1.4C189.1,13.2,189.7,13.4,190.4,13.6z M277,100.2c0.2,0.6,0.4,1.3,0.6,1.9
		l-1.4,0.4c-0.2-0.6-0.4-1.3-0.6-1.9L277,100.2z M186.6,12.3l-0.4,1.4c-0.6-0.2-1.3-0.4-1.8-0.6l0.4-1.4
		C185.2,12,185.9,12.1,186.6,12.3z M278.3,104.1c0.2,0.6,0.4,1.3,0.6,2l-1.4,0.4c-0.2-0.6-0.4-1.3-0.6-1.9L278.3,104.1z M182.7,11.2
		l-0.4,1.4c-0.6-0.2-1.3-0.4-1.9-0.5l0.4-1.5C181.4,10.9,182,11.1,182.7,11.2z M279.3,108c0.2,0.6,0.4,1.3,0.5,1.9l-1.5,0.4
		c-0.2-0.6-0.3-1.3-0.5-1.9L279.3,108z M178.8,10.2l-0.4,1.5c-0.6-0.2-1.3-0.3-1.9-0.5l0.4-1.5C177.4,9.9,178.1,10,178.8,10.2z
		 M280.4,111.8c0.2,0.6,0.3,1.3,0.4,2l-1.5,0.4c-0.1-0.7-0.3-1.3-0.5-1.9L280.4,111.8z M174.9,9.3l-0.4,1.5c-0.7-0.1-1.3-0.3-2-0.4
		l0.3-1.4C173.6,9,174.2,9.2,174.9,9.3z M281.3,115.9c0.1,0.7,0.3,1.3,0.4,2l-1.4,0.3c-0.1-0.7-0.3-1.3-0.4-2L281.3,115.9z
		 M170.9,8.5l-0.3,1.4c-0.6-0.1-1.3-0.2-1.9-0.4L169,8C169.6,8.2,170.3,8.4,170.9,8.5z M282.1,119.8c0.1,0.7,0.2,1.3,0.4,2.1
		L281,122c-0.1-0.6-0.2-1.3-0.4-1.9L282.1,119.8z M166.9,7.8l-0.2,1.5c-0.6-0.1-1.3-0.2-2-0.3l0.2-1.5
		C165.7,7.6,166.3,7.7,166.9,7.8z M282.8,123.7c0.1,0.6,0.2,1.3,0.3,2l-1.5,0.2c-0.1-0.6-0.2-1.3-0.3-2L282.8,123.7z M162.9,7.3
		l-0.2,1.5c-0.6-0.1-1.3-0.1-2-0.3L161,7C161.7,7.1,162.3,7.2,162.9,7.3z M283.4,127.7c0.1,0.6,0.2,1.3,0.3,2l-1.5,0.2
		c-0.1-0.6-0.1-1.3-0.3-2L283.4,127.7z M159,6.8l-0.1,1.6c-0.6-0.1-1.3-0.1-2-0.1l0.1-1.5C157.7,6.7,158.3,6.8,159,6.8z
		 M283.8,131.8c0.1,0.6,0.1,1.3,0.1,2l-1.5,0.1c-0.1-0.6-0.1-1.3-0.1-2L283.8,131.8z M155,6.5L154.9,8c-0.6-0.1-1.3-0.1-2-0.1
		l0.1-1.5C153.6,6.4,154.3,6.4,155,6.5z M284.1,135.7c0.1,0.6,0.1,1.3,0.1,2l-1.5,0.1c-0.1-0.6-0.1-1.3-0.1-2L284.1,135.7z
		 M150.9,6.3l-0.1,1.5c-0.6-0.1-1.3-0.1-2.1-0.1l0.1-1.5C149.6,6.2,150.3,6.2,150.9,6.3z M284.3,139.8c0,0.7,0.1,1.3,0.1,2.1
		l-1.5,0.1c0-0.7-0.1-1.3-0.1-2.1L284.3,139.8z M147,6.1l-0.1,1.5c-0.7,0-1.3,0-2,0V6.1C145.5,6.1,146.3,6.1,147,6.1z M284.5,143.8
		c0,0.7,0.1,1.3,0,2h-1.6c0-0.7,0-1.3,0-2L284.5,143.8z M142.9,6.2l0.1,1.5c-0.7,0-1.3,0.1-2,0L141,6.2
		C141.5,6.2,142.2,6.2,142.9,6.2z M284.4,147.8c0,0.7-0.1,1.3-0.1,2.1l-1.5-0.1c0-0.7,0.1-1.3,0-2H284.4z M138.9,6.3l0.1,1.5
		c-0.6,0.1-1.3,0.1-2,0.1l-0.1-1.5C137.6,6.3,138.3,6.3,138.9,6.3z M284.3,151.8c0,0.7-0.1,1.3-0.1,2l-1.5-0.1
		c0.1-0.6,0.1-1.3,0.1-2L284.3,151.8z M134.9,6.5l0.1,1.5c-0.6,0.1-1.3,0.1-2,0.1l-0.1-1.6C133.5,6.7,134.2,6.6,134.9,6.5z
		 M284.1,155.8c-0.1,0.6-0.1,1.3-0.1,2l-1.6-0.1c0.1-0.6,0.1-1.3,0.1-2L284.1,155.8z M130.9,6.9l0.2,1.5c-0.6,0.1-1.3,0.1-2,0.3
		l-0.2-1.5C129.5,7,130.1,7,130.9,6.9z M283.7,159.9c-0.1,0.6-0.1,1.3-0.2,2.1l-1.5-0.2c0.1-0.6,0.1-1.3,0.3-2L283.7,159.9z
		 M126.9,7.4l0.2,1.5c-0.6,0.1-1.3,0.2-2,0.3l-0.2-1.5C125.5,7.5,126.2,7.4,126.9,7.4z M283.2,163.9c-0.1,0.6-0.2,1.3-0.3,2
		l-1.5-0.2c0.1-0.6,0.2-1.3,0.3-2L283.2,163.9z M122.9,8l0.2,1.5c-0.6,0.1-1.3,0.2-2,0.3l-0.2-1.5C121.6,8.2,122.2,8.1,122.9,8z
		 M282.7,167.8c-0.1,0.6-0.2,1.3-0.3,2l-1.5-0.2c0.1-0.6,0.2-1.3,0.4-1.9L282.7,167.8z M118.9,8.6l0.3,1.4c-0.6,0.1-1.3,0.3-2,0.4
		L116.8,9C117.5,9,118.3,8.8,118.9,8.6z M281.9,171.8c-0.1,0.7-0.3,1.3-0.4,2l-1.5-0.4c0.1-0.7,0.3-1.3,0.4-2L281.9,171.8z
		 M114.9,9.5l0.4,1.5c-0.7,0.1-1.3,0.3-2,0.4l-0.4-1.5C113.7,9.7,114.3,9.7,114.9,9.5z M281.1,175.8c-0.1,0.7-0.3,1.3-0.4,2
		l-1.5-0.4c0.2-0.6,0.3-1.3,0.4-2L281.1,175.8z M111,10.4l0.4,1.5c-0.6,0.2-1.3,0.3-1.9,0.5l-0.4-1.4
		C109.7,10.7,110.4,10.6,111,10.4z M280.2,179.7c-0.2,0.6-0.4,1.3-0.5,1.9l-1.4-0.4c0.2-0.6,0.3-1.3,0.5-1.9L280.2,179.7z
		 M107.2,11.4l0.4,1.4c-0.6,0.2-1.3,0.4-2,0.6l-0.4-1.4C105.9,11.9,106.5,11.6,107.2,11.4z M279.1,183.5c-0.2,0.6-0.4,1.3-0.6,2
		l-1.4-0.4c0.2-0.6,0.4-1.3,0.5-1.9L279.1,183.5z M103.3,12.6l0.4,1.4c-0.6,0.2-1.3,0.4-1.9,0.6l-0.4-1.4
		C102,13.1,102.6,12.8,103.3,12.6z M278,187.4c-0.2,0.6-0.4,1.3-0.6,1.9l-1.4-0.4c0.2-0.6,0.4-1.3,0.6-1.9L278,187.4z M99.4,13.9
		l0.5,1.5c-0.6,0.2-1.3,0.4-1.9,0.6l-0.6-1.4C98.2,14.3,98.8,14.1,99.4,13.9z M276.7,191.2c-0.2,0.6-0.4,1.3-0.6,1.9l-1.4-0.6
		c0.2-0.6,0.4-1.3,0.7-1.8L276.7,191.2z M275.3,195c-0.2,0.6-0.5,1.2-0.7,1.8l-1.4-0.6c0.2-0.6,0.5-1.2,0.7-1.8L275.3,195z
		 M95.6,15.3l0.6,1.4c-0.6,0.2-1.2,0.5-1.8,0.7L93.8,16C94.4,15.7,95,15.5,95.6,15.3z M273.9,198.7c-0.2,0.6-0.5,1.2-0.8,1.9
		l-1.4-0.6c0.3-0.6,0.5-1.2,0.8-1.8L273.9,198.7z M91.9,16.8l0.6,1.4c-0.6,0.2-1.2,0.5-1.8,0.8L90,17.7C90.7,17.3,91.2,17,91.9,16.8
		z M272.2,202.3c-0.3,0.6-0.6,1.3-0.8,1.8l-1.3-0.6c0.3-0.6,0.5-1.2,0.8-1.8L272.2,202.3z M88.2,18.4l0.6,1.4
		c-0.6,0.3-1.2,0.5-1.8,0.8l-0.6-1.3C86.9,18.9,87.6,18.7,88.2,18.4z M270.5,206c-0.3,0.6-0.6,1.2-0.9,1.8l-1.3-0.6
		c0.3-0.6,0.6-1.2,0.9-1.8L270.5,206z M84.5,20.1l0.6,1.3c-0.6,0.3-1.2,0.6-1.8,0.9L82.8,21C83.3,20.7,83.9,20.4,84.5,20.1z
		 M268.7,209.6c-0.3,0.6-0.6,1.2-0.9,1.8l-1.3-0.7c0.3-0.6,0.6-1.2,0.9-1.8L268.7,209.6z M80.9,22l0.7,1.3c-0.6,0.3-1.2,0.6-1.8,0.9
		l-0.7-1.3C79.7,22.6,80.4,22.2,80.9,22z M266.7,213.2c-0.3,0.6-0.6,1.2-1,1.7l-1.3-0.7c0.3-0.6,0.7-1.1,1-1.7L266.7,213.2z
		 M77.4,23.8l0.7,1.3c-0.6,0.3-1.2,0.6-1.7,1l-0.7-1.3C76.3,24.5,76.7,24.2,77.4,23.8z M264.8,216.6c-0.3,0.6-0.7,1.1-1.1,1.8
		l-1.3-0.8c0.3-0.6,0.7-1.1,1-1.7L264.8,216.6z M73.9,25.9l0.8,1.3c-0.6,0.3-1.1,0.7-1.7,1l-0.8-1.3C72.8,26.6,73.3,26.2,73.9,25.9z
		 M262.6,220.1c-0.4,0.6-0.7,1.1-1.1,1.7l-1.3-0.8c0.4-0.6,0.7-1.1,1.1-1.6L262.6,220.1z M70.5,28l0.8,1.3c-0.5,0.4-1.1,0.7-1.7,1.1
		l-0.8-1.3C69.3,28.8,69.9,28.3,70.5,28z M260.5,223.4c-0.4,0.6-0.8,1.1-1.1,1.7l-1.3-0.8c0.4-0.6,0.8-1.1,1.1-1.7L260.5,223.4z
		 M67.1,30.2l0.8,1.3c-0.6,0.4-1.1,0.8-1.7,1.1l-0.8-1.3C66,30.9,66.5,30.6,67.1,30.2z M258.1,226.7c-0.4,0.6-0.8,1.1-1.2,1.6
		l-1.2-0.9c0.4-0.6,0.8-1.1,1.2-1.6L258.1,226.7z M63.8,32.6l0.9,1.2c-0.6,0.4-1.1,0.8-1.6,1.2l-0.9-1.2
		C62.7,33.3,63.2,32.9,63.8,32.6z M255.7,230c-0.4,0.6-0.8,1.1-1.3,1.6l-1.2-0.9c0.4-0.6,0.8-1.1,1.3-1.6L255.7,230z M60.6,35
		l0.9,1.2c-0.6,0.4-1.1,0.8-1.6,1.3L59,36.2C59.5,35.8,60.1,35.3,60.6,35z M253.2,233.1c-0.4,0.6-0.8,1-1.3,1.6l-1.1-1
		c0.4-0.6,0.8-1,1.3-1.6L253.2,233.1z M57.4,37.5l0.9,1.2c-0.6,0.4-1,0.8-1.6,1.3l-1-1.1C56.4,38.3,56.9,37.9,57.4,37.5z
		 M250.6,236.2c-0.5,0.5-0.8,1-1.3,1.5l-1.1-1c0.5-0.5,0.8-1,1.3-1.5L250.6,236.2z M54.3,40.1l1,1.1c-0.5,0.5-1,0.8-1.5,1.3l-1-1.1
		C53.3,40.9,53.8,40.4,54.3,40.1z M247.9,239.2c-0.5,0.5-0.8,1-1.3,1.5l-1.1-1.1c0.5-0.5,0.9-0.9,1.3-1.5L247.9,239.2z M51.3,42.7
		l1,1.1c-0.5,0.5-1,0.8-1.5,1.3l-1.1-1.1C50.4,43.6,50.8,43.2,51.3,42.7z M245.2,242.1c-0.5,0.5-0.9,0.9-1.4,1.4l-1.1-1.1
		c0.5-0.5,0.9-0.9,1.4-1.4L245.2,242.1z M48.4,45.4l1.1,1.1C49,47,48.5,47.4,48,47.9l-0.1,0.1L46.8,47l0.1-0.1
		C47.4,46.4,47.9,45.9,48.4,45.4z M241.3,243.9l1.1,1.1c-0.5,0.5-0.9,0.9-1.4,1.4l-1.1-1.1C240.3,244.8,240.8,244.4,241.3,243.9z
		 M46.5,49.5c-0.5,0.5-0.9,0.9-1.4,1.4L44,49.8c0.5-0.5,0.9-0.9,1.4-1.4L46.5,49.5z M238.4,246.6l1,1.1c-0.5,0.5-1,0.8-1.5,1.3
		l-1-1.1C237.5,247.5,237.9,247.1,238.4,246.6z M43.8,52.4c-0.5,0.5-0.8,1-1.3,1.5l-1.1-1c0.5-0.5,0.8-1,1.3-1.5L43.8,52.4z
		 M235.4,249.3l1,1.1c-0.5,0.5-1,0.8-1.6,1.3l-1-1.1C234.4,250.1,234.9,249.7,235.4,249.3z M41.1,55.4c-0.5,0.5-0.8,1-1.3,1.6
		l-1.1-1c0.4-0.6,0.8-1,1.3-1.6L41.1,55.4z M232.4,251.9l1,1.1c-0.6,0.4-1,0.8-1.6,1.3l-0.9-1.2
		C231.3,252.7,231.9,252.3,232.4,251.9z M38.6,58.4c-0.4,0.6-0.8,1-1.3,1.6L36.1,59c0.4-0.6,0.8-1,1.3-1.6L38.6,58.4z M229.3,254.3
		l0.9,1.2c-0.6,0.4-1.1,0.8-1.6,1.2l-0.9-1.2C228.2,255.1,228.7,254.7,229.3,254.3z M36.1,61.6c-0.4,0.6-0.8,1.1-1.2,1.6l-1.2-0.9
		c0.4-0.6,0.8-1.1,1.2-1.6L36.1,61.6z M226,256.7l0.9,1.2c-0.6,0.4-1.1,0.8-1.6,1.2l-0.8-1.3C225,257.5,225.5,257.1,226,256.7z
		 M33.8,64.7c-0.4,0.6-0.8,1.1-1.2,1.6l-1.3-0.8c0.4-0.6,0.8-1.1,1.2-1.6L33.8,64.7z M222.8,259.1l0.8,1.3c-0.6,0.4-1.1,0.7-1.7,1.1
		l-0.8-1.3C221.7,259.8,222.3,259.3,222.8,259.1z M31.4,68.1c-0.4,0.6-0.7,1.1-1.1,1.7L29,68.9c0.4-0.6,0.7-1.1,1.1-1.7L31.4,68.1z
		 M219.5,261.3l0.8,1.3c-0.6,0.4-1.1,0.7-1.7,1.1l-0.8-1.3C218.4,262,218.9,261.5,219.5,261.3z M29.2,71.4c-0.4,0.5-0.7,1.1-1.1,1.6
		l-1.3-0.8c0.4-0.6,0.7-1.1,1.1-1.7L29.2,71.4z M216,263.3l0.8,1.3c-0.6,0.4-1.1,0.7-1.8,1.1l-0.8-1.3
		C214.9,264,215.6,263.7,216,263.3z M27.2,74.7c-0.3,0.6-0.7,1.1-1,1.7l-1.3-0.7c0.3-0.6,0.7-1.1,1-1.7L27.2,74.7z M212.7,265.3
		l0.7,1.3c-0.6,0.3-1.2,0.6-1.8,0.9l-0.7-1.3C211.5,266,212,265.6,212.7,265.3z M25.1,78.2c-0.3,0.6-0.6,1.2-0.9,1.8l-1.3-0.7
		c0.3-0.6,0.6-1.2,0.9-1.8L25.1,78.2z M209.2,267.2l0.7,1.3c-0.6,0.3-1.2,0.6-1.8,0.9l-0.6-1.3C208,267.8,208.6,267.5,209.2,267.2z
		 M23.2,81.6c-0.3,0.6-0.6,1.2-0.9,1.8L21,82.8c0.3-0.6,0.6-1.2,0.9-1.8L23.2,81.6z M205.6,269l0.6,1.3c-0.6,0.3-1.2,0.6-1.8,0.8
		l-0.6-1.3C204.4,269.6,204.9,269.3,205.6,269z M21.5,85.3c-0.3,0.6-0.6,1.2-0.8,1.8l-1.3-0.6c0.3-0.6,0.6-1.3,0.8-1.8L21.5,85.3z
		 M202,270.7l0.6,1.3c-0.6,0.3-1.3,0.6-1.8,0.8l-0.6-1.3C200.8,271.2,201.3,270.9,202,270.7z M19.8,88.9c-0.3,0.6-0.5,1.2-0.8,1.8
		l-1.4-0.6c0.3-0.6,0.5-1.2,0.8-1.8L19.8,88.9z M198.3,272.3l0.6,1.4c-0.6,0.2-1.2,0.5-1.9,0.8l-0.6-1.4
		C197.1,272.8,197.7,272.6,198.3,272.3z M18.2,92.5c-0.2,0.6-0.5,1.2-0.7,1.8l-1.4-0.6c0.2-0.6,0.5-1.2,0.7-1.8L18.2,92.5z
		 M194.5,273.8l0.6,1.4c-0.6,0.2-1.3,0.4-1.8,0.7l-0.6-1.4C193.3,274.3,194,274,194.5,273.8z M16.7,96.2c-0.2,0.6-0.5,1.2-0.7,1.8
		l-1.4-0.6c0.2-0.6,0.4-1.3,0.7-1.8L16.7,96.2z M190.9,275.2l0.5,1.5c-0.6,0.2-1.3,0.4-1.9,0.6l-0.4-1.4
		C189.6,275.6,190.2,275.4,190.9,275.2z M15.4,100c-0.2,0.6-0.4,1.3-0.6,1.9l-1.4-0.4c0.2-0.6,0.4-1.3,0.6-1.9L15.4,100z
		 M187.1,276.5l0.4,1.4c-0.6,0.2-1.3,0.4-1.9,0.6l-0.4-1.4C185.8,276.9,186.4,276.7,187.1,276.5z M14.2,103.7
		c-0.2,0.6-0.4,1.3-0.6,1.9l-1.4-0.4c0.2-0.6,0.4-1.3,0.6-1.9L14.2,103.7z M183.2,277.6l0.4,1.4c-0.6,0.2-1.3,0.4-2,0.6l-0.4-1.4
		C181.9,277.9,182.6,277.8,183.2,277.6z M13,107.5c-0.2,0.6-0.4,1.3-0.5,1.9l-1.4-0.4c0.2-0.6,0.4-1.3,0.5-1.9L13,107.5z
		 M179.3,278.6l0.4,1.5c-0.6,0.2-1.3,0.4-1.9,0.5l-0.4-1.5C178.1,278.9,178.8,278.8,179.3,278.6z M11.9,111.3
		c-0.2,0.6-0.3,1.3-0.5,1.9l-1.5-0.4c0.1-0.7,0.3-1.3,0.5-1.9L11.9,111.3z M175.5,279.6l0.4,1.5c-0.7,0.1-1.3,0.3-2,0.4l-0.4-1.5
		C174.2,279.8,174.8,279.6,175.5,279.6z M11.1,115.2c-0.1,0.7-0.3,1.3-0.4,2l-1.5-0.4c0.1-0.7,0.3-1.3,0.4-2L11.1,115.2z
		 M171.6,280.3l0.3,1.4c-0.7,0.1-1.3,0.2-2,0.4l-0.2-1.5C170.3,280.6,170.9,280.4,171.6,280.3z M10.2,119.1
		c-0.1,0.6-0.3,1.3-0.4,1.9l-1.5-0.2c0.1-0.6,0.2-1.3,0.4-2L10.2,119.1z M167.6,281l0.2,1.5c-0.6,0.1-1.3,0.2-2,0.3l-0.2-1.5
		C166.4,281.3,167,281.2,167.6,281z M9.6,123c-0.1,0.6-0.2,1.3-0.3,2l-1.5-0.2c0.1-0.6,0.2-1.3,0.3-2L9.6,123z M163.7,281.7l0.2,1.5
		c-0.6,0.1-1.3,0.2-2,0.3l-0.2-1.5C162.4,281.8,163.1,281.8,163.7,281.7z M8.9,126.9c-0.1,0.6-0.2,1.3-0.3,2l-1.5-0.2
		c0.1-0.6,0.2-1.3,0.3-2L8.9,126.9z M159.8,282.1l0.2,1.5c-0.6,0.1-1.3,0.1-2.1,0.2l-0.1-1.6C158.5,282.3,159.1,282.2,159.8,282.1z
		 M8.4,130.9c-0.1,0.6-0.1,1.3-0.1,2l-1.6-0.1c0.1-0.6,0.1-1.3,0.2-2.1L8.4,130.9z M155.7,282.5l0.1,1.5c-0.6,0.1-1.3,0.1-2,0.1
		l-0.1-1.5C154.5,282.6,155.1,282.5,155.7,282.5z M8.1,134.8c-0.1,0.6-0.1,1.3-0.1,2l-1.5-0.1c0.1-0.6,0.1-1.3,0.1-2L8.1,134.8z
		 M151.8,282.7l0.1,1.5c-0.7,0-1.3,0.1-2.1,0.1l-0.1-1.5C150.5,282.7,151.2,282.7,151.8,282.7z M7.9,138.9c-0.1,0.6-0.1,1.3-0.1,2.1
		l-1.5-0.1c0-0.7,0.1-1.3,0.1-2.1L7.9,138.9z M147.8,282.9l0.1,1.5c-0.7,0-1.3,0.1-2,0v-1.6C146.5,282.9,147.2,282.8,147.8,282.9z
		 M7.7,142.8c0,0.7-0.1,1.3,0,2H6.2c0-0.7,0.1-1.3,0-2L7.7,142.8z M143.9,282.9l-0.1,1.5c-0.7,0-1.3-0.1-2,0l0.1-1.5
		C142.5,282.8,143.2,282.8,143.9,282.9z M7.7,146.8c0,0.7,0.1,1.3,0,2l-1.5,0.1c0-0.7-0.1-1.3,0-2L7.7,146.8z M139.9,282.7l-0.1,1.5
		c-0.7,0-1.3-0.1-2.1-0.1l0.1-1.5C138.5,282.7,139.2,282.7,139.9,282.7z M7.8,150.8c0,0.7,0.1,1.3,0.1,2l-1.5,0.1
		c-0.1-0.6-0.1-1.3-0.1-2.1H7.8z M135.9,282.5l-0.1,1.5c-0.6-0.1-1.3-0.1-2-0.1l0.1-1.5C134.5,282.5,135.2,282.5,135.9,282.5z
		 M8.1,154.8c0.1,0.6,0.1,1.3,0.1,2l-1.5,0.1c-0.1-0.6-0.1-1.3-0.1-2L8.1,154.8z M131.9,282.3l-0.1,1.6c-0.6-0.1-1.3-0.1-2.1-0.2
		l0.2-1.5C130.6,282.1,131.3,282.2,131.9,282.3z M8.4,158.7c0.1,0.6,0.1,1.3,0.1,2L7,160.9c-0.1-0.6-0.1-1.3-0.2-2.1L8.4,158.7z
		 M128,281.8l-0.2,1.5c-0.6-0.1-1.3-0.2-2-0.3l0.2-1.5C126.6,281.6,127.4,281.7,128,281.8z M8.8,162.7c0.1,0.6,0.2,1.3,0.3,2
		l-1.5,0.2c-0.1-0.6-0.2-1.3-0.3-2L8.8,162.7z M124.1,281.2l-0.2,1.5c-0.6-0.1-1.3-0.2-2-0.3l0.2-1.5
		C122.7,281,123.4,281.1,124.1,281.2z M9.4,166.6c0.1,0.6,0.2,1.3,0.3,2l-1.5,0.2c-0.1-0.6-0.2-1.3-0.3-2L9.4,166.6z M120.2,280.6
		l-0.3,1.4c-0.7-0.1-1.3-0.2-2-0.4l0.3-1.4C118.8,280.3,119.5,280.4,120.2,280.6z M10.1,170.6c0.1,0.6,0.3,1.3,0.4,2l-1.4,0.3
		c-0.1-0.7-0.3-1.3-0.4-2L10.1,170.6z M116.2,279.7l-0.4,1.5c-0.7-0.1-1.3-0.3-2-0.4l0.4-1.5C114.9,279.5,115.6,279.6,116.2,279.7z
		 M10.8,174.5c0.1,0.7,0.3,1.3,0.4,2l-1.5,0.4c-0.1-0.7-0.3-1.3-0.4-2L10.8,174.5z M112.4,278.9l-0.4,1.5c-0.6-0.2-1.3-0.3-1.9-0.5
		l0.4-1.5C111,278.5,111.7,278.7,112.4,278.9z M11.8,178.4c0.2,0.6,0.3,1.3,0.5,1.9l-1.5,0.4c-0.2-0.6-0.4-1.3-0.5-1.9L11.8,178.4z
		 M108.4,277.9l-0.4,1.4c-0.6-0.2-1.3-0.4-2-0.6l0.4-1.4C107.2,277.5,107.9,277.7,108.4,277.9z M12.8,182.2c0.2,0.6,0.4,1.3,0.5,1.9
		l-1.4,0.4c-0.2-0.6-0.4-1.3-0.6-2L12.8,182.2z M104.7,276.8l-0.4,1.4c-0.6-0.2-1.3-0.4-1.9-0.6l0.4-1.4
		C103.4,276.4,104,276.6,104.7,276.8z M13.9,186c0.2,0.6,0.4,1.3,0.6,1.9l-1.4,0.4c-0.2-0.6-0.4-1.3-0.6-1.9L13.9,186z M100.9,275.5
		l-0.4,1.4c-0.6-0.2-1.3-0.4-1.9-0.6l0.6-1.4C99.7,275,100.2,275.3,100.9,275.5z M15.2,189.8c0.2,0.6,0.4,1.3,0.6,1.9l-1.4,0.6
		c-0.2-0.6-0.4-1.3-0.6-1.9L15.2,189.8z M97.1,274.2l-0.6,1.4c-0.6-0.2-1.3-0.4-1.8-0.7l0.6-1.4C95.9,273.7,96.5,273.9,97.1,274.2z
		 M16.4,193.7c0.2,0.6,0.5,1.2,0.7,1.8l-1.4,0.6c-0.2-0.6-0.5-1.2-0.7-1.8L16.4,193.7z M93.4,272.8l-0.6,1.4
		c-0.6-0.2-1.2-0.5-1.9-0.8l0.6-1.4C92.2,272.3,92.9,272.5,93.4,272.8z M17.9,197.4c0.2,0.6,0.5,1.2,0.7,1.8l-1.4,0.6
		c-0.2-0.6-0.5-1.2-0.8-1.9L17.9,197.4z M89.8,271.2l-0.6,1.3c-0.6-0.3-1.3-0.6-1.8-0.8l0.6-1.3C88.6,270.7,89.2,270.9,89.8,271.2z
		 M19.5,201c0.3,0.6,0.5,1.2,0.8,1.8l-1.3,0.6c-0.3-0.6-0.6-1.3-0.8-1.8L19.5,201z M86.2,269.5l-0.6,1.3c-0.6-0.3-1.2-0.6-1.8-0.8
		l0.6-1.3C84.9,269,85.6,269.3,86.2,269.5z M21.2,204.6c0.3,0.6,0.6,1.2,0.8,1.8l-1.3,0.6c-0.3-0.6-0.6-1.2-0.8-1.8L21.2,204.6z
		 M82.6,267.8l-0.6,1.3c-0.6-0.3-1.2-0.6-1.8-0.9l0.7-1.3C81.4,267.1,82,267.5,82.6,267.8z M22.9,208.2c0.3,0.6,0.6,1.2,0.9,1.8
		l-1.3,0.7c-0.3-0.6-0.6-1.2-0.9-1.8L22.9,208.2z M79.1,265.9l-0.7,1.3c-0.6-0.3-1.2-0.6-1.7-1l0.7-1.3
		C77.9,265.3,78.5,265.6,79.1,265.9z M24.8,211.8c0.3,0.6,0.6,1.2,1,1.7l-1.3,0.7c-0.3-0.6-0.6-1.2-1-1.7L24.8,211.8z M75.7,263.9
		l-0.8,1.3c-0.6-0.3-1.1-0.7-1.8-1.1l0.8-1.3C74.5,263.3,75,263.6,75.7,263.9z M26.8,215.2c0.3,0.6,0.7,1.1,1,1.7l-1.3,0.8
		c-0.4-0.6-0.7-1.1-1.1-1.8L26.8,215.2z M72.2,261.9l-0.8,1.3c-0.6-0.4-1.1-0.7-1.7-1.1l0.8-1.3C71.1,261.2,71.7,261.5,72.2,261.9z
		 M28.8,218.6c0.4,0.5,0.7,1.1,1.1,1.6l-1.3,0.8c-0.4-0.6-0.7-1.1-1.1-1.7L28.8,218.6z M68.9,259.7L68,261c-0.6-0.4-1.1-0.7-1.7-1.1
		l0.8-1.3C67.8,259,68.3,259.3,68.9,259.7z M31,221.9c0.4,0.6,0.7,1.1,1.1,1.7l-1.3,0.8c-0.4-0.6-0.8-1.1-1.1-1.7L31,221.9z
		 M65.6,257.4l-0.9,1.2c-0.6-0.4-1.1-0.8-1.6-1.2l0.9-1.2C64.6,256.7,65.1,257,65.6,257.4z M33.3,225.3c0.4,0.6,0.8,1.1,1.2,1.6
		l-1.2,0.9c-0.4-0.6-0.8-1.1-1.2-1.6L33.3,225.3z M62.4,255l-0.9,1.2c-0.6-0.4-1.1-0.8-1.6-1.2l0.9-1.2
		C61.3,254.3,61.9,254.7,62.4,255z M35.7,228.4c0.4,0.6,0.8,1.1,1.2,1.6l-1.2,0.9c-0.4-0.6-0.8-1.1-1.2-1.6L35.7,228.4z M59.3,252.6
		l-1,1.1c-0.6-0.4-1-0.8-1.6-1.3l1-1.1C58.2,251.8,58.7,252.2,59.3,252.6z M38.1,231.6c0.4,0.6,0.8,1,1.3,1.6l-1.1,1
		c-0.4-0.6-0.8-1-1.3-1.6L38.1,231.6z M56.2,250.1l-1,1.1c-0.6-0.4-1-0.8-1.5-1.3l1-1.1C55.2,249.2,55.7,249.7,56.2,250.1z
		 M40.7,234.6c0.4,0.6,0.8,1,1.3,1.5l-1.1,1c-0.5-0.5-0.8-1-1.3-1.5L40.7,234.6z M53.1,247.5l-1,1.1c-0.5-0.5-1-0.8-1.5-1.3l1-1.1
		C52.2,246.5,52.7,247,53.1,247.5z M43.3,237.6c0.5,0.5,0.8,1,1.3,1.5l-1.1,1c-0.5-0.5-0.8-1-1.3-1.5L43.3,237.6z M50.3,244.8
		l-1.1,1.1c-0.5-0.5-0.9-0.9-1.4-1.4l1.1-1.1C49.3,243.8,49.8,244.3,50.3,244.8z M46.1,240.5c0.5,0.5,0.9,0.9,1.4,1.4l-1.1,1.1
		c-0.5-0.5-0.9-0.9-1.4-1.4L46.1,240.5z"/>
</g>
<g>
	<path class="st0" d="M248,42.5c56.6,56.6,56.7,148.8,0.1,205.4s-148.8,56.6-205.5,0S-14,99.1,42.6,42.5
		C99.3-14.1,191.4-14.1,248,42.5z M43.2,247.4c56.4,56.4,148,56.4,204.4,0s56.4-148,0-204.4s-148-56.4-204.4,0S-13.2,191,43.2,247.4
		z"/>
</g>
<g>
	<g>
		<path class="st0" d="M200.1,241.5c1.3,3,1.4,6.1,0.3,9.1c-1.1,3-3.2,5.2-6.4,6.5c-3.1,1.4-6.2,1.5-9.1,0.3c-3-1.1-5.2-3.3-6.5-6.5
			c-1.4-3.1-1.5-6.2-0.4-9.1c1.1-3,3.3-5.1,6.4-6.5c3-1.3,6.1-1.4,9.1-0.3C196.5,236.2,198.7,238.4,200.1,241.5z M197.3,242.7
			c-1.1-2.3-2.7-4.1-5-5c-2.3-1-4.5-0.8-6.9,0.1c-2.3,1.1-4,2.7-4.8,4.9c-0.8,2.3-0.7,4.7,0.4,7c1.1,2.5,2.7,4.1,5,5
			c2.3,1,4.5,0.8,6.8-0.1c2.3-1.1,3.9-2.6,4.7-4.9C198.5,247.6,198.4,245.2,197.3,242.7z"/>
		<path class="st0" d="M157.6,266.6l-2.8,0.4l-2.1-13.3c-0.5-3.3-0.1-5.9,1.4-7.8c1.4-1.8,3.5-3,5.9-3.4c2.8-0.4,5.3,0.1,7.3,1.5
			c2,1.4,3.3,3.8,3.7,7.1l2.1,13.1l-2.8,0.4l-2-12.6c-0.4-2.5-1.3-4.4-2.6-5.6c-1.3-1.2-3.1-1.7-5.3-1.3c-2,0.3-3.3,1.2-4.2,2.7
			c-0.8,1.6-1.1,3.5-0.6,6L157.6,266.6z"/>
		<path class="st0" d="M138.8,264.1l8.1,0.6l-0.2,2.6l-19-1.3l0.2-2.6l8.1,0.6l1.3-20.4l2.9,0.2L138.8,264.1z"/>
		<path class="st0" d="M125.5,242.2l0.4,0.1l-6.5,22.2l-0.4-0.1c-0.9-0.2-1.8-0.5-2.7-0.7c-1.8-0.5-2.8-0.7-3-0.8
			c-2.2-0.6-4-1.4-5.4-2.5c-1.5-1.1-2.5-2.3-3.2-3.6c-0.6-1.3-1.1-2.6-1.1-4.1c-0.1-1.4,0.1-2.9,0.6-4.4c0.9-3.3,2.9-5.7,5.7-7.3
			s6.3-1.6,10.3-0.4c0.8,0.3,1.8,0.5,2.6,0.8C123.5,241.6,124.5,241.9,125.5,242.2z M114.2,260.3c0.4,0.1,1,0.3,1.8,0.5
			c0.8,0.2,1.3,0.4,1.6,0.4l5-17c-0.6-0.1-1.1-0.4-1.6-0.5c-0.5-0.2-0.8-0.3-1.1-0.4c-0.2-0.1-0.4-0.1-0.4-0.1
			c-3-0.9-5.7-0.8-7.9,0.3c-2.2,1.2-3.7,3.1-4.5,5.7c-0.8,2.5-0.5,4.7,0.7,6.8C108.8,257.9,111,259.3,114.2,260.3z"/>
		<path class="st0" d="M98.8,245.8c-1.7,2.8-4.1,4.7-7.2,5.5s-6.1,0.4-9.1-1.4c-2.9-1.8-4.7-4.2-5.5-7.2s-0.3-6.1,1.6-9.1
			c1.8-2.9,4.2-4.7,7.3-5.6c3-0.8,6.1-0.3,8.9,1.4c2.9,1.8,4.7,4.2,5.5,7.2C101.1,239.8,100.6,242.8,98.8,245.8z M96.3,244.2
			c1.3-2.2,1.7-4.5,1.2-7c-0.6-2.4-1.9-4.2-4-5.4c-2.2-1.3-4.5-1.7-6.8-1c-2.3,0.6-4.1,2.1-5.5,4.4s-1.8,4.6-1.2,7
			c0.6,2.4,1.9,4.2,4,5.4c2.2,1.3,4.5,1.6,6.8,1C93,248,94.9,246.5,96.3,244.2z"/>
		<path class="st0" d="M74.1,230.1c-2.4,2.3-5.2,3.5-8.4,3.5c-3.2-0.1-5.9-1.3-8.3-3.7c-2.3-2.5-3.5-5.2-3.4-8.3
			c0.1-3.2,1.3-5.9,3.8-8.3c2.5-2.3,5.3-3.5,8.4-3.5c3.2,0.1,5.9,1.3,8.3,3.7c2.3,2.5,3.5,5.2,3.5,8.4
			C77.8,224.9,76.6,227.7,74.1,230.1z M72,227.9c1.9-1.8,2.9-3.9,3-6.4c0.1-2.5-0.7-4.5-2.4-6.4c-1.8-1.9-3.9-2.8-6.3-2.8
			c-2.4,0-4.6,0.9-6.4,2.8c-1.9,1.8-3,4-3,6.4c-0.1,2.5,0.7,4.5,2.4,6.4c1.7,1.8,3.8,2.7,6.3,2.8C67.9,230.7,70.1,229.8,72,227.9z"
			/>
		<path class="st0" d="M54.3,203.2l8-4.6l1.4,2.4l-20,11.5c-0.5-0.9-1.1-1.9-1.7-2.8c-0.6-1-1.1-1.8-1.5-2.5
			c-2.8-4.7-2.1-8.2,1.8-10.6c1.5-0.9,3-1.1,4.5-0.9c1.4,0.3,2.7,0.8,3.7,1.9l4.6-11.5l1.7,3l-4.5,10.8L54.3,203.2z M42.9,206
			c0.1,0.2,0.7,1.1,1.6,2.8l7.4-4.3l-1.7-3c-0.7-1.3-1.7-2.1-2.8-2.5c-1.2-0.5-2.4-0.4-3.6,0.2C41.4,200.7,41.1,202.9,42.9,206z"/>
		<path class="st0" d="M38.6,161.8l1.4,6.1l-2.5,0.6l-2-8.6l8.6-2c1.2,0.8,2.3,1.8,3.2,3.3c0.9,1.5,1.6,3,1.8,4.4
			c0.8,3.5,0.4,6.5-1.3,9.1c-1.7,2.5-4.2,4.2-7.7,5c-3.3,0.7-6.3,0.4-9-1.2s-4.4-4-5.2-7.3c-0.6-2.9-0.4-5.4,0.6-7.6l2.4,0.7
			c-0.9,1.6-1.1,3.6-0.6,5.9c0.6,2.5,1.8,4.4,3.9,5.6c2.1,1.2,4.3,1.5,7.1,0.8c2.8-0.6,4.7-1.9,6.1-3.8c1.3-2,1.6-4.2,1-6.8
			c-0.2-1.1-0.6-2.1-1.3-3.1c-0.6-1-1.3-1.7-2.1-2.2L38.6,161.8z"/>
		<path class="st0" d="M46.7,138.8l0.1,13.4l-23.1,0.2l-0.1-13h2.7l0.1,10.3l7.4-0.1l-0.1-9.3l2.7,0l0.1,9.3l7.7-0.1L44,138.9
			L46.7,138.8z"/>
		<path class="st0" d="M47.1,133.5l-0.6,2.8L25.8,122l0.5-2.3l24.7-5.1l-0.6,3L43,119l-2.1,10.3L47.1,133.5z M40.1,119.5l-10.5,2.1
			l8.8,6L40.1,119.5z"/>
		<path class="st0" d="M45.3,104.8l8.4,3.7l-1.1,2.5l-21.1-9.5c0.4-1,0.8-2,1.3-3c0.5-1.1,0.8-2,1.2-2.6c2.3-4.9,5.4-6.6,9.6-4.7
			c1.6,0.7,2.7,1.7,3.3,3.1c0.6,1.3,0.8,2.7,0.6,4.2l12.1-3l-1.4,3.1l-11.3,2.7L45.3,104.8z M36.3,97.3c-0.1,0.2-0.5,1.2-1.3,3
			l7.8,3.5l1.4-3.1c0.6-1.3,0.7-2.5,0.4-3.8c-0.4-1.3-1.1-2.2-2.3-2.8C39.8,93,37.7,94,36.3,97.3z"/>
	</g>
	<g>
		<path class="st0" d="M240.2,202.6c-3-1.4-5.2-3.6-6.2-6.6c-1.1-3-0.9-6,0.5-9.1s3.6-5.2,6.6-6.2c3-1.1,6-0.9,9.2,0.6
			c3.1,1.4,5.2,3.7,6.3,6.7l3.7-1.1l-1.4,3l-1.8,0.5c0.2,2.2-0.1,4.4-1.1,6.5c-1.5,3-3.6,5.2-6.6,6.2
			C246.4,204.3,243.3,204,240.2,202.6z M241.4,199.9c2.3,1.1,4.7,1.3,7,0.5s4-2.3,5.1-4.5c0.7-1.6,1-3.1,0.8-4.7l-3,0.8l-0.7-2.4
			l3.1-0.8c-0.9-2.2-2.5-3.7-4.8-4.8c-2.4-1.1-4.7-1.3-7-0.5c-2.3,0.8-4,2.3-5,4.6c-1.1,2.3-1.2,4.6-0.3,6.8
			C237.3,197,239,198.7,241.4,199.9z"/>
		<path class="st0" d="M243.4,157.4l0.5-2.8l13.2,2.5c3.3,0.6,5.6,1.9,6.9,3.9c1.3,2,1.7,4.2,1.2,6.7c-0.6,2.8-1.8,4.9-3.8,6.4
			c-2.1,1.3-4.7,1.7-7.9,1.1l-12.9-2.5l0.5-2.8l12.4,2.4c2.5,0.5,4.5,0.3,6.2-0.6c1.6-0.9,2.6-2.3,3-4.5c0.4-1.9,0-3.5-1.1-4.8
			c-1.1-1.3-2.9-2.2-5.4-2.6L243.4,157.4z"/>
		<path class="st0" d="M267.3,148.4l0.1,2.8l-23.6-8.9l-0.1-2.4l22.8-10.9l0.1,3l-6.9,3.3l0.5,10.5L267.3,148.4z M257.2,136.4
			l-9.7,4.6l10,3.7L257.2,136.4z"/>
		<path class="st0" d="M261.4,107.7l3.4,13.7l-22.4,5.6l-0.7-2.7l19.9-4.9l-2.7-11L261.4,107.7z"/>
		<path class="st0" d="M257.6,98.1l1.1,2.6l-21.4,8.7l-1.1-2.6L257.6,98.1z"/>
		<path class="st0" d="M233.1,94.7l4.1,6.9l-2.3,1.3l-9.7-16.3l2.3-1.3l4.1,6.9l17.6-10.4l1.4,2.4L233.1,94.7z"/>
		<path class="st0" d="M214.6,74.7l-2.1-2.3l15.3-2.6l7.4-6.6l1.8,2.1l-7.4,6.6l-4.4,14.8l-2.1-2.4l3.5-11.9L214.6,74.7z"/>
		<path class="st0" d="M198.2,45.6l5.4,3.3l-1.4,2.3l-7.6-4.6l4.6-7.6c1.3-0.4,2.9-0.4,4.6,0.1c1.7,0.4,3.2,0.9,4.5,1.8
			c3,1.9,4.9,4.2,5.7,7.2c0.7,3,0.1,6-1.8,9.1c-1.8,2.9-4.2,4.7-7.1,5.6s-5.9,0.4-8.8-1.4c-2.5-1.6-4.2-3.5-5-5.7l2.3-1.3
			c0.5,1.8,1.8,3.3,3.9,4.6c2.2,1.3,4.4,1.7,6.7,1.1c2.3-0.6,4.1-2.1,5.6-4.5c1.4-2.4,1.9-4.7,1.5-7c-0.6-2.3-1.8-4.1-4.2-5.4
			c-0.8-0.6-2-1-3.1-1.3c-1.1-0.3-2.1-0.3-3-0.1L198.2,45.6z"/>
		<path class="st0" d="M190.1,43.9c-1.1,3.2-3,5.5-5.7,7c-2.8,1.6-5.9,1.8-9.1,0.7c-3.2-1.1-5.5-3-7-5.7c-1.5-2.8-1.6-5.9-0.6-9.2
			c1-3.3,2.9-5.6,5.8-7.1c2.8-1.4,5.8-1.7,9-0.6s5.5,3,7,5.7C190.9,37.5,191.2,40.6,190.1,43.9z M187.3,42.9
			c0.8-2.5,0.7-4.8-0.4-7.1c-1.1-2.2-2.8-3.7-5.2-4.5c-2.5-0.8-4.7-0.6-6.8,0.6c-2.1,1.1-3.6,3-4.4,5.5c-0.8,2.5-0.6,4.9,0.4,7.1
			c1.1,2.2,2.8,3.7,5.2,4.5c2.4,0.7,4.7,0.6,6.8-0.6C184.9,47.4,186.5,45.5,187.3,42.9z"/>
		<path class="st0" d="M162.8,35.8c-0.2,3.3-1.4,6.1-3.7,8.3c-2.3,2.2-5.2,3.2-8.6,3c-3.4-0.1-6.1-1.4-8.3-3.7
			c-2.2-2.3-3.1-5.2-2.9-8.7c0.1-3.4,1.5-6.2,3.8-8.3c2.4-2.1,5.2-3.1,8.6-2.9c3.4,0.1,6.1,1.4,8.3,3.7
			C162,29.4,162.9,32.3,162.8,35.8z M159.8,35.7c0.1-2.5-0.6-4.8-2.2-6.7c-1.6-1.8-3.7-2.8-6.1-3c-2.5-0.1-4.7,0.6-6.4,2.3
			s-2.7,3.8-2.8,6.5s0.6,4.9,2.2,6.7c1.6,1.8,3.7,2.8,6.1,3c2.5,0.1,4.7-0.6,6.4-2.3C158.7,40.5,159.7,38.4,159.8,35.7z"/>
		<path class="st0" d="M130,24.2l0.4-0.1l4.5,22.7l-0.4,0.1c-0.9,0.2-1.8,0.4-2.7,0.6c-1.8,0.4-2.9,0.6-3,0.6
			c-2.2,0.5-4.2,0.5-5.9,0.3c-1.8-0.2-3.3-0.8-4.5-1.6c-1.1-0.8-2.2-1.9-2.9-3s-1.3-2.5-1.6-4.1c-0.7-3.4-0.1-6.4,1.7-9.1
			c1.8-2.7,4.8-4.4,8.9-5.2c0.9-0.2,1.8-0.4,2.6-0.5C127.9,24.6,128.9,24.4,130,24.2z M128.2,45.5c0.4-0.1,0.9-0.2,1.8-0.4
			c0.8-0.2,1.3-0.3,1.6-0.4l-3.5-17.5c-0.6,0.1-1.1,0.2-1.6,0.4c-0.5,0.1-0.9,0.2-1.2,0.2c-0.3,0-0.4,0.1-0.5,0.1
			c-3.2,0.6-5.4,1.9-6.9,3.9c-1.4,2-1.8,4.4-1.3,7.1c0.6,2.5,1.8,4.5,3.8,5.7C122.5,45.9,125,46.1,128.2,45.5z"/>
		<path class="st0" d="M96.1,40.3c0.3,0.7,0.8,1.2,1.3,1.6c0.6,0.4,1.3,0.6,2.1,0.6c0.8,0.1,1.6,0.1,2.4,0.1c0.8,0,1.7,0,2.6,0.1
			s1.7,0.1,2.5,0.4c0.8,0.2,1.6,0.6,2.3,1.1c0.7,0.6,1.2,1.3,1.6,2.3c0.7,1.6,0.6,3.2-0.1,4.7c-0.7,1.6-2.1,2.8-4,3.6
			c-1.2,0.5-2.4,0.7-3.6,0.8c-1.2,0.1-2.3-0.1-3.1-0.6l0.6-2.5c1.6,0.6,3.3,0.6,5-0.1c1.2-0.5,2-1.1,2.5-2.1
			c0.4-0.8,0.5-1.8,0.1-2.8c-0.3-0.7-0.8-1.2-1.3-1.6c-0.6-0.4-1.3-0.6-2.1-0.6c-0.8-0.1-1.6-0.1-2.5-0.1c-0.8,0-1.7,0-2.6-0.1
			c-0.8,0-1.7-0.1-2.5-0.3c-0.8-0.2-1.6-0.6-2.3-1.1s-1.3-1.4-1.6-2.3c-0.8-1.8-0.6-3.5,0.2-5c0.8-1.6,2.3-2.8,4.2-3.7
			c1.4-0.6,2.8-0.8,4.4-0.8c1.6,0,2.7,0.4,3.7,1.2l-0.7,2.4c-0.9-0.5-2-0.8-3.1-0.8c-1.2-0.1-2.3,0.1-3.3,0.6
			c-1.2,0.5-2.1,1.2-2.6,2.2S95.7,39.3,96.1,40.3z"/>
	</g>
	<g>
		<circle class="st0" cx="223.1" cy="224" r="2"/>
	</g>
	<g>
		<circle class="st0" cx="69" cy="64.2" r="2"/>
	</g>
</g>
</svg>
