<?xml version="1.0" encoding="utf-8"?>
<!-- Generator: Adobe Illustrator 22.1.0, SVG Export Plug-In . SVG Version: 6.00 Build 0)  -->
<svg version="1.1" id="Layer_1" xmlns="http://www.w3.org/2000/svg" xmlns:xlink="http://www.w3.org/1999/xlink" x="0px" y="0px"
	 viewBox="0 0 147.6 137.8" style="enable-background:new 0 0 147.6 137.8;" xml:space="preserve">
<style type="text/css">
	.st0{fill:url(#SVGID_1_);}
	.st1{fill:url(#SVGID_2_);}
	.st2{fill:url(#SVGID_3_);}
</style>
<g>
	
		<linearGradient id="SVGID_1_" gradientUnits="userSpaceOnUse" x1="0.3616" y1="1786.6008" x2="144.6949" y2="1653.9341" gradientTransform="matrix(1 0 0 1 0 -1663.8)">
		<stop  offset="0" style="stop-color:#00DAB1"/>
		<stop  offset="1" style="stop-color:#00DAD7"/>
	</linearGradient>
	<path class="st0" d="M25.2,65.4c0.3,0.6,0.9,0.9,1.5,0.9h75.8c0.6,0,1.2-0.3,1.5-0.9s0.3-1.2-0.1-1.8c-8.8-13-23.5-20.8-39.3-20.8
		s-30.5,7.8-39.3,20.8C25,64.2,24.9,64.9,25.2,65.4z M64.6,46.3c13.6,0,26.3,6.2,34.5,16.7h-69C38.3,52.4,51,46.3,64.6,46.3z"/>
	
		<linearGradient id="SVGID_2_" gradientUnits="userSpaceOnUse" x1="-13.9151" y1="1771.0686" x2="130.4182" y2="1638.402" gradientTransform="matrix(1 0 0 1 0 -1663.8)">
		<stop  offset="0" style="stop-color:#00DAB1"/>
		<stop  offset="1" style="stop-color:#00DAD7"/>
	</linearGradient>
	<path class="st1" d="M64.6,42.2c3.9,0,7.1-3.2,7.1-7.1S68.5,28,64.6,28s-7.1,3.2-7.1,7.1S60.7,42.2,64.6,42.2z M64.6,31.4
		c2,0,3.7,1.6,3.7,3.7c0,2-1.6,3.7-3.7,3.7c-2,0-3.7-1.6-3.7-3.7C60.9,33.1,62.6,31.4,64.6,31.4z"/>
	
		<linearGradient id="SVGID_3_" gradientUnits="userSpaceOnUse" x1="9.8699" y1="1796.9452" x2="154.2032" y2="1664.2784" gradientTransform="matrix(1 0 0 1 0 -1663.8)">
		<stop  offset="0" style="stop-color:#00DAB1"/>
		<stop  offset="1" style="stop-color:#00DAD7"/>
	</linearGradient>
	<path class="st2" d="M147.6,70.5c0-0.6-0.5-1.3-0.9-1.3l-14.3,0c-0.6,0-1,0-1.5,0.2L113.5,80l-3.7-6.5c3.6-7.1,5.5-14.9,5.5-22.9
		C115.3,22.7,92.6,0,64.7,0S14.1,22.7,14.1,50.6c0,8,1.9,15.8,5.5,22.9L3.3,101.6c-4.4,7.6-4.4,16.6,0,24.1
		c4.4,7.6,12.2,12.1,20.9,12.1h80.9c8.7,0,16.5-4.5,20.9-12.1c4.4-7.6,4.4-16.6,0-24.1l-0.2-0.3l21.2-29.4
		C147.4,71.4,147.6,71.1,147.6,70.5z M64.6,3.4c26,0,47.2,21.2,47.2,47.2c0,7.4-1.8,14.8-5.1,21.3H22.6c-3.3-6.6-5.1-13.9-5.1-21.3
		C17.5,24.6,38.6,3.4,64.6,3.4z M123,124c-3.7,6.5-10.5,10.4-17.9,10.4H24.2c-7.5,0-14.2-3.9-17.9-10.4s-3.7-14.2,0-20.7l16.2-28
		h84.4l16.2,28C126.8,109.8,126.8,117.6,123,124z M124.1,98.4l-8.9-15.5l18-10.9c0.1-0.1,0.3-0.1,0.4-0.1l9.4,0L124.1,98.4z"/>
</g>
</svg>
