<?xml version="1.0" encoding="utf-8"?>
<!-- Generator: Adobe Illustrator 22.0.1, SVG Export Plug-In . SVG Version: 6.00 Build 0)  -->
<svg version="1.1" id="Layer_1" xmlns="http://www.w3.org/2000/svg" xmlns:xlink="http://www.w3.org/1999/xlink" x="0px" y="0px"
	 viewBox="0 0 161.2 25.4" style="enable-background:new 0 0 161.2 25.4;" xml:space="preserve">
<style type="text/css">
	.st0{fill:#FFFFFF;}
</style>
<title>Path 2</title>
<desc>Created with Sketch.</desc>
<g id="Work" transform="translate(-2010.000000, -1325.000000)">
	<g id="White-buttons" transform="translate(1578.000000, 1289.000000)">
		<g id="Path-2">
			<path class="st0" d="M432.5,61.4c-0.1,0-0.3-0.1-0.4-0.2c-0.2-0.2-0.1-0.5,0.1-0.7l14.5-12l-14.5-11.6c-0.2-0.2-0.3-0.5-0.1-0.7
				c0.2-0.2,0.5-0.3,0.7-0.1l15,12c0.1,0.1,0.2,0.2,0.2,0.4s-0.1,0.3-0.2,0.4l-15,12.4C432.7,61.4,432.6,61.4,432.5,61.4z"/>
		</g>
	</g>
</g>
<g id="Work_1_" transform="translate(-2010.000000, -1325.000000)">
	<g id="White-buttons_1_" transform="translate(1578.000000, 1289.000000)">
		<g id="Path-2_1_">
			<path class="st0" d="M577.7,61.4c-0.1,0-0.3-0.1-0.4-0.2c-0.2-0.2-0.1-0.5,0.1-0.7l14.5-12l-14.5-11.6c-0.2-0.2-0.2-0.5-0.1-0.7
				c0.2-0.2,0.5-0.2,0.7-0.1l15,12c0.1,0.1,0.2,0.2,0.2,0.4s-0.1,0.3-0.2,0.4l-15,12.4C577.9,61.4,577.8,61.4,577.7,61.4z"/>
		</g>
	</g>
</g>
</svg>
