<?xml version="1.0" encoding="utf-8"?>
<!-- Generator: Adobe Illustrator 22.1.0, SVG Export Plug-In . SVG Version: 6.00 Build 0)  -->
<svg version="1.1" id="Layer_1" xmlns="http://www.w3.org/2000/svg" xmlns:xlink="http://www.w3.org/1999/xlink" x="0px" y="0px"
	 viewBox="0 0 323.6 62" style="enable-background:new 0 0 323.6 62;" xml:space="preserve">
<style type="text/css">
	.st0{fill:#FFFFFF;}
</style>
<g>
	<path class="st0" d="M3.1,20.2H0.2v-1.5h7.4v1.5H4.7v7.5H3.1V20.2z"/>
	<path class="st0" d="M16.1,27.7h-1.6v-3.8h-4.1v3.8H8.9v-8.9h1.6v3.6h4.1v-3.6h1.6V27.7z"/>
	<path class="st0" d="M23.9,27.7h-5.3v-8.9h5.2v1.5h-3.6v2.2h3.2v1.5h-3.2v2.3h3.7V27.7z"/>
	<path class="st0" d="M27.9,23.2c0-1.3,0.4-2.4,1.3-3.3c0.9-0.9,2-1.3,3.3-1.3c1.3,0,2.5,0.4,3.3,1.3c0.9,0.9,1.3,2,1.3,3.3
		c0,1.3-0.4,2.3-1.2,3.2l1.1,1.3h-1.8l-0.4-0.4c-0.7,0.4-1.5,0.6-2.3,0.6c-1.3,0-2.5-0.4-3.3-1.3S27.9,24.6,27.9,23.2z M29.6,23.2
		c0,0.9,0.3,1.6,0.9,2.2c0.6,0.6,1.3,0.9,2.1,0.9c0.5,0,0.9-0.1,1.3-0.3l-0.8-0.9l1-0.9l0.8,0.9c0.4-0.6,0.6-1.2,0.6-2
		c0-0.9-0.3-1.7-0.9-2.3c-0.6-0.6-1.3-0.9-2.1-0.9c-0.9,0-1.6,0.3-2.1,0.9C29.9,21.6,29.6,22.3,29.6,23.2z"/>
	<path class="st0" d="M44.7,18.8h1.6V24c0,1.3-0.3,2.2-1,2.9c-0.7,0.6-1.5,1-2.5,1c-1.1,0-2.1-0.3-2.8-1c-0.7-0.7-1-1.6-1-2.9v-5.1
		h1.6v4.8c0,0.9,0.2,1.6,0.6,2.1s0.9,0.7,1.7,0.7c1.3,0,2-0.9,2-2.7V18.8z"/>
	<path class="st0" d="M50.4,27.7h-1.6v-8.9h1.6V27.7z"/>
	<path class="st0" d="M59.2,25.6l0.6,1.2c-0.3,0.3-0.7,0.5-1.2,0.7c-0.5,0.2-1.1,0.3-1.6,0.3c-1.4,0-2.5-0.4-3.3-1.3
		c-0.8-0.8-1.3-2-1.3-3.3c0-1.3,0.4-2.4,1.2-3.3c0.8-0.9,1.9-1.3,3.4-1.3c1.1,0,2,0.3,2.7,0.9l-0.7,1.2c-0.6-0.4-1.3-0.6-2-0.6
		c-0.8,0-1.5,0.3-2.1,0.9c-0.5,0.6-0.8,1.3-0.8,2.3c0,0.9,0.3,1.7,0.9,2.3c0.6,0.6,1.3,0.9,2.2,0.9C57.9,26.4,58.6,26.1,59.2,25.6z"
		/>
	<path class="st0" d="M62.9,27.7h-1.6v-8.9h1.6V23l3.5-4.2h1.9l-3.7,4.2l3.9,4.8h-2l-3.6-4.6V27.7z"/>
	<path class="st0" d="M72.6,27.7v-8.9c0.9,0,1.8-0.1,2.6-0.1c1,0,1.7,0.2,2.2,0.6s0.7,0.9,0.7,1.6c0,1-0.4,1.6-1.3,2v0
		c0.5,0.1,0.9,0.4,1.1,0.7c0.3,0.4,0.4,0.8,0.4,1.4c0,0.9-0.3,1.5-0.9,2s-1.4,0.7-2.4,0.7S73.3,27.7,72.6,27.7z M75.2,20.2
		c-0.4,0-0.7,0-1,0v2.3h1.1c0.4,0,0.7-0.1,1-0.3c0.2-0.2,0.4-0.5,0.4-0.9c0-0.4-0.1-0.6-0.4-0.8C76,20.3,75.6,20.2,75.2,20.2z
		 M75.3,23.8h-1.1v2.4c0.4,0,0.7,0.1,1,0.1c1.1,0,1.6-0.4,1.6-1.3c0-0.4-0.1-0.7-0.4-0.8C76.2,23.9,75.8,23.8,75.3,23.8z"/>
	<path class="st0" d="M82.1,24.3v3.3h-1.6v-8.9c0.4,0,0.9,0,1.4,0s0.9,0,1.3,0c2.2,0,3.2,0.9,3.2,2.8c0,0.7-0.2,1.2-0.5,1.7
		c-0.3,0.4-0.7,0.7-1.2,0.9l2.8,3.6h-1.9l-2.5-3.3H82.1z M83.1,20.2c0,0-0.1,0-0.2,0c-0.1,0-0.2,0-0.4,0c-0.2,0-0.3,0-0.5,0v2.7h1
		c0.5,0,0.9-0.1,1.2-0.4c0.3-0.2,0.5-0.6,0.5-1C84.8,20.6,84.2,20.2,83.1,20.2z"/>
	<path class="st0" d="M87.9,23.2c0-1.3,0.4-2.4,1.3-3.3c0.9-0.9,2-1.3,3.3-1.3s2.5,0.4,3.3,1.3c0.9,0.9,1.3,2,1.3,3.3
		c0,1.3-0.4,2.4-1.3,3.3c-0.9,0.9-2,1.3-3.3,1.3c-1.3,0-2.5-0.4-3.3-1.3S87.9,24.6,87.9,23.2z M89.5,23.2c0,0.9,0.3,1.6,0.9,2.2
		c0.6,0.6,1.3,0.9,2.1,0.9c0.9,0,1.6-0.3,2.2-0.9c0.5-0.6,0.8-1.3,0.8-2.2c0-0.9-0.3-1.7-0.9-2.3c-0.6-0.6-1.3-0.9-2.1-0.9
		c-0.9,0-1.6,0.3-2.1,0.9C89.8,21.6,89.5,22.3,89.5,23.2z"/>
	<path class="st0" d="M108.5,18.8h1.5l-2.5,8.9H106l-2.2-6.4l-2.1,6.4h-1.5l-2.7-8.9h1.8l1.8,6.4l2-6.4h1.6l2,6.4L108.5,18.8z"/>
	<path class="st0" d="M118.9,18.8v8.9h-1.2l-4.9-6.2v6.2h-1.5v-8.9h1.2l4.9,6.2v-6.2H118.9z"/>
	<path class="st0" d="M125.6,27.7h-1.6v-8.9h5.1v1.5h-3.5v2.5h3.1v1.5h-3.1V27.7z"/>
	<path class="st0" d="M130.4,23.2c0-1.3,0.4-2.4,1.3-3.3c0.9-0.9,2-1.3,3.3-1.3s2.5,0.4,3.3,1.3c0.9,0.9,1.3,2,1.3,3.3
		c0,1.3-0.4,2.4-1.3,3.3c-0.9,0.9-2,1.3-3.3,1.3c-1.3,0-2.5-0.4-3.3-1.3S130.4,24.6,130.4,23.2z M132,23.2c0,0.9,0.3,1.6,0.9,2.2
		c0.6,0.6,1.3,0.9,2.1,0.9c0.9,0,1.6-0.3,2.2-0.9c0.5-0.6,0.8-1.3,0.8-2.2c0-0.9-0.3-1.7-0.9-2.3c-0.6-0.6-1.3-0.9-2.1-0.9
		c-0.9,0-1.6,0.3-2.1,0.9C132.3,21.6,132,22.3,132,23.2z"/>
	<path class="st0" d="M146.2,18.8h1.8l-3,4.4l3.1,4.5h-1.8l-2.3-3.4l-2.3,3.4h-1.8l3.1-4.5l-3-4.4h1.8L144,22L146.2,18.8z"/>
	<path class="st0" d="M153.1,18.8h1.6v6.8c0,0.7-0.2,1.3-0.5,1.7s-0.9,0.6-1.6,0.6c-0.3,0-0.6-0.1-0.9-0.2c-0.3-0.1-0.5-0.2-0.6-0.4
		l0.5-1.2c0.2,0.2,0.5,0.3,0.8,0.3c0.5,0,0.8-0.3,0.8-1V18.8z"/>
	<path class="st0" d="M162.8,18.8h1.6V24c0,1.3-0.3,2.2-1,2.9c-0.7,0.6-1.5,1-2.5,1c-1.1,0-2.1-0.3-2.8-1c-0.7-0.7-1-1.6-1-2.9v-5.1
		h1.6v4.8c0,0.9,0.2,1.6,0.6,2.1s0.9,0.7,1.7,0.7c1.3,0,2-0.9,2-2.7V18.8z"/>
	<path class="st0" d="M168.3,27.7h-1.6v-8.9h1.6l3,4.2l2.9-4.2h1.5v8.9h-1.6v-6.4l-2.8,4h-0.2l-2.8-3.9V27.7z"/>
	<path class="st0" d="M179.8,24.5v3.2h-1.6v-8.9c0.4,0,0.8,0,1.2,0c0.4,0,0.9,0,1.3,0c0.6,0,1.2,0.1,1.6,0.2s0.8,0.4,1.1,0.7
		c0.3,0.3,0.4,0.6,0.6,0.9s0.2,0.7,0.2,1.1c0,0.8-0.3,1.5-0.9,2.1c-0.6,0.6-1.4,0.8-2.4,0.8C180.4,24.5,180.1,24.5,179.8,24.5z
		 M180.9,20.2l-1.1,0V23c0.5,0,0.8,0.1,1.1,0.1c0.5,0,0.9-0.1,1.2-0.4c0.3-0.2,0.5-0.6,0.5-1.1C182.6,20.7,182,20.2,180.9,20.2z"/>
	<path class="st0" d="M189.6,25.3c0-0.3-0.1-0.5-0.3-0.7c-0.2-0.2-0.4-0.4-0.7-0.5c-0.3-0.1-0.6-0.3-1-0.5c-0.4-0.2-0.7-0.4-1-0.5
		c-0.3-0.2-0.5-0.5-0.7-0.8c-0.2-0.3-0.3-0.7-0.3-1.2c0-0.7,0.2-1.3,0.8-1.7c0.5-0.5,1.2-0.7,2-0.7c1.1,0,2,0.3,2.5,1l-0.8,1.2
		c-0.5-0.4-1-0.7-1.6-0.7c-0.4,0-0.7,0.1-0.9,0.3c-0.2,0.2-0.3,0.4-0.3,0.7c0,0.2,0,0.3,0.1,0.4s0.1,0.2,0.2,0.3
		c0.1,0.1,0.2,0.2,0.4,0.3c0.2,0.1,0.3,0.2,0.4,0.2c0.1,0,0.3,0.1,0.5,0.2s0.4,0.2,0.5,0.2c0.4,0.2,0.7,0.3,1,0.5
		c0.3,0.2,0.6,0.5,0.8,0.8c0.2,0.3,0.3,0.7,0.3,1.2c0,0.7-0.3,1.4-0.9,1.8c-0.6,0.5-1.3,0.7-2.1,0.7c-0.6,0-1.2-0.1-1.8-0.4
		c-0.6-0.3-0.9-0.6-1.1-1l0.9-1.1c0.2,0.3,0.5,0.6,0.9,0.7c0.4,0.2,0.8,0.3,1.1,0.3c0.4,0,0.7-0.1,0.9-0.3
		C189.5,25.9,189.6,25.6,189.6,25.3z"/>
	<path class="st0" d="M195.1,23.2c0-1.3,0.4-2.4,1.3-3.3c0.9-0.9,2-1.3,3.3-1.3c1.3,0,2.5,0.4,3.3,1.3c0.9,0.9,1.3,2,1.3,3.3
		c0,1.3-0.4,2.4-1.3,3.3s-2,1.3-3.3,1.3c-1.3,0-2.5-0.4-3.3-1.3S195.1,24.6,195.1,23.2z M196.8,23.2c0,0.9,0.3,1.6,0.9,2.2
		c0.6,0.6,1.3,0.9,2.1,0.9c0.9,0,1.6-0.3,2.2-0.9c0.5-0.6,0.8-1.3,0.8-2.2c0-0.9-0.3-1.7-0.9-2.3c-0.6-0.6-1.3-0.9-2.1-0.9
		c-0.9,0-1.6,0.3-2.1,0.9C197.1,21.6,196.8,22.3,196.8,23.2z"/>
	<path class="st0" d="M211.4,18.8h1.6l-3.6,8.9h-1.2l-3.7-8.9h1.7l2.7,6.6L211.4,18.8z"/>
	<path class="st0" d="M219.5,27.7h-5.3v-8.9h5.2v1.5h-3.6v2.2h3.2v1.5h-3.2v2.3h3.7V27.7z"/>
	<path class="st0" d="M223.1,24.3v3.3h-1.6v-8.9c0.4,0,0.9,0,1.4,0c0.5,0,0.9,0,1.3,0c2.2,0,3.2,0.9,3.2,2.8c0,0.7-0.2,1.2-0.5,1.7
		c-0.3,0.4-0.7,0.7-1.2,0.9l2.8,3.6h-1.9l-2.5-3.3H223.1z M224.1,20.2c0,0-0.1,0-0.2,0c-0.1,0-0.2,0-0.4,0s-0.3,0-0.5,0v2.7h1
		c0.5,0,0.9-0.1,1.2-0.4c0.3-0.2,0.5-0.6,0.5-1C225.8,20.6,225.2,20.2,224.1,20.2z"/>
	<path class="st0" d="M234.4,20.2h-2.9v-1.5h7.4v1.5h-2.9v7.5h-1.6V20.2z"/>
	<path class="st0" d="M247.4,27.7h-1.6v-3.8h-4.1v3.8h-1.6v-8.9h1.6v3.6h4.1v-3.6h1.6V27.7z"/>
	<path class="st0" d="M255.1,27.7h-5.3v-8.9h5.2v1.5h-3.6v2.2h3.2v1.5h-3.2v2.3h3.7V27.7z"/>
	<path class="st0" d="M265.5,27.7h-5.6v-8.9h1.6v7.5h4V27.7z"/>
	<path class="st0" d="M267.3,27.7h-1.6l3.8-8.9h1.4l3.8,8.9H273l-0.9-2.3h-3.8L267.3,27.7z M271.4,23.9l-1.3-3.2l-1.3,3.2H271.4z"/>
	<path class="st0" d="M279.9,20.2h-4.7v-1.5h6.8v1.1l-4.9,6.4h5.1v1.5H275v-1.1L279.9,20.2z"/>
	<path class="st0" d="M288.7,18.8h1.7l-3.2,5.2v3.7h-1.6V24l-3.1-5.2h1.8l2.2,3.7L288.7,18.8z"/>
	<path class="st0" d="M294.5,27.7h-0.2v-8.9h0.2c0.4,0,0.8,0,1.2,0c0.8,0,1.3,0,1.3,0c1.7,0,3,0.4,3.8,1.3c0.8,0.8,1.2,1.9,1.2,3.1
		c0,1.3-0.4,2.4-1.3,3.3c-0.9,0.9-2.1,1.3-3.8,1.3c-0.3,0-0.7,0-1.1,0C295.5,27.7,295,27.7,294.5,27.7z M297,20.2c-0.3,0-0.7,0-1,0
		v6c0.4,0,0.7,0,1,0c1.1,0,1.9-0.3,2.5-0.8c0.6-0.6,0.9-1.3,0.9-2.3c0-0.9-0.3-1.6-0.9-2.2C298.8,20.5,298,20.2,297,20.2z"/>
	<path class="st0" d="M303.1,23.2c0-1.3,0.4-2.4,1.3-3.3c0.9-0.9,2-1.3,3.3-1.3c1.3,0,2.5,0.4,3.3,1.3c0.9,0.9,1.3,2,1.3,3.3
		c0,1.3-0.4,2.4-1.3,3.3s-2,1.3-3.3,1.3c-1.3,0-2.5-0.4-3.3-1.3S303.1,24.6,303.1,23.2z M304.8,23.2c0,0.9,0.3,1.6,0.9,2.2
		c0.6,0.6,1.3,0.9,2.1,0.9c0.9,0,1.6-0.3,2.2-0.9c0.5-0.6,0.8-1.3,0.8-2.2c0-0.9-0.3-1.7-0.9-2.3c-0.6-0.6-1.3-0.9-2.1-0.9
		c-0.9,0-1.6,0.3-2.1,0.9C305.1,21.6,304.8,22.3,304.8,23.2z"/>
	<path class="st0" d="M320.1,24.3h-2.2v-1.5h3.6v3.7c-0.4,0.4-0.9,0.7-1.5,0.9c-0.6,0.2-1.2,0.3-1.8,0.3c-1.4,0-2.6-0.4-3.4-1.2
		c-0.8-0.8-1.2-1.9-1.2-3.4c0-1.3,0.4-2.4,1.2-3.3c0.8-0.9,1.9-1.3,3.2-1.3c1.1,0,2.1,0.3,2.9,0.9l-0.7,1.2
		c-0.2-0.2-0.5-0.4-0.9-0.5s-0.7-0.2-1.1-0.2c-0.9,0-1.6,0.3-2.2,0.8c-0.6,0.6-0.8,1.3-0.8,2.3c0,0.9,0.3,1.7,0.8,2.3
		c0.5,0.6,1.3,0.9,2.2,0.9c0.3,0,0.7-0.1,1-0.2c0.4-0.1,0.6-0.3,0.8-0.4V24.3z"/>
</g>
<g>
	<path class="st0" d="M3.5,36.4H0.2v-0.7h7.3v0.7H4.2v8.3H3.5V36.4z"/>
	<path class="st0" d="M9.3,44.6H8.6v-8.9h0.7v4c0.2-0.3,0.5-0.5,0.9-0.6c0.4-0.2,0.8-0.2,1.1-0.2c1.6,0,2.4,0.9,2.4,2.6v3.3h-0.7
		v-3.2c0-1.4-0.6-2.1-1.9-2.1c-0.4,0-0.7,0.1-1.1,0.2c-0.4,0.2-0.6,0.4-0.8,0.6V44.6z"/>
	<path class="st0" d="M20.2,43.4l0.2,0.5c-0.5,0.5-1.2,0.8-2.1,0.8c-0.9,0-1.7-0.3-2.2-0.8c-0.6-0.5-0.8-1.3-0.8-2.2
		c0-0.9,0.3-1.6,0.8-2.1c0.5-0.6,1.2-0.8,2.1-0.8c0.7,0,1.4,0.2,1.9,0.7c0.5,0.5,0.7,1.1,0.7,1.9c0,0.2,0,0.4,0,0.5H16
		c0,0.7,0.3,1.2,0.7,1.6c0.4,0.4,1,0.6,1.7,0.6C19.1,44.1,19.7,43.9,20.2,43.4z M18.1,39.4c-0.6,0-1.1,0.2-1.5,0.5
		c-0.4,0.4-0.6,0.8-0.7,1.4h4.1c0-0.6-0.2-1.1-0.5-1.4C19.2,39.6,18.7,39.4,18.1,39.4z"/>
	<path class="st0" d="M30.4,47.2h-0.7V44c-0.5,0.5-1.1,0.7-1.9,0.7c-0.9,0-1.6-0.3-2.1-0.8c-0.5-0.6-0.8-1.3-0.8-2.2
		c0-0.8,0.3-1.5,0.9-2.1c0.6-0.6,1.4-0.9,2.3-0.9c0.9,0,1.6,0.2,2.3,0.6V47.2z M27.9,44.1c0.3,0,0.7-0.1,1-0.2
		c0.3-0.2,0.6-0.4,0.8-0.6v-3.5c-0.5-0.3-1-0.4-1.6-0.4c-0.7,0-1.3,0.2-1.8,0.7c-0.5,0.5-0.7,1-0.7,1.7c0,0.7,0.2,1.3,0.6,1.7
		C26.7,43.9,27.2,44.1,27.9,44.1z"/>
	<path class="st0" d="M36.6,38.9h0.7v5.7h-0.7v-0.9c-0.2,0.3-0.6,0.5-0.9,0.7c-0.4,0.2-0.8,0.3-1.2,0.3c-1.5,0-2.2-0.8-2.2-2.5v-3.3
		h0.7v3.2c0,1.4,0.6,2,1.8,2c0.4,0,0.7-0.1,1.1-0.3c0.4-0.2,0.6-0.4,0.9-0.7V38.9z"/>
	<path class="st0" d="M39.5,36.7c0-0.1,0-0.2,0.1-0.3c0.1-0.1,0.2-0.1,0.3-0.1c0.1,0,0.2,0,0.3,0.1c0.1,0.1,0.1,0.2,0.1,0.3
		c0,0.1,0,0.3-0.1,0.3c-0.1,0.1-0.2,0.1-0.3,0.1c-0.1,0-0.2,0-0.3-0.1S39.5,36.8,39.5,36.7z M40.3,44.6h-0.7v-5.7h0.7V44.6z"/>
	<path class="st0" d="M47.1,43.3l0.3,0.5c-0.2,0.3-0.5,0.5-0.9,0.7c-0.4,0.2-0.8,0.2-1.2,0.2c-0.9,0-1.6-0.3-2.2-0.8
		c-0.6-0.5-0.8-1.3-0.8-2.2c0-0.8,0.3-1.5,0.8-2.1c0.6-0.6,1.2-0.9,2-0.9c1,0,1.7,0.2,2.2,0.7L47,40c-0.5-0.4-1.1-0.6-1.8-0.6
		c-0.6,0-1.1,0.2-1.6,0.7c-0.4,0.4-0.7,1-0.7,1.7c0,0.7,0.2,1.3,0.7,1.7c0.5,0.4,1,0.6,1.7,0.6C46.1,44.1,46.7,43.8,47.1,43.3z"/>
	<path class="st0" d="M49.6,44.6h-0.7v-8.9h0.7V44.6z M52.6,38.9h0.9l-2.7,2.7l2.9,3h-0.9l-2.8-3L52.6,38.9z"/>
	<path class="st0" d="M57.9,44.1v-8.4h0.7v3.9c0.2-0.2,0.5-0.4,0.9-0.6c0.4-0.2,0.7-0.2,1.1-0.2c0.8,0,1.5,0.3,2,0.8
		c0.5,0.5,0.7,1.2,0.7,2.1c0,0.9-0.3,1.7-0.9,2.2c-0.6,0.6-1.3,0.8-2.3,0.8C59.3,44.7,58.5,44.5,57.9,44.1z M60.4,39.4
		c-0.4,0-0.7,0.1-1.1,0.3c-0.3,0.2-0.6,0.4-0.8,0.6v3.3c0.5,0.3,1,0.5,1.6,0.5c0.7,0,1.3-0.2,1.7-0.7c0.5-0.4,0.7-1,0.7-1.7
		S62.4,40.4,62,40C61.6,39.6,61.1,39.4,60.4,39.4z"/>
	<path class="st0" d="M65.6,44.6h-0.7v-5.7h0.7v0.8c0.4-0.6,0.9-0.9,1.5-0.9c0.4,0,0.7,0.1,0.9,0.2l-0.2,0.6
		c-0.2-0.1-0.5-0.2-0.8-0.2c-0.6,0-1,0.3-1.4,0.9V44.6z"/>
	<path class="st0" d="M71.7,44.7c-0.9,0-1.6-0.3-2.2-0.8s-0.8-1.3-0.8-2.1s0.3-1.6,0.8-2.1s1.3-0.8,2.2-0.8c0.9,0,1.6,0.3,2.2,0.8
		s0.8,1.3,0.8,2.1s-0.3,1.6-0.8,2.1S72.6,44.7,71.7,44.7z M71.7,44.1c0.7,0,1.2-0.2,1.7-0.7c0.4-0.4,0.6-1,0.6-1.7
		c0-0.7-0.2-1.3-0.6-1.7c-0.4-0.4-1-0.7-1.7-0.7c-0.7,0-1.2,0.2-1.7,0.7c-0.4,0.4-0.6,1-0.6,1.7s0.2,1.3,0.6,1.7
		C70.5,43.9,71,44.1,71.7,44.1z"/>
	<path class="st0" d="M83.3,38.9h0.7l-1.9,5.8h-0.5L80,40.5c-0.1-0.4-0.2-0.6-0.3-0.7c-0.1,0.4-0.2,0.6-0.3,0.8l-1.5,4.1h-0.5
		l-1.9-5.8h0.7l1.3,4l0.2,0.8c0.1-0.4,0.2-0.7,0.3-0.8l1.5-4H80l1.5,4l0.2,0.5l0.1,0.4c0-0.1,0.1-0.2,0.1-0.5l0.1-0.4L83.3,38.9z"/>
	<path class="st0" d="M85.8,44.6h-0.7v-5.7h0.7v0.8c0.2-0.3,0.5-0.5,0.9-0.6s0.8-0.3,1.1-0.3c0.8,0,1.4,0.2,1.8,0.6
		c0.4,0.4,0.6,1.1,0.6,1.9v3.3h-0.7v-3.1c0-1.4-0.6-2.1-1.9-2.1c-0.4,0-0.7,0.1-1.1,0.2c-0.3,0.2-0.6,0.4-0.8,0.6V44.6z"/>
	<path class="st0" d="M96,44.6h-0.7V38c0-1.6,0.7-2.4,2-2.4c0.6,0,1.1,0.2,1.5,0.5l-0.3,0.5c-0.3-0.2-0.7-0.4-1.1-0.4
		c-0.9,0-1.4,0.6-1.4,1.9v0.8h2.2v0.6H96V44.6z"/>
	<path class="st0" d="M101.8,44.7c-0.9,0-1.6-0.3-2.2-0.8s-0.8-1.3-0.8-2.1s0.3-1.6,0.8-2.1s1.3-0.8,2.2-0.8c0.9,0,1.6,0.3,2.2,0.8
		s0.8,1.3,0.8,2.1s-0.3,1.6-0.8,2.1S102.7,44.7,101.8,44.7z M101.8,44.1c0.7,0,1.2-0.2,1.7-0.7c0.4-0.4,0.6-1,0.6-1.7
		c0-0.7-0.2-1.3-0.6-1.7c-0.4-0.4-1-0.7-1.7-0.7c-0.7,0-1.2,0.2-1.7,0.7c-0.4,0.4-0.6,1-0.6,1.7s0.2,1.3,0.6,1.7
		C100.6,43.9,101.2,44.1,101.8,44.1z"/>
	<path class="st0" d="M110.2,38.9h0.8l-2.2,2.8l2.3,3h-0.8l-2-2.5l-2,2.5h-0.8l2.3-2.9l-2.2-2.8h0.8l1.8,2.4L110.2,38.9z"/>
	<path class="st0" d="M115.9,38.9h0.7V45c0,1.5-0.6,2.2-1.8,2.2c-0.5,0-0.9-0.1-1.2-0.4l0.2-0.5c0.3,0.2,0.5,0.3,0.8,0.3
		c0.8,0,1.3-0.6,1.3-1.7V38.9z M115.7,36.7c0-0.1,0-0.2,0.1-0.3c0.1-0.1,0.2-0.1,0.3-0.1c0.1,0,0.2,0,0.3,0.1
		c0.1,0.1,0.1,0.2,0.1,0.3c0,0.1,0,0.3-0.1,0.3s-0.2,0.1-0.3,0.1c-0.1,0-0.2,0-0.3-0.1C115.8,36.9,115.7,36.8,115.7,36.7z"/>
	<path class="st0" d="M123,38.9h0.7v5.7H123v-0.9c-0.2,0.3-0.6,0.5-0.9,0.7c-0.4,0.2-0.8,0.3-1.2,0.3c-1.5,0-2.2-0.8-2.2-2.5v-3.3
		h0.7v3.2c0,1.4,0.6,2,1.8,2c0.4,0,0.7-0.1,1.1-0.3c0.4-0.2,0.6-0.4,0.9-0.7V38.9z"/>
	<path class="st0" d="M134.1,40.9v3.8h-0.7V41c0-1.1-0.5-1.6-1.5-1.6c-0.8,0-1.4,0.3-1.8,1c0,0.1,0,0.2,0,0.4v3.8h-0.7v-3.9
		c0-0.4-0.1-0.7-0.4-1c-0.3-0.2-0.6-0.4-1.1-0.4c-0.7,0-1.3,0.3-1.7,0.9v4.3h-0.7v-5.7h0.7v0.8c0.2-0.3,0.5-0.5,0.9-0.7
		c0.4-0.2,0.7-0.2,1.1-0.2c0.5,0,0.8,0.1,1.1,0.3s0.5,0.4,0.6,0.8c0.2-0.3,0.5-0.6,0.9-0.8c0.4-0.2,0.8-0.3,1.2-0.3
		C133.5,38.8,134.1,39.5,134.1,40.9z"/>
	<path class="st0" d="M136.7,47.2H136v-8.3h0.7v0.8c0.2-0.3,0.5-0.5,0.9-0.6c0.4-0.2,0.8-0.2,1.2-0.2c0.8,0,1.5,0.3,1.9,0.8
		c0.5,0.5,0.7,1.2,0.7,2.1c0,0.9-0.3,1.6-0.8,2.2c-0.6,0.6-1.3,0.9-2.1,0.9c-0.8,0-1.4-0.2-1.8-0.5V47.2z M138.6,39.4
		c-0.4,0-0.7,0.1-1.1,0.3c-0.4,0.2-0.6,0.4-0.8,0.6v3.3c0.5,0.3,1.1,0.5,1.8,0.5c0.7,0,1.2-0.2,1.7-0.7s0.6-1,0.6-1.7
		s-0.2-1.3-0.6-1.7C139.8,39.6,139.3,39.4,138.6,39.4z"/>
	<path class="st0" d="M146,43.1c0-0.3-0.1-0.5-0.3-0.6c-0.2-0.2-0.5-0.3-0.8-0.4c-0.3-0.1-0.6-0.2-0.9-0.3c-0.3-0.1-0.6-0.3-0.8-0.5
		c-0.2-0.3-0.3-0.6-0.3-0.9c0-0.5,0.2-0.8,0.5-1.1c0.3-0.3,0.8-0.4,1.3-0.4c0.8,0,1.4,0.2,1.8,0.6l-0.3,0.5
		c-0.4-0.4-0.9-0.5-1.5-0.5c-0.3,0-0.6,0.1-0.8,0.3c-0.2,0.2-0.3,0.4-0.3,0.7c0,0.3,0.1,0.5,0.3,0.7c0.2,0.2,0.5,0.3,0.8,0.4
		c0.3,0.1,0.6,0.2,0.9,0.3c0.3,0.1,0.6,0.3,0.8,0.5c0.2,0.2,0.3,0.5,0.3,0.9c0,0.5-0.2,0.9-0.6,1.2c-0.4,0.3-0.9,0.4-1.5,0.4
		c-0.4,0-0.8-0.1-1.2-0.3c-0.4-0.2-0.6-0.4-0.8-0.6l0.4-0.4c0.2,0.2,0.4,0.4,0.7,0.5c0.3,0.1,0.6,0.2,0.9,0.2c0.4,0,0.7-0.1,0.9-0.3
		C145.9,43.7,146,43.4,146,43.1z"/>
	<path class="st0" d="M154,44.7c-0.9,0-1.6-0.3-2.2-0.8s-0.8-1.3-0.8-2.1s0.3-1.6,0.8-2.1s1.3-0.8,2.2-0.8c0.9,0,1.6,0.3,2.2,0.8
		s0.8,1.3,0.8,2.1s-0.3,1.6-0.8,2.1S154.9,44.7,154,44.7z M154,44.1c0.7,0,1.2-0.2,1.7-0.7c0.4-0.4,0.6-1,0.6-1.7
		c0-0.7-0.2-1.3-0.6-1.7c-0.4-0.4-1-0.7-1.7-0.7c-0.7,0-1.2,0.2-1.7,0.7c-0.4,0.4-0.6,1-0.6,1.7s0.2,1.3,0.6,1.7
		C152.8,43.9,153.3,44.1,154,44.1z"/>
	<path class="st0" d="M162.5,38.9h0.7l-2.6,5.8h-0.5l-2.7-5.8h0.8l1.6,3.6c0.2,0.5,0.4,1,0.5,1.3c0.1-0.4,0.3-0.8,0.5-1.3
		L162.5,38.9z"/>
	<path class="st0" d="M168.7,43.4l0.2,0.5c-0.5,0.5-1.2,0.8-2.1,0.8c-0.9,0-1.7-0.3-2.2-0.8c-0.6-0.5-0.8-1.3-0.8-2.2
		c0-0.9,0.3-1.6,0.8-2.1c0.5-0.6,1.2-0.8,2.1-0.8c0.7,0,1.4,0.2,1.9,0.7c0.5,0.5,0.7,1.1,0.7,1.9c0,0.2,0,0.4,0,0.5h-4.7
		c0,0.7,0.2,1.2,0.7,1.6c0.4,0.4,1,0.6,1.7,0.6C167.6,44.1,168.2,43.9,168.7,43.4z M166.6,39.4c-0.6,0-1.1,0.2-1.5,0.5
		c-0.4,0.4-0.6,0.8-0.7,1.4h4.1c0-0.6-0.2-1.1-0.5-1.4C167.7,39.6,167.2,39.4,166.6,39.4z"/>
	<path class="st0" d="M171.5,44.6h-0.7v-5.7h0.7v0.8c0.4-0.6,0.9-0.9,1.5-0.9c0.4,0,0.7,0.1,0.9,0.2l-0.2,0.6
		c-0.2-0.1-0.5-0.2-0.8-0.2c-0.6,0-1,0.3-1.4,0.9V44.6z"/>
	<path class="st0" d="M177.9,42.4v-5.1h0.7v1.6h2.3v0.6h-2.3v2.8c0,1.2,0.4,1.7,1.3,1.7c0.3,0,0.6-0.1,0.9-0.3l0.2,0.5
		c-0.3,0.3-0.8,0.4-1.3,0.4C178.5,44.7,177.9,43.9,177.9,42.4z"/>
	<path class="st0" d="M183.1,44.6h-0.7v-8.9h0.7v4c0.2-0.3,0.5-0.5,0.9-0.6c0.4-0.2,0.8-0.2,1.1-0.2c1.6,0,2.4,0.9,2.4,2.6v3.3h-0.7
		v-3.2c0-1.4-0.6-2.1-1.9-2.1c-0.4,0-0.7,0.1-1.1,0.2c-0.4,0.2-0.6,0.4-0.8,0.6V44.6z"/>
	<path class="st0" d="M194,43.4l0.2,0.5c-0.5,0.5-1.2,0.8-2.1,0.8c-0.9,0-1.7-0.3-2.2-0.8c-0.6-0.5-0.8-1.3-0.8-2.2
		c0-0.9,0.3-1.6,0.8-2.1c0.5-0.6,1.2-0.8,2.1-0.8c0.7,0,1.4,0.2,1.9,0.7c0.5,0.5,0.7,1.1,0.7,1.9c0,0.2,0,0.4,0,0.5h-4.7
		c0,0.7,0.2,1.2,0.7,1.6c0.4,0.4,1,0.6,1.7,0.6C192.9,44.1,193.6,43.9,194,43.4z M191.9,39.4c-0.6,0-1.1,0.2-1.5,0.5
		c-0.4,0.4-0.6,0.8-0.7,1.4h4.1c0-0.6-0.2-1.1-0.5-1.4C193,39.6,192.5,39.4,191.9,39.4z"/>
	<path class="st0" d="M199.1,43.1v-7.4h0.7v7.1c0,0.5,0.1,0.8,0.2,1c0.1,0.2,0.3,0.3,0.6,0.3c0.3,0,0.6-0.1,0.8-0.3l0.2,0.5
		c-0.3,0.3-0.7,0.4-1.2,0.4C199.6,44.7,199.1,44.2,199.1,43.1z"/>
	<path class="st0" d="M202.9,39.8l-0.2-0.5c0.6-0.3,1.2-0.5,1.8-0.5c0.7,0,1.3,0.2,1.6,0.6s0.5,1,0.5,1.7v3.6H206v-0.9
		c-0.5,0.6-1.1,1-2,1c-0.5,0-1-0.2-1.3-0.5c-0.3-0.3-0.5-0.7-0.5-1.2c0-0.6,0.2-1,0.6-1.3c0.4-0.3,0.9-0.5,1.6-0.5s1.2,0.1,1.6,0.4
		c0-0.6,0-1-0.1-1.4c-0.1-0.3-0.2-0.5-0.4-0.6c-0.2-0.1-0.5-0.2-1-0.2C204,39.4,203.5,39.5,202.9,39.8z M204.3,44.1
		c0.7,0,1.3-0.3,1.8-0.9v-1c-0.4-0.3-0.9-0.5-1.5-0.5c-0.4,0-0.8,0.1-1.1,0.3c-0.3,0.2-0.4,0.5-0.4,0.9c0,0.3,0.1,0.6,0.4,0.8
		C203.6,44,203.9,44.1,204.3,44.1z"/>
	<path class="st0" d="M212.1,39.5h-3.8v-0.6h4.7v0.4l-4,4.7h3.9v0.6h-4.9v-0.4L212.1,39.5z"/>
	<path class="st0" d="M218.7,38.9h0.8l-2.3,5.7c-0.4,1-0.8,1.7-1.1,2c-0.3,0.4-0.7,0.5-1.1,0.5c-0.3,0-0.6-0.1-1-0.3l0.2-0.5
		c0.3,0.1,0.5,0.2,0.7,0.2c0.3,0,0.5-0.1,0.8-0.4s0.5-0.7,0.7-1.3l0.1-0.3l-2.8-5.7h0.8l2,4.1l0.4,0.9c0,0,0.1-0.3,0.3-0.9
		L218.7,38.9z"/>
	<path class="st0" d="M228.7,44.6H228v-0.8c-0.5,0.6-1.2,0.9-2,0.9c-0.8,0-1.5-0.3-2-0.8s-0.8-1.2-0.8-2.1c0-0.9,0.3-1.6,0.9-2.2
		c0.6-0.6,1.3-0.8,2.2-0.8c0.7,0,1.2,0.2,1.7,0.5v-3.6h0.7V44.6z M226.2,44.1c0.3,0,0.7-0.1,1-0.3c0.3-0.2,0.6-0.4,0.8-0.7v-3.3
		c-0.5-0.3-1.1-0.5-1.6-0.5c-0.7,0-1.3,0.2-1.7,0.7c-0.5,0.4-0.7,1-0.7,1.7c0,0.7,0.2,1.3,0.6,1.7C224.9,43.9,225.5,44.1,226.2,44.1
		z"/>
	<path class="st0" d="M233.3,44.7c-0.9,0-1.6-0.3-2.2-0.8s-0.8-1.3-0.8-2.1s0.3-1.6,0.8-2.1s1.3-0.8,2.2-0.8c0.9,0,1.6,0.3,2.2,0.8
		s0.8,1.3,0.8,2.1s-0.3,1.6-0.8,2.1S234.2,44.7,233.3,44.7z M233.3,44.1c0.7,0,1.2-0.2,1.7-0.7c0.4-0.4,0.6-1,0.6-1.7
		c0-0.7-0.2-1.3-0.6-1.7c-0.4-0.4-1-0.7-1.7-0.7c-0.7,0-1.2,0.2-1.7,0.7c-0.4,0.4-0.6,1-0.6,1.7s0.2,1.3,0.6,1.7
		C232.1,43.9,232.6,44.1,233.3,44.1z"/>
	<path class="st0" d="M237.1,45.5c0-0.4,0.2-0.8,0.5-1.1c0.3-0.3,0.7-0.5,1.3-0.6c-0.1-0.2-0.2-0.3-0.2-0.5c0-0.2,0.1-0.4,0.2-0.6
		c-0.4-0.2-0.7-0.4-0.9-0.7c-0.2-0.3-0.3-0.7-0.3-1.1c0-0.6,0.2-1.1,0.6-1.5s1-0.6,1.6-0.6c0.5,0,1,0.1,1.4,0.4h0l1.6-0.4v0.6
		l-1.2,0.3c0.2,0.3,0.3,0.7,0.3,1.1c0,0.6-0.2,1.1-0.6,1.5c-0.4,0.4-1,0.6-1.6,0.6c-0.2,0-0.4,0-0.6-0.1c-0.1,0.1-0.1,0.3-0.1,0.4
		c0,0.2,0.1,0.3,0.2,0.5c0.3,0,0.5,0,0.5,0c0.9,0,1.6,0.2,2.1,0.5c0.5,0.3,0.8,0.8,0.8,1.4c0,0.6-0.3,1-0.8,1.3
		c-0.5,0.3-1.2,0.5-2.1,0.5c-0.9,0-1.6-0.2-2.1-0.5S237.1,46,237.1,45.5z M237.8,45.5c0,0.4,0.2,0.7,0.6,0.9
		c0.4,0.2,0.9,0.3,1.6,0.3c0.7,0,1.2-0.1,1.6-0.3s0.6-0.5,0.6-0.9c0-0.4-0.2-0.7-0.6-0.9c-0.4-0.2-0.9-0.3-1.6-0.3
		c-0.7,0-1.2,0.1-1.6,0.3C237.9,44.8,237.8,45.1,237.8,45.5z M238.8,39.8c-0.3,0.3-0.4,0.6-0.4,1c0,0.4,0.1,0.7,0.4,1
		c0.3,0.3,0.7,0.4,1.1,0.4c0.5,0,0.8-0.1,1.1-0.4c0.3-0.3,0.4-0.6,0.4-1c0-0.4-0.2-0.7-0.5-1c-0.3-0.3-0.7-0.4-1.1-0.4
		C239.5,39.4,239.1,39.5,238.8,39.8z"/>
</g>
<g>
	<path class="st0" d="M5.8,56.7c0,1.4-0.2,2.5-0.7,3.3C4.7,60.8,4,61.2,3,61.2c-1,0-1.7-0.4-2.1-1.2S0.2,58,0.2,56.7
		c0-1.4,0.2-2.5,0.7-3.3c0.5-0.8,1.2-1.2,2.1-1.2s1.7,0.4,2.1,1.2C5.6,54.2,5.8,55.3,5.8,56.7z M3,60.6c1.4,0,2.1-1.3,2.1-3.9
		S4.4,52.7,3,52.7S0.9,54,0.9,56.7S1.6,60.6,3,60.6z"/>
	<path class="st0" d="M10.6,54.3l-0.4-0.5l2-1.6h0.5v9H12v-8L10.6,54.3z"/>
	<path class="st0" d="M23.3,61.1H18v-0.5l1-1c0.2-0.2,0.5-0.5,1.1-1.2c0.4-0.5,0.8-1,1.1-1.4c0.2-0.3,0.5-0.8,0.7-1.3
		c0.2-0.5,0.3-0.9,0.3-1.3c0-0.5-0.2-0.9-0.5-1.2c-0.3-0.3-0.7-0.5-1.2-0.5c-0.5,0-0.8,0.1-1.2,0.4c-0.3,0.3-0.6,0.7-0.6,1.2
		l-0.6-0.2c0.1-0.6,0.4-1.1,0.8-1.5c0.5-0.4,1-0.5,1.6-0.5c0.8,0,1.4,0.2,1.8,0.7c0.4,0.4,0.6,0.9,0.6,1.5c0,0.5-0.1,1-0.4,1.6
		c-0.2,0.5-0.5,1-0.8,1.5c-0.3,0.4-0.7,0.9-1.1,1.4c-0.5,0.5-0.8,0.9-1,1.1c-0.1,0.1-0.2,0.2-0.4,0.4c-0.2,0.2-0.3,0.3-0.3,0.3h4.4
		V61.1z"/>
	<path class="st0" d="M30.3,61.2c-0.6,0-1.1-0.1-1.6-0.4c-0.5-0.3-0.8-0.6-1-1.2l0.4-0.5c0.2,0.4,0.5,0.8,0.9,1
		c0.4,0.2,0.8,0.3,1.3,0.3c0.6,0,1.1-0.2,1.5-0.5c0.4-0.4,0.6-0.8,0.6-1.4c0-0.5-0.2-1-0.5-1.3c-0.4-0.3-0.8-0.5-1.4-0.5h-0.8v-0.7
		h0.7c0.4,0,0.8-0.2,1.2-0.5c0.3-0.3,0.5-0.8,0.5-1.3c0-0.5-0.2-0.9-0.5-1.2c-0.3-0.3-0.7-0.4-1.3-0.4c-0.9,0-1.6,0.4-1.9,1.2
		l-0.4-0.4c0.2-0.5,0.5-0.8,0.9-1.1s0.9-0.4,1.5-0.4c0.7,0,1.3,0.2,1.7,0.6c0.4,0.4,0.6,0.9,0.6,1.6c0,0.5-0.1,0.9-0.4,1.3
		c-0.3,0.4-0.6,0.7-1,0.8v0c0.5,0.1,1,0.3,1.3,0.7c0.3,0.4,0.5,0.9,0.5,1.4c0,0.8-0.3,1.4-0.8,1.9C31.7,61,31.1,61.2,30.3,61.2z"/>
	<path class="st0" d="M42,61.1h-0.7v-2.4h-4.1v-0.4l3.9-6.1h0.8l-3.8,5.9h3.2v-2.7H42v2.7h1.3v0.7H42V61.1z"/>
	<path class="st0" d="M48.2,56.5l0.5-4.3h3.9v0.7h-3.3l-0.4,2.9c0.3-0.1,0.6-0.1,0.9-0.1c0.8,0,1.5,0.2,2,0.7c0.5,0.5,0.8,1.2,0.8,2
		c0,0.9-0.3,1.6-0.8,2.1c-0.5,0.5-1.2,0.8-2,0.8c-0.5,0-1-0.1-1.5-0.4s-0.8-0.6-1.1-1l0.4-0.5c0.2,0.4,0.5,0.7,0.9,0.9
		s0.8,0.3,1.2,0.3c0.6,0,1.1-0.2,1.5-0.6c0.4-0.4,0.6-0.9,0.6-1.6c0-0.6-0.2-1.1-0.7-1.5c-0.4-0.4-1-0.6-1.7-0.6
		C49,56.2,48.6,56.3,48.2,56.5z"/>
	<path class="st0" d="M57,58c0-0.8,0.1-1.5,0.4-2.2s0.6-1.3,1-1.8c0.9-1,1.9-1.6,2.9-1.9l0.3,0.5c-0.9,0.2-1.7,0.7-2.5,1.5
		c-0.7,0.8-1.2,1.8-1.3,3c0.2-0.4,0.5-0.8,0.9-1.1c0.4-0.3,0.9-0.4,1.4-0.4c0.8,0,1.4,0.3,1.9,0.8c0.5,0.5,0.7,1.2,0.7,2
		c0,0.8-0.3,1.5-0.8,2c-0.5,0.5-1.1,0.8-1.8,0.8c-1,0-1.7-0.3-2.2-0.9C57.3,59.7,57,58.9,57,58z M57.7,58c0,0.7,0.2,1.3,0.6,1.9
		c0.4,0.5,1,0.8,1.7,0.8c0.5,0,1-0.2,1.4-0.6c0.4-0.4,0.6-0.9,0.6-1.5c0-0.6-0.2-1.2-0.6-1.6s-0.9-0.6-1.5-0.6c-0.6,0-1,0.2-1.4,0.5
		S57.8,57.5,57.7,58z"/>
	<path class="st0" d="M71.1,52.9h-4.3v-0.7h5.1v0.4l-3.4,8.5h-0.7L71.1,52.9z"/>
	<path class="st0" d="M76.3,58.8c0-0.5,0.2-1,0.5-1.4c0.3-0.4,0.8-0.7,1.3-0.8v0c-0.4-0.1-0.8-0.4-1.1-0.8c-0.3-0.4-0.4-0.8-0.4-1.3
		c0-0.7,0.2-1.3,0.7-1.7c0.5-0.4,1.1-0.7,1.8-0.7c0.7,0,1.3,0.2,1.8,0.7c0.5,0.4,0.7,1,0.7,1.7c0,0.5-0.1,0.9-0.4,1.3
		s-0.7,0.7-1.1,0.8v0c0.5,0.1,1,0.3,1.3,0.7c0.3,0.4,0.5,0.9,0.5,1.5c0,0.8-0.3,1.4-0.8,1.8c-0.5,0.4-1.2,0.7-2,0.7s-1.5-0.2-2-0.7
		C76.6,60.1,76.3,59.5,76.3,58.8z M79.3,56.9H79c-0.6,0-1,0.2-1.4,0.5c-0.4,0.3-0.6,0.8-0.6,1.3c0,0.5,0.2,1,0.6,1.4
		c0.4,0.3,0.9,0.5,1.5,0.5c0.6,0,1.1-0.2,1.5-0.5c0.4-0.3,0.6-0.8,0.6-1.4c0-0.6-0.2-1-0.6-1.3C80.4,57,79.9,56.9,79.3,56.9z
		 M79,56.2h0.4c0.4,0,0.8-0.2,1.1-0.5c0.3-0.3,0.5-0.7,0.5-1.2c0-0.5-0.2-0.9-0.6-1.3c-0.4-0.3-0.8-0.5-1.3-0.5
		c-0.5,0-1,0.2-1.3,0.5c-0.4,0.3-0.5,0.7-0.5,1.3c0,0.5,0.2,0.9,0.5,1.2C78.2,56,78.5,56.2,79,56.2z"/>
	<path class="st0" d="M92.2,55.4c0,1.6-0.4,3-1.2,4c-0.8,1-1.9,1.7-3.1,1.8l-0.2-0.5c1.1-0.2,1.9-0.7,2.6-1.5c0.7-0.8,1.1-1.8,1.2-3
		c-0.2,0.4-0.5,0.7-0.9,1c-0.4,0.2-0.9,0.4-1.4,0.4c-0.8,0-1.4-0.3-1.9-0.8c-0.5-0.5-0.7-1.2-0.7-1.9c0-0.8,0.3-1.5,0.8-2
		s1.2-0.8,1.9-0.8c1,0,1.7,0.3,2.2,0.9C92,53.6,92.2,54.4,92.2,55.4z M91.5,55.4c0-0.7-0.2-1.4-0.6-1.9c-0.4-0.5-0.9-0.8-1.6-0.8
		c-0.6,0-1,0.2-1.5,0.6c-0.4,0.4-0.6,0.9-0.6,1.5c0,0.6,0.2,1.1,0.6,1.5c0.4,0.4,0.9,0.6,1.6,0.6c0.6,0,1.1-0.2,1.4-0.5
		C91.1,56.2,91.4,55.8,91.5,55.4z"/>
</g>
</svg>
