<?xml version="1.0" encoding="utf-8"?>
<!-- Generator: Adobe Illustrator 23.0.0, SVG Export Plug-In . SVG Version: 6.00 Build 0)  -->
<svg version="1.1" id="Layer_1" xmlns="http://www.w3.org/2000/svg" xmlns:xlink="http://www.w3.org/1999/xlink" x="0px" y="0px"
	 viewBox="0 0 357.3 320.4" style="enable-background:new 0 0 357.3 320.4;" xml:space="preserve">
<style type="text/css">
	.st0{fill:#161A46;}
	.st1{fill:#F05854;}
	.st2{fill:#FBBA3F;}
	.st3{fill:#52B74C;}
	.st4{fill:#FAEF77;}
	.st5{fill:#8B13B7;}
	.st6{fill:#00CEB0;}
	.st7{fill:#2BE2C7;}
	.st8{fill:#FDF5A5;}
</style>
<g>
	<g>
		<path class="st0" d="M349.4,320.4H7.9c-4.3,0-7.9-3.5-7.9-7.9V7.9C0,3.5,3.5,0,7.9,0h341.6c4.3,0,7.9,3.5,7.9,7.9v304.6
			C357.3,316.8,353.8,320.4,349.4,320.4z"/>
	</g>
	<g>
		<circle class="st1" cx="21.2" cy="17.5" r="5.3"/>
		<circle class="st2" cx="39.3" cy="17.5" r="5.3"/>
		<circle class="st3" cx="57.3" cy="17.5" r="5.3"/>
	</g>
	<path class="st4" d="M46.7,64.4h1.3l-0.1,4.3h-1.1L46.7,64.4z M49.6,64.4H51l-0.1,4.3h-1.1L49.6,64.4z"/>
	<path class="st4" d="M62.2,71.4c0,2.6-1.8,4.3-4.3,4.3c-1.2,0-2.3-0.5-3-1.4v4.4h-1.5V67.1h1.5v1.3c0.7-0.9,1.8-1.4,3-1.4
		C60.4,67,62.2,68.8,62.2,71.4z M60.6,71.4c0-1.8-1.2-3-2.9-3c-1.6,0-2.8,1.2-2.8,3c0,1.8,1.2,3,2.8,3
		C59.4,74.3,60.6,73.2,60.6,71.4z"/>
	<path class="st4" d="M68.9,67v1.5c-0.1,0-0.2,0-0.4,0c-1.6,0-2.7,1-2.7,2.9v4.2h-1.5v-8.5h1.5v1.4C66.3,67.5,67.4,67,68.9,67z"/>
	<path class="st4" d="M69.9,71.4c0-2.5,1.9-4.3,4.4-4.3s4.4,1.8,4.4,4.3s-1.9,4.3-4.4,4.3S69.9,73.9,69.9,71.4z M77.2,71.4
		c0-1.8-1.2-3-2.8-3s-2.9,1.2-2.9,3s1.2,3,2.9,3S77.2,73.2,77.2,71.4z"/>
	<path class="st4" d="M83.9,63.6c0.7,0,1.3,0.2,1.7,0.5l-0.5,1.2c-0.3-0.2-0.7-0.4-1.2-0.4c-0.9,0-1.4,0.5-1.4,1.5v0.7H85v1.3h-2.4
		v7.2h-1.5v-7.2h-1.4v-1.3h1.4v-0.8C81.1,64.7,82.1,63.6,83.9,63.6z M87.5,64.5c0-0.6,0.4-1,1-1c0.6,0,1,0.4,1,1c0,0.6-0.4,1-1,1
		C88,65.5,87.5,65,87.5,64.5z M87.8,67.1h1.5v8.5h-1.5V67.1z"/>
	<path class="st4" d="M92.2,63.7h1.5v11.9h-1.5V63.7z"/>
	<path class="st4" d="M104.3,71.9h-6.9c0.2,1.5,1.4,2.5,3.1,2.5c1,0,1.8-0.3,2.4-1l0.8,1c-0.8,0.9-1.9,1.4-3.3,1.4
		c-2.7,0-4.6-1.8-4.6-4.3c0-2.5,1.8-4.3,4.3-4.3c2.4,0,4.2,1.8,4.2,4.4C104.4,71.5,104.4,71.7,104.3,71.9z M97.5,70.8h5.4
		c-0.2-1.4-1.2-2.4-2.7-2.4C98.7,68.3,97.6,69.3,97.5,70.8z"/>
	<path class="st4" d="M105.7,64.4h1.3l-0.1,4.3h-1.1L105.7,64.4z M108.6,64.4h1.3l-0.1,4.3h-1.1L108.6,64.4z"/>
	<path class="st4" d="M116,68.1c0-0.6,0.5-1.1,1.1-1.1c0.6,0,1.1,0.4,1.1,1.1s-0.5,1.1-1.1,1.1C116.5,69.2,116,68.8,116,68.1z
		 M116,74.6c0-0.6,0.5-1.1,1.1-1.1c0.6,0,1.1,0.4,1.1,1.1s-0.5,1.1-1.1,1.1C116.5,75.7,116,75.2,116,74.6z"/>
	<path class="st5" d="M124.9,63.7h3.3V65h-1.8v12.5h1.8v1.3h-3.3V63.7z"/>
	<path class="st6" d="M74.4,99.2c0.6,0.2,0.9,0.6,0.9,1.5v3.5c0,0.8,0.4,1.2,1.2,1.2h0.4v1.3h-0.7c-1.6,0-2.4-0.8-2.4-2.4v-3.7
		c0-0.6-0.3-0.8-0.7-0.8h-0.6v-1.3H73c0.4,0,0.7-0.2,0.7-0.8v-3.7c0-1.6,0.8-2.4,2.4-2.4h0.7V93h-0.4c-0.8,0-1.2,0.4-1.2,1.2v3.5
		C75.3,98.7,75,99,74.4,99.2z"/>
	<path class="st4" d="M81.1,120.4h1.3l-0.1,4.3h-1.1L81.1,120.4z M84,120.4h1.3l-0.1,4.3h-1.1L84,120.4z"/>
	<path class="st4" d="M95.9,126.7v4.9h-1.5v-4.7c0-1.7-0.8-2.5-2.3-2.5c-1.6,0-2.7,1-2.7,2.8v4.4h-1.5v-8.5h1.5v1.3
		c0.6-0.9,1.7-1.4,3.1-1.4C94.4,123,95.9,124.2,95.9,126.7z"/>
	<path class="st4" d="M105.5,126.5v5.1H104v-1.1c-0.5,0.8-1.5,1.2-2.8,1.2c-1.9,0-3.1-1-3.1-2.5c0-1.4,0.9-2.5,3.4-2.5h2.4v-0.3
		c0-1.3-0.8-2-2.3-2c-1,0-2,0.4-2.7,0.9l-0.6-1.2c0.9-0.7,2.1-1.1,3.5-1.1C104.2,123,105.5,124.2,105.5,126.5z M103.9,129v-1.2h-2.4
		c-1.5,0-2,0.6-2,1.3c0,0.8,0.7,1.4,1.9,1.4C102.6,130.5,103.5,130,103.9,129z"/>
	<path class="st4" d="M122.4,126.7v4.9h-1.5v-4.7c0-1.7-0.8-2.5-2.2-2.5c-1.5,0-2.5,1-2.5,2.8v4.4h-1.5v-4.7c0-1.7-0.8-2.5-2.2-2.5
		c-1.5,0-2.5,1-2.5,2.8v4.4h-1.5v-8.5h1.5v1.3c0.6-0.9,1.6-1.3,2.9-1.3c1.3,0,2.4,0.5,2.9,1.6c0.6-1,1.8-1.6,3.3-1.6
		C121,123,122.4,124.2,122.4,126.7z"/>
	<path class="st4" d="M132.9,127.9H126c0.2,1.5,1.4,2.5,3.1,2.5c1,0,1.8-0.3,2.4-1l0.8,1c-0.8,0.9-1.9,1.4-3.3,1.4
		c-2.7,0-4.6-1.8-4.6-4.3c0-2.5,1.8-4.3,4.3-4.3c2.4,0,4.2,1.8,4.2,4.4C132.9,127.5,132.9,127.7,132.9,127.9z M126,126.8h5.4
		c-0.2-1.4-1.2-2.4-2.7-2.4C127.3,124.3,126.2,125.3,126,126.8z"/>
	<path class="st4" d="M134.3,120.4h1.3l-0.1,4.3h-1.1L134.3,120.4z M137.2,120.4h1.3l-0.1,4.3h-1.1L137.2,120.4z"/>
	<path class="st4" d="M144.5,124.1c0-0.6,0.5-1.1,1.1-1.1c0.6,0,1.1,0.4,1.1,1.1c0,0.6-0.5,1.1-1.1,1.1
		C145,125.2,144.5,124.8,144.5,124.1z M144.5,130.6c0-0.6,0.5-1.1,1.1-1.1c0.6,0,1.1,0.4,1.1,1.1c0,0.6-0.5,1.1-1.1,1.1
		C145,131.7,144.5,131.2,144.5,130.6z"/>
	<path class="st7" d="M152.8,120.4h1.3l-0.1,4.3h-1.1L152.8,120.4z M155.7,120.4h1.3l-0.1,4.3h-1.1L155.7,120.4z"/>
	<path class="st7" d="M170.1,131.6l0-8.2l-4,6.8h-0.7l-4-6.8v8.1h-1.5v-11.2h1.3l4.7,7.9l4.6-7.9h1.3l0,11.2H170.1z"/>
	<path class="st7" d="M181.5,126.5v5.1H180v-1.1c-0.5,0.8-1.5,1.2-2.8,1.2c-1.9,0-3.1-1-3.1-2.5c0-1.4,0.9-2.5,3.4-2.5h2.4v-0.3
		c0-1.3-0.8-2-2.3-2c-1,0-2,0.4-2.7,0.9l-0.6-1.2c0.9-0.7,2.1-1.1,3.5-1.1C180.2,123,181.5,124.2,181.5,126.5z M179.9,129v-1.2h-2.4
		c-1.5,0-2,0.6-2,1.3c0,0.8,0.7,1.4,1.9,1.4C178.6,130.5,179.5,130,179.9,129z"/>
	<path class="st7" d="M188.9,123v1.5c-0.1,0-0.2,0-0.4,0c-1.6,0-2.7,1-2.7,2.9v4.2h-1.5v-8.5h1.5v1.4
		C186.3,123.5,187.4,123,188.9,123z"/>
	<path class="st7" d="M195.9,131.1c-0.5,0.4-1.2,0.6-1.9,0.6c-1.7,0-2.7-0.9-2.7-2.7v-4.7h-1.4v-1.3h1.4v-1.9h1.5v1.9h2.4v1.3h-2.4
		v4.6c0,0.9,0.5,1.4,1.3,1.4c0.4,0,0.9-0.1,1.2-0.4L195.9,131.1z"/>
	<path class="st7" d="M204.5,126.5v5.1H203v-1.1c-0.5,0.8-1.5,1.2-2.8,1.2c-1.9,0-3.1-1-3.1-2.5c0-1.4,0.9-2.5,3.4-2.5h2.4v-0.3
		c0-1.3-0.8-2-2.3-2c-1,0-2,0.4-2.7,0.9l-0.6-1.2c0.9-0.7,2.1-1.1,3.5-1.1C203.1,123,204.5,124.2,204.5,126.5z M202.9,129v-1.2h-2.4
		c-1.5,0-2,0.6-2,1.3c0,0.8,0.7,1.4,1.9,1.4C201.6,130.5,202.5,130,202.9,129z"/>
	<path class="st7" d="M220.9,124.3c0,2.4-1.8,3.9-4.7,3.9h-2.8v3.4h-1.6v-11.2h4.4C219.1,120.4,220.9,121.9,220.9,124.3z
		 M219.3,124.3c0-1.6-1.1-2.5-3.1-2.5h-2.7v5h2.7C218.2,126.8,219.3,125.9,219.3,124.3z"/>
	<path class="st7" d="M230.6,127.9h-6.9c0.2,1.5,1.4,2.5,3.1,2.5c1,0,1.8-0.3,2.4-1l0.8,1c-0.8,0.9-1.9,1.4-3.3,1.4
		c-2.7,0-4.6-1.8-4.6-4.3c0-2.5,1.8-4.3,4.3-4.3c2.4,0,4.2,1.8,4.2,4.4C230.6,127.5,230.6,127.7,230.6,127.9z M223.7,126.8h5.4
		c-0.2-1.4-1.2-2.4-2.7-2.4C225,124.3,223.9,125.3,223.7,126.8z M226.7,121.9h-1.4l2.2-2.1h2L226.7,121.9z"/>
	<path class="st7" d="M237.3,123v1.5c-0.1,0-0.2,0-0.4,0c-1.6,0-2.7,1-2.7,2.9v4.2h-1.5v-8.5h1.5v1.4
		C234.8,123.5,235.8,123,237.3,123z"/>
	<path class="st7" d="M246.8,127.9h-6.9c0.2,1.5,1.4,2.5,3.1,2.5c1,0,1.8-0.3,2.4-1l0.8,1c-0.8,0.9-1.9,1.4-3.3,1.4
		c-2.7,0-4.6-1.8-4.6-4.3c0-2.5,1.8-4.3,4.3-4.3c2.4,0,4.2,1.8,4.2,4.4C246.8,127.5,246.8,127.7,246.8,127.9z M239.9,126.8h5.4
		c-0.2-1.4-1.2-2.4-2.7-2.4C241.1,124.3,240,125.3,239.9,126.8z"/>
	<path class="st7" d="M255.1,130.3v1.3H248v-1l5-6.2h-4.9v-1.3h6.9v1l-5,6.2H255.1z"/>
	<path class="st7" d="M256.7,120.4h1.3l-0.1,4.3h-1.1L256.7,120.4z M259.6,120.4h1.3l-0.1,4.3h-1.1L259.6,120.4z"/>
	<path class="st8" d="M264,130.6c0,0.3-0.1,0.6-0.3,1.2l-0.8,2.2h-1l0.6-2.4c-0.4-0.1-0.7-0.5-0.7-1c0-0.6,0.5-1.1,1.1-1.1
		S264,130,264,130.6z"/>
	<path class="st4" d="M81.1,148.4h1.3l-0.1,4.3h-1.1L81.1,148.4z M84,148.4h1.3l-0.1,4.3h-1.1L84,148.4z"/>
	<path class="st4" d="M96.6,155.4c0,2.6-1.8,4.3-4.3,4.3c-1.2,0-2.3-0.5-3-1.4v1.3h-1.5v-11.9h1.5v4.7c0.7-0.9,1.8-1.4,3-1.4
		C94.8,151,96.6,152.8,96.6,155.4z M95.1,155.4c0-1.8-1.2-3-2.9-3c-1.6,0-2.8,1.2-2.8,3c0,1.8,1.2,3,2.8,3
		C93.8,158.4,95.1,157.2,95.1,155.4z"/>
	<path class="st4" d="M98.5,148.5c0-0.6,0.4-1,1-1c0.6,0,1,0.4,1,1c0,0.6-0.4,1-1,1C98.9,149.5,98.5,149.1,98.5,148.5z M98.8,151.1
		h1.5v8.5h-1.5V151.1z"/>
	<path class="st4" d="M107.8,151v1.5c-0.1,0-0.2,0-0.4,0c-1.6,0-2.7,1-2.7,2.9v4.2h-1.5v-8.5h1.5v1.4
		C105.2,151.5,106.3,151,107.8,151z"/>
	<path class="st4" d="M114.8,159.1c-0.5,0.4-1.2,0.6-1.9,0.6c-1.7,0-2.7-0.9-2.7-2.7v-4.7h-1.4v-1.3h1.4v-1.9h1.5v1.9h2.4v1.3h-2.4
		v4.6c0,0.9,0.5,1.4,1.3,1.4c0.4,0,0.9-0.1,1.2-0.4L114.8,159.1z"/>
	<path class="st4" d="M124.7,154.7v4.9h-1.5v-4.7c0-1.7-0.8-2.5-2.3-2.5c-1.6,0-2.7,1-2.7,2.8v4.4h-1.5v-11.9h1.5v4.6
		c0.6-0.8,1.7-1.3,3-1.3C123.2,151,124.7,152.2,124.7,154.7z"/>
	<path class="st4" d="M135.6,147.7v11.9h-1.5v-1.3c-0.7,1-1.8,1.4-3,1.4c-2.5,0-4.3-1.7-4.3-4.3c0-2.6,1.8-4.3,4.3-4.3
		c1.2,0,2.3,0.4,3,1.4v-4.7H135.6z M134.1,155.4c0-1.8-1.2-3-2.8-3c-1.6,0-2.9,1.2-2.9,3c0,1.8,1.2,3,2.9,3
		C132.8,158.4,134.1,157.2,134.1,155.4z"/>
	<path class="st4" d="M145.2,154.5v5.1h-1.5v-1.1c-0.5,0.8-1.5,1.2-2.8,1.2c-1.9,0-3.1-1-3.1-2.5c0-1.4,0.9-2.5,3.4-2.5h2.4v-0.3
		c0-1.3-0.8-2-2.3-2c-1,0-2,0.4-2.7,0.9l-0.6-1.2c0.9-0.7,2.1-1.1,3.5-1.1C143.9,151,145.2,152.2,145.2,154.5z M143.7,157v-1.2h-2.4
		c-1.5,0-2,0.6-2,1.3c0,0.8,0.7,1.4,1.9,1.4C142.4,158.5,143.3,158,143.7,157z"/>
	<path class="st4" d="M155.4,151.1l-4.1,9.3c-0.8,1.8-1.7,2.4-3,2.4c-0.8,0-1.6-0.3-2.2-0.8l0.7-1.2c0.4,0.4,0.9,0.6,1.5,0.6
		c0.7,0,1.2-0.3,1.6-1.3l0.3-0.6l-3.7-8.5h1.6l3,6.8l2.9-6.8H155.4z"/>
	<path class="st4" d="M156.4,148.4h1.3l-0.1,4.3h-1.1L156.4,148.4z M159.3,148.4h1.3l-0.1,4.3h-1.1L159.3,148.4z"/>
	<path class="st4" d="M166.7,152.1c0-0.6,0.5-1.1,1.1-1.1c0.6,0,1.1,0.4,1.1,1.1c0,0.6-0.5,1.1-1.1,1.1
		C167.2,153.2,166.7,152.8,166.7,152.1z M166.7,158.6c0-0.6,0.5-1.1,1.1-1.1c0.6,0,1.1,0.4,1.1,1.1c0,0.6-0.5,1.1-1.1,1.1
		C167.2,159.7,166.7,159.2,166.7,158.6z"/>
	<path class="st7" d="M174.9,148.4h1.3l-0.1,4.3H175L174.9,148.4z M177.8,148.4h1.3l-0.1,4.3h-1.1L177.8,148.4z"/>
	<path class="st7" d="M185.1,148.4v11.2h-1.6v-9.8H181v-1.4H185.1z"/>
	<path class="st7" d="M195.9,153.9c0,3.8-2.2,5.9-5.3,5.9c-1.1,0-2.1-0.2-2.8-0.7l0.6-1.2c0.6,0.4,1.3,0.5,2.2,0.5
		c2.3,0,3.7-1.4,3.7-4.2v-0.4c-0.7,1-1.8,1.5-3.2,1.5c-2.2,0-3.8-1.3-3.8-3.4c0-2.2,1.7-3.5,4-3.5
		C194.2,148.3,195.9,150.3,195.9,153.9z M194,151.7c0-1.2-0.9-2.2-2.7-2.2c-1.5,0-2.5,0.8-2.5,2.2c0,1.3,1,2.2,2.5,2.2
		C192.9,153.9,194,153,194,151.7z"/>
	<path class="st7" d="M206.3,156.4c0,2-1.7,3.3-4.5,3.3c-2.7,0-4.4-1.3-4.4-3.3c0-1.3,0.7-2.2,2-2.7c-1-0.5-1.6-1.3-1.6-2.4
		c0-1.9,1.6-3,4-3c2.4,0,4.1,1.2,4.1,3c0,1.1-0.6,1.9-1.6,2.4C205.6,154.2,206.3,155.1,206.3,156.4z M204.7,156.4c0-1.2-1.1-2-2.9-2
		c-1.8,0-2.8,0.8-2.8,2c0,1.3,1.1,2,2.8,2C203.6,158.4,204.7,157.6,204.7,156.4z M199.4,151.4c0,1.1,0.9,1.8,2.4,1.8
		c1.6,0,2.5-0.7,2.5-1.8c0-1.1-1-1.8-2.5-1.8C200.3,149.6,199.4,150.3,199.4,151.4z"/>
	<path class="st7" d="M216.1,153.9c0,3.8-2.2,5.9-5.3,5.9c-1.1,0-2.1-0.2-2.8-0.7l0.6-1.2c0.6,0.4,1.3,0.5,2.2,0.5
		c2.3,0,3.7-1.4,3.7-4.2v-0.4c-0.7,1-1.8,1.5-3.2,1.5c-2.2,0-3.8-1.3-3.8-3.4c0-2.2,1.7-3.5,4-3.5
		C214.4,148.3,216.1,150.3,216.1,153.9z M214.1,151.7c0-1.2-0.9-2.2-2.7-2.2c-1.5,0-2.5,0.8-2.5,2.2c0,1.3,1,2.2,2.5,2.2
		C213.1,153.9,214.1,153,214.1,151.7z"/>
	<path class="st7" d="M217.9,154.5h4.3v1.3h-4.3V154.5z"/>
	<path class="st7" d="M224,154c0-3.6,2-5.7,4.6-5.7c2.6,0,4.6,2.1,4.6,5.7s-2,5.7-4.6,5.7C225.9,159.7,224,157.6,224,154z
		 M231.5,154c0-2.9-1.2-4.3-3-4.3c-1.8,0-3,1.4-3,4.3s1.2,4.3,3,4.3C230.3,158.3,231.5,156.9,231.5,154z"/>
	<path class="st7" d="M242.5,156.2c0,1.9-1.4,3.5-4.2,3.5c-1.6,0-3.2-0.5-4.1-1.4l0.7-1.3c0.8,0.7,2,1.2,3.4,1.2
		c1.7,0,2.7-0.8,2.7-2c0-1.3-0.8-2-3.4-2H235l0.6-5.9h6.3v1.4h-5l-0.3,3.1h1.2C241.2,152.9,242.5,154.3,242.5,156.2z"/>
	<path class="st7" d="M244,154.5h4.3v1.3H244V154.5z"/>
	<path class="st7" d="M250.1,154c0-3.6,2-5.7,4.6-5.7c2.6,0,4.6,2.1,4.6,5.7s-2,5.7-4.6,5.7C252,159.7,250.1,157.6,250.1,154z
		 M257.6,154c0-2.9-1.2-4.3-3-4.3c-1.8,0-3,1.4-3,4.3s1.2,4.3,3,4.3C256.4,158.3,257.6,156.9,257.6,154z"/>
	<path class="st7" d="M269.4,156.2c0,2.2-1.7,3.5-4,3.5c-3,0-4.7-2-4.7-5.6c0-3.8,2.2-5.9,5.3-5.9c1.1,0,2.1,0.2,2.8,0.7l-0.6,1.2
		c-0.6-0.4-1.3-0.5-2.1-0.5c-2.3,0-3.7,1.4-3.7,4.2c0,0.1,0,0.3,0,0.4c0.6-1,1.8-1.5,3.2-1.5C267.8,152.8,269.4,154.1,269.4,156.2z
		 M267.9,156.3c0-1.3-1-2.2-2.6-2.2c-1.5,0-2.6,0.9-2.6,2.2c0,1.2,0.9,2.2,2.7,2.2C266.9,158.4,267.9,157.6,267.9,156.3z"/>
	<path class="st7" d="M270.8,148.4h1.3l-0.1,4.3h-1.1L270.8,148.4z M273.7,148.4h1.3l-0.1,4.3h-1.1L273.7,148.4z"/>
	<path class="st8" d="M278,158.6c0,0.3-0.1,0.6-0.3,1.2L277,162h-1l0.6-2.4c-0.4-0.1-0.7-0.5-0.7-1c0-0.6,0.5-1.1,1.1-1.1
		S278,158,278,158.6z"/>
	<path class="st4" d="M81.1,176.4h1.3l-0.1,4.3h-1.1L81.1,176.4z M84,176.4h1.3l-0.1,4.3h-1.1L84,176.4z"/>
	<path class="st4" d="M92.4,179v1.5c-0.1,0-0.2,0-0.4,0c-1.6,0-2.7,1-2.7,2.9v4.2h-1.5v-8.5h1.5v1.4C89.9,179.5,90.9,179,92.4,179z"
		/>
	<path class="st4" d="M93.4,183.4c0-2.5,1.9-4.3,4.4-4.3s4.4,1.8,4.4,4.3c0,2.5-1.9,4.3-4.4,4.3S93.4,185.9,93.4,183.4z
		 M100.7,183.4c0-1.8-1.2-3-2.8-3s-2.9,1.2-2.9,3c0,1.8,1.2,3,2.9,3S100.7,185.2,100.7,183.4z"/>
	<path class="st4" d="M104.4,175.7h1.5v11.9h-1.5V175.7z"/>
	<path class="st4" d="M116.5,183.9h-6.9c0.2,1.5,1.4,2.5,3.1,2.5c1,0,1.8-0.3,2.4-1l0.8,1c-0.8,0.9-1.9,1.4-3.3,1.4
		c-2.7,0-4.6-1.8-4.6-4.3c0-2.5,1.8-4.3,4.3-4.3c2.4,0,4.2,1.8,4.2,4.4C116.5,183.5,116.5,183.7,116.5,183.9z M109.6,182.8h5.4
		c-0.2-1.4-1.2-2.4-2.7-2.4C110.8,180.3,109.7,181.3,109.6,182.8z"/>
	<path class="st4" d="M117.6,186.7l0.6-1.2c0.7,0.5,1.9,0.9,3,0.9c1.4,0,2-0.4,2-1.2c0-1.9-5.4-0.3-5.4-3.6c0-1.5,1.4-2.5,3.5-2.5
		c1.1,0,2.4,0.3,3.1,0.8l-0.7,1.2c-0.8-0.5-1.6-0.7-2.4-0.7c-1.3,0-2,0.5-2,1.2c0,2,5.4,0.4,5.4,3.7c0,1.5-1.4,2.5-3.7,2.5
		C119.7,187.7,118.3,187.3,117.6,186.7z"/>
	<path class="st4" d="M126.2,176.4h1.3l-0.1,4.3h-1.1L126.2,176.4z M129.1,176.4h1.3l-0.1,4.3h-1.1L129.1,176.4z"/>
	<path class="st4" d="M132.3,180.1c0-0.6,0.5-1.1,1.1-1.1c0.6,0,1.1,0.4,1.1,1.1c0,0.6-0.5,1.1-1.1,1.1
		C132.8,181.2,132.3,180.8,132.3,180.1z M132.3,186.6c0-0.6,0.5-1.1,1.1-1.1c0.6,0,1.1,0.4,1.1,1.1c0,0.6-0.5,1.1-1.1,1.1
		C132.8,187.7,132.3,187.2,132.3,186.6z"/>
	<path class="st5" d="M141.2,175.7h3.3v1.3h-1.8v12.5h1.8v1.3h-3.3V175.7z"/>
	<path class="st7" d="M150.2,176.4h1.3l-0.1,4.3h-1.1L150.2,176.4z M153.1,176.4h1.3l-0.1,4.3h-1.1L153.1,176.4z"/>
	<path class="st7" d="M166.2,180.3c0,2.4-1.8,3.9-4.7,3.9h-2.8v3.4h-1.6v-11.2h4.4C164.4,176.4,166.2,177.9,166.2,180.3z
		 M164.6,180.3c0-1.6-1.1-2.5-3.1-2.5h-2.7v5h2.7C163.5,182.8,164.6,181.9,164.6,180.3z"/>
	<path class="st7" d="M172.7,179v1.5c-0.1,0-0.2,0-0.4,0c-1.6,0-2.7,1-2.7,2.9v4.2h-1.5v-8.5h1.5v1.4
		C170.1,179.5,171.2,179,172.7,179z"/>
	<path class="st7" d="M173.7,183.4c0-2.5,1.9-4.3,4.4-4.3c2.5,0,4.4,1.8,4.4,4.3c0,2.5-1.9,4.3-4.4,4.3
		C175.6,187.7,173.7,185.9,173.7,183.4z M181,183.4c0-1.8-1.2-3-2.9-3s-2.9,1.2-2.9,3c0,1.8,1.2,3,2.9,3S181,185.2,181,183.4z"/>
	<path class="st7" d="M181.7,190.3l0.5-1.2c0.3,0.3,0.8,0.4,1.2,0.4c0.8,0,1.3-0.5,1.3-1.5v-8.9h1.5v8.9c0,1.7-1,2.8-2.7,2.8
		C182.9,190.8,182.2,190.6,181.7,190.3z M184.5,176.5c0-0.6,0.4-1,1-1c0.6,0,1,0.4,1,1c0,0.6-0.4,1-1,1
		C184.9,177.5,184.5,177.1,184.5,176.5z"/>
	<path class="st7" d="M196.8,183.9H190c0.2,1.5,1.4,2.5,3.1,2.5c1,0,1.8-0.3,2.4-1l0.8,1c-0.8,0.9-1.9,1.4-3.3,1.4
		c-2.7,0-4.6-1.8-4.6-4.3c0-2.5,1.8-4.3,4.3-4.3c2.4,0,4.2,1.8,4.2,4.4C196.9,183.5,196.9,183.7,196.8,183.9z M190,182.8h5.4
		c-0.2-1.4-1.2-2.4-2.7-2.4C191.2,180.3,190.1,181.3,190,182.8z"/>
	<path class="st7" d="M198.2,183.4c0-2.5,1.9-4.3,4.5-4.3c1.5,0,2.8,0.6,3.5,1.8l-1.2,0.8c-0.5-0.8-1.4-1.2-2.3-1.2
		c-1.7,0-2.9,1.2-2.9,3c0,1.8,1.2,3,2.9,3c0.9,0,1.8-0.4,2.3-1.2l1.2,0.7c-0.7,1.2-1.9,1.8-3.5,1.8
		C200.1,187.7,198.2,185.9,198.2,183.4z"/>
	<path class="st7" d="M213,187.1c-0.5,0.4-1.2,0.6-1.9,0.6c-1.7,0-2.7-0.9-2.7-2.7v-4.7H207v-1.3h1.4v-1.9h1.5v1.9h2.4v1.3H210v4.6
		c0,0.9,0.5,1.4,1.3,1.4c0.4,0,0.9-0.1,1.2-0.4L213,187.1z"/>
	<path class="st7" d="M233.3,182.7v4.9h-1.5v-4.7c0-1.7-0.8-2.5-2.2-2.5c-1.5,0-2.5,1-2.5,2.8v4.4h-1.5v-4.7c0-1.7-0.8-2.5-2.2-2.5
		c-1.5,0-2.5,1-2.5,2.8v4.4h-1.5v-8.5h1.5v1.3c0.6-0.9,1.6-1.3,2.9-1.3c1.3,0,2.4,0.5,2.9,1.6c0.6-1,1.8-1.6,3.3-1.6
		C231.8,179,233.3,180.2,233.3,182.7z"/>
	<path class="st7" d="M242.8,182.5v5.1h-1.5v-1.1c-0.5,0.8-1.5,1.2-2.8,1.2c-1.9,0-3.1-1-3.1-2.5c0-1.4,0.9-2.5,3.4-2.5h2.4v-0.3
		c0-1.3-0.8-2-2.3-2c-1,0-2,0.4-2.7,0.9l-0.6-1.2c0.9-0.7,2.1-1.1,3.5-1.1C241.5,179,242.8,180.2,242.8,182.5z M241.3,185v-1.2h-2.4
		c-1.5,0-2,0.6-2,1.3c0,0.8,0.7,1.4,1.9,1.4C240,186.5,240.9,186,241.3,185z"/>
	<path class="st7" d="M253.7,182.7v4.9h-1.5v-4.7c0-1.7-0.8-2.5-2.3-2.5c-1.6,0-2.7,1-2.7,2.8v4.4h-1.5v-8.5h1.5v1.3
		c0.6-0.9,1.7-1.4,3.1-1.4C252.2,179,253.7,180.2,253.7,182.7z"/>
	<path class="st7" d="M263.3,182.5v5.1h-1.5v-1.1c-0.5,0.8-1.5,1.2-2.8,1.2c-1.9,0-3.1-1-3.1-2.5c0-1.4,0.9-2.5,3.4-2.5h2.4v-0.3
		c0-1.3-0.8-2-2.3-2c-1,0-2,0.4-2.7,0.9l-0.6-1.2c0.9-0.7,2.1-1.1,3.5-1.1C262,179,263.3,180.2,263.3,182.5z M261.7,185v-1.2h-2.4
		c-1.5,0-2,0.6-2,1.3c0,0.8,0.7,1.4,1.9,1.4C260.4,186.5,261.3,186,261.7,185z"/>
	<path class="st7" d="M274.3,179.1v7.3c0,3-1.5,4.4-4.4,4.4c-1.6,0-3.1-0.4-4-1.3l0.7-1.2c0.8,0.7,2,1.1,3.3,1.1
		c2,0,2.9-0.9,2.9-2.8v-0.7c-0.7,0.9-1.8,1.3-3.1,1.3c-2.4,0-4.3-1.7-4.3-4.1s1.9-4.1,4.3-4.1c1.3,0,2.4,0.5,3.1,1.4v-1.3H274.3z
		 M272.8,183.1c0-1.6-1.2-2.8-2.9-2.8c-1.7,0-2.9,1.1-2.9,2.8c0,1.6,1.2,2.8,2.9,2.8C271.6,185.9,272.8,184.8,272.8,183.1z"/>
	<path class="st7" d="M284.8,183.9H278c0.2,1.5,1.4,2.5,3.1,2.5c1,0,1.8-0.3,2.4-1l0.8,1c-0.8,0.9-1.9,1.4-3.3,1.4
		c-2.7,0-4.6-1.8-4.6-4.3c0-2.5,1.8-4.3,4.3-4.3c2.4,0,4.2,1.8,4.2,4.4C284.9,183.5,284.9,183.7,284.8,183.9z M278,182.8h5.4
		c-0.2-1.4-1.2-2.4-2.7-2.4C279.2,180.3,278.1,181.3,278,182.8z"/>
	<path class="st7" d="M291.6,179v1.5c-0.1,0-0.2,0-0.4,0c-1.6,0-2.7,1-2.7,2.9v4.2H287v-8.5h1.5v1.4C289,179.5,290.1,179,291.6,179z
		"/>
	<path class="st7" d="M293.1,176.4h1.3l-0.1,4.3h-1.1L293.1,176.4z M296,176.4h1.3l-0.1,4.3h-1.1L296,176.4z"/>
	<path class="st5" d="M303,190.7v-1.3h1.8V177H303v-1.3h3.3v15H303z"/>
	<path class="st8" d="M310.9,186.6c0,0.3-0.1,0.6-0.3,1.2l-0.8,2.2h-1l0.6-2.4c-0.4-0.1-0.7-0.5-0.7-1c0-0.6,0.5-1.1,1.1-1.1
		S310.9,186,310.9,186.6z"/>
	<path class="st4" d="M81.1,204.4h1.3l-0.1,4.3h-1.1L81.1,204.4z M84,204.4h1.3l-0.1,4.3h-1.1L84,204.4z"/>
	<path class="st4" d="M95.4,207.1l-4.1,9.3c-0.8,1.8-1.7,2.4-3,2.4c-0.8,0-1.6-0.3-2.2-0.8l0.7-1.2c0.4,0.4,0.9,0.6,1.5,0.6
		c0.7,0,1.2-0.3,1.6-1.3l0.3-0.6l-3.7-8.5H88l3,6.8l2.9-6.8H95.4z"/>
	<path class="st4" d="M104.2,211.9h-6.9c0.2,1.5,1.4,2.5,3.1,2.5c1,0,1.8-0.3,2.4-1l0.8,1c-0.8,0.9-1.9,1.4-3.3,1.4
		c-2.7,0-4.6-1.8-4.6-4.3c0-2.5,1.8-4.3,4.3-4.3c2.4,0,4.2,1.8,4.2,4.4C104.2,211.5,104.2,211.7,104.2,211.9z M97.3,210.8h5.4
		c-0.2-1.4-1.2-2.4-2.7-2.4C98.5,208.3,97.5,209.3,97.3,210.8z"/>
	<path class="st4" d="M112.8,210.5v5.1h-1.5v-1.1c-0.5,0.8-1.5,1.2-2.8,1.2c-1.9,0-3.1-1-3.1-2.5c0-1.4,0.9-2.5,3.4-2.5h2.4v-0.3
		c0-1.3-0.8-2-2.3-2c-1,0-2,0.4-2.7,0.9l-0.6-1.2c0.9-0.7,2.1-1.1,3.5-1.1C111.5,207,112.8,208.2,112.8,210.5z M111.3,213v-1.2h-2.4
		c-1.5,0-2,0.6-2,1.3c0,0.8,0.7,1.4,1.9,1.4C110,214.5,110.9,214,111.3,213z"/>
	<path class="st4" d="M120.2,207v1.5c-0.1,0-0.2,0-0.4,0c-1.6,0-2.7,1-2.7,2.9v4.2h-1.5v-8.5h1.5v1.4
		C117.7,207.5,118.7,207,120.2,207z"/>
	<path class="st4" d="M121.1,214.7l0.6-1.2c0.7,0.5,1.9,0.9,3,0.9c1.4,0,2-0.4,2-1.2c0-1.9-5.4-0.3-5.4-3.6c0-1.5,1.4-2.5,3.5-2.5
		c1.1,0,2.4,0.3,3.1,0.8l-0.7,1.2c-0.8-0.5-1.6-0.7-2.4-0.7c-1.3,0-2,0.5-2,1.2c0,2,5.4,0.4,5.4,3.7c0,1.5-1.4,2.5-3.7,2.5
		C123.2,215.7,121.8,215.3,121.1,214.7z"/>
	<path class="st4" d="M129.5,210c0-3.3,2.5-5.7,6-5.7c3.4,0,5.9,2.4,5.9,5.7c0,3.3-2.5,5.7-5.9,5.7C132,215.7,129.5,213.3,129.5,210
		z M139.8,210c0-2.5-1.9-4.3-4.3-4.3c-2.5,0-4.4,1.8-4.4,4.3c0,2.5,1.9,4.3,4.4,4.3C138,214.3,139.8,212.5,139.8,210z"/>
	<path class="st4" d="M145.4,206.4v0.7h2.5v1.3h-2.4v7.2h-1.5v-7.2h-1.4v-1.3h1.4v-0.8c0-1.6,1-2.7,2.8-2.7c0.7,0,1.3,0.2,1.7,0.5
		l-0.5,1.2c-0.3-0.2-0.7-0.4-1.2-0.4C145.8,204.9,145.4,205.4,145.4,206.4z"/>
	<path class="st4" d="M157.6,214.2v1.4h-8.1v-11.2h7.9v1.4h-6.3v3.4h5.6v1.4h-5.6v3.6H157.6z"/>
	<path class="st4" d="M165.2,215.6l-2.4-3.2l-2.5,3.2h-1.7l3.3-4.3l-3.2-4.1h1.7l2.3,3.1l2.3-3.1h1.7l-3.2,4.1l3.4,4.3H165.2z"/>
	<path class="st4" d="M177.4,211.4c0,2.6-1.8,4.3-4.3,4.3c-1.2,0-2.3-0.5-3-1.4v4.4h-1.5v-11.6h1.5v1.3c0.7-0.9,1.8-1.4,3-1.4
		C175.6,207,177.4,208.8,177.4,211.4z M175.9,211.4c0-1.8-1.2-3-2.9-3c-1.6,0-2.8,1.2-2.8,3c0,1.8,1.2,3,2.8,3
		C174.6,214.4,175.9,213.2,175.9,211.4z"/>
	<path class="st4" d="M187.2,211.9h-6.9c0.2,1.5,1.4,2.5,3.1,2.5c1,0,1.8-0.3,2.4-1l0.8,1c-0.8,0.9-1.9,1.4-3.3,1.4
		c-2.7,0-4.6-1.8-4.6-4.3c0-2.5,1.8-4.3,4.3-4.3c2.4,0,4.2,1.8,4.2,4.4C187.2,211.5,187.2,211.7,187.2,211.9z M180.3,210.8h5.4
		c-0.2-1.4-1.2-2.4-2.7-2.4C181.6,208.3,180.5,209.3,180.3,210.8z"/>
	<path class="st4" d="M193.9,207v1.5c-0.1,0-0.2,0-0.4,0c-1.6,0-2.7,1-2.7,2.9v4.2h-1.5v-8.5h1.5v1.4
		C191.4,207.5,192.4,207,193.9,207z"/>
	<path class="st4" d="M195.5,204.5c0-0.6,0.4-1,1-1c0.6,0,1,0.4,1,1c0,0.6-0.4,1-1,1C196,205.5,195.5,205.1,195.5,204.5z
		 M195.8,207.1h1.5v8.5h-1.5V207.1z"/>
	<path class="st4" d="M207.9,211.9H201c0.2,1.5,1.4,2.5,3.1,2.5c1,0,1.8-0.3,2.4-1l0.8,1c-0.8,0.9-1.9,1.4-3.3,1.4
		c-2.7,0-4.6-1.8-4.6-4.3c0-2.5,1.8-4.3,4.3-4.3c2.4,0,4.2,1.8,4.2,4.4C207.9,211.5,207.9,211.7,207.9,211.9z M201,210.8h5.4
		c-0.2-1.4-1.2-2.4-2.7-2.4C202.3,208.3,201.2,209.3,201,210.8z"/>
	<path class="st4" d="M218.1,210.7v4.9h-1.5v-4.7c0-1.7-0.8-2.5-2.3-2.5c-1.6,0-2.7,1-2.7,2.8v4.4h-1.5v-8.5h1.5v1.3
		c0.6-0.9,1.7-1.4,3.1-1.4C216.6,207,218.1,208.2,218.1,210.7z"/>
	<path class="st4" d="M220.2,211.4c0-2.5,1.9-4.3,4.5-4.3c1.5,0,2.8,0.6,3.5,1.8l-1.2,0.8c-0.5-0.8-1.4-1.2-2.3-1.2
		c-1.7,0-2.9,1.2-2.9,3c0,1.8,1.2,3,2.9,3c0.9,0,1.8-0.4,2.3-1.2l1.2,0.7c-0.7,1.2-1.9,1.8-3.5,1.8
		C222.1,215.7,220.2,213.9,220.2,211.4z"/>
	<path class="st4" d="M237.6,211.9h-6.9c0.2,1.5,1.4,2.5,3.1,2.5c1,0,1.8-0.3,2.4-1l0.8,1c-0.8,0.9-1.9,1.4-3.3,1.4
		c-2.7,0-4.6-1.8-4.6-4.3c0-2.5,1.8-4.3,4.3-4.3c2.4,0,4.2,1.8,4.2,4.4C237.7,211.5,237.7,211.7,237.6,211.9z M230.8,210.8h5.4
		c-0.2-1.4-1.2-2.4-2.7-2.4C232,208.3,230.9,209.3,230.8,210.8z"/>
	<path class="st4" d="M239,204.4h1.3l-0.1,4.3h-1.1L239,204.4z M241.9,204.4h1.3l-0.1,4.3H242L241.9,204.4z"/>
	<path class="st4" d="M249.3,208.1c0-0.6,0.5-1.1,1.1-1.1c0.6,0,1.1,0.4,1.1,1.1c0,0.6-0.5,1.1-1.1,1.1
		C249.8,209.2,249.3,208.8,249.3,208.1z M249.3,214.6c0-0.6,0.5-1.1,1.1-1.1c0.6,0,1.1,0.4,1.1,1.1c0,0.6-0.5,1.1-1.1,1.1
		C249.8,215.7,249.3,215.2,249.3,214.6z"/>
	<path class="st1" d="M267,212.8h-2.1v2.8h-1.6v-2.8h-6.2v-1.1l5.7-7.3h1.7l-5.5,7.1h4.3V209h1.5v2.4h2.1V212.8z"/>
	<path class="st6" d="M76.2,238.6v1.3h-0.5c-0.4,0-0.7,0.2-0.7,0.8v3.7c0,1.6-0.8,2.4-2.4,2.4h-0.7v-1.3h0.4c0.8,0,1.2-0.4,1.2-1.2
		v-3.5c0-0.9,0.3-1.3,0.9-1.5c-0.6-0.2-0.9-0.6-0.9-1.5v-3.5c0-0.8-0.4-1.2-1.2-1.2h-0.4v-1.3h0.7c1.6,0,2.4,0.8,2.4,2.4v3.7
		c0,0.6,0.3,0.8,0.7,0.8H76.2z"/>
	<path class="st5" d="M63.2,274.7v-1.3H65V261h-1.8v-1.3h3.3v15H63.2z"/>
</g>
</svg>
