<?xml version="1.0" encoding="utf-8"?>
<!-- Generator: Adobe Illustrator 22.1.0, SVG Export Plug-In . SVG Version: 6.00 Build 0)  -->
<svg version="1.1" id="Layer_1" xmlns="http://www.w3.org/2000/svg" xmlns:xlink="http://www.w3.org/1999/xlink" x="0px" y="0px"
	 viewBox="0 0 38.8 38.6" style="enable-background:new 0 0 38.8 38.6;" xml:space="preserve">
<style type="text/css">
	.st0{fill:url(#SVGID_1_);}
</style>
<linearGradient id="SVGID_1_" gradientUnits="userSpaceOnUse" x1="-2274.5437" y1="-1882.7073" x2="-2165.7937" y2="-1994.9573" gradientTransform="matrix(0.7071 -0.7071 -0.7071 -0.7071 97.0865 -2923.4253)">
	<stop  offset="0" style="stop-color:#00DAB1"/>
	<stop  offset="1" style="stop-color:#00DAD7"/>
</linearGradient>
<path class="st0" d="M25.2,13.6L25.2,13.6L25,13.4l0,0L2.2,0.2C1.6-0.1,0.9,0,0.4,0.4s-0.6,1.2-0.2,1.8l13.2,22.7l0,0l0.1,0.1
	l0.1,0.1l0.1,0.1l0.1,0.1l0,0l22.7,13.2c0.6,0.3,1.3,0.2,1.8-0.2s0.6-1.2,0.2-1.8l-13-22.6l0,0l-0.1-0.1
	C25.3,13.7,25.3,13.6,25.2,13.6z M5.6,5.6L21.7,15l-6.8,6.8L5.6,5.6z M33.2,33.2l-16.1-9.4l6.8-6.8L33.2,33.2z"/>
</svg>
