<?xml version="1.0" encoding="utf-8"?>
<!-- Generator: Adobe Illustrator 22.1.0, SVG Export Plug-In . SVG Version: 6.00 Build 0)  -->
<svg version="1.1" id="Layer_1" xmlns="http://www.w3.org/2000/svg" xmlns:xlink="http://www.w3.org/1999/xlink" x="0px" y="0px"
	 viewBox="0 0 1223.7 200.3" style="enable-background:new 0 0 1223.7 200.3;" xml:space="preserve">
<style type="text/css">
	.st0{fill:#FFFFFF;}
</style>
<g>
	<path class="st0" d="M314.3,117.5c0-0.2-0.1-0.3-0.1-0.5c-0.1-0.2-0.1-0.3-0.2-0.4c-0.1-0.1-0.1-0.2-0.1-0.3l-30.2-35.5h-76.5
		c-1.4,0-2.5,1.1-2.5,2.5c0,1.4,1.1,2.5,2.5,2.5h12.4v6.8h-12.4c-1.4,0-2.5,1.1-2.5,2.5c0,1.4,1.1,2.5,2.5,2.5h12.4v40.8h-12.4
		c-1.4,0-2.5,1.1-2.5,2.5c0,1.4,1.1,2.5,2.5,2.5h12.4v6.8h-12.4c-1.4,0-2.5,1.1-2.5,2.5s1.1,2.5,2.5,2.5h12.4v42.5
		c0,1.4,1.1,2.5,2.5,2.5s2.5-1.1,2.5-2.5v-42.5h41.8l29.1,44.2c0.5,0.7,1.3,1.1,2.1,1.1c0.5,0,0.9-0.1,1.4-0.4
		c1.1-0.8,1.5-2.3,0.7-3.4l-27.3-41.4h11.4l30.2-35.5c0.1-0.1,0.1-0.2,0.1-0.3c0.1-0.1,0.2-0.3,0.2-0.4c0.1-0.1,0.1-0.3,0.1-0.5
		c0-0.2,0.1-0.3,0.1-0.5C314.4,117.8,314.3,117.6,314.3,117.5z M291.3,138.3h-30.1l-26.9-40.8h57l17.4,20.4L291.3,138.3z
		 M281.3,85.8l5.8,6.8h-56l-4.5-6.8H281.3z M224.5,91.6l0.6,1h-0.6V91.6z M224.5,97.5h3.9l26.9,40.8h-30.8V97.5z M224.5,150.1v-6.8
		h34l4.5,6.8H224.5z M281.3,150.1h-12.4l-4.5-6.8h22.6L281.3,150.1z"/>
	<path class="st0" d="M1043.7,84.5c1.4,0,2.5-1.1,2.5-2.5c0-1.4-1.1-2.5-2.5-2.5h-91c-0.7-0.3-1.5-0.3-2.2,0h-7.1
		c-1.4,0-2.5,1.1-2.5,2.5c0,1.4,1.1,2.5,2.5,2.5h7.5l6.8,6.8h-14.2c-1.4,0-2.5,1.1-2.5,2.5c0,1.4,1.1,2.5,2.5,2.5h19.2l43.1,43.1
		l-43.1,43.1h-19.2c-1.4,0-2.5,1.1-2.5,2.5c0,1.4,1.1,2.5,2.5,2.5h14.2l-6.8,6.8h-7.5c-1.4,0-2.5,1.1-2.5,2.5s1.1,2.5,2.5,2.5h7.6
		c0.2,0.1,0.5,0.1,0.7,0.1c0.2,0,0.5-0.1,0.7-0.1h91.2c1.4,0,2.5-1.1,2.5-2.5s-1.1-2.5-2.5-2.5h-85.8l6.8-6.8h79
		c1.4,0,2.5-1.1,2.5-2.5c0-1.4-1.1-2.5-2.5-2.5h-74l39.5-39.5l13.8,13.8l17.3-17.3L1023,122l-13.8,13.8l-39.5-39.5h74
		c1.4,0,2.5-1.1,2.5-2.5c0-1.4-1.1-2.5-2.5-2.5h-79l-6.8-6.8H1043.7z M1023,129.1l10.2,10.2l-10.2,10.2l-10.2-10.2L1023,129.1z"/>
	<path class="st0" d="M984,128.2l-11.1,11.1l11.1,11.1l11.1-11.1L984,128.2z M979.9,139.4l4.1-4.1l4.1,4.1l-4.1,4.1L979.9,139.4z"/>
	<path class="st0" d="M476.1,84.5c1.4,0,2.5-1.1,2.5-2.5c0-1.4-1.1-2.5-2.5-2.5h-91c-0.7-0.3-1.5-0.3-2.2,0h-7.1
		c-1.4,0-2.5,1.1-2.5,2.5c0,1.4,1.1,2.5,2.5,2.5h7.5l6.8,6.8h-14.2c-1.4,0-2.5,1.1-2.5,2.5c0,1.4,1.1,2.5,2.5,2.5H395l43.1,43.1
		l-43.2,43.2h-19.1c-1.4,0-2.5,1.1-2.5,2.5s1.1,2.5,2.5,2.5h14.1l-6.8,6.8h-7.3c-1.4,0-2.5,1.1-2.5,2.5s1.1,2.5,2.5,2.5h100.3
		c1.4,0,2.5-1.1,2.5-2.5s-1.1-2.5-2.5-2.5h-85.9l6.8-6.8h79.1c1.4,0,2.5-1.1,2.5-2.5s-1.1-2.5-2.5-2.5h-74.2l39.7-39.7l13.8,13.8
		l17.3-17.3L455.4,122l-13.8,13.8l-39.5-39.5h74c1.4,0,2.5-1.1,2.5-2.5c0-1.4-1.1-2.5-2.5-2.5h-79l-6.8-6.8H476.1z M455.4,129.1
		l10.2,10.2l-10.2,10.2l-10.2-10.2L455.4,129.1z"/>
	<path class="st0" d="M695.8,178.3c1.4,0,2.5-1.1,2.5-2.5c0-1.4-1.1-2.5-2.5-2.5h-8.3l-2.7-5.9h11c1.4,0,2.5-1.1,2.5-2.5
		c0-1.4-1.1-2.5-2.5-2.5h-13.3l-29.5-63l16.4-16.4c1-1,1-2.5,0-3.5c-1-1-2.5-1-3.5,0l-15.1,15.1l-3.4-7.3l15.6-15.6c1-1,1-2.5,0-3.5
		c-1-1-2.5-1-3.5,0l-14.3,14.3l-27.6-58.9L627,3.5c0.6-1.2,0-2.7-1.2-3.3c-1.2-0.6-2.7,0-3.3,1.2l-7.7,16.5L607,1.4
		c-0.6-1.2-2.1-1.8-3.3-1.2c-1.2,0.6-1.8,2.1-1.2,3.3l9.5,20.2l-27.9,59.7l-15.3-15.3c-1-1-2.5-1-3.5,0c-1,1-1,2.5,0,3.5l16.5,16.5
		l-3,6.5l-15.1-15.1c-1-1-2.5-1-3.5,0c-1,1-1,2.5,0,3.5l16.4,16.4l-29.5,63h-13.7c-1.4,0-2.5,1.1-2.5,2.5c0,1.4,1.1,2.5,2.5,2.5
		h11.4l-2.7,5.9h-8.6c-1.4,0-2.5,1.1-2.5,2.5c0,1.4,1.1,2.5,2.5,2.5h6.3l-10.2,21.8h58l27.3-27.3l27.3,27.3h58l-10.2-21.8H695.8z
		 M614.8,29.6l26.6,56.7l-27.2,27.2l-26.3-26.3L614.8,29.6z M614.2,120.6l29.4-29.4l3.4,7.3l-32.2,32.2l-32.2-32.2l3-6.5
		L614.2,120.6z M585.4,195.1h-48.2l7.9-16.8h13.5c1.4,0,2.5-1.1,2.5-2.5c0-1.4-1.1-2.5-2.5-2.5h-11.2l2.7-5.9h8.4
		c1.4,0,2.5-1.1,2.5-2.5c0-1.4-1.1-2.5-2.5-2.5h-6.1l27.7-59.3l30.9,30.9l-17.6,17.6l17.6,17.6L585.4,195.1z M614.8,137.7l14.1,14.1
		l-14.1,14.1l-14.1-14.1L614.8,137.7z M692.2,195.1h-48.2l-25.8-25.8l17.6-17.6l-17.6-17.6l30.9-30.9l27.8,59.3h-6.5
		c-1.4,0-2.5,1.1-2.5,2.5c0,1.4,1.1,2.5,2.5,2.5h8.8l2.7,5.9h-11.5c-1.4,0-2.5,1.1-2.5,2.5c0,1.4,1.1,2.5,2.5,2.5h13.9L692.2,195.1z
		"/>
	<path class="st0" d="M416.4,128.2l-11.1,11.1l11.1,11.1l11.1-11.1L416.4,128.2z M412.3,139.3l4.1-4.1l4.1,4.1l-4.1,4.1L412.3,139.3
		z"/>
	<path class="st0" d="M831.9,117.3l-11.1-11.1l-11.1,11.1l11.1,11.1L831.9,117.3z M820.8,113.2l4.1,4.1l-4.1,4.1l-4.1-4.1
		L820.8,113.2z"/>
	<path class="st0" d="M286.7,106.8l-11.1,11.1l11.1,11.1l11.1-11.1L286.7,106.8z M282.6,117.9l4.1-4.1l4.1,4.1l-4.1,4.1L282.6,117.9
		z"/>
	<path class="st0" d="M2.5,78.4c-1.4,0-2.5,1.1-2.5,2.5c0,1.4,1.1,2.5,2.5,2.5h16.1l54.3,55.8l-54.4,56h-16c-1.4,0-2.5,1.1-2.5,2.5
		s1.1,2.5,2.5,2.5h91l59.2-60.9L93.5,78.4H2.5z M79.8,139.2L25.6,83.4h8.3l55.9,55.9l-55.9,55.9h-8.5L79.8,139.2z M91.4,195.2H40.9
		l52.4-52.4l13.8,13.8l17.3-17.3L107.1,122l-13.8,13.8L40.9,83.4h50.5l54.3,55.9L91.4,195.2z M96.8,139.3l10.2-10.2l10.2,10.2
		l-10.2,10.2L96.8,139.3z"/>
	<path class="st0" d="M51.1,128.1L40,139.3l11.1,11.1l11.1-11.1L51.1,128.1z M47,139.3l4.1-4.1l4.1,4.1l-4.1,4.1L47,139.3z"/>
	<path class="st0" d="M880.8,99.1V78.4c0-1.4-1.1-2.5-2.5-2.5s-2.5,1.1-2.5,2.5v5.6L820.8,139l-54.5-54.5v-6.1
		c0-1.4-1.1-2.5-2.5-2.5s-2.5,1.1-2.5,2.5v5.4c-0.5,0.8-0.5,1.8,0,2.6v13.2c-0.1,0.5-0.1,1,0,1.4v96.6c0,1.4,1.1,2.5,2.5,2.5
		s2.5-1.1,2.5-2.5v-91.1l51.3,51.3l-13.8,13.8l17.3,17.3l17.3-17.3l-13.8-13.8l51.3-51.3v91.1c0,1.4,1.1,2.5,2.5,2.5
		s2.5-1.1,2.5-2.5v-96.3C881.2,100.6,881.2,99.8,880.8,99.1z M831.3,171.5l-10.2,10.2l-10.2-10.2l10.2-10.2L831.3,171.5z
		 M821.1,154.2l-54.8-54.8v-7.9l54.5,54.5L875.9,91v8.5L821.1,154.2z"/>
	<path class="st0" d="M614.1,80.7L603,91.8l11.1,11.1l11.1-11.1L614.1,80.7z M610,91.8l4.1-4.1l4.1,4.1l-4.1,4.1L610,91.8z"/>
	<path class="st0" d="M1223.6,118.4c0-0.2,0.1-0.3,0.1-0.5c0-0.2,0-0.3-0.1-0.5c0-0.2-0.1-0.3-0.1-0.5c-0.1-0.2-0.1-0.3-0.2-0.4
		c-0.1-0.1-0.1-0.2-0.1-0.3l-30.2-35.5h-76.5c-1.4,0-2.5,1.1-2.5,2.5c0,1.4,1.1,2.5,2.5,2.5h12.4v6.8h-12.4c-1.4,0-2.5,1.1-2.5,2.5
		c0,1.4,1.1,2.5,2.5,2.5h12.4v40.8h-12.4c-1.4,0-2.5,1.1-2.5,2.5c0,1.4,1.1,2.5,2.5,2.5h12.4v6.8h-12.4c-1.4,0-2.5,1.1-2.5,2.5
		s1.1,2.5,2.5,2.5h12.4v42.5c0,1.4,1.1,2.5,2.5,2.5c1.4,0,2.5-1.1,2.5-2.5v-42.5h41.8l29.1,44.2c0.5,0.7,1.3,1.1,2.1,1.1
		c0.5,0,0.9-0.1,1.4-0.4c1.1-0.8,1.5-2.3,0.7-3.4l-27.3-41.4h11.4l30.2-35.5c0.1-0.1,0.1-0.2,0.1-0.3c0.1-0.1,0.2-0.3,0.2-0.4
		C1223.5,118.7,1223.6,118.6,1223.6,118.4z M1200.6,138.3h-30.1l-26.9-40.8h57l17.4,20.4L1200.6,138.3z M1190.6,85.8l5.8,6.8h-56
		l-4.5-6.8H1190.6z M1133.8,91.6l0.6,1h-0.6V91.6z M1133.8,97.5h3.9l26.9,40.8h-30.8V97.5z M1133.8,150.1v-6.8h34l4.5,6.8H1133.8z
		 M1190.6,150.1h-12.4l-4.5-6.8h22.6L1190.6,150.1z"/>
	<path class="st0" d="M1196,106.8l-11.1,11.1l11.1,11.1l11.1-11.1L1196,106.8z M1191.9,117.9l4.1-4.1l4.1,4.1l-4.1,4.1L1191.9,117.9
		z"/>
</g>
</svg>
