<?xml version="1.0" encoding="utf-8"?>
<!-- Generator: Adobe Illustrator 23.0.0, SVG Export Plug-In . SVG Version: 6.00 Build 0)  -->
<svg version="1.1" id="Layer_1" xmlns="http://www.w3.org/2000/svg" xmlns:xlink="http://www.w3.org/1999/xlink" x="0px" y="0px"
	 viewBox="0 0 412 474" style="enable-background:new 0 0 412 474;" xml:space="preserve">
<style type="text/css">
	.st0{fill-rule:evenodd;clip-rule:evenodd;fill:#FFFFFF;}
	.st1{filter:url(#Adobe_OpacityMaskFilter);}
	.st2{mask:url(#mask-3_1_);fill-rule:evenodd;clip-rule:evenodd;fill:#FFFFFF;}
</style>
<title>Group 6</title>
<desc>Created with Sketch.</desc>
<g>
	<path id="Fill-1" class="st0" d="M198.5,198.9l6.5-6.5l6.5,6.5l-6.5,6.5L198.5,198.9z M224.2,203.2c2.4-2.4,2.4-6.2,0-8.6
		L210,180.3c-1.3-1.3-3.1-2-4.9-2c-1.9,0-3.6,0.7-5,2.1l-13.6,13.6c-2.7,2.7-2.7,7.2,0,9.9l13.6,13.6c1.4,1.4,3.2,2,4.9,2
		c1.8,0,3.6-0.7,5-2L224.2,203.2z"/>
	<g id="Group-5" transform="translate(0.000000, 0.928000)">
		<g id="Clip-4">
		</g>
		<defs>
			<filter id="Adobe_OpacityMaskFilter" filterUnits="userSpaceOnUse" x="35" y="16.1" width="342.2" height="396.9">
				<feColorMatrix  type="matrix" values="1 0 0 0 0  0 1 0 0 0  0 0 1 0 0  0 0 0 1 0"/>
			</filter>
		</defs>
		<mask maskUnits="userSpaceOnUse" x="35" y="16.1" width="342.2" height="396.9" id="mask-3_1_">
			<g class="st1">
				<polygon id="path-2_1_" class="st0" points="35,16.1 377.2,16.1 377.2,413 35,413 				"/>
			</g>
		</mask>
		<path id="Fill-3" class="st2" d="M216.7,350.1l28.4-28.4c3.3-3.3,3.3-8.7,0-12l-28.4-28.4l56-56l51,108.9h-8.5
			c-4.1,0-7.5,3.4-7.5,7.5c0,4.1,3.4,7.5,7.5,7.5h15.6l2.8,6.1h-18.4c-4.1,0-7.5,3.4-7.5,7.5c0,4.1,3.4,7.5,7.5,7.5h25.4l13,27.7
			h-89L216.7,350.1z M206.1,291.9l23.8,23.8l-23.8,23.8l-23.8-23.8L206.1,291.9z M147.6,398h-89l13-27.7h24.7c4.1,0,7.5-3.4,7.5-7.5
			c0-4.1-3.4-7.5-7.5-7.5H78.6l2.8-6.1h14.9c4.1,0,7.5-3.4,7.5-7.5c0-4.1-3.4-7.5-7.5-7.5h-7.8l51-108.9l56,56l-28.4,28.4
			c-1.6,1.6-2.5,3.7-2.5,6c0,2.3,0.9,4.4,2.5,6l28.4,28.4L147.6,398z M199.1,251.5c1.7,1.7,3.8,2.5,6,2.5c2.2,0,4.4-0.8,6-2.5
			l50.3-50.3l4.5,9.6l-59.9,59.9l-59.9-59.9l3.9-8.3L199.1,251.5z M206.1,83l48.6,103.9l-49.6,49.5l-48.3-48.2L206.1,83z
			 M357.2,370.3h7.5c4.1,0,7.5-3.4,7.5-7.5c0-4.1-3.4-7.5-7.5-7.5h-14.5l-2.8-6.1h17.4c4.1,0,7.5-3.4,7.5-7.5c0-4.1-3.4-7.5-7.5-7.5
			h-24.4L284,214l30.8-30.8c2.9-2.9,2.9-7.7,0-10.6c-2.9-2.9-7.7-2.9-10.6,0l-27,26.9l-4.5-9.6l29.6-29.5c2.9-2.9,2.9-7.7,0-10.6
			c-2.9-2.9-7.7-2.9-10.6,0L266,175.5L214.4,65.3l18-38.5c1.8-3.8,0.1-8.2-3.6-10c-3.7-1.8-8.2-0.1-10,3.6l-12.7,27.2l-12.7-27.2
			c-1.8-3.8-6.2-5.4-10-3.6c-3.8,1.8-5.4,6.2-3.6,10l18,38.5l-52.2,111.6l-27.2-27.2c-2.9-2.9-7.7-2.9-10.6,0
			c-2.9,2.9-2.9,7.7,0,10.6l31.1,31l-3.9,8.3l-27-26.9c-2.9-2.9-7.7-2.9-10.6,0c-2.9,2.9-2.9,7.7,0,10.6l30.8,30.8L71.9,334.2H46.8
			c-4.1,0-7.5,3.4-7.5,7.5c0,4.1,3.4,7.5,7.5,7.5h18.1l-2.8,6.1H46.8c-4.1,0-7.5,3.4-7.5,7.5c0,4.1,3.4,7.5,7.5,7.5H55L35,413h115.3
			c2.3,0,4.4-0.9,6-2.5l49.8-49.8l49.8,49.8c1.6,1.6,3.7,2.5,6,2.5h115.3L357.2,370.3z"/>
	</g>
</g>
</svg>
