<?xml version="1.0" encoding="utf-8"?>
<!-- Generator: Adobe Illustrator 22.1.0, SVG Export Plug-In . SVG Version: 6.00 Build 0)  -->
<svg version="1.1" id="Layer_1" xmlns="http://www.w3.org/2000/svg" xmlns:xlink="http://www.w3.org/1999/xlink" x="0px" y="0px"
	 viewBox="0 0 38.4 38.8" style="enable-background:new 0 0 38.4 38.8;" xml:space="preserve">
<style type="text/css">
	.st0{fill:#FFFFFF;}
</style>
<g>
	<path class="st0" d="M8.1,23.8C8.2,23.9,8.3,24,8.3,24C8.3,24,8.2,23.8,8.1,23.8z"/>
	<path class="st0" d="M8,24.4c-0.1,0-0.2,0-0.2,0.1c0,0,0,0.1,0.2,0.3v0.1c0,0.2,0.1,0.3,0.3,0.4C8.1,25.1,8,25,8,24.8
		c0-0.1,0.1-0.3,0.2-0.4L8,24.4L8,24.4z"/>
	<path class="st0" d="M7.4,25.2c0.2,0,0.3-0.1,0.3-0.1h0C7.5,25.1,7.5,25.1,7.4,25.2z"/>
	<path class="st0" d="M17.4,4.9C17.4,4.8,17.4,4.8,17.4,4.9l0.1-0.1C17.4,4.7,17.4,4.8,17.4,4.9z"/>
	<path class="st0" d="M8.2,22.9c-0.1,0-0.2,0-0.3,0H8c0.1,0,0.2,0,0.2,0.1S8.1,23.1,8,23.2c0,0,0,0.1,0,0.1v0c0.1,0,0.3-0.3,0.3-0.4
		C8.3,22.9,8.3,22.9,8.2,22.9z"/>
	<path class="st0" d="M7.3,23.4l-0.3,0C7,23.4,7.1,23.4,7.3,23.4z"/>
	<path class="st0" d="M16.2,4.2c0-0.2-0.2-0.4-0.4-0.4C15.8,4,16,4.1,16.2,4.2z"/>
	<path class="st0" d="M13.8,4.3c0,0-0.1,0-0.2,0.1C13.7,4.4,13.8,4.4,13.8,4.3C13.8,4.3,13.8,4.3,13.8,4.3z"/>
	<path class="st0" d="M14.1,3.7c0,0.1-0.1,0.2-0.1,0.4c0,0.2,0.1,0.3,0.2,0.3c0,0,0.1,0,0.2-0.1C14.3,4.1,14.3,4,14.3,4
		c0,0,0-0.1,0.1-0.4h-0.1c-0.1,0-0.5,0-0.4,0.1C14.1,3.6,14.1,3.7,14.1,3.7z"/>
	<path class="st0" d="M14.5,3.6c0,0.4,0,0.5,0.1,0.5s0.1-0.1,0.1-0.3S14.6,3.6,14.5,3.6z"/>
	<path class="st0" d="M12.3,26.6c-0.1,0.1-0.3,0.3-0.3,0.3C12.2,26.9,12.2,26.7,12.3,26.6z"/>
	<path class="st0" d="M11.7,25.3l0.3-0.1C11.9,25.2,11.8,25.2,11.7,25.3z"/>
	<path class="st0" d="M14.6,3.5c0-0.3,0-0.4-0.2-0.4c0,0-0.1,0-0.2,0C14.4,3.1,14.5,3.3,14.6,3.5z"/>
	<path class="st0" d="M14,25.7c0.2-0.2,0.5,0,0.5-0.4C14.3,25.3,14.1,25.5,14,25.7z"/>
	<path class="st0" d="M11.1,24.6c-0.4,0.3-0.6,0.6-0.6,0.9c0,0.1,0,0.2,0.1,0.3c0.3-0.4,0.5-0.5,0.5-1V24.6z"/>
	<path class="st0" d="M10.2,24.7h-0.1c-0.3,0,0,0.2-0.4,0.3c0.3,0.1,0.5,0.1,0.8,0.1C10.5,25.2,10.2,24.7,10.2,24.7z"/>
	<path class="st0" d="M8.9,25.5c0.1,0.2,0.3,0.3,0.5,0.3C9.2,25.7,9.1,25.5,8.9,25.5z"/>
	<path class="st0" d="M8.8,23.9h0.7c-0.1,0-0.2-0.1-0.3-0.1C9,23.9,8.9,23.9,8.8,23.9z"/>
	<path class="st0" d="M9.6,26c0,0,0.1-0.1,0.2-0.2C9.7,25.8,9.6,26,9.6,26z"/>
	<path class="st0" d="M12,26.5c-0.1,0.1-0.2,0.2-0.2,0.2L12,26.5z"/>
	<path class="st0" d="M10.9,26L10.9,26c0.1,0,0.3,0,0.4,0H12c-0.3-0.1-0.6-0.3-0.9-0.3C10.9,25.8,10.9,26,10.9,26z"/>
	<path class="st0" d="M20.5,6.1l-0.3-0.2C20.3,5.9,20.5,6.1,20.5,6.1z"/>
	<path class="st0" d="M14.3,26.2L14.2,26C14.2,26.2,14.3,26.2,14.3,26.2z"/>
	<path class="st0" d="M13,25.7L13,25.7c0-0.1,0-0.2-0.1-0.3C12.8,25.6,12.9,25.7,13,25.7z"/>
	<path class="st0" d="M18.8,3.9c0-0.1-0.1-0.2-0.2-0.2c-0.1,0-0.2,0-0.3,0l-0.3,0.5C18.3,4.2,18.8,4,18.8,3.9z"/>
	<path class="st0" d="M8.8,24.1c0,0,0,0-0.1,0c0,0-0.1,0-0.2,0c0.1,0.1,0.3,0.3,0.5,0.3C8.8,24.1,8.8,24.1,8.8,24.1z"/>
	<path class="st0" d="M11,24.5c0,0,0-0.1-0.1-0.1c-0.2,0-0.3,0.1-0.3,0.3c0,0,0,0.1,0.1,0.2C10.9,24.7,11,24.6,11,24.5z"/>
	<path class="st0" d="M27.7,27.9c0.1,0.1,0.1,0.2,0.2,0.2c0.2,0.2,0.3-0.1,0.6-0.2L27.7,27.9z"/>
	<path class="st0" d="M37.3,33.2l-10-10c1.5-2.4,2.4-5.2,2.4-8.2c0-8.3-6.6-15-14.9-15C6.7,0,0,6.7,0,15c0,8.2,6.7,14.9,14.9,14.9
		c2.9,0,5.6-0.8,7.9-2.3l10.1,10.1C35.8,40.7,40.6,36.5,37.3,33.2z M32.1,31.9C32,32,31.8,32,31.2,31.8c0,0,0.5-0.3,0.5-0.3
		C31.9,31.7,32.1,31.9,32.1,31.9z M31.1,29.8c0.1,0,0.3,0.1,0.4,0.2s0.1,0.2,0.1,0.3c-0.1-0.1-0.2-0.1-0.3-0.2
		C31.2,30,31.1,29.9,31.1,29.8z M31.1,30.8c-0.1,0.1-0.2,0.1-0.4-0.1l0.5-0.2C31.2,30.6,31.2,30.7,31.1,30.8z M27.9,26.1
		c0,0-0.2,0.1-0.3,0.1C27.8,26.1,27.9,26.1,27.9,26.1z M26.9,26.5l0-0.2C26.9,26.3,26.9,26.5,26.9,26.5z M26.1,25.5l0-0.2
		C26.1,25.3,26.1,25.4,26.1,25.5z M25.7,25.4c0,0,0.1,0.1,0,0.2c-0.2,0.2-0.4,0.2-0.6,0.2C25.3,25.7,25.5,25.5,25.7,25.4L25.7,25.4z
		 M23.2,10.2l0.1,0.1C23.2,10.3,23.2,10.2,23.2,10.2z M25.2,13c-0.1,0.1-0.3,0.2-0.4,0.2s-0.3-0.1-0.5-0.3h0.3
		C24.7,13,24.9,13,25.2,13z M25,12.5c0-0.2,0-0.3,0-0.3s0.1,0.2,0.1,0.3c0,0,0,0.1,0,0.1C25.1,12.6,25,12.6,25,12.5z M25,18.5
		L25,18.5c0,0.2,0,0.3-0.1,0.3C24.9,18.6,25,18.5,25,18.5z M24.4,18.6l-0.1,0.3C24.2,18.8,24.3,18.7,24.4,18.6z M24.2,13.4
		C24.3,13.5,24.3,13.5,24.2,13.4c0.1,0.1,0.1,0.1,0,0.1C24.3,13.6,24.2,13.5,24.2,13.4z M24.1,12.8c0-0.3,0.3-0.4,0.5-0.4
		C24.5,12.6,24.4,12.7,24.1,12.8z M25.5,12.5c0,0,0,0-0.1-0.1L25.5,12.5z M25.4,12.2l0.6-0.3c0,0.2-0.3,0.3-0.4,0.3
		C25.5,12.2,25.5,12.2,25.4,12.2z M26.7,11.6C26.7,11.6,26.7,11.6,26.7,11.6c-0.1,0-0.1,0-0.1-0.1L26.7,11.6z M26.6,13
		c-0.1,0-0.1,0.1-0.2,0.2C26.4,13.1,26.5,13,26.6,13z M26,21.1c0,0-0.1,0-0.2,0c0.1-0.3,0.3-0.5,0.5-0.5
		C26.3,20.9,26.2,21.1,26,21.1z M26.3,10.6c-0.5,0-0.3-0.1-0.7-0.3C25.9,10.3,26.2,10.4,26.3,10.6z M25.3,11.7
		c0-0.3,0.1-0.4,0.3-0.4h0.1c0,0.5-0.1,0.7-0.2,0.7c0,0-0.1,0-0.2-0.1L25.3,11.7L25.3,11.7z M25.5,18.4l-0.5-0.1c0-0.1,0-0.2,0-0.3
		c0-0.2,0-0.3,0.2-0.3h0.1C25.3,17.8,25.5,18.4,25.5,18.4z M25.2,11.6c-0.2,0-0.3,0.1-0.5,0.1c-0.1,0-0.2,0-0.3,0
		c0,0.1,0.3,0.3,0.3,0.5c0,0,0,0.1-0.1,0.1l-0.4-0.6c0.4-0.1,0.8-0.4,1.1-0.7c-0.1,0.1-0.1,0.2-0.1,0.3
		C25.1,11.4,25.2,11.5,25.2,11.6z M24.6,9.7c0.1-0.1,0.2-0.1,0.3-0.1h0C24.9,9.7,24.8,9.7,24.6,9.7z M24.4,9.6
		c-0.1,0-0.2-0.1-0.2-0.3c0,0.1,0.1,0.1,0.2,0.1c0.3,0,0.5-0.3,0.7-0.3C25.1,9.1,24.7,9.6,24.4,9.6z M24.5,8.6
		c0.1,0,0.3,0.1,0.4,0.2c0,0-0.3,0.2-0.5,0.2c-0.1,0-0.2,0-0.2-0.2C24.3,8.7,24.4,8.6,24.5,8.6z M24.2,9c0,0.2,0,0.3-0.1,0.3
		s-0.1-0.1-0.1-0.2C24.1,9.1,24.1,9.1,24.2,9z M24,13c0,0.1-0.1,0.2-0.1,0.2C23.9,13.1,23.9,13.1,24,13z M23.8,9.6L23.8,9.6
		c0,0.3-0.1,0.7-0.1,0.7c0,0,0,0,0-0.2C23.7,9.9,23.8,9.7,23.8,9.6z M23.2,6.8V6.6c0-0.1,0-0.1,0.3-0.1c0,0.2,0,0.3,0,0.3
		c0,0,0,0.1-0.1,0.1c0,0-0.2,0-0.3,0C23.2,6.9,23.2,6.8,23.2,6.8z M23.6,9.1c-0.1,0.2-0.1,0.4-0.2,0.4c0,0,0,0,0-0.1
		c-0.1-0.2-0.2-0.3-0.3-0.3l-0.2,0c0-0.2,0.1-0.3,0.3-0.3C23.3,8.9,23.4,9.1,23.6,9.1z M23,6.3c0,0,0,0-0.2,0.1
		C22.9,6.3,23,6.3,23,6.3z M23,7c-0.1,0.4-0.2,0.5-0.2,0.5c0,0,0,0,0-0.1C22.7,7.3,22.8,7,23,7z M22.7,6.6c-0.1,0-0.3,0-0.3,0v0
		C22.6,6.6,22.7,6.6,22.7,6.6L22.7,6.6z M22.7,5.7c-0.1,0-0.3,0-0.3-0.2L22.7,5.7z M22.1,6C22.2,6,22.2,6.1,22.1,6
		c0.1,0.1-0.1,0.2-0.2,0.2c0,0-0.1,0-0.1-0.1L22.1,6z M21.3,5C21.3,5,21.3,5,21.3,5c-0.1,0-0.1,0-0.1-0.2C21.3,4.9,21.3,5,21.3,5z
		 M20.8,4.1L20.8,4.1c0,0.1,0,0.2,0,0.2C20.7,4.2,20.7,4.2,20.8,4.1z M20.5,5c0,0,0.1,0,0.1,0c0,0,0.1,0.1,0.2,0.5
		c-0.1-0.1-0.2-0.1-0.3-0.2l-0.1,0.3c0.4-0.1,0.8-0.2,1.1-0.3c0,0.2-0.2,0.3-0.2,0.4c0,0,0,0.1,0.3,0.1c-0.2,0.2-0.9,0.4-1,0.4
		c-0.1,0.1-0.4,0.1-0.5,0.6c-0.7-0.3-0.3-0.7-1.2-0.7c0-0.3,0.3-0.9,0.5-1.1c0.1,0.1,0.2,0.1,0.2,0.2c0,0.2-0.3,0.3-0.3,0.5
		c0.1,0,0.2,0,0.2,0l-0.1,0.2h0.3L19.5,6c0,0,0.5,0,0.6,0.1c0,0,0-0.1,0-0.2c0-0.3,0.2-0.9,0.3-1C20.3,5,20.4,5,20.5,5z M21.6,6.7
		c0,0-0.1,0.1-0.2,0.1h0C21.5,6.7,21.5,6.7,21.6,6.7C21.6,6.7,21.6,6.7,21.6,6.7z M20.8,6.5c0,0-0.1,0.4-0.5,0.7
		C20.3,6.9,20.5,6.7,20.8,6.5z M19.9,6.9C19.9,6.9,19.9,7,19.9,6.9c0.1,0.1,0.1,0.1,0,0.1C19.9,7.1,19.9,7.1,19.9,6.9l-0.4,0.2
		C19.4,7.1,19.7,6.9,19.9,6.9z M19.3,6.8c0,0-0.2-0.2-0.2-0.3c0,0,0-0.1,0.2-0.1c0.1,0,0.2,0.1,0.2,0.2C19.5,6.6,19.4,6.7,19.3,6.8z
		 M18,5.1c0.1-0.2,0.3-0.3,0.5-0.3h0.1c-0.1,0-0.1,0.1-0.1,0.1c0,0.1,0.2,0.1,0.6,0.1l-0.3,0.3c0,0,0,0,0,0v0.1
		C18.6,5.3,18.3,5.2,18,5.1z M18.5,5.9c0,0.1,0,0.1-0.1,0.1c-0.1,0-0.2-0.1-0.3-0.2c0-0.3,0.1-0.4,0.2-0.4
		C18.3,5.4,18.5,5.6,18.5,5.9z M19,6.4c-0.2,0-0.4,0-0.4-0.3L19,6.4z M19.7,5.3V4.8C19.9,4.9,19.9,5,19.9,5
		C19.9,5.1,19.8,5.2,19.7,5.3z M20.2,3.4c0,0.1,0,0.2-0.1,0.2s-0.1,0-0.1-0.1C19.9,3.4,20,3.4,20.2,3.4z M18.5,3.1
		c0.1,0.4,0.5,0.8,0.5,1.4C19.6,4.1,19.5,4,19.5,4c0,0,0.1,0,0.5,0c-0.1,0.1-0.8,0.6-0.8,0.8c-0.3,0-1.4-0.2-1.4-0.3
		c0,0,0,0,0.1-0.1c-0.1,0-0.2-0.1-0.2-0.2C17.8,3.8,18.5,3.2,18.5,3.1z M17.7,5.4c0,0-0.1,0.3-0.2,0.3C17.7,5.5,17.7,5.4,17.7,5.4z
		 M17.7,5.8l-0.3,0.3C17.5,5.9,17.6,5.8,17.7,5.8z M17.5,4.8C17.4,5,17.4,5,17.4,5c0,0,0,0,0,0C17.3,5,17.3,4.9,17.5,4.8
		C17.2,5,17.1,5.1,17,5.1c-0.1,0-0.2,0-0.2-0.2c0-0.4,0.2-0.5,0.5-0.5c0.1,0,0.3,0,0.4,0.1L17.5,4.8z M17.1,3.3c0,0,0.1,0,0.3,0.1
		c-0.1,0.1-0.1,0.2-0.2,0.2c-0.1,0-0.2,0-0.3-0.1C17,3.4,17,3.3,17.1,3.3z M17,3.7c0,0,0.1,0,0.1,0.2l-0.3-0.1
		C16.9,3.8,16.9,3.7,17,3.7z M16.5,3.3c-0.1,0.2-0.3,0.3-0.4,0.3c-0.1,0-0.2,0-0.2-0.2c0.3,0,0.4-0.2,0.5-0.2
		C16.4,3.2,16.5,3.2,16.5,3.3z M16.4,2.8l-0.3,0.3C16.1,2.9,16.2,2.8,16.4,2.8z M13.6,2.7C13.6,2.7,13.6,2.7,13.6,2.7
		c-0.1,0-0.2,0-0.2,0C13.6,2.7,13.6,2.7,13.6,2.7z M13.2,2.7c-0.1,0-0.3,0.2-0.5,0.2c-0.1,0-0.1,0-0.2-0.1C12.7,2.7,13,2.7,13.2,2.7
		z M12.7,3.2c-0.1,0.1-0.2,0.2-0.2,0.2C12.6,3.3,12.6,3.3,12.7,3.2L12.5,3C12.5,3,12.6,3.1,12.7,3.2z M12.8,3.4
		c0,0.1-0.1,0.3-0.1,0.3C12.7,3.6,12.7,3.6,12.8,3.4z M12.4,3.7c0.2,0,0.5,0.4,0.6,0.4c0-0.3,0-0.5,0.4-0.5c0-0.4,0.6-1.4,1.4-1.5
		c0.5,0.5-0.3,0.6,1.3,0.6l-0.9,0.7c-0.1,0-0.2-0.1-0.2-0.3c0,0,0,0,0-0.1c-0.1,0.1-0.2,0.2-0.2,0.3c0,0.3,0.4,0.7,0.6,0.7
		c0,0-0.5,0.8-0.5,0.9h0c0.3-0.3,0.4-0.4,0.7-0.6c-0.1-0.2-0.1-0.3-0.1-0.4c0-0.3,0.3-0.3,1-0.3c0,0,0-0.5,0.1-0.5
		c0,0.4,0,0.5,0,0.6c0,0-0.1,0-0.1,0c-0.1,0-0.3,0.1-0.4,0.2c0,0,0.5,0.3,0.5,0.4c-0.5,0-1.3,0.6-1.3,1.2c0-0.1-0.1-0.2-0.1-0.2v0
		l-0.2,0.4c0,0.1,0,0.2-0.1,0.2c-0.2,0-0.4-0.2-0.6-0.3c0,0,0,0.1,0,0.1c0,0.1,0,0.1-0.1,0.1h-0.1c0.1-0.3,0.3-0.5,0.4-0.7
		c-0.1-0.1-0.2-0.1-0.3-0.2c-0.1,0-0.2,0-0.3,0.1c-0.1-0.2-0.3-0.3-0.5-0.3c0,0.3,0.1,0.4,0.3,0.4c0,0,0.2,0,0.3,0
		c-0.3,0.2-0.5,0.4-0.8,0.4c0.1-0.2,0.2-0.3,0.2-0.4s-0.1-0.2-0.3-0.3c-0.1,0.3,0.1,0.7-0.6,0.7C13,5.3,13.1,5.1,13.1,5
		c0-0.1,0-0.2-0.1-0.2C12.7,5,12.7,5,12.5,5c0,0-0.2,0-0.3,0c0,0,0,0,0-0.1c0,0-0.1-0.1-0.1-0.2c0.1,0,0.3,0,0.5,0h0.1
		c0,0,0,0-0.1,0c0.1,0,0.2-0.1,0.2-0.2c0-0.3-0.2-0.6-0.5-0.6c0,0-0.1,0-0.2,0C12.2,3.8,12.2,3.7,12.4,3.7z M16.1,5.9
		C16,5.9,16,5.8,16,5.8L16.1,5.9z M13.9,5.8L13.9,5.8C13.9,5.7,13.8,5.7,13.9,5.8l-0.3-0.1c0,0,0.1-0.1,0.1-0.1l-0.1-0.1
		c0.1,0.1,0.2,0.1,0.3,0.1c0.2,0,0.3-0.1,0.4-0.3l0.1,0.6h-0.1L13.8,6c0,0,0.1-0.1,0.2-0.1C14,5.9,13.9,5.8,13.9,5.8z M13.4,5.9
		c0,0.1-0.1,0.2-0.3,0.3l0.1-0.5C13.4,5.7,13.4,5.8,13.4,5.9z M13,5.5c0,0,0,0.2-0.1,0.2L13,5.5z M12.7,5.3c0,0.3-0.1,0.3-0.1,0.3
		s0,0,0-0.1C12.5,5.5,12.5,5.4,12.7,5.3z M12.2,2.9c0,0.2-0.1,0.3-0.1,0.3C12,3.1,12,3,12.2,2.9z M11.7,3.3c0,0-0.2-0.1-0.3-0.1
		L11.7,3.3z M11.7,3.8c0.2,0,0.3,0.1,0.3,0.3c-0.1,0-0.2,0-0.3,0c-0.2,0-0.3,0-0.5-0.2C11.4,3.9,11.6,3.8,11.7,3.8z M11.6,5.2l0,0.2
		h0C11.5,5.3,11.5,5.2,11.6,5.2z M10.9,5.4L10.9,5.4c0,0.1-0.1,0.3-0.2,0.3C10.8,5.5,10.9,5.4,10.9,5.4z M9.7,6.2
		c0,0-0.1-0.1-0.2-0.2L9.7,6.2z M9.3,4.1c0,0-0.1,0.2-0.1,0.2C9.3,4.1,9.3,4.1,9.3,4.1z M9.1,6.2L8.9,6.1C8.9,6.1,9.1,6.1,9.1,6.2z
		 M8.7,7.7L8.6,7.5C8.6,7.4,8.7,7.7,8.7,7.7z M7.9,6.9C7.9,6.9,7.9,6.9,7.9,6.9c0,0.1,0,0.3-0.1,0.3h0C7.8,7,7.9,6.9,7.9,6.9z
		 M8,7.9C8,7.9,8,8,8,8c0,0.1-0.2,0.1-0.2,0.3c0,0,0,0,0,0c0,0-0.1-0.1-0.1-0.2C7.7,8,7.7,7.9,8,7.9z M7.7,7.5c0,0.2,0,0.3,0,0.3
		c0,0,0,0,0,0C7.6,7.7,7.6,7.6,7.7,7.5z M14.9,6.1c5.8,0,8.9,4.6,8.9,8.9s-3,8.9-8.9,8.9c-5.5,0-8.8-4.5-8.8-8.9
		C6.1,10.6,9.5,6.1,14.9,6.1z M16.3,25.3c0.3,0.1,0.3,0.2,0.3,0.2c0,0,0,0.1,0,0.2c0,0,0,0.1,0.1,0.3C16.3,25.9,16.3,25.5,16.3,25.3
		L16.3,25.3z M15.8,24.7c0-0.1,0-0.2,0.1-0.2c0.1,0,0.4,0.3,0.4,0.5C16.1,25,16,24.9,15.8,24.7z M9.2,22.4c0,0.1-0.1,0.3-0.2,0.3
		C9.1,22.4,9.1,22.4,9.2,22.4z M7.7,22c0.1,0,0.3,0.2,0.5,0.3c-0.1,0-0.3,0-0.7,0L7.7,22z M7.4,20.3l0.2,0.1
		C7.5,20.3,7.4,20.3,7.4,20.3z M6.2,8.6l0.3,0c0,0-0.2-0.1-0.2-0.1c0,0,0.1-0.1,0.4-0.1c0,0.3-0.1,0.4-0.1,0.4
		C6.4,8.8,6.3,8.6,6.2,8.6z M6.4,19.9L6.1,20C6.2,19.9,6.2,19.9,6.4,19.9z M6.1,7.4c0.1,0.1,0.1,0.2,0.1,0.2
		C6.3,7.6,6.2,7.5,6.1,7.4z M6.3,6c0.1,0,0.2,0,0.4,0.1H6C6.1,6.1,6.1,6,6.3,6z M6.1,8.9c0,0.1-0.1,0.4-0.2,0.4V9.2
		c0,0,0-0.2,0.1-0.4C6,8.7,6.1,8.8,6.1,8.9z M5.8,7.2c0,0,0.1,0.2,0.1,0.4C5.9,7.4,5.8,7.3,5.8,7.2L5.8,7.2z M5.8,7.6
		c0,0,0,0.2-0.1,0.3C5.7,7.7,5.8,7.6,5.8,7.6z M5.7,8.3L5.5,8.2C5.5,8.2,5.7,8.3,5.7,8.3z M5.5,8.5l0,0.2h0C5.5,8.6,5.5,8.5,5.5,8.5
		z M5.2,6.9C5.1,7,5,7.1,5,7.2L5.2,6.9z M4.7,7.5c0,0,0-0.1,0.1-0.1C4.8,7.5,4.8,7.5,4.7,7.5L4.7,7.5z M4.3,10.3
		c0.1,0,0.3,0.3,0.3,0.4c0,0.1-0.1,0.1-0.1,0.1s0-0.3-0.2-0.3C4.2,10.3,4.2,10.3,4.3,10.3z M4,9.5c0,0.2-0.1,0.3-0.2,0.3s0,0,0-0.1
		C3.8,9.6,3.9,9.5,4,9.5z M2.9,14.3l0.1-0.1C3.1,14.2,3,14.3,2.9,14.3z M3.4,8.7c0.1,0,0.2,0.1,0.3,0.3c-0.2,0-0.4,0-0.6-0.2
		C3.2,8.7,3.3,8.7,3.4,8.7z M3.6,14.4c0,0,0,0.3-0.2,0.3L3.6,14.4z M3.6,16.7c0,0-0.2-0.1-0.3-0.3C3.5,16.6,3.6,16.7,3.6,16.7
		C3.6,16.7,3.6,16.7,3.6,16.7z M3.5,15.7l0.2,0.2C3.6,15.9,3.5,15.8,3.5,15.7z M4,10.5c-0.1,0-0.1,0.1-0.2,0.2
		C3.8,10.6,3.9,10.5,4,10.5z M3.9,15.3H4c0.2,0,0.3,0.1,0.3,0.5C4.1,15.6,3.9,15.5,3.9,15.3z M4.1,16.9c0.1,0,0.2,0,0.2,0
		C4.3,16.9,4.2,17,4.1,16.9C4.1,17,4.1,16.9,4.1,16.9z M4.3,19.9L4.3,19.9c0,0,0-0.1,0.1-0.1L4.3,19.9z M4.4,17.4l0.2-0.3
		C4.5,17.3,4.4,17.4,4.4,17.4z M4.5,19.1c0-0.2,0.1-0.3,0.3-0.3C4.7,18.9,4.6,19,4.5,19.1z M4.7,18.3c-0.1,0-0.2-0.1-0.2-0.3
		c0.2-0.1,0.2-0.2,0.3-0.2c0,0,0.1,0,0.3,0.2C4.9,18.2,4.7,18.3,4.7,18.3z M4.7,15.8c0.1-0.1,0.2-0.3,0.3-0.3L4.7,15.8z M5.4,7.8
		v0.1c-0.2,0-0.3-0.3-0.3-0.5C5.3,7.5,5.4,7.6,5.4,7.8z M5.5,8.9c0,0,0.1,0,0.2,0.1L5.1,9.2C5.2,9.1,5.4,8.9,5.5,8.9z M5.7,21
		c0,0-0.1,0.1-0.1,0.1L5.7,21z M5.4,20.8c0-0.1,0.1-0.2,0.1-0.2L5.4,20.8z M5.5,18.3H5.2c0-0.1,0.1-0.2,0.1-0.2c0,0,0,0,0-0.1
		s0-0.1,0-0.2c0.3,0.2,0.4,0.3,0.4,0.4C5.7,18.3,5.6,18.3,5.5,18.3z M5.3,10.3c0-0.2,0.2-0.3,0.3-0.3L5.3,10.3z M5.3,18.9
		c0-0.2-0.1-0.2-0.1-0.3c0,0,0-0.1,0.1-0.2c0.1,0.1,0.2,0.1,0.2,0.2C5.5,18.7,5.4,18.9,5.3,18.9z M5.5,23.5c0,0-0.1,0-0.1-0.2
		c0.2,0,0.3,0,0.3,0.1C5.7,23.4,5.6,23.5,5.5,23.5z M5.6,21.4l0.3,0.2C5.8,21.6,5.6,21.6,5.6,21.4z M5.8,17.8
		C5.8,17.7,5.8,17.7,5.8,17.8l0.1-0.1C5.9,17.8,5.9,17.8,5.8,17.8z M6.1,23.1C6,23.1,6,23,6,22.7c0-0.3,0.2-0.4,0.4-0.5
		C6.4,22.5,6.2,23.1,6.1,23.1z M6.3,20.6c-0.1,0-0.1,0-0.2-0.1L6.3,20.6C6.3,20.5,6.4,20.5,6.3,20.6C6.4,20.6,6.4,20.6,6.3,20.6z
		 M7.7,25.8C7.7,25.8,7.6,25.8,7.7,25.8c-0.1,0-0.2,0-0.2,0C7.6,25.7,7.6,25.7,7.7,25.8L7.7,25.8L7.7,25.8z M7.8,26.3
		c0.1-0.1,0.1-0.2,0.1-0.2C8,26.1,7.9,26.3,7.8,26.3z M11.3,27.7c-0.1,0-0.1-0.1-0.1-0.3c0.2,0,0.3,0.1,0.3,0.2
		C11.5,27.6,11.4,27.7,11.3,27.7z M12.3,28c0.2-0.6,0.5-1.1,1.1-1.2C13.4,27.1,12.7,27.6,12.3,28z M11.8,27.7c0-0.3,0.3-0.4,0.5-0.4
		L11.8,27.7z M13.8,27.5c0,0-0.1,0-0.1-0.2C13.8,27.4,13.8,27.5,13.8,27.5L13.8,27.5z M14.8,27.2c-0.1,0-0.3,0-0.4,0
		c0-0.2,0.4-0.2,0.5-0.2h0.1C15.1,27.1,14.9,27.2,14.8,27.2z M15.1,25.8c-0.3,0.2-0.4,0.3-0.4,0.3s0.3,0,0.3,0.2c-0.1,0-0.2,0-0.3,0
		c-0.3,0-0.5,0.1-0.8,0.3h0c0.1,0,0.3,0,0.4,0s0.3,0,0.3,0.2c-0.2,0.1-0.4,0.2-0.6,0.3v-0.3c-0.1,0.2-0.2,0.3-0.4,0.3
		c-0.1-0.4-0.1-0.5-0.1-0.5c0,0-0.2,0.1-0.5,0.2c0-0.4,0-0.5,0.2-0.9c-0.3,0-0.6,0.1-0.9,0.3c0,0.1,0,0.1,0.1,0.1c0,0,0.1,0,0.1-0.2
		c0,0,0.1,0.1,0.1,0.1c0,0.1,0,0.2-0.1,0.3c0.2-0.1,0.4-0.3,0.5-0.3c0,0.3-0.3,0.5-0.5,0.8c-0.2,0-0.3,0-0.3-0.1v0
		c-0.1,0.1-0.3,0.2-0.3,0.2c-0.1-0.2-0.3-0.4-0.4-0.5c-0.1,0-0.1,0.1-0.1,0.2c0,0.1,0,0.1,0.2,0.2c-0.2,0-0.3,0.1-0.4,0.2
		c-0.3,0-0.3-0.4-0.3-0.9c0-0.3,0-0.5,0-0.6c-0.1,0-0.1,0.1-0.2,0.1c0,0-0.1,0-0.1-0.1c-0.1,0-0.1,0.2-0.1,0.4c0,0.4,0.1,1,0.3,1
		c0,0,0,0,0.1,0c0,0.2-0.2,0.3-0.4,0.3c-0.3,0-0.5-0.2-0.5-0.4c0,0,0.1,0,0.1,0c0.1,0,0.2-0.1,0.3-0.3c-0.2-0.7-0.7-0.8-0.9-0.8h0
		c-0.5,0,0.2,0.7-0.8,0.7c0-0.3,0.1-0.5,0.3-0.7C8.7,26,8.7,26,8.6,26c-0.2,0-0.2,0.3-0.4,0.3c0-1.1-1.6-0.6-1.6-1.3
		c0,0,0.8-0.6,0.8-0.9c0-0.1-0.1-0.2-0.3-0.2c0,0.3,0,0.5-0.2,0.5c-0.1,0-0.3-0.1-0.5-0.3l0.5-0.4c0,0-0.4-0.1-0.4-0.2
		c0.2-0.1,0.4-0.3,0.5-0.5c-0.1-0.2-0.2-0.3-0.3-0.3c0,0-0.1,0-0.2,0.1c0-0.3,1.2-0.1,1.8-0.3c-0.1,0-0.2-0.1-0.2-0.2
		c0-0.1,0.2-0.1,0.2-0.1C8.6,22.5,9,22.9,9,23.2c0,0.1-0.1,0.3-0.3,0.3c0.1,0,0.5,0,0.6,0.2c0-0.1,0-0.1,0-0.2s0.1,0,0.3-0.3
		c0.1,0.3,0.5,0.9,0.5,1.2c0.2-0.3,0.1-0.3,0.3-0.4v0.3c0.2-0.1,0.2-0.1,0.2-0.1c0,0,0,0,0-0.1c0,0,0-0.1,0-0.2
		c0.3,0.3,0.6,0.5,0.9,0.8v-0.2c0-0.1,0-0.2,0.1-0.3c0.5,0.4,0.7,0.5,0.7,0.6s-0.3,0.1-0.3,0.6c0,0,0,0.1,0.1,0.1
		c0.2,0,0.5-0.2,0.6-0.3c0,0,0,0,0-0.1c0,0,0,0,0.1-0.1c0-0.1,0-0.1,0-0.2c0-0.2,0.1-0.2,0.1-0.6c0.1,0.1,0.4,0.5,0.6,0.9v0
		c0.2,0.2,0.3,0.3,0.4,0.3c0,0,0.1,0,0.1-0.2s0-0.3-0.1-0.6c0.1,0,0.2,0,0.2,0c0.5,0-0.2-0.6,0.7-0.6c-0.2,0.1-0.4,0.5-0.4,0.9
		c0,0.1,0,0.2,0,0.3c0,0,0.1-0.2,0.3-0.4c0,0.1,0,0.2,0,0.3c0.2,0,0.6-0.4,0.6-0.5h0c-0.1,0-0.2,0-0.3,0.1c0.2-0.2,0.3-0.3,0.6-0.3
		c0,0.5,0,0.8-0.2,1c0.1,0.1,0.2,0.1,0.3,0.1c0.1,0,0.3-0.1,0.4-0.3c0,0.3-0.3,0.4-0.5,0.4c-0.2,0-0.4,0-0.5,0v0.1
		C15,25.8,15,25.8,15.1,25.8s0.2,0,0.3,0C15.3,26,15.2,26,15.2,26C15.1,26,15.1,25.9,15.1,25.8z M15.8,25.8c0,0-0.2-0.1-0.2-0.1
		C15.8,25.8,15.8,25.8,15.8,25.8z M15.3,28c0-0.1,0-0.2,0.2-0.2C15.5,27.9,15.4,27.9,15.3,28z M15.4,27.5c0-0.2,0.1-0.3,0.1-0.3
		c0,0,0,0,0,0C15.5,27.4,15.5,27.5,15.4,27.5z M16.7,27.2c-0.3,0-0.5-0.3-0.5-0.3c0,0.3-0.1,0.5-0.2,0.5c0,0-0.1-0.1-0.2-0.3
		c0,0.1,0,0.1,0,0.1c-0.2,0-0.5-0.5-0.5-0.8c0-0.1,0.1-0.2,0.3-0.2c0,0.3,0.2,0.2,0.5,0.5v-0.6c0,0-0.2,0.3-0.3,0.3c0,0,0,0,0-0.2
		c0-0.2,0.1-0.3,0.3-0.3c0.3,0,0.7,0.2,0.7,0.5c-0.4,0-0.4,0-0.4,0c0,0,0,0-0.1,0c0.3,0.2,0.3,0.3,0.5,0.3s0.3-0.1,0.7-0.1
		C17.2,27.1,16.9,27.2,16.7,27.2z M17.3,25.3L17.3,25.3c-0.1,0.1-0.2,0.3-0.2,0.4c0,0.1,0,0.2,0.1,0.4h-0.1c-0.1,0-0.2,0-0.3,0
		c0,0-0.1,0-0.1,0c0.1-0.5,0.1-0.6,0.1-1.1c0.1,0.1,0.2,0.2,0.3,0.2c0.1,0,0.2-0.1,0.3-0.2L17.3,25.3z M18.6,27.1
		c0-0.1,0.3-0.2,0.3-0.2L18.6,27.1z M19.3,24.7c0.1-0.2,0.1-0.3,0.1-0.3C19.4,24.5,19.4,24.7,19.3,24.7z M25.2,29.3
		c-0.1-0.1-0.1-0.2,0.1-0.4c0.1,0.1,0.1,0.3,0.1,0.5C25.3,29.3,25.3,29.3,25.2,29.3z M25.5,28.7l-0.4-0.4c0,0,0.2,0,0.4,0.1
		C25.6,28.5,25.6,28.6,25.5,28.7z M26.1,30.3c-0.1-0.1-0.2-0.2,0-0.4C26.1,30,26.1,30.2,26.1,30.3z M25.8,27.9c0.2,0,0.2,0,0.2,0
		C26,28,25.9,28,25.8,27.9z M26.5,29.1c-0.1-0.1-0.1-0.2-0.1-0.3c0.1,0.1,0.1,0,0.1,0.1c0,0,0,0.1,0.3,0.3
		C26.7,29.2,26.6,29.1,26.5,29.1z M27.4,31.3l0-0.2C27.4,31.1,27.4,31.3,27.4,31.3z M27.6,31.5c0.3-0.1,0.4,0,0.6,0.1
		C28,31.6,28,31.8,27.6,31.5z M27.9,31.3c-0.1-0.1-0.2-0.2-0.1-0.3l0.7-0.3c-0.1-0.1-0.2-0.2-0.3-0.4h0.1c0,0,0-0.1-0.1-0.2
		c-0.1,0.1-0.2,0.2-0.3,0.4c-0.2,0.2-0.6,0.5-0.8,0.2c-0.1-0.1-0.2-0.3-0.2-0.6l0.6,0.2c0.1-0.1,0.1-0.3,0-0.3
		c-0.1-0.1-0.2-0.1-0.3-0.1c0.6-0.2,0.5,0,0.9,0.1l-0.8-0.4c0.4-0.4,0.5-0.5,0.6-0.5c-0.3-0.2-0.8-0.4-0.8-0.5
		c0.6-0.2,0.5-0.2,1,0.3c0.1-0.2,0-0.4-0.2-0.6c-0.2-0.2-0.5-0.3-0.7-0.1c-0.1,0.1-0.1,0.1-0.1,0.2c-0.3-0.3-0.3-0.6-0.2-0.7
		c0.1-0.1,0.2-0.1,0.3-0.1c-0.3,0.1-0.5,0-0.6-0.1c-0.1-0.1-0.1-0.1-0.1-0.2c-0.1,0.2,0,0.4,0,0.6c-0.6-0.6-1.3-0.5-1.7-1
		c-0.1-0.1-0.2-0.3-0.3-0.5c0.1-0.1,0.1-0.1,0.2-0.2c0.1,0.2,0.3,0.4,0.4,0.5c0.2,0.2,0.3,0.3,0.4,0.1c0.1-0.1,0.1-0.2,0.2-0.4
		c0.8,0.4,1.4,0.3,2.1,0.6l-0.1-0.1c0,0,1.1,0.9,1.6,0.7c0,0.1,0.5,0.9,0.3,1c-0.1,0.1-0.2,0-0.3,0c0.7,0.4,1.5,0.6,2.2,0.9
		c-0.7-0.2-1.2-0.2-1.7,0.3c0.3-0.1,0.6,0,0.8,0.1c-0.5,0.5-0.8,0.5-1,0.4c-0.2-0.2-0.2-0.6-0.4-0.7c-0.1-0.1-0.2-0.1-0.4,0.1
		c0,0.2,0.1,0.3,0.3,0.5c0.3,0.3,0.7,0.5,1.1,0.8c-0.3-0.1-1.1-0.2-1.3-0.4c0,0-0.1-0.1-0.1-0.1c0,0.2,0,0.2,0,0.2
		c0,0,0.1,0,0.3,0.2c-0.1-0.1-0.2,0-0.3,0c-0.1,0.1,0,0.6,0,0.7c0.3-0.2,0.5-0.2,0.6-0.1c0.1,0.1,0.1,0.3,0.2,0.6
		C29.4,32,28.3,31.6,27.9,31.3z M29.8,33c0,0-0.1-0.1,0-0.2l0,0C29.8,32.9,29.8,33,29.8,33z M29.8,31.3c-0.1-0.1-0.3-0.2-0.4-0.3
		c0.2-0.2,0.4-0.1,0.5,0c0.2,0.2,0.3,0.6,0.4,0.6c0.1-0.1,0.9-0.9,1.1-0.7c0.1,0.1,0.1,0.1,0.1,0.3C30.7,31.3,30.8,32.4,29.8,31.3z
		 M30.7,33c-0.2-0.2-0.2-0.3-0.2-0.5l0.1,0.1C30.8,32.7,30.8,32.9,30.7,33z M31.2,33.5l0-0.2C31.2,33.3,31.3,33.4,31.2,33.5z
		 M31.4,32.6c0,0-0.1-0.1-0.1-0.2c0.2-0.1,0.4,0,0.5,0.1C31.6,32.5,31.5,32.8,31.4,32.6z M32.2,33.6c-0.1-0.1-0.3-0.3-0.3-0.5
		c0.1,0.1,0.3,0.1,0.4,0.2C32.3,33.3,32.3,33.4,32.2,33.6z M32.7,34.2c0-0.1,0-0.2,0-0.2S32.7,34.2,32.7,34.2z M33.7,32
		c0.1,0.1,0,0.2,0,0.4C33.7,32.2,33.6,32.1,33.7,32z M33.4,32.7l0-0.2C33.4,32.5,33.4,32.7,33.4,32.7z M33.5,33.9
		c-0.1-0.1-0.1-0.2,0-0.3c0.1,0.1,0.3,0.3,0.3,0.5C33.7,34,33.6,34,33.5,33.9z M34.4,35.9l0-0.2C34.5,35.7,34.5,35.9,34.4,35.9z
		 M35.1,35.6L35.1,35.6c-0.1-0.1-0.1-0.1,0-0.2C35.1,35.5,35.1,35.6,35.1,35.6z"/>
	<path class="st0" d="M27.9,29c0,0.1-0.1,0.2,0,0.3c0,0,0.1,0.1,0.1,0.1C28.1,29.3,28.1,29.2,27.9,29L27.9,29z"/>
	<path class="st0" d="M28,27.6c0.1-0.1,0.1-0.2,0-0.4c-0.1,0.1-0.1,0.1-0.1,0.2c0,0-0.1,0-0.1,0.1c0,0,0,0.1,0,0.2
		C27.9,27.6,27.9,27.6,28,27.6z"/>
	<path class="st0" d="M28.5,29.2c0.1-0.1,0.4,0,0.5,0.1c-0.2-0.2-0.5-0.3-0.7-0.4c0.1,0.1-0.1,0.3,0.1,0.5c0,0,0.1,0.1,0.2,0
		C28.5,29.3,28.5,29.3,28.5,29.2z"/>
	<path class="st0" d="M28.9,28.5c0,0,0-0.1,0-0.3C28.8,28.3,28.8,28.4,28.9,28.5L28.9,28.5z"/>
	<path class="st0" d="M30.1,29.3c-0.1-0.1-0.2-0.1-0.2-0.1l0,0C29.9,29.3,30,29.4,30.1,29.3z"/>
	<path class="st0" d="M28.7,30c0-0.2,0-0.4,0-0.4C28.6,29.6,28.6,29.7,28.7,30z"/>
</g>
</svg>
