<?xml version="1.0" encoding="utf-8"?>
<!-- Generator: Adobe Illustrator 22.1.0, SVG Export Plug-In . SVG Version: 6.00 Build 0)  -->
<svg version="1.1" id="Layer_1" xmlns="http://www.w3.org/2000/svg" xmlns:xlink="http://www.w3.org/1999/xlink" x="0px" y="0px"
	 viewBox="0 0 32.7 22" style="enable-background:new 0 0 32.7 22;" xml:space="preserve">
<style type="text/css">
	.st0{fill:#FFFFFF;}
</style>
<g>
	<path class="st0" d="M17.1,18.6c0.2-0.2,0.5,0,0.5-0.4C17.3,18.2,17.2,18.3,17.1,18.6z"/>
	<path class="st0" d="M11.8,16.8h0.7c-0.1,0-0.2-0.1-0.3-0.1C12,16.7,11.9,16.7,11.8,16.8z"/>
	<path class="st0" d="M11.2,15.7c-0.1,0-0.2,0-0.3,0H11c0.1,0,0.2,0,0.2,0.1c0,0-0.1,0.1-0.2,0.2c0,0,0,0.1,0,0.1v0
		c0.1,0,0.3-0.3,0.3-0.4C11.3,15.8,11.3,15.7,11.2,15.7z"/>
	<path class="st0" d="M11.1,16.6c0.1,0.2,0.2,0.3,0.2,0.3C11.3,16.9,11.2,16.6,11.1,16.6z"/>
	<path class="st0" d="M12.6,18.9c0,0,0.1-0.1,0.2-0.2C12.8,18.7,12.6,18.9,12.6,18.9z"/>
	<path class="st0" d="M14,17.4c0,0,0-0.1-0.1-0.1c-0.2,0-0.3,0.1-0.3,0.3c0,0,0,0.1,0.1,0.2C13.9,17.6,14,17.4,14,17.4z"/>
	<path class="st0" d="M11.8,17c0,0,0,0-0.1,0c0,0-0.1,0-0.2,0c0.1,0.1,0.3,0.3,0.5,0.3C11.8,17,11.8,17,11.8,17z"/>
	<path class="st0" d="M16,18.6L16,18.6c0-0.1,0-0.2-0.1-0.3C15.9,18.5,16,18.6,16,18.6z"/>
	<path class="st0" d="M13.2,17.6h-0.1c-0.3,0,0,0.2-0.4,0.3C13,18,13.2,18,13.5,18C13.5,18,13.2,17.6,13.2,17.6z"/>
	<path class="st0" d="M13.9,18.9L13.9,18.9c0.1,0,0.3,0,0.4,0H15c-0.3-0.1-0.6-0.3-0.9-0.3C14,18.7,13.9,18.9,13.9,18.9z"/>
	<polygon class="st0" points="10.9,6.1 10.9,6.1 10.9,6.1 10.9,6.1 	"/>
	<path class="st0" d="M11.8,1.5C11.9,1.4,12,1.3,12,1.2C11.9,1.3,11.9,1.4,11.8,1.5z"/>
	<path class="st0" d="M14.2,17.5c-0.4,0.3-0.6,0.6-0.6,0.9c0,0.1,0,0.2,0.1,0.3c0.3-0.4,0.5-0.5,0.5-1V17.5z"/>
	<path class="st0" d="M12.4,18.7c-0.1-0.2-0.3-0.3-0.5-0.3C12,18.6,12.2,18.7,12.4,18.7z"/>
	<path class="st0" d="M10.3,16.3l-0.3,0C10,16.3,10.1,16.3,10.3,16.3z"/>
	<path class="st0" d="M11,17.3c-0.1,0-0.2,0-0.2,0.1c0,0,0,0.1,0.2,0.3v0.1c0,0.2,0.1,0.3,0.3,0.4C11.1,18,11,17.9,11,17.7
		c0-0.1,0.1-0.3,0.2-0.4H11z"/>
	<path class="st0" d="M32.6,4.8C32.6,4.8,32.6,4.8,32.6,4.8l-0.1,0c-0.1-0.1-0.1-0.2-0.1-0.3c0-0.1,0.1-0.2,0.3-0.2l0,0V0.6
		c0-0.3-0.3-0.6-0.6-0.6H3.7c0.1,0,0.1,0.1,0.1,0.2c-0.1,0-0.2,0-0.3,0C3.3,0.1,3,0.2,2.7,0.5h0c0.1,0,0.3,0,0.4,0
		c0.1,0,0.3,0,0.3,0.2C3.2,0.7,3,0.8,2.8,1V0.6C2.7,0.8,2.6,0.9,2.4,0.9C2.3,0.5,2.3,0.4,2.3,0.4c0,0-0.2,0.1-0.6,0.2
		c0-0.3,0-0.4,0.1-0.6H1.1C1,0,1,0,0.9,0.1c0,0.1,0,0.1,0.1,0.1c0,0,0.1,0,0.1-0.2c0,0,0.1,0.1,0.1,0.1c0,0.1,0,0.2-0.1,0.3
		C1,0.5,0.9,0.7,0.8,0.8C0.7,0.9,0.5,1,0.5,1C0.4,0.8,0.3,0.6,0.1,0.5C0,0.5,0,0.6,0,0.6v0c0,0.1,0,0.1,0.2,0.2
		c-0.1,0-0.1,0-0.2,0.1v20.5C0,21.8,0.3,22,0.6,22h31.5c0.3,0,0.6-0.3,0.6-0.6L32.6,4.8C32.6,4.8,32.6,4.8,32.6,4.8z M0.3,12
		C0.3,12,0.3,11.9,0.3,12l0.1-0.1c0.1,0,0.1,0.1,0.1,0.2l-0.1,0.1l0,0C0.4,12.1,0.4,12.1,0.3,12L0.3,12z M0.6,14.3
		c0,0.1-0.1,0.1-0.1,0.1v-0.1c0,0,0,0,0,0c-0.1,0-0.2-0.1-0.1-0.2c0,0,0,0,0.1,0l0-0.1c0.1,0,0.2,0.1,0.2,0.2
		C0.6,14.3,0.6,14.3,0.6,14.3z M0.8,16.7L0.8,16.7c-0.1,0-0.1-0.1-0.1-0.1c0,0,0,0,0,0l0.1-0.1C0.8,16.4,0.9,16.4,0.8,16.7L0.8,16.7
		C0.8,16.7,0.8,16.7,0.8,16.7z M28.7,2.2c0.1-0.1,0.3-0.1,0.3,0l0,0c0,0.1,0,0.2-0.1,0.2l-0.1,0.1c-0.1,0-0.1,0-0.2-0.1
		C28.7,2.3,28.7,2.3,28.7,2.2L28.7,2.2z M27.2,2.5L27.2,2.5L27.2,2.5c0.1-0.1,0.2-0.1,0.2,0l0.1,0.1c0,0,0,0.1,0,0.1l-0.1,0.1h-0.1
		l-0.1-0.1V2.5z M26.3,1.1L26.3,1.1c0.2-0.1,0.2,0,0.2,0.1l-0.1,0.1c0,0-0.1,0-0.1,0L26.3,1.1L26.3,1.1z M25.4,1.6L25.4,1.6
		c0.1-0.1,0.2-0.1,0.2-0.1c0,0,0,0,0.1,0l0,0c0,0,0,0,0.1,0c0.1,0,0.2,0,0.2,0c0,0,0,0.1,0,0.1c0,0.1-0.1,0.2-0.2,0.2
		c-0.1,0-0.1,0-0.1,0L25.7,2c-0.1,0-0.1,0-0.1-0.1c0,0,0,0,0-0.1c0,0-0.1,0-0.1,0c0,0-0.1,0-0.1,0l-0.1,0
		C25.2,1.7,25.3,1.6,25.4,1.6z M25.1,1.8L25.1,1.8c0.2,0,0.2,0.1,0.2,0.1c0,0.1-0.1,0.1-0.1,0.1c0,0-0.1,0-0.1-0.1
		C25,1.9,25.1,1.9,25.1,1.8z M24.5,1.6L24.5,1.6l0.1,0.1c0,0.1-0.1,0.1-0.2,0.1l0,0l-0.1-0.1C24.3,1.7,24.4,1.7,24.5,1.6z M23.4,3.8
		L23.4,3.8l0.1-0.1h0.1l0.1,0.1c0,0.1,0,0.2-0.1,0.2c0,0,0,0,0,0L23.5,4C23.4,3.9,23.4,3.8,23.4,3.8z M22.9,5.5L22.9,5.5
		C23,5.4,22.9,5.4,22.9,5.5C22.9,5.4,22.9,5.4,22.9,5.5L23,5.3h0.1l0.1,0c0,0,0.1,0.1,0.1,0.2c0,0,0,0,0,0.1c0,0,0,0,0,0l0.1,0.1
		c0,0.1-0.1,0.1-0.1,0.1c0,0,0,0.1-0.1,0.1c0,0,0,0,0,0l-0.1,0.1c0,0,0,0-0.1,0c-0.1,0-0.1,0-0.1-0.1c0,0,0,0,0,0l-0.1-0.1
		c0-0.1,0-0.1,0-0.2C22.9,5.6,22.9,5.5,22.9,5.5z M22.8,5c0.1-0.1,0.1,0.2,0,0.1C22.8,5.1,22.8,5.1,22.8,5z M22.1,2.2
		C22.1,2.2,22.1,2.2,22.1,2.2l0.1-0.1c0.2,0,0.3,0.1,0.3,0.2c0,0,0,0.1,0.1,0.1l0,0.1c0.1,0,0.1,0,0.1,0c0,0,0,0.1,0,0.1l-0.1,0.1
		h-0.1l-0.1-0.1c0,0-0.1,0.1-0.2,0.1l-0.1-0.1c0,0,0-0.1,0-0.1C22.1,2.5,22.1,2.4,22.1,2.2L22.1,2.2C22.1,2.2,22.1,2.2,22.1,2.2z
		 M20.6,1.4c0.1,0,0.1,0.2,0.2,0.2l-0.1,0.1c-0.2,0-0.2-0.2-0.2-0.3L20.6,1.4z M20.6,2.9l0.1,0c0,0,0,0,0,0c0,0,0.2,0.1,0.1,0.2
		l0,0.1c-0.1,0-0.1,0.1-0.2,0.1c0,0,0,0-0.1,0l-0.1-0.1C20.5,3.1,20.5,3,20.6,2.9z M19.4,2.4L19.4,2.4c0.1,0.1,0.1,0.1,0.2,0.1
		l0.1,0.1c0,0.2-0.1,0.3-0.2,0.4l0,0l-0.1,0c-0.2,0-0.3-0.2-0.2-0.3C19.1,2.5,19.2,2.4,19.4,2.4z M19.1,11L19.1,11
		C19,11.1,19.1,11,19.1,11z M18.7,2.2c0,0,0.1,0,0.1,0c0,0,0,0,0,0c0,0,0,0,0,0l0.1,0.1c0,0.1-0.1,0.1-0.2,0.1c0,0,0,0,0,0l-0.1-0.1
		C18.6,2.3,18.6,2.2,18.7,2.2z M19,6.7C19,6.8,18.9,6.8,19,6.7l-0.2,0.2c-0.1,0-0.1-0.1-0.1-0.2c0,0,0,0,0,0l0.1-0.1h0.1L19,6.7
		C18.9,6.7,18.9,6.7,19,6.7L19,6.7z M18.6,9.1c0,0,0.1,0.1,0.2,0.2C18.7,9.3,18.6,9.2,18.6,9.1C18.6,9.2,18.6,9.1,18.6,9.1z
		 M18.7,10.7l-0.1,0.3C18.6,10.9,18.6,10.7,18.7,10.7z M18.7,9.9l-0.2-0.1C18.6,9.8,18.7,9.8,18.7,9.9z M18.4,10.3L18.4,10.3
		c-0.2,0-0.3-0.1-0.3-0.4C18.2,10,18.3,10.1,18.4,10.3z M18.2,9c-0.1,0-0.1,0-0.2,0C18,9,18.1,8.9,18.2,9C18.2,8.9,18.2,9,18.2,9z
		 M18,6.7L18,6.7C18.1,6.7,18,6.8,18,6.7L18,6.7z M18,8.6l-0.1,0.2C17.9,8.7,18,8.6,18,8.6z M17.6,3.7C17.7,3.7,17.7,3.6,17.6,3.7
		l0.1-0.1c0,0,0,0,0.1,0l0.1,0.1c0,0.1,0,0.2-0.1,0.2c0,0,0,0,0,0l-0.1,0c0,0-0.1,0-0.1,0C17.6,3.8,17.6,3.7,17.6,3.7z M17.9,7.3
		c0,0.2-0.1,0.3-0.3,0.3C17.7,7.5,17.8,7.4,17.9,7.3z M17.8,7.9c0.1,0,0.1,0.1,0.2,0.3c-0.1,0.1-0.2,0.2-0.2,0.2c0,0-0.1,0-0.2-0.2
		C17.6,8,17.7,7.9,17.8,7.9z M17.7,9.9c-0.1,0.1-0.1,0.2-0.3,0.2L17.7,9.9z M17.4,7.6c0,0,0,0.1-0.1,0.2c-0.1-0.1-0.1-0.1-0.1-0.2
		c0-0.1,0-0.2,0.1-0.2C17.3,7.6,17.4,7.6,17.4,7.6z M17.3,8.1c0,0,0,0.1,0,0.1C17.1,8.1,17,8,17,8c0,0,0.1,0,0.1,0h0.3
		C17.3,8,17.3,8.1,17.3,8.1C17.3,8.1,17.3,8.1,17.3,8.1z M17.2,5.9c0,0.1-0.1,0.1-0.1,0.2L17.2,5.9z M17.1,3.9c0,0,0.1,0,0.1,0.2
		C17.1,4.1,17,4,17,4C17,3.9,17.1,3.9,17.1,3.9z M17.1,5.5l-0.2-0.2C16.9,5.3,17.1,5.3,17.1,5.5z M16.9,8.3
		C16.9,8.3,16.9,8.3,16.9,8.3L16.9,8.3C16.8,8.3,16.8,8.3,16.9,8.3z M16.7,4.2c0,0,0.1,0.1,0.1,0.3c0,0.2-0.1,0.3-0.3,0.4
		C16.4,4.7,16.6,4.2,16.7,4.2z M16.5,6.1c0.1,0,0.1,0,0.1,0.1L16.5,6.1C16.5,6.2,16.4,6.2,16.5,6.1C16.4,6.1,16.5,6.1,16.5,6.1z
		 M16.6,6.6c0,0.1-0.1,0.1-0.2,0.1L16.6,6.6z M15.4,2.1C15.4,2.1,15.5,2.1,15.4,2.1c0.1,0,0.1,0,0.1,0C15.5,2.1,15.5,2.1,15.4,2.1
		L15.4,2.1z M15.3,1.7c-0.1,0.1-0.1,0.1-0.1,0.1C15.2,1.8,15.3,1.7,15.3,1.7z M12.6,0.6c0.1,0,0.1,0.1,0.1,0.2
		C12.5,0.8,12.5,0.8,12.6,0.6C12.5,0.7,12.5,0.6,12.6,0.6z M11.8,0.4c-0.1,0.5-0.4,0.8-0.9,1C11,1.1,11.5,0.7,11.8,0.4z M12.2,0.6
		c0,0.2-0.2,0.3-0.4,0.3L12.2,0.6z M10.7,0.7c0,0,0.1,0,0.1,0.2C10.7,0.8,10.7,0.8,10.7,0.7L10.7,0.7z M9.9,1c0.1,0,0.2,0,0.3,0
		c0,0.1-0.3,0.2-0.4,0.2H9.7C9.7,1,9.8,1,9.9,1z M9.7,2C9.9,1.9,10,1.9,10,1.8c0,0-0.2,0-0.2-0.2c0.1,0,0.1,0,0.2,0
		c0.2,0,0.4-0.1,0.6-0.3h0c-0.1,0-0.2,0-0.3,0c-0.1,0-0.2,0-0.2-0.2c0.2-0.1,0.3-0.2,0.5-0.3v0.3c0.1-0.1,0.2-0.2,0.3-0.2
		c0.1,0.3,0.1,0.4,0.1,0.4c0,0,0.1-0.1,0.4-0.2c0,0.3,0,0.4-0.1,0.7c0.3,0,0.5-0.1,0.7-0.2c0-0.1,0-0.1-0.1-0.1c0,0-0.1,0-0.1,0.1
		c0,0-0.1-0.1-0.1-0.1c0-0.1,0-0.1,0.1-0.2c-0.2,0.1-0.3,0.2-0.4,0.2c0-0.3,0.3-0.4,0.4-0.6c0.2,0,0.2,0,0.2,0.1v0
		C12.1,1.1,12.3,1,12.3,1c0.1,0.2,0.2,0.3,0.3,0.4c0.1,0,0.1-0.1,0.1-0.1c0-0.1,0-0.1-0.2-0.2c0.1,0,0.2-0.1,0.3-0.2
		c0.2,0,0.3,0.3,0.3,0.7c0,0.2,0,0.4,0,0.5C13.1,2,13.2,2,13.2,2c0,0,0.1,0,0.1,0.1c0.1,0,0.1-0.2,0.1-0.3c0-0.3-0.1-0.8-0.3-0.8
		c0,0,0,0-0.1,0c0-0.2,0.1-0.2,0.3-0.2c0.2,0,0.4,0.1,0.4,0.3c0,0-0.1,0-0.1,0c-0.1,0-0.2,0.1-0.2,0.2c0.2,0.6,0.6,0.6,0.7,0.6h0
		c0.4,0-0.1-0.5,0.6-0.5c0,0.2-0.1,0.4-0.3,0.5c0.1,0,0.1,0.1,0.2,0.1c0.2,0,0.1-0.2,0.3-0.2c0,0.9,1.2,0.5,1.2,1
		c0,0-0.6,0.5-0.6,0.7c0,0.1,0.1,0.1,0.3,0.1c0-0.3,0-0.4,0.2-0.4c0.1,0,0.2,0.1,0.4,0.2L16,3.7c0,0,0.3,0.1,0.3,0.1
		C16.2,3.9,16.1,4,16,4.2c0.1,0.2,0.1,0.2,0.2,0.2c0,0,0.1,0,0.2-0.1c0,0.2-0.9,0.1-1.4,0.3c0.1,0,0.1,0.1,0.1,0.1
		c0,0.1-0.2,0.1-0.2,0.1c-0.3-0.2-0.6-0.5-0.6-0.7c0-0.1,0.1-0.2,0.2-0.3c-0.1,0-0.4,0-0.5-0.1c0,0.1,0,0.1,0,0.1c0,0-0.1,0-0.3,0.2
		c-0.1-0.3-0.4-0.7-0.4-0.9c-0.1,0.2-0.1,0.2-0.2,0.3V3.2c-0.1,0.1-0.2,0.1-0.2,0.1c0,0,0,0,0,0.1c0,0,0,0.1,0,0.2
		c-0.2-0.2-0.5-0.4-0.7-0.6v0.2c0,0.1,0,0.2-0.1,0.2C12,3,11.8,2.9,11.8,2.8c0-0.1,0.2-0.1,0.2-0.5c0,0,0-0.1-0.1-0.1
		c-0.1,0-0.4,0.2-0.5,0.2c0,0,0,0,0,0.1s0,0-0.1,0.1c0,0.1,0,0.1,0,0.1c0,0.1-0.1,0.1-0.1,0.5c-0.1-0.1-0.3-0.4-0.5-0.7v0
		c-0.1-0.1-0.2-0.2-0.3-0.2c0,0-0.1,0-0.1,0.1s0,0.2,0.1,0.5c-0.1,0-0.1,0-0.2,0c-0.4,0,0.1,0.5-0.6,0.5c0.2-0.1,0.3-0.4,0.3-0.7
		c0-0.1,0-0.1,0-0.2c0,0-0.1,0.1-0.2,0.3c0-0.1,0-0.1,0-0.2C9.8,2.6,9.5,2.9,9.5,3h0.1C9.7,3,9.7,3,9.8,3C9.7,3.1,9.5,3.2,9.3,3.2
		c0-0.4,0-0.6,0.1-0.8C9.4,2.4,9.3,2.3,9.2,2.3C9.1,2.3,9,2.4,8.9,2.5c0-0.3,0.2-0.3,0.4-0.3c0.1,0,0.3,0,0.4,0V2.2
		C9.7,2.1,9.7,2.1,9.7,2C9.6,2,9.5,2,9.4,2c0.1-0.1,0.1-0.1,0.2-0.1C9.6,1.9,9.6,2,9.7,2z M14.8,8.3c0,0,0,0.1-0.1,0.1
		c0,0,0,0-0.1,0l0,0c0,0,0-0.1,0-0.1c0-0.1,0.1-0.1,0.1-0.1c0,0,0,0,0,0l0.1-0.1C14.9,8.1,14.9,8.1,14.8,8.3L14.8,8.3
		C14.8,8.3,14.8,8.3,14.8,8.3z M14.9,8.8L14.9,8.8L14.9,8.8c0.2-0.1,0.2-0.1,0.2,0c0,0,0,0.1,0,0.1L15,8.9h-0.1l-0.1-0.1V8.8z
		 M15,4.8c0.1,0,0.2,0,0.5,0L15.4,5C15.3,5,15.2,4.9,15,4.8z M15.6,6.4l-0.1-0.1C15.6,6.3,15.6,6.4,15.6,6.4z M14.3,9.1l0.1,0.1
		c0,0.1-0.1,0.1-0.2,0.1l-0.1-0.1C14.1,9.1,14.2,9.1,14.3,9.1z M14.3,4.8c0-0.1,0.1-0.2,0.1-0.2C14.3,4.7,14.3,4.8,14.3,4.8z
		 M14.3,9.4L14.3,9.4L14.3,9.4c0.1,0,0.2,0,0.2,0l0.1,0.1c0,0,0,0.1,0,0.1c0,0-0.1,0-0.1,0c-0.1,0-0.1,0-0.1-0.1
		C14.3,9.4,14.3,9.4,14.3,9.4z M12,7.2C12,7.2,12,7.2,12,7.2L12,7.2c0-0.1,0-0.2,0.1-0.2c0-0.1,0-0.1,0.1-0.2l0.1,0h0.1l0.1,0.1V7
		l-0.1,0.1c0,0,0,0-0.1,0c0,0,0,0,0,0c0,0.1,0,0.2-0.2,0.2l0,0L12,7.2C12,7.3,12,7.2,12,7.2C12,7.2,12,7.2,12,7.2z M11.9,6.2
		C11.9,6.3,11.8,6.3,11.9,6.2C11.8,6.3,11.8,6.2,11.9,6.2c-0.1,0-0.1,0-0.1,0l-0.1,0c-0.1-0.1-0.1-0.2-0.1-0.3l0.1-0.1h0.1
		c0-0.1,0-0.1,0.1-0.2c0,0,0,0,0,0l0.1-0.1c0,0,0,0,0,0l0,0c0.1,0,0.1,0.2,0.1,0.2c0,0,0,0.1,0,0.1L12.1,6c-0.1,0-0.1,0-0.2-0.1
		c0,0,0,0,0,0c0,0,0,0.1,0,0.1c0,0,0,0,0,0.1C11.9,6.1,11.9,6.1,11.9,6.2C11.9,6.2,12,6.2,11.9,6.2L11.9,6.2z M11.8,6.7L11.8,6.7
		c-0.1,0-0.2,0-0.2-0.2l0.1-0.1c0.1,0,0.2,0,0.2,0.1C11.9,6.6,11.9,6.6,11.8,6.7z M11.7,5.7L11.7,5.7c-0.1,0-0.1-0.1-0.1-0.1
		c0,0,0,0,0,0l0.1-0.1C11.7,5.4,11.8,5.5,11.7,5.7L11.7,5.7C11.7,5.7,11.7,5.7,11.7,5.7z M12,5.4c0-0.1,0-0.1,0.1-0.2l0,0
		c0.1,0,0.2,0,0.2,0.1c0,0.1,0,0.2,0,0.2l-0.1,0C12.1,5.6,12.1,5.5,12,5.4z M12.4,6.8L12.4,6.8c-0.1,0-0.2-0.1-0.2-0.1c0,0,0,0,0,0
		c0,0,0-0.1,0-0.1l0.1-0.1c0.1,0,0.2,0.1,0.2,0.1l0,0h0.1l0.1,0.1v0.1l-0.1,0.1H12.4z M11,6.1c0,0,0,0.1,0,0.1c0,0-0.1,0-0.1,0V6.1
		c0,0,0,0,0,0c0-0.1,0-0.1,0-0.1c0,0,0,0,0,0l0,0c0,0,0,0,0,0v0l0-0.1c0-0.1,0-0.2,0-0.2c0,0,0,0,0,0l0.1-0.1c0.1,0,0.2,0.1,0.2,0.1
		c0,0,0,0,0,0l0.1,0.1c0,0.1,0,0.1-0.1,0.1l0,0C11.1,6,11.1,6.1,11,6.1z M11,8.1L11,8.1l-0.2,0.1l-0.1-0.1V8l0.1-0.1l0,0
		C10.9,7.9,11,8,11,8C11,8,11,8.1,11,8.1z M11,7L11,7c0.1-0.1,0.2-0.1,0.3-0.1l0,0.1c0,0,0,0.2-0.2,0.2c0,0,0,0-0.1,0L11,7.1V7z
		 M9,3.1c-0.1,0-0.3-0.3-0.3-0.4c0.2,0,0.3,0.1,0.4,0.2C9.1,3,9,3.1,9,3.1z M9.1,5.3C9.1,5.3,9.1,5.3,9.1,5.3L9,5.4H8.8L8.7,5.4
		c0-0.1,0-0.2,0-0.2l0.1,0c0,0,0,0,0,0c0.1,0,0.1,0,0.2,0.1c0,0,0,0,0,0L9.1,5.3z M8.5,2c0.2,0,0.3,0.3,0.3,0.4v0.1
		C8.6,2.4,8.5,2.3,8.5,2.3c0,0,0-0.1,0-0.2C8.6,2.1,8.5,2.1,8.5,2z M9.1,2c0,0,0.2,0.1,0.2,0.1C9.1,2.1,9.1,2,9.1,2z M9.5,0.4
		c0,0.1,0,0.1-0.1,0.1C9.4,0.5,9.4,0.4,9.5,0.4z M9.4,0.7c0,0.2-0.1,0.2-0.1,0.2c0,0,0,0,0,0C9.3,0.9,9.4,0.8,9.4,0.7z M8.4,1
		c0.2,0,0.4,0.2,0.4,0.2c0-0.3,0.1-0.4,0.1-0.4C9,0.8,9,0.9,9.1,1c0-0.1,0-0.1,0-0.1c0.1,0,0.4,0.4,0.4,0.6c0,0.1-0.1,0.2-0.2,0.2
		c0-0.2-0.1-0.2-0.4-0.4v0.5c0,0,0.2-0.2,0.2-0.2c0,0,0,0,0,0.1c0,0.1-0.1,0.2-0.2,0.2c-0.2,0-0.6-0.2-0.6-0.4c0.3,0,0.3,0,0.3,0
		c0,0,0,0,0.1,0C8.6,1.4,8.6,1.4,8.5,1.4c-0.1,0-0.2,0.1-0.6,0.1C8.1,1.1,8.2,1,8.4,1z M8,2.4L8,2.4C8,2.4,8.1,2.2,8.1,2.1
		c0-0.1,0-0.2-0.1-0.3h0.1c0.1,0,0.2,0,0.3,0c0,0,0.1,0,0.1,0C8.4,2.2,8.3,2.3,8.3,2.6C8.3,2.5,8.2,2.5,8.1,2.5C8,2.5,8,2.6,7.9,2.7
		L8,2.4z M6.9,1c0,0.1-0.2,0.1-0.3,0.1L6.9,1z M6.4,2.9C6.3,3.1,6.3,3.1,6.3,3.1C6.3,3.1,6.3,3,6.4,2.9z M4.8,19.2L4.8,19.2
		c-0.1,0.1-0.1,0.1-0.1,0.1c-0.2,0-0.2-0.2-0.3-0.3l0-0.1c0.1-0.1,0.1-0.1,0.2,0c0,0,0.1,0,0.1,0l0.1,0.1
		C4.8,19.1,4.8,19.1,4.8,19.2z M6.1,19c0,0-0.2-0.1-0.3-0.3C6.1,18.8,6.1,18.9,6.1,19C6.1,19,6.1,19,6.1,19z M6.1,18l0.2,0.2
		C6.1,18.2,6.1,18.1,6.1,18z M6.4,17.5h0.1c0.2,0,0.3,0.1,0.3,0.5C6.6,17.9,6.5,17.7,6.4,17.5z M6.7,19.3
		C6.7,19.3,6.7,19.2,6.7,19.3c0.1-0.1,0.1-0.1,0.2-0.1C6.9,19.2,6.7,19.3,6.7,19.3z M7,21.5c0-0.2,0.1-0.3,0.3-0.3
		C7.3,21.2,7.2,21.3,7,21.5z M7.2,20.6c-0.1,0-0.2-0.1-0.2-0.3c0.2-0.1,0.2-0.2,0.3-0.2c0,0,0.1,0,0.3,0.2
		C7.4,20.5,7.3,20.6,7.2,20.6z M6.9,19.7l0.2-0.3C7.1,19.6,7,19.7,6.9,19.7z M7.3,18.1c0.1-0.1,0.2-0.3,0.3-0.3L7.3,18.1z M7.9,21.2
		c0-0.2-0.1-0.2-0.1-0.3c0,0,0-0.1,0.1-0.2C8,20.8,8,20.9,8,20.9C8,21,8,21.2,7.9,21.2z M8.1,20.6H7.8c0-0.1,0.1-0.2,0.1-0.2
		c0,0,0,0,0-0.1c0,0,0-0.1,0-0.2c0.3,0.2,0.4,0.3,0.4,0.4C8.3,20.6,8.2,20.6,8.1,20.6z M8.4,20.1C8.4,20,8.4,20,8.4,20.1L8.5,20
		C8.5,20.1,8.5,20.1,8.4,20.1z M18.6,18.5c-0.2,0-0.4,0-0.5,0v0.1c0,0.1,0,0.1,0.1,0.2c-0.3,0.2-0.4,0.3-0.4,0.3c0,0,0.3,0,0.3,0.2
		c-0.1,0-0.2,0-0.3,0c-0.3,0-0.6,0.1-0.8,0.3h0c0.1,0,0.3,0,0.4,0s0.3,0,0.3,0.2c-0.2,0.1-0.4,0.2-0.6,0.3v-0.3
		C17,19.9,16.9,20,16.7,20c-0.1-0.4-0.1-0.5-0.1-0.5c0,0-0.2,0.1-0.6,0.2c0-0.4,0-0.6,0.2-0.9c-0.3,0-0.6,0.1-0.9,0.3
		c0,0.1,0,0.1,0.1,0.1c0,0,0.1,0,0.1-0.2c0,0,0.1,0.1,0.1,0.1c0,0.1,0,0.2-0.1,0.3c-0.1,0.1-0.3,0.3-0.3,0.3
		c-0.1,0.1-0.3,0.2-0.3,0.2c-0.1-0.2-0.3-0.4-0.4-0.5c-0.1,0-0.1,0.1-0.1,0.2c0,0.1,0,0.1,0.2,0.2c-0.2,0-0.3,0.1-0.4,0.2
		c-0.3,0-0.3-0.4-0.3-0.9c0-0.3,0-0.5,0-0.6c-0.1,0-0.1,0.1-0.2,0.1c0,0-0.1,0-0.1-0.1c-0.1,0-0.1,0.2-0.1,0.4c0,0.4,0.1,1,0.3,1
		c0,0,0,0,0.1,0c0,0.2-0.2,0.3-0.4,0.3c-0.3,0-0.6-0.2-0.6-0.4c0,0,0.1,0,0.1,0c0.1,0,0.2-0.1,0.3-0.3c-0.2-0.7-0.7-0.8-0.9-0.8h0
		c-0.5,0,0.2,0.7-0.8,0.7c0-0.3,0.1-0.6,0.3-0.7c-0.1,0-0.2-0.1-0.2-0.1c-0.2,0-0.2,0.3-0.4,0.3c0-1.2-1.6-0.6-1.6-1.3
		c0,0,0.8-0.6,0.8-0.9c0-0.1-0.1-0.2-0.3-0.2c0,0.3,0,0.5-0.2,0.5c-0.1,0-0.3-0.1-0.5-0.3l0.5-0.4c0,0-0.4-0.1-0.4-0.2
		c0.2-0.1,0.4-0.3,0.5-0.5c-0.1-0.2-0.2-0.3-0.3-0.3c0,0-0.1,0-0.2,0.1c0-0.3,1.2-0.1,1.8-0.3c-0.1,0-0.2-0.1-0.2-0.2
		c0-0.1,0.2-0.1,0.2-0.1c0.4,0.3,0.8,0.6,0.8,0.9c0,0.1-0.1,0.3-0.3,0.3c0.1,0,0.6,0,0.6,0.2c0-0.1,0-0.1,0-0.2c0,0,0.1,0,0.3-0.3
		c0.1,0.3,0.5,0.9,0.5,1.2c0.2-0.3,0.1-0.3,0.3-0.4v0.3c0.2-0.1,0.2-0.1,0.2-0.1c0,0,0,0,0-0.1c0,0,0-0.1,0-0.2
		c0.3,0.3,0.6,0.5,0.9,0.8v-0.2c0-0.1,0-0.2,0.1-0.3c0.6,0.4,0.7,0.6,0.7,0.6c0,0.1-0.3,0.1-0.3,0.6c0,0,0,0.1,0.1,0.1
		c0.2,0,0.6-0.2,0.6-0.3c0,0,0,0,0-0.1c0,0,0,0,0.1-0.1c0-0.1,0-0.1,0-0.2c0-0.2,0.1-0.2,0.1-0.6c0.1,0.1,0.4,0.6,0.6,0.9v0
		c0.2,0.2,0.3,0.3,0.4,0.3c0,0,0.1,0,0.1-0.2c0-0.1,0-0.3-0.1-0.6c0.1,0,0.2,0,0.2,0c0.6,0-0.2-0.6,0.7-0.6
		c-0.2,0.1-0.4,0.5-0.4,0.9c0,0.1,0,0.2,0,0.3c0,0,0.1-0.2,0.3-0.4c0,0.1,0,0.2,0,0.3c0.2,0,0.6-0.4,0.6-0.6h-0.1
		c-0.1,0-0.2,0-0.3,0.1c0.2-0.2,0.3-0.3,0.6-0.3c0,0.6,0,0.8-0.2,1c0.1,0.1,0.2,0.1,0.3,0.1s0.3-0.1,0.4-0.3
		C19.1,18.4,18.8,18.5,18.6,18.5z M16.3,16.1l0.1-0.1c0.1,0,0.2,0.1,0.2,0.2c0,0.1,0,0.1,0,0.1l-0.1,0
		C16.4,16.3,16.3,16.2,16.3,16.1z M17.6,15.9c0-0.1,0.1-0.2,0.2-0.1l0.1,0.1c0,0,0,0.1-0.2,0.1C17.7,16,17.7,16,17.6,15.9L17.6,15.9
		z M18.7,14.6l0.1-0.1C18.8,14.5,18.7,14.6,18.7,14.6z M19,15.2c-0.1,0-0.3,0-0.3-0.2L19,15.2z M18.5,14.4c0-0.1,0.1-0.2,0.1-0.2
		L18.5,14.4z M18.8,16.9c0,0-0.1,0.1-0.2,0.1c0,0-0.1,0-0.1-0.2C18.7,16.8,18.8,16.9,18.8,16.9z M19.2,16.6c0,0-0.1-0.1-0.1-0.3
		c0-0.3,0.2-0.4,0.4-0.5C19.5,16,19.3,16.6,19.2,16.6z M19.4,14.2c-0.1,0-0.1,0-0.2-0.1L19.4,14.2C19.5,14.1,19.5,14.1,19.4,14.2
		C19.5,14.1,19.5,14.2,19.4,14.2z M19.3,13.6c0-0.1,0.1-0.2,0.2-0.2L19.3,13.6z M20.2,17l0.3,0C20.3,17,20.2,17,20.2,17z M21.2,15.1
		c-0.1,0.1-0.2,0.1-0.3,0.1c0,0-0.1,0-0.1,0l-0.1-0.1c0,0,0,0,0-0.1c0-0.1-0.1-0.3,0-0.4l0.1,0c0.2,0,0.3,0.1,0.3,0.1c0,0,0,0,0,0
		l0.1,0C21.2,14.9,21.2,15,21.2,15.1z M21.3,15.8c-0.1,0-0.3,0-0.7,0l0.2-0.3C20.9,15.6,21.1,15.7,21.3,15.8z M20.6,13.8l0.2,0.1
		C20.6,13.9,20.6,13.8,20.6,13.8z M20.7,13.8C20.7,13.8,20.6,13.8,20.7,13.8c-0.1,0-0.1,0-0.1,0l-0.1-0.1v-0.1l0.1-0.1
		c0.1,0,0.2,0,0.2,0.1l0.1,0.1C20.8,13.7,20.8,13.8,20.7,13.8z M20.7,18.7L20.7,18.7c0,0,0,0.1-0.2,0.1
		C20.6,18.7,20.7,18.7,20.7,18.7z M20.8,19.3C20.8,19.3,20.8,19.4,20.8,19.3c-0.1,0-0.2,0-0.2,0C20.7,19.3,20.8,19.3,20.8,19.3
		L20.8,19.3z M21,19.9c0.1-0.1,0.1-0.2,0.1-0.2C21.1,19.7,21,19.9,21,19.9z M21.4,18.9c-0.2-0.1-0.3-0.2-0.3-0.4v-0.1
		c-0.1-0.1-0.2-0.2-0.2-0.3c0-0.1,0.1-0.1,0.2-0.1h0.3c-0.1,0.1-0.2,0.3-0.2,0.4C21.2,18.6,21.3,18.7,21.4,18.9z M21.2,17.3
		c0.1,0,0.2,0.3,0.2,0.3C21.4,17.6,21.4,17.5,21.2,17.3z M21.1,16.9L21.1,16.9c0,0,0-0.1,0-0.1c0.1-0.1,0.2-0.2,0.2-0.2
		c0,0-0.1-0.1-0.2-0.1H21c0.1,0,0.3,0,0.3,0c0.1,0,0.1,0,0.1,0.1C21.5,16.6,21.2,16.9,21.1,16.9z M21.7,17.9c-0.1,0-0.1-0.1-0.1-0.1
		l0-0.1c0,0,0,0,0-0.1c0,0,0,0,0,0c0,0,0,0,0,0c0,0,0.1,0,0.1,0l0,0.1c0,0,0,0,0,0v-0.1c0,0,0,0,0,0l0.1,0.1c0,0,0.1,0,0.1,0
		c0,0,0,0,0.2,0.3C22,18,21.9,17.9,21.7,17.9L21.7,17.9C21.8,17.9,21.8,17.9,21.7,17.9z M21.8,14L21.8,14c0-0.1,0-0.1,0-0.1
		c0.1-0.1,0.2-0.1,0.2,0c0,0,0,0.1,0,0.1L22,14L21.8,14L21.8,14C21.8,13.9,21.8,13.9,21.8,14z M22,19.1c0.2,0,0.4,0.1,0.5,0.3
		C22.3,19.4,22.1,19.3,22,19.1z M22.5,18.1h-0.1L22.3,18c0-0.1,0-0.1,0-0.2l0.1,0h0c0.1,0,0.1,0,0.1,0C22.6,17.9,22.6,18,22.5,18.1
		L22.5,18.1z M21.9,17.5c0.2-0.1,0.3-0.1,0.3-0.1c0.2,0,0.3,0,0.3,0.1H21.9z M22.2,16.2c0.1-0.2,0.1-0.3,0.2-0.3
		C22.4,16,22.3,16.2,22.2,16.2z M22.8,19.6c0,0,0.1-0.2,0.2-0.2C22.9,19.5,22.8,19.6,22.8,19.6z M23.1,14.5
		C23.1,14.5,23.1,14.5,23.1,14.5L23.1,14.5c-0.1,0-0.2,0-0.2-0.2l0.1-0.1c0,0,0,0,0.1,0l0.1,0.1C23.2,14.4,23.2,14.5,23.1,14.5z
		 M23.3,18.3h0.1c0,0,0.3,0.5,0.3,0.5c-0.3,0-0.6,0-0.8-0.1C23.3,18.4,22.9,18.3,23.3,18.3z M23.7,19c0-0.2,0.2-0.6,0.6-0.9v0.1
		c0,0.5-0.2,0.6-0.5,1C23.7,19.3,23.7,19.2,23.7,19z M23.8,18.2c0-0.1,0.1-0.2,0.3-0.3c0,0,0.1,0.1,0.1,0.1c0,0.1-0.1,0.2-0.3,0.3
		C23.9,18.3,23.8,18.2,23.8,18.2z M24.3,16.5L24.3,16.5c0.1,0,0.1,0,0.2,0c0.1,0,0.3,0.1,0.3,0.3l-0.1,0.1c0,0,0,0-0.1,0
		c0,0-0.1,0.1-0.2,0.1c0,0,0,0,0,0l-0.1-0.1l0,0C24.3,16.7,24.2,16.6,24.3,16.5z M24.1,19.6c0,0,0-0.2,0.2-0.4
		c0.3,0.1,0.6,0.2,0.9,0.3h-0.7C24.3,19.6,24.2,19.6,24.1,19.6L24.1,19.6z M24.8,18.9c0.2-0.1,0.3-0.1,0.3-0.1L24.8,18.9z
		 M25.2,20.1L25,20.3C25,20.3,25.1,20.2,25.2,20.1z M24.5,21.3c-0.1,0-0.1-0.1-0.1-0.3c0.2,0,0.3,0.1,0.3,0.2
		C24.7,21.2,24.6,21.3,24.5,21.3z M25.5,20.9L25,21.3C25.1,21,25.3,20.9,25.5,20.9z M25.2,20.6L25.2,20.6c0.1-0.1,0.2-0.3,0.3-0.4
		c0.2-0.1,0.4-0.3,0.5-0.3c0,0.3-0.3,0.5-0.5,0.8C25.3,20.7,25.2,20.7,25.2,20.6z M25.5,21.6c0.2-0.6,0.6-1.1,1.2-1.2
		C26.6,20.7,25.9,21.2,25.5,21.6z M26,19c0.1,0.1,0.1,0.3,0.1,0.3v0C26.1,19.3,26,19.2,26,19z M27,21.1c0,0-0.1,0-0.1-0.2
		C27,21,27,21.1,27,21.1L27,21.1z M27.4,19.6l0.1,0.2C27.5,19.8,27.5,19.8,27.4,19.6z M27.2,19.3c0.1-0.3,0.3-0.4,0.5-0.4
		C27.8,19.3,27.4,19.1,27.2,19.3z M28.1,20.8c-0.1,0-0.3,0-0.4,0c0-0.2,0.4-0.2,0.6-0.2h0.1C28.3,20.8,28.2,20.8,28.1,20.8z
		 M28.3,19.4c0.1,0,0.2,0,0.3,0c-0.1,0.1-0.2,0.1-0.2,0.1C28.4,19.6,28.4,19.5,28.3,19.4z M28.6,21.6c0-0.1,0-0.2,0.2-0.2
		C28.7,21.5,28.6,21.5,28.6,21.6z M28.7,21.1c0-0.2,0.1-0.3,0.1-0.3c0,0,0,0,0,0C28.8,21,28.7,21.1,28.7,21.1z M30,20.8
		c-0.3,0-0.5-0.3-0.6-0.3c0,0.3-0.1,0.5-0.2,0.5c0,0-0.1-0.1-0.2-0.3c0,0.1,0,0.1,0,0.1c-0.2,0-0.6-0.5-0.6-0.8
		c0-0.1,0.1-0.2,0.3-0.2c0,0.3,0.2,0.2,0.5,0.5v-0.6c0,0-0.2,0.3-0.3,0.3c0,0,0,0,0-0.2c0-0.2,0.1-0.3,0.3-0.3
		c0.3,0,0.7,0.2,0.7,0.5c-0.4,0-0.4,0-0.4,0c0,0,0,0-0.1,0c0.3,0.2,0.3,0.3,0.5,0.3c0.1,0,0.3-0.1,0.7-0.1
		C30.4,20.7,30.2,20.8,30,20.8z M28.8,19.3c0.2,0.1,0.2,0.1,0.2,0.1S28.8,19.3,28.8,19.3z M31.8,20.5c-0.1,0.1-0.3,0.2-0.4,0.2
		c-0.1,0-0.3,0-0.4-0.1L30,19.7c0,0,0,0,0,0c0,0-0.1,0-0.1,0c0,0,0-0.1,0-0.1l-0.1-0.1c-0.1,0-0.2-0.1-0.2-0.2l-8.8-8L16.4,15
		l-2.1-1.8l0,0c0,0,0,0,0,0c0,0-0.1,0-0.1,0c0,0,0,0,0,0L14,13.2c0,0,0-0.1,0-0.1c0,0,0,0,0,0l-2-1.7c-3.7,3.5-9,8.6-9.5,9.2
		c-0.1,0.2-0.3,0.3-0.5,0.3c-0.3,0-0.6-0.3-0.6-0.6c0-0.3,0-0.4,9.7-9.7L1.6,2.4C1.3,2.2,1.3,1.8,1.5,1.6c0.2-0.2,0.6-0.3,0.8-0.1
		L8,6.4c0.1,0,0.1-0.1,0.2-0.1c0.1,0,0.1,0,0.1,0.1l0,0.1c0,0.1,0,0.1-0.1,0.1l0.6,0.5c0,0,0.1-0.1,0.1,0l0.1,0.1c0,0.1,0,0.1,0,0.1
		l0.3,0.3h0.1l0.1,0.1v0l6.9,5.9l1.1-0.9l0,0v-0.2l0.1-0.1c0.1,0,0.1,0,0.2,0.1L30.8,1.3c0.2-0.2,0.6-0.2,0.8,0.1
		c0.2,0.2,0.2,0.6-0.1,0.8L29.3,4c0.1,0,0.1,0.1,0.1,0.1l0,0c0,0.1,0,0.1-0.1,0.2c0,0-0.1,0.1-0.2,0.1c-0.1,0-0.2,0-0.2-0.1
		c0,0,0,0,0,0l-7.4,6.3l9,8.1c0,0,0,0,0,0l0,0.1l1.1,1C31.9,19.9,32,20.2,31.8,20.5z M2,8.3c0,0,0,0.1,0,0.1L2,8.6H1.8L1.8,8.5
		c0-0.1,0-0.1,0-0.1C1.9,8.3,2,8.3,2,8.3z M1.9,6.5C1.9,6.5,1.9,6.5,1.9,6.5L2,6.4c0.1,0,0.1,0.1,0.1,0.2L2.1,6.6l0,0
		C2,6.7,2,6.6,1.9,6.5L1.9,6.5z M1.9,18.6L1.9,18.6c0,0.1,0,0.2,0,0.2c0,0-0.1,0.1-0.1,0.1c0,0-0.1,0-0.1-0.1c0,0,0-0.1,0-0.1
		l0.1-0.1c0,0,0,0,0,0C1.7,18.6,1.7,18.6,1.9,18.6C1.8,18.6,1.8,18.6,1.9,18.6z M3.6,13.8L3.6,13.8c-0.1,0-0.2,0-0.2-0.1l-0.1-0.1
		c0,0,0-0.1,0-0.1c0,0,0,0,0-0.1l0.1,0c0.1,0,0.2,0.1,0.2,0.2C3.7,13.7,3.7,13.7,3.6,13.8z M3.7,15.3L3.7,15.3l-0.2,0.1l-0.1-0.1
		v-0.1l0.1-0.1l0,0c0.1,0,0.1,0,0.1,0.1C3.7,15.2,3.7,15.3,3.7,15.3z M3.5,14.3C3.5,14.3,3.5,14.3,3.5,14.3l0,0.1
		c0,0.1-0.1,0.1-0.1,0.1c-0.1,0-0.1,0-0.1-0.1c0-0.1,0-0.1,0-0.2l0.1,0C3.5,14.1,3.5,14.2,3.5,14.3z M3.2,13.9
		C3.2,13.9,3.2,13.9,3.2,13.9l-0.1-0.1c0-0.2,0.2-0.2,0.2-0.1c0,0,0,0.1,0,0.1L3.2,13.9z M3.1,17.1C3,17.1,3,17,3.1,17.1
		c-0.1,0.1-0.1,0.1-0.2,0.1c0,0,0,0-0.1,0c0,0,0.1,0,0.1,0c0,0,0,0,0,0l-0.1,0.1c-0.1,0-0.1-0.1-0.1-0.1c0,0,0,0,0,0
		c0,0,0-0.1,0-0.1l0.1-0.1c0,0,0,0,0.1,0c0,0,0,0,0,0l0.1-0.1c0.1,0,0.2,0,0.2,0.1C3.2,16.9,3.2,16.9,3.1,17.1L3.1,17.1L3.1,17.1
		L3.1,17.1z M3.1,8.4c0,0-0.1,0.1-0.2,0.1c-0.1,0-0.1,0-0.2-0.1l0,0c0-0.1,0-0.2,0-0.2C2.8,8.1,3,8.1,3.1,8.2l0,0
		C3.1,8.4,3.1,8.4,3.1,8.4z M4.4,13.9L4.4,13.9c0-0.1,0.1-0.1,0.2-0.1c0,0,0.1,0,0.1,0l0.1,0c0,0,0.1,0,0.1,0.1c0,0,0,0,0,0l0,0
		c0.1,0,0.1,0.1,0.1,0.1c0,0,0,0,0,0L5.1,14c0,0.1-0.1,0.1-0.1,0.1l-0.1,0.1c0,0,0,0,0,0c0,0,0,0,0,0l0,0l0,0.1c0,0-0.1,0-0.1,0
		l0,0.1c0,0.1-0.1,0.1-0.1,0.1c0,0,0,0,0,0c0,0,0,0,0,0c0,0-0.1,0.1-0.2,0.1l-0.1-0.1c0,0-0.1,0-0.1,0c0,0,0,0,0,0
		c-0.1,0-0.2,0.1-0.3,0l0-0.1c0,0,0,0,0-0.1c0,0,0.1-0.1,0.1-0.1c0,0,0-0.1,0-0.1l0.1-0.1C4.3,13.9,4.3,13.9,4.4,13.9
		C4.3,13.9,4.4,13.9,4.4,13.9z M4.4,12.2L4.4,12.2c0.2,0,0.2,0.1,0.2,0.1c0,0.1-0.1,0.1-0.1,0.1c0,0-0.1,0-0.1-0.1
		C4.3,12.3,4.4,12.2,4.4,12.2z M5,12.7L5,12.7c0.1-0.1,0.2-0.1,0.2,0c0,0,0,0,0,0l0,0.1c0,0,0,0,0,0.1L5.2,13c0,0,0,0,0,0
		c-0.1,0-0.1,0-0.1-0.1C5,12.9,5,12.8,5,12.7z M5,15.7c0,0.1-0.1,0.1-0.2,0.1h0l-0.1-0.1c0-0.1,0-0.1,0-0.1c0,0,0.1-0.1,0.1-0.1
		L5,15.7z M4.1,13.8c0,0,0,0.1,0,0.1L4.1,14c0,0,0,0,0,0c0,0-0.1,0-0.1,0l0,0l-0.1,0c-0.1-0.1,0-0.2,0-0.2c0,0,0,0,0,0L4,13.7
		c0,0,0,0,0,0c0,0,0,0,0,0c0-0.1,0.1-0.1,0.1-0.1c0,0,0,0,0.1,0c0,0,0,0,0.1,0l0.1,0.1C4.3,13.7,4.3,13.8,4.1,13.8z M4.3,8.2
		C4.3,8.2,4.3,8.2,4.3,8.2L4.2,8.3h0c-0.1,0-0.1,0-0.2-0.1c0-0.1,0-0.2,0-0.2l0,0c0.1,0,0.1,0,0.1,0C4.3,8.1,4.3,8.1,4.3,8.2z
		 M4.2,6.3c0,0-0.1,0.1-0.1,0.1c-0.1,0-0.1,0-0.2-0.1c0-0.1,0-0.2,0-0.2l0.1,0l0,0C4,6,4.1,6,4.1,6.1C4.2,6.1,4.2,6.2,4.2,6.3
		L4.2,6.3z M5.8,11.6L5.8,11.6c0.1,0,0.2,0.1,0.2,0.2l-0.1,0.1c0,0,0,0,0,0l0,0c0,0-0.1,0-0.1-0.1L5.8,11.6
		C5.8,11.6,5.8,11.6,5.8,11.6z M6.4,11.5L6.4,11.5c-0.1,0-0.1,0-0.2,0c0,0,0-0.1,0-0.1l0.1-0.1l0,0c0.1,0,0.1,0,0.1,0.1
		C6.5,11.3,6.5,11.4,6.4,11.5L6.4,11.5z M6.7,13.3c0,0.1,0,0.3-0.2,0.3l0,0c0,0-0.1,0-0.1,0l0-0.1c0,0,0-0.1,0-0.1
		c0-0.1,0-0.2,0.1-0.2l0,0h0C6.6,13.1,6.7,13.2,6.7,13.3z M7.1,11.7L7.1,11.7l-0.1,0.1l-0.1-0.1v-0.1L7,11.5c0,0,0,0,0.1,0L7.1,11.7
		C7.1,11.7,7.1,11.7,7.1,11.7z M7.1,14.3C7.1,14.3,7.1,14.3,7.1,14.3C6.9,14.4,7,14.2,7.1,14.3z M7.7,9.3L7.7,9.3
		C7.9,9.3,8,9.3,8,9.4c0,0.1,0,0.2,0,0.2l-0.1,0C7.8,9.6,7.7,9.5,7.7,9.3z M31.3,11.2L31.3,11.2c-0.1,0-0.1-0.1-0.1-0.1c0,0,0,0,0,0
		l0.1-0.1C31.3,11,31.3,11,31.3,11.2L31.3,11.2C31.3,11.2,31.3,11.2,31.3,11.2z M31.1,7.2c-0.1,0-0.2,0-0.2-0.2l0,0
		c0.1-0.1,0.2-0.1,0.3-0.1L31.3,7c0,0,0,0.1,0,0.1L31.1,7.2C31.1,7.2,31.1,7.2,31.1,7.2z M30.7,8.8c0-0.1,0.1-0.1,0.2-0.1
		c0,0,0,0,0,0l0.1,0.1c0,0.1,0,0.1,0,0.1l-0.1,0.1C30.7,8.9,30.7,8.9,30.7,8.8C30.7,8.9,30.7,8.9,30.7,8.8L30.7,8.8z M30.2,4.7
		c0,0.1,0,0.1,0,0.1c0,0-0.1,0.1-0.1,0.1l-0.1-0.1c0,0,0-0.1,0-0.1L30,4.7L30.2,4.7L30.2,4.7z M29.7,8.3c0,0.1-0.1,0.1-0.1,0.1
		c0,0-0.1,0-0.1-0.1c0,0,0-0.1,0-0.1l0.1-0.1c0,0,0,0,0,0c0.1,0,0.1,0,0.1,0C29.6,8.3,29.6,8.3,29.7,8.3L29.7,8.3z M28.5,11.3v0.1
		l-0.1,0.1c0,0,0,0,0,0c-0.1,0-0.1,0-0.1-0.1c0,0,0-0.1,0-0.2l0.1-0.1L28.5,11.3L28.5,11.3z M27.5,12.2
		C27.5,12.2,27.5,12.2,27.5,12.2l-0.1,0.1c-0.1,0-0.1,0-0.1-0.1c0-0.1,0-0.1,0-0.1l0.1,0h0.1L27.5,12.2z M27.2,7.7
		C27.2,7.7,27.2,7.7,27.2,7.7L27.2,7.7c0,0.1,0,0.2-0.1,0.2c0,0-0.1,0-0.1,0c0,0,0,0,0,0l0-0.1c0,0,0.1-0.2,0.2-0.1L27.2,7.7
		C27.2,7.7,27.2,7.7,27.2,7.7C27.2,7.7,27.2,7.7,27.2,7.7z M26.3,11.4c-0.1-0.1,0-0.3,0.1-0.4l0.1,0h0c0.1,0,0.2,0.1,0.3,0.2
		c0.1,0.1,0,0.3-0.1,0.4l-0.1,0C26.5,11.6,26.4,11.5,26.3,11.4z M26.5,13.8c0,0,0,0.1,0,0.1l-0.1,0c0,0,0,0,0,0c0,0-0.1,0-0.1,0
		c0,0,0,0,0,0l-0.1-0.1c0,0,0-0.1,0-0.1c0,0,0.1-0.1,0.1-0.1C26.4,13.7,26.4,13.7,26.5,13.8z M26.4,9L26.4,9c0.1-0.1,0.2-0.1,0.3,0
		c0,0.1,0.1,0.1,0,0.2l-0.1,0.1c0,0,0,0,0,0C26.5,9.2,26.4,9.2,26.4,9z M25.7,9l-0.1,0c0,0,0,0-0.1,0c-0.1,0-0.2-0.1-0.1-0.3
		l0.1-0.1c0.1,0,0.2,0,0.3,0.1C25.7,8.8,25.7,8.9,25.7,9z M32.2,2.7L32.2,2.7L32.2,2.7c-0.1-0.1-0.1-0.2-0.1-0.2
		c0,0,0.1-0.1,0.1-0.1l0.1,0.1C32.3,2.7,32.2,2.7,32.2,2.7z"/>
	<path class="st0" d="M10.4,18.1c0.2,0,0.3-0.1,0.3-0.1h0C10.5,18,10.4,18,10.4,18.1z"/>
</g>
</svg>
