<?xml version="1.0" encoding="utf-8"?>
<!-- Generator: Adobe Illustrator 22.1.0, SVG Export Plug-In . SVG Version: 6.00 Build 0)  -->
<svg version="1.1" id="Layer_1" xmlns="http://www.w3.org/2000/svg" xmlns:xlink="http://www.w3.org/1999/xlink" x="0px" y="0px"
	 viewBox="0 0 38.7 38.6" style="enable-background:new 0 0 38.7 38.6;" xml:space="preserve">
<style type="text/css">
	.st0{fill:#FFFFFF;}
</style>
<g>
	<path class="st0" d="M6.5,16.4l0,0.8c0.2-0.2,0.3-0.4,0.3-0.7C6.7,16.4,6.6,16.4,6.5,16.4z"/>
	<polygon class="st0" points="4.2,19.1 4.2,20.7 4.2,20.7 4.2,19 	"/>
	<polygon class="st0" points="30.3,21.1 30.1,21.2 30.3,21.4 	"/>
	<path class="st0" d="M5.2,36.3C5.2,36.3,5.2,36.2,5.2,36.3L5.2,36.3L5.2,36.3z"/>
	<path class="st0" d="M30.8,0H8C3.6,0,0,3.6,0,8v22.6c0,2.4,1,4.5,2.7,5.9l2.5-0.3L5,36.1l0.3-0.9l0.7,0.1c-0.2,0.3-0.4,0.7-0.8,0.9
		l2.4-0.3L3,36.8c1.4,1.1,3.1,1.8,5,1.8h22.8c4.4,0,8-3.6,8-8V8C38.7,3.6,35.2,0,30.8,0z M5.2,37.4l0-0.1l0.5-0.3
		C5.6,37.2,5.4,37.3,5.2,37.4z M36.3,25.7c0,0.1-0.1,0.3-0.2,0.4C36.2,25.9,36.2,25.7,36.3,25.7z M35.7,24.1L35.7,24.1l0.4-0.5
		C36,23.8,35.9,24,35.7,24.1z M35,15.5L34.3,16C34.5,15.8,34.7,15.5,35,15.5z M35.7,20.6c-0.2,0.2-0.5,0.3-0.7,0.5V21L35.7,20.6z
		 M35.5,22c0.1,0.5,0.2,1,0.2,1.5c0,0.5-0.2,1.2-0.8,1.2c-0.3,0-0.7-0.1-1-0.3C34.7,23.8,35.2,23,35.5,22z M34.4,26.8
		c0.1-0.3,0.3-0.7,0.6-0.8L34.4,26.8z M34.5,30.2l-0.2,0.2C34.3,30.3,34.5,30.3,34.5,30.2z M32.6,25.7c-0.5,0-0.9-0.3-0.9-0.8
		l0.7,0.4l0.1-0.2v-0.4c0.3,0.2,0.6,0.5,0.6,0.9C32.9,25.7,32.7,25.7,32.6,25.7z M32.8,28.3c-0.1,0-0.2-0.2-0.3-0.4
		C32.7,28,32.7,28.2,32.8,28.3z M30.8,25.4c0.1,0,0.3,0,0.5,0.1l-0.5,0.7c-0.3-0.2-0.5-0.5-0.7-0.8H30.8z M30.5,23.6
		c0-0.1,0.1-0.1,0.2-0.1C30.7,23.5,30.6,23.6,30.5,23.6z M31.1,21.9c0.4,0.2,1,0.2,1.4,0.5L32,22.9l0.2,0.7L32.1,24
		C31.6,23.5,31.3,22.7,31.1,21.9z M31,18.8l0.3-0.6C31.2,18.4,31.1,18.7,31,18.8z M31.3,5.1c0.2,0,0.4,0,0.6-0.1l-0.1,0.1L31.3,5.1z
		 M31.5,20.2l0.4,0.4l-0.2,0.5L31.5,20.2z M32.3,26.6L31.6,26C31.9,26,32.3,26.2,32.3,26.6z M33,22l-0.6-0.3
		c0.6-0.2,1.1-0.6,1.5-1.1C33.8,21.1,33.6,22,33,22z M32.5,19.4c0.1-0.2,0.3-0.4,0.5-0.6L32.5,19.4z M33.7,1.3L34,1.6
		C34,2,33.9,2.4,33.8,2.7c-0.5-0.1-0.2-0.7-0.7-0.9L33.7,1.3z M32.7,17.2v0.2l0.2,0.2h0.2c-0.2,0.2-0.5,0.4-0.8,0.5
		c-0.3-0.2-0.8-0.5-0.8-1c0.3,0,0.6,0.3,0.9,0.3L32.7,17.2z M30.5,2.1l0.1-0.2l-0.1,0.4V2.1z M30.7,3.7c0.5,0,0.9,0.4,1.2,0.7
		c-0.4,0.1-0.8,0.2-1.2,0.2c-0.5,0-0.9-0.2-1.1-0.7C29.9,3.9,30.4,3.7,30.7,3.7z M30.8,15.9l-0.3,0.3C30.6,16,30.7,15.9,30.8,15.9z
		 M30.1,21.2l-0.3-0.7l0.5-0.3l0.4,0.7l-0.2,0.4c0.3,0.3,0.3,0.7,0.3,1.1v0.7c-0.4-0.1-0.9-0.4-1.2-0.7C29.6,22,29.7,21.5,30.1,21.2
		z M29.9,23.8l0.4,0.3l-0.8,0.8l-0.1-0.1C29.5,24.5,29.7,24.1,29.9,23.8z M28.7,9.6c-0.5,0-0.7-0.4-0.8-0.8
		C28.3,9,28.6,9.3,28.7,9.6z M19.4,5.6h-0.7C18.9,5.5,19.1,5.5,19.4,5.6z M17.2,0.9c0.4,0.1,0.6,0.5,0.6,0.9c0,0.3-0.1,0.7-0.2,1
		c-0.2-0.2-0.6-0.6-0.6-1C17,1.5,17.1,1.1,17.2,0.9z M15.9,1.6c-0.1,0-0.1,0-0.2,0L15.9,1.6z M14.3,4.1l0.5,0.3l-0.8-0.1L14.3,4.1z
		 M11.2,5.4l0.1-0.1l-0.1,0.3L11.2,5.4z M11.4,6.7c0.4,0,0.7,0.3,1,0.6c-0.3,0.1-0.6,0.2-1,0.2c-0.4,0-0.7-0.2-0.9-0.6
		C10.7,6.8,11.1,6.7,11.4,6.7z M10,16.4c-0.1-0.1-0.1-0.2-0.2-0.4C9.9,16.1,9.9,16.3,10,16.4z M8.1,10l0.3,0.2l-0.1,0.3
		c0.5-0.2,0.9-0.5,1.3-0.7c-0.2,0.5-0.8,1.4-1.4,1.4l-0.3-0.8L8.1,10z M9.8,18.4l-0.4-0.5C9.5,18.1,9.7,18.2,9.8,18.4z M7.6,17.6
		c0.3-0.1,0.6-0.3,1-0.3c0.6,0,0.8,0.6,0.8,1.2c0,0.5-0.1,1-0.2,1.5C8.9,19.1,8.4,18.2,7.6,17.6z M8.5,25l-0.2,0.1l-0.1,0L8.5,25z
		 M8.1,33.5c-0.5,0-0.6-0.6-0.6-1L8.1,33.5z M8.1,15.1L8.7,16C8.3,15.9,8.2,15.5,8.1,15.1z M6.7,15.4c0.2,2,0.5,4,0.9,6
		c-0.4-0.4-0.9-0.9-1.5-1.1l0.1-0.7l-0.8,0.3l-0.1-1.2L5.8,18l0.1,0.4l-0.2,0.7l0.5,0.5l0.3-2.5c-0.1,0-0.2,0.1-0.3,0.2v-0.4
		l-0.1-0.2l-0.7,0.4c0-0.5,0.4-0.8,0.9-0.8c0.1,0,0.2,0,0.2,0L6.7,15.4c-0.1,0.1-0.1,0.1-0.2,0.2c0-0.7,0.1-1.5,0.8-1.8l0.5,0.3
		C7.8,14.7,7.1,15,6.7,15.4z M5.3,16L6,15.4C6,15.8,5.6,16,5.3,16z M6.2,14.1c0-0.1,0.1-0.3,0.3-0.4C6.4,13.9,6.3,14.1,6.2,14.1z
		 M7,9c0.2,0.1,0.5,0.2,0.7,0.4C7.4,9.4,7,9.4,7,9z M6.1,7.2c0.4,0,0.6,0.4,1,0.6L5.4,7.5L6.1,7.2z M4.2,9h0.2
		c-0.1,0.3-0.1,0.9,0,1.2L3.1,9.9C3.3,9.5,3.6,9,4.2,9z M3.6,13.9l0.5-0.6H3.4l0.4-0.6l0.7,0.4l0.3-0.7l-0.4-0.3
		c-0.3,0-0.6,0.3-0.8,0.5v-0.3c0-1.3,1.4-1.1,2.2-0.8L5.2,9l0.3,0.2L6,8.8c0.3,0.6,0.8,1.1,0.8,1.8c0,0.5-0.5,0.7-0.9,0.9L6.7,12
		c0,0.4-0.3,0.7-0.7,0.9v-0.7c-0.2,1.4-0.3,3.5-2.2,3.5c0-0.8,1-1,1-1.9c-0.5,0-0.8,0.5-1.2,0.5c-0.3-0.1-0.5-0.5-0.6-0.9L3.6,13.9z
		 M5.2,19v1l-0.4,0.1C4.9,19.7,5,19.3,5.2,19z M4,17.9l-0.4,0.3c-0.2-0.3-0.4-0.7-0.4-1.1L4,17.9z M2.4,11L2.4,11
		c0,0.4-0.2,0.8-0.4,1.1C2,11.7,2.1,11.3,2.4,11z M2.7,34.6L2.7,34.6L2.7,34.6l0-0.3L2.7,34.6z M2.8,33.2l-0.7-0.3l0.7-0.1l0.5,0.2
		L2.8,33.2z M4.5,19.8c0,0.2-0.1,0.6-0.2,0.9l0,0v0l-0.2,0l-0.2,0.2c0,0,0.3,0.1,0.3,0v1l-0.6-0.3l0.3-0.7c-0.4-0.2-0.5-0.8-0.5-1.2
		l0.9-0.5v0l0.3-0.1V19.8z M4.2,18.5L4.2,18.5l0.1,0.1C4.2,18.6,4.2,18.6,4.2,18.5z M3.8,16.7c0.1-0.3,0.4-0.6,0.7-0.8L5,16.6
		c-0.1,0-0.3,0.1-0.5,0.1H3.8z M5,23.8l-0.3-0.6C4.8,23.4,4.9,23.6,5,23.8z M5,26.8l0.1,0C5.1,26.9,5,26.9,5,26.8z M6.3,34.9
		c0.1,0,0.3-0.1,0.4-0.2C6.6,34.8,6.5,34.9,6.3,34.9z M6.8,24.8c-0.1,0-0.5-0.2-0.7-0.2c-0.3,0-0.6,0.3-0.9,0.3c0-0.4,0.5-0.7,0.8-1
		c0.2,0.1,0.5,0.3,0.8,0.5V24.8z M7.3,35.2l-0.3,0c0.3-0.2,0.7-0.4,1.2-0.4c0.2,0,0.4,0,0.6,0.1C8.3,35,7.8,35.2,7.3,35.2z
		 M8.7,20.9c0.2,0.1,0.5,0.3,0.7,0.5C9.2,21.3,8.8,21.2,8.7,20.9z M10.2,34.9c-0.5,0-1.1-0.4-1.1-1l0.1-0.2c0.6,0,1.1,0.6,1.7,0.6
		c0.5,0,0.6-0.8,1.2-0.8C12.2,34.5,11.1,34.9,10.2,34.9z M12.1,35.1c0.3,0,0.6,0.2,0.6,0.5C12.4,35.7,12.2,35.5,12.1,35.1z
		 M13.7,4.8L14,5.1c0,0.3-0.1,0.6-0.2,0.9c-0.4-0.1-0.2-0.6-0.5-0.7L13.7,4.8z M13.4,35L13.4,35l0.1-0.7l0.2,0.3L13.4,35z
		 M13.7,32.4l0.6,0.9C13.9,33.2,13.7,32.8,13.7,32.4z M14.6,33.3c0.1,0,0.2-0.1,0.4-0.1L14.6,33.3z M15.4,33.8l0.7,0.7
		C15.8,34.5,15.5,34.1,15.4,33.8z M17,35.1c0.3,0,0.5,0.1,0.6,0.4L17,35.1z M17.6,34.7h-0.4l0.7-0.8L17.6,34.7z M19.1,34.2l0.4-0.6
		l0.6,0.7v0.7h-0.6C19.3,34.8,19.1,34.6,19.1,34.2z M20.2,35.7L20.2,35.7l0.3-0.3C20.5,35.6,20.4,35.7,20.2,35.7z M20.2,35.3
		l0.1-0.8l0.3,0.6L20.2,35.3z M22.8,35.3l0.2-0.8l0.3,0.3L22.8,35.3z M24.6,19.3h-3.3v12.2h-0.8l0.3,0.1l0,0.2l-0.7-0.3h-3.2l0-12.2
		h-3.1v-4.2h3.1c0,0,0-1.3,0-3.2c0-0.9,0.1-2.2,0.7-3.1c0.7-1.1,2.3-1.7,4-1.7s3.3,0,3.3,0v4.2c0,0-2.3,0-2.6,0
		c-0.3,0-1.1,0.1-1.1,1.2v2.6H25L24.6,19.3z M25.9,32.9h0.5l0.1,0.2L25.9,32.9z M25.6,32.5l0.4-0.6l0.7,0.7L25.6,32.5z M27.3,27.9
		c0,0.4-0.3,0.5-0.7,0.5h-0.4c0.3-0.3,0.7-0.7,1.1-0.8V27.9z M27.3,14.2l1.6-0.4c-0.3,0.2-0.7,0.5-1.1,0.5
		C27.6,14.3,27.4,14.2,27.3,14.2z M28.3,29.9c0.2,0.3,0.4,0.7,0.4,1.1C28.4,30.8,28.3,30.3,28.3,29.9z M28.6,28.9l0.5,0.4
		C28.8,29.3,28.6,29.2,28.6,28.9z M30.7,33.1h-0.2c-0.5,0-0.9-0.4-1-0.9l1.2-0.3C30.6,32.2,30.6,32.7,30.7,33.1z M31.1,30.8
		c-1.1,0-1.2-0.3-1.2-1.3c0.2,0.2,0.5,0.5,0.8,0.5l0.4-0.3L30.8,29l-0.7,0.4l-0.4-0.6h0.8L30,28.1l-0.7,0.5c0.1-0.3,0.2-0.7,0.6-0.9
		c0.4,0,0.7,0.5,1.2,0.5c0-0.9-1-1.1-1-1.9c1.9,0,2,2.1,2.2,3.5v-0.7c0.3,0.2,0.7,0.5,0.7,0.9l-0.8,0.5c0.4,0.1,0.9,0.4,0.9,0.9
		c0,0.7-0.5,1.2-0.8,1.8l-0.5-0.4l-0.3,0.2l0.6-2.5C31.8,30.7,31.4,30.8,31.1,30.8z M32.4,34.9l-0.7-0.8l1.7,0.2
		C33,34.5,32.8,34.9,32.4,34.9z M33.3,33.1c0-0.4,0.4-0.4,0.7-0.4C33.8,32.8,33.5,33,33.3,33.1z M33.6,28.2
		c-0.7-0.3-0.8-1.2-0.8-1.8c0.4,0.3,1.3,0.9,1.3,1.5L33.6,28.2z M34.7,31.8L34.4,32l-0.2-0.4l0.3-0.8c0.6,0,1.2,0.9,1.4,1.4
		c-0.4-0.2-0.8-0.5-1.3-0.7L34.7,31.8z M36.1,30.2l0.9-2.3l0.9,2.3H36.1z"/>
</g>
</svg>
