<?xml version="1.0" encoding="utf-8"?>
<!-- Generator: Adobe Illustrator 22.1.0, SVG Export Plug-In . SVG Version: 6.00 Build 0)  -->
<svg version="1.1" id="Layer_1" xmlns="http://www.w3.org/2000/svg" xmlns:xlink="http://www.w3.org/1999/xlink" x="0px" y="0px"
	 viewBox="0 0 38.7 38.6" style="enable-background:new 0 0 38.7 38.6;" xml:space="preserve">
<style type="text/css">
	.st0{fill:#FFFFFF;}
</style>
<g>
	<path class="st0" d="M23,17.8l-0.4-0.1l0.2-0.8l0.3,0.1c-0.8-1.4-2.3-2.3-4-2.3c-2.5,0-4.6,2.1-4.6,4.6c0,2.5,2.1,4.6,4.6,4.6
		c1.6,0,3.1-0.9,3.9-2.1c-0.3,0.1-0.7,0.1-1,0.1l1.1-0.2c0.4-0.7,0.6-1.5,0.6-2.3c0-0.7-0.1-1.3-0.4-1.9L23,17.8z"/>
	<path class="st0" d="M26.5,20.4l-0.1-0.2c0,0.1,0,0.2,0,0.2H26.5z"/>
	<path class="st0" d="M30.7,20.5l-0.2-0.7L30,20.8l-0.3-0.4l-0.2,0.4l0.5,0.1l-0.6,0.1l-0.1-0.6l0.1-0.3l0.4,0.4l0.8-1l0.4,1V16
		l-0.6-0.8l0.6-0.3v-2c0-2.6-1.9-4.8-4.5-5.2l0.2,0.5L26,8.8l-0.6-1l0,0H13c-2.9,0-5.2,2.3-5.2,5.2v5l1.6,0.5l-0.3,0.5l-1.3-0.4v1.6
		L7.9,20l0.1,0.1c0,0.2-0.1,0.4-0.2,0.6v4.8c0,1.6,0.7,3,1.9,4c0.4-0.2,0.9-0.5,1.4-0.5c0.2,0,0.5,0.1,0.7,0.1
		c-0.6,0.1-1.2,0.4-1.8,0.4l-0.3,0c0.9,0.7,2,1.2,3.3,1.2h6.3l0-0.5l0.5-0.1l0.2,0.1l-0.3,0.3l0.2,0.2h2.5l0-0.1h0.1l-0.1,0.1h3.3
		c2.1,0,4-1.3,4.8-3.1l-1.2,0.5l-0.4-0.5l0.8-0.5l0.5,0.2v0.2h0.3c0.3-0.6,0.4-1.3,0.4-2.1v-5.1L30.7,20.5z M29.8,16.8l0.1,0.1
		L29.8,17V16.8z M10.1,18.4c0.2,0,0.4,0,0.5,0.1L10.1,18.4z M10.2,17.3V17c0-0.4,0.1-0.9,0.6-1c0.1,0.2,0.1,0.4,0.1,0.6
		C10.9,16.9,10.6,17.1,10.2,17.3z M10.9,14.6l-0.1-0.3l0.7-0.5l0.2,0.6L10.9,14.6z M26.9,10.2c1.1,0,1.9,0.9,1.9,1.9
		s-0.9,1.9-1.9,1.9c-1.1,0-1.9-0.9-1.9-1.9S25.8,10.2,26.9,10.2z M25.7,9.9l-0.9,0.6C24.9,10.1,25.3,9.9,25.7,9.9z M24.7,10.9
		l0.4,0.1l-0.2,0.3c-0.1-0.1-0.2,0-0.4,0h-0.4L24.7,10.9z M23.4,11l0.5-0.4l-0.5,0.7V11z M16.9,27.6L16.9,27.6l0.2,0.1l0,0.2
		L16.9,27.6z M19.7,29.6l-0.6-0.8h0.6V29.6z M19.6,28.6l-0.2-1l0-0.1l0.7-0.1c-0.3,0.1-0.5,0.3-0.5,0.7v0.1l0.6-0.2
		C20.2,28.3,19.9,28.4,19.6,28.6z M20.4,29.9l0.1,0.3C20.5,30.1,20.5,30,20.4,29.9z M22,27.5c-0.4,0-0.9-0.3-0.9-0.7l0.4-0.3
		l0.9,0.7L22,27.5z M24.1,27.8h-0.6V29l0.3-0.2l-0.3,0.6l-0.3,0.2l-0.6-0.1c0.2-0.2,0.6-0.4,0.9-0.5v-1L23,28.6
		c-0.1-0.4-0.2-0.9-0.2-1.3l0.1-0.4c0.5,0.1,1.2,0.3,1.3,0.8L24.1,27.8z M24.8,26.1l-0.2-0.4l0,0l0.3,0.1L24.8,26.1z M26.3,29.4
		l-0.4-0.1l0.3-0.3l0.4,0.4L26.3,29.4z M25.8,23.9l-0.1-0.1l0.2-0.2l0.3-0.1L25.8,23.9z M26.3,26.9l0,0.1
		C26.3,27,26.3,26.9,26.3,26.9z M27.1,27l-0.2-0.2c0.1-0.1,0-0.2,0-0.3v-0.3l0.3,0.5L27.1,27z M26.9,25.7h0.2l0.3,0.4L26.9,25.7z
		 M27.5,26.8c0.3,0,0.4,0.4,0.4,0.7L27.5,26.8z M27.3,21.1v-0.8h1L27.3,21.1z M28.2,16.7c-0.2-0.3-0.6-0.7-0.6-1.2h-1.3l0.7,0.6
		c-0.4,0.1-0.7,0.2-1.1,0.2c0.4,0.9,0.6,1.9,0.6,2.9c0,0.1,0,0.3,0,0.4c0.3,0.2,0.4,0.5,0.5,0.8l-0.6,0.2c-0.2,1.1-0.7,2.2-1.4,3.1
		c0.4,0.4,1.2,0.6,1.2,1.3l0,0.4c-0.6,0-1-1.1-1.2-1.7c-1.3,1.7-3.4,2.8-5.8,2.8c-4,0-7.3-3.3-7.3-7.3c0-4,3.3-7.3,7.3-7.3
		c0.9,0,1.8,0.2,2.6,0.5c0.2-0.2,0.5-0.3,0.8-0.3l0.5,0.1c0,0.2-0.2,0.5-0.4,0.7c1,0.6,1.9,1.3,2.6,2.3c0.2-0.3,0.4-0.5,0.7-0.6
		l0.2,0.2v0.7h1.5l-0.2-0.4l0.7,0.4l0.2,0.4L28.2,16.7z M28.7,19.4l0.4-0.2C28.9,19.4,28.8,19.4,28.7,19.4z"/>
	<polygon class="st0" points="19.3,30.8 19.4,30.8 19.7,30.6 19.3,30.5 	"/>
	<path class="st0" d="M0.8,5.8L0.6,5C0.5,5.2,0.4,5.4,0.3,5.7C0.5,5.7,0.7,5.8,0.8,5.8z"/>
	<path class="st0" d="M1.5,10.7l0,0.8c0.2-0.2,0.3-0.4,0.3-0.7C1.7,10.7,1.6,10.7,1.5,10.7z"/>
	<path class="st0" d="M30.8,0H8C5.2,0,2.7,1.4,1.3,3.6C1.5,4,1.8,4.4,1.8,4.9c0,0.5-0.5,0.7-0.9,0.9l0.8,0.5C1.7,6.7,1.3,7,1,7.2
		V6.5c-0.1,1-0.2,2.4-1,3.1v4.1c0-0.1,0.1-0.3,0.2-0.4v1L0,14.3v6.8l0.1,0c0,0-0.1,0-0.1,0v9.4c0,4.4,3.6,8,8,8h22.8
		c4.4,0,8-3.6,8-8V8C38.7,3.6,35.2,0,30.8,0z M35.7,16.5c-0.4-0.1-0.5-0.4-0.5-0.7L35.7,16.5z M35.2,9.5c0.4,0.1,0.7,0.4,0.7,0.8
		C35.5,10.2,35.2,9.9,35.2,9.5z M34.9,2.2c0,0.2-0.1,0.4-0.2,0.5C34.8,2.5,34.8,2.4,34.9,2.2z M35,11.1l-0.5,0.5l-0.4-0.3
		c0.2-0.1,0.5-0.2,0.7-0.2H35z M33.7,5.8c0.3,0.3,0.7,0.5,1.2,0.5l0.1,1.1c0,1-0.7,2.2-1.8,2.2c0-0.7,1-0.9,1-1.5
		c0-0.8-0.7-1.4-0.7-2.2L33.7,5.8z M31.8,3.6c0.6,0,1.3,0.1,1.3,0.8c-0.4,0-2.2-0.1-2.2-0.7C31.2,3.7,31.5,3.6,31.8,3.6z M32,5.1
		v0.7l-0.2-0.3L32,5.1z M28,2.5l0.3-0.6L28,3.2V2.5z M25.2,4.5C24.6,4.4,24,4.1,24,3.4C24.6,3.4,25.2,3.8,25.2,4.5z M23.3,3.4
		c-0.1,0-0.4-0.1-0.4-0.2C23,3.3,23.1,3.3,23.3,3.4z M19.1,1.9l0.6,0.2l-0.1,0.5l-0.7-0.4L19.1,1.9z M8.9,2.5l0.6,0.4l-1-0.1
		L8.9,2.5z M8.2,3.4l0.4,0.4C8.5,4.2,8.4,4.5,8.3,4.9C7.8,4.8,8.1,4.2,7.6,4L8.2,3.4z M6.5,6.6C6.1,6.7,5.7,6.8,5.2,6.8
		c-0.5,0-0.9-0.2-1.1-0.7C4.4,6,4.9,5.8,5.2,5.8C5.7,5.8,6.1,6.2,6.5,6.6z M6.4,7.2L6.3,7.3L5.8,7.2C6,7.2,6.2,7.2,6.4,7.2z M5,10.7
		c-0.1-0.1-0.1-0.2-0.2-0.4C4.9,10.4,4.9,10.6,5,10.7z M4.8,12.7l-0.4-0.5C4.6,12.4,4.7,12.5,4.8,12.7z M5,4.3l0.1-0.2L5,4.5V4.3z
		 M3.1,4.3l0.3,0.2L3.3,4.8c0.5-0.2,0.9-0.5,1.3-0.7C4.4,4.6,3.8,5.5,3.2,5.5L2.9,4.7L3.1,4.3z M3.7,10.3c-0.3-0.1-0.5-0.5-0.6-0.9
		L3.7,10.3z M2.7,3.7C2.4,3.7,2,3.7,2,3.3C2.2,3.4,2.5,3.6,2.7,3.7z M1.5,8c0,0.1-0.1,0.3-0.3,0.4C1.2,8.3,1.3,8.1,1.5,8z M1,9.7
		c0,0.4-0.4,0.6-0.7,0.6L1,9.7z M1.8,19.2c-0.1,0-0.5-0.2-0.7-0.2c-0.3,0-0.6,0.3-0.9,0.3c0-0.4,0.5-0.7,0.8-1
		c0.2,0.1,0.5,0.3,0.8,0.5V19.2z M1.9,15.8c0-0.3,0.1-0.4,0.3-0.5c-0.3-0.3-0.7-0.5-1.1-0.7l0.1-0.7l-0.8,0.3l-0.1-1.2l0.5-0.7
		l0.1,0.4l-0.2,0.7l0.5,0.5l0.3-2.5c-0.1,0-0.2,0.1-0.3,0.2v-0.4L1.1,11l-0.7,0.4c0-0.5,0.4-0.8,0.9-0.8c0.1,0,0.2,0,0.2,0l0.1-0.9
		c-0.1,0-0.1,0.1-0.2,0.1c0-0.7,0.1-1.5,0.8-1.8l0.5,0.3c0,0.6-0.7,0.9-1.1,1.3c0.2,1.8,0.4,3.7,0.8,5.5c0,0,0,0,0,0c0,0,0,0,0,0
		c0,0.2,0.1,0.3,0.1,0.5c-0.1-0.1-0.2-0.2-0.3-0.2C2.2,15.6,2.1,15.7,1.9,15.8z M2.6,11.9c0.1-0.1,0.3-0.1,0.4-0.2
		c-0.3-0.1-0.5-0.4-0.6-0.8c0.3,0.2,0.6,0.4,0.8,0.7c0.1,0,0.3-0.1,0.4-0.1c0.6,0,0.8,0.6,0.8,1.2c0,0.5-0.1,1-0.2,1.5
		C3.9,13.4,3.4,12.5,2.6,11.9z M4.4,15.7c-0.2-0.1-0.6-0.2-0.7-0.5C3.9,15.4,4.2,15.5,4.4,15.7z M3.2,19.3l0.3,0L3.2,19.3L3.2,19.3z
		 M3.7,23.9l-0.4,0.4C3.4,24.2,3.6,24,3.7,23.9z M4.3,26.7l0.6,0.3l-0.6,0.2l-0.9-0.4L4.3,26.7z M4,20.6l0.1-1.3
		C4.2,19.7,4.1,20.3,4,20.6z M4.1,28.5v0.4L4.1,29L4,28.8L4.1,28.5z M7.3,32.5l-0.1-0.2l0.6-0.4C7.9,32.2,7.6,32.4,7.3,32.5z
		 M17.1,34.8l0.3-0.3l0.2,0.7L17.1,34.8z M19.8,35.3l0.3,0.3C20,35.6,19.8,35.5,19.8,35.3z M20.8,35h-1c0-0.6,0.7-1,1-1.4l0.4,0.6
		C21.2,34.5,21.1,34.7,20.8,35z M21.8,35c-0.1-0.3-0.1-0.6-0.2-0.9l0.5-0.3C22.1,34.2,22,34.6,21.8,35z M22.8,35.4
		c0.1-0.3,0.3-0.4,0.6-0.4L22.8,35.4z M22.9,34.1L22.9,34.1l0,0.3L22.9,34.1z M24.3,34.5c0-0.4,0.3-0.7,0.7-0.7
		C24.9,34,24.6,34.4,24.3,34.5z M27,34.9l-0.4-0.4l0.2-0.3c0,0.1,0.1,0.4,0.1,0.5V34.9z M27.6,35.6c0-0.3,0.3-0.5,0.6-0.5
		C28.2,35.4,28,35.6,27.6,35.6z M30.7,35.7l0.3-0.5l0.1,0.4L30.7,35.7z M30.9,34.7l-0.9,0c-0.8,0-1.8-0.5-1.8-1.4
		c0.6,0,0.7,0.8,1.2,0.8c0.6,0,1.1-0.6,1.7-0.6l0.1,0.2C31,34.1,30.9,34.4,30.9,34.7z M31.2,32.5l0.2-0.1l0.3,0.1H31.2z M32.3,33.4
		c0-0.3,0-1.7,0.5-1.7c0,0.2,0.1,0.4,0.1,0.7C32.9,32.8,32.9,33.4,32.3,33.4z M33.7,34.6c0.1,0.1,0.2,0.1,0.4,0.2
		C33.9,34.8,33.7,34.7,33.7,34.6z M33.3,29.3h0.5l0.5,0.2L33.3,29.3z M33.6,26.3c-0.3,4.1-3.8,7.2-7.9,7.2H15.2l0.4,0.3l-0.7,0.7
		l0.1-1h-2c-2.2,0-4.2-0.9-5.6-2.3l-3.1,0.6l-0.4-0.4L7.2,31c-1.3-1.4-2.1-3.3-2.1-5.4V22c0-0.1-0.1-0.1-0.1-0.2l0.1,0v-1.1
		l-0.3-0.8l0.3,0.3v-2.8l-1.7-0.6l0.6-0.5c0.4,0,0.8,0.2,1.2,0.3v-1.6c0,0-0.1,0-0.1,0l0.1-0.1v-2.1C5.1,8.6,8.7,5,13,5h12.7
		c4.4,0,7.9,3.6,7.9,7.9v0.8c0.4,0.1,0.8,0.4,0.8,0.8c-0.4,0-0.7-0.2-0.8-0.5v3.2c0.5,0,1,0.1,1.5,0.4c-0.4,0.1-0.8,0.2-1.2,0.2
		l-0.3-0.5v1.3l0.5-0.4c0.4,0,0.7,0.2,1,0.6v1.3c-0.6-0.1-1.1-0.6-1.5-1v6.4l0-0.1l0.9,0.9L33.6,26.3z M34.4,16.2L34,16.3l0.1-0.1
		L34.4,16.2z M34.9,23.7l-0.4-0.4l0.9-0.2L34.9,23.7z M35.5,20.2l0.4-0.4C35.9,20,35.8,20.2,35.5,20.2z M35.5,6.1l0.5-0.1l0.1,0.5
		L35.5,6.1z"/>
</g>
</svg>
