<?xml version="1.0" encoding="utf-8"?>
<!-- Generator: Adobe Illustrator 22.1.0, SVG Export Plug-In . SVG Version: 6.00 Build 0)  -->
<svg version="1.1" id="Layer_1" xmlns="http://www.w3.org/2000/svg" xmlns:xlink="http://www.w3.org/1999/xlink" x="0px" y="0px"
	 viewBox="0 0 26 39.2" style="enable-background:new 0 0 26 39.2;" xml:space="preserve">
<style type="text/css">
	.st0{fill:#FFFFFF;}
</style>
<g>
	<path class="st0" d="M7.1,20c-0.1,0-0.2,0-0.3,0h0.1c0.1,0,0.2,0,0.2,0.1c0,0-0.1,0.1-0.1,0.2c0,0,0,0.1,0,0.1v0
		c0.1,0,0.3-0.2,0.3-0.3C7.2,20.1,7.2,20,7.1,20z"/>
	<path class="st0" d="M8.2,22.6c-0.1-0.1-0.3-0.3-0.4-0.3C7.8,22.5,8,22.6,8.2,22.6z"/>
	<path class="st0" d="M7.7,21h0.6c-0.1,0-0.1-0.1-0.3-0.1C7.9,20.9,7.8,20.9,7.7,21z"/>
	<path class="st0" d="M9.6,21.4c0,0,0-0.1-0.1-0.1c-0.1,0-0.2,0.1-0.2,0.2c0,0,0,0.1,0.1,0.1C9.5,21.6,9.6,21.5,9.6,21.4z"/>
	<path class="st0" d="M7.7,21.1c0,0,0,0-0.1,0c0,0-0.1,0-0.2,0c0.1,0.1,0.3,0.2,0.4,0.3C7.7,21.1,7.7,21.1,7.7,21.1z"/>
	<path class="st0" d="M8.4,22.8c0,0,0.1-0.1,0.1-0.2C8.5,22.6,8.4,22.7,8.4,22.8z"/>
	<path class="st0" d="M6.9,21.4c-0.1,0-0.2,0-0.2,0.1c0,0,0,0.1,0.1,0.2v0.1c0,0.2,0.1,0.3,0.3,0.4C7.1,22,7,21.9,7,21.7
		c0-0.1,0.1-0.2,0.2-0.3H6.9z"/>
	<path class="st0" d="M6.4,22.1C6.6,22,6.7,22,6.7,22h0C6.6,22,6.5,22,6.4,22.1z"/>
	<path class="st0" d="M10.2,22.1l0.2-0.1C10.4,22.1,10.3,22.1,10.2,22.1z"/>
	<path class="st0" d="M9.7,21.5c-0.4,0.3-0.6,0.6-0.6,0.7c0,0.1,0,0.2,0.1,0.2c0.3-0.4,0.4-0.4,0.4-0.9V21.5z"/>
	<path class="st0" d="M7.1,20.8C7.2,21,7.2,21,7.2,21C7.2,21,7.1,20.8,7.1,20.8z"/>
	<path class="st0" d="M9.5,22.8L9.5,22.8c0.1,0,0.2,0,0.4,0h0.6c-0.3-0.1-0.6-0.2-0.8-0.3C9.5,22.6,9.5,22.7,9.5,22.8z"/>
	<path class="st0" d="M11.3,22.5L11.3,22.5c0-0.1,0-0.2-0.1-0.3C11.2,22.4,11.3,22.5,11.3,22.5z"/>
	<path class="st0" d="M12.5,23l-0.1-0.1C12.4,22.9,12.5,23,12.5,23z"/>
	<path class="st0" d="M6.4,20.5l-0.2,0C6.1,20.5,6.2,20.5,6.4,20.5z"/>
	<path class="st0" d="M10.8,23.3c-0.1,0.1-0.2,0.2-0.3,0.3C10.6,23.5,10.7,23.4,10.8,23.3z"/>
	<path class="st0" d="M8.9,21.6H8.8c-0.3,0,0,0.1-0.3,0.3C8.7,22,8.9,22,9.2,22C9.1,22,8.9,21.6,8.9,21.6z"/>
	<path class="st0" d="M10.5,23.2c-0.1,0.1-0.1,0.2-0.1,0.2L10.5,23.2z"/>
	<path class="st0" d="M12.7,22.1c-0.2,0-0.4,0.1-0.4,0.4C12.4,22.4,12.7,22.5,12.7,22.1z"/>
	<path class="st0" d="M22.1,23.8C22.1,23.8,22.1,23.8,22.1,23.8C22.1,23.8,22.1,23.8,22.1,23.8C22.1,23.8,22.1,23.8,22.1,23.8z"/>
	<path class="st0" d="M12.8,3c0-0.3,0-0.4-0.1-0.4c0,0-0.1,0-0.1,0C12.6,2.7,12.7,2.9,12.8,3z"/>
	<path class="st0" d="M12.7,3.6c0,0,0.1-0.1,0.1-0.2s0-0.2-0.1-0.2C12.7,3.5,12.7,3.6,12.7,3.6z"/>
	<path class="st0" d="M14.2,3.7c0-0.2-0.1-0.3-0.3-0.3C13.8,3.5,14,3.6,14.2,3.7z"/>
	<path class="st0" d="M22.4,23.1C22.4,23.1,22.4,23.1,22.4,23.1C22.5,23.1,22.5,23.1,22.4,23.1C22.5,23.1,22.4,23.1,22.4,23.1z"/>
	<path class="st0" d="M22.9,22.2C23,22.2,23,22.2,22.9,22.2c0.1,0,0.1-0.1,0.2-0.2c-0.1,0-0.2,0-0.2,0c-0.2,0.1-0.3,0.4-0.4,0.6
		c0.1,0,0.2,0,0.3,0c0-0.1,0.1-0.1,0.1-0.2C22.9,22.3,22.9,22.2,22.9,22.2z"/>
	<path class="st0" d="M16.8,30.9C16.8,30.9,16.8,30.9,16.8,30.9c-0.1,0.1-0.1,0.3,0,0.4C16.9,31.2,16.9,31,16.8,30.9z"/>
	<path class="st0" d="M1.2,8.2C1.1,8.1,1.1,8.1,1,8.1C0.8,8.6,0.6,9.1,0.4,9.7l0.4-0.1C0.8,9.8,0.7,9.9,0.6,9.9c0,0-0.1,0-0.2-0.1
		c-0.1,0.2-0.1,0.5-0.2,0.7c0,0,0,0.1,0,0.1c0,0.1,0,0.2-0.1,0.2c0,0,0,0,0,0c0,0.1,0,0.1,0,0.2c0,0,0,0,0,0c0,0,0.1,0.1,0.2,0.2
		l-0.4,1c0,0,0,0,0-0.1c0,0.2,0,0.3,0,0.5c0.1,0.1,0.2,0.2,0.3,0.2c0.2,0,0.4-0.1,0.7-0.4c-0.1,0.9-0.5,0.7-0.9,0.8
		c-0.1,0.1-0.1,0.2-0.2,0.4c0,0.1,0,0.2,0,0.3c0,0,0.1,0,0.1,0c0.1,0,0.2-0.1,0.2-0.3c0,0.1,0.4,1.2,0.5,1.4l-0.4,0
		c0,0.5,0.5,0.1,0.7,0.5c0,0-0.4,0.2-0.8,0.4c0,0.1,0,0.2,0.1,0.2l0.2-0.2c0.1,0.2,0.2,0.3,0.3,0.4c-0.1,0.1-0.2,0.2-0.4,0.2
		c0,0.1,0.1,0.2,0.1,0.3c0.3,0,0.6,0,0.7,0c0,0,0.1,0,0.1,0.1c0,0.1-0.3,0.3-0.6,0.5c0,0.1,0.1,0.2,0.1,0.3c0.2-0.1,0.2-0.2,0.3-0.3
		l0-0.1c0.2,0.1,0.3,0.1,0.3,0.3l-0.6,0.1c1.4,3.9,4.2,8,7.6,13.5c0,0,0,0,0,0s0,0,0,0c0.7,1.1,1.4,2.3,2.1,3.5
		c0.3,0.2,0.4,0.1,0.4,0.1c0.1,0.1,0.1,0.4,0.1,0.7c0.1,0.1,0.1,0.2,0.2,0.3c0.2-0.1,0.3-0.2,0.4-0.2c0-0.1,0-0.1,0-0.2
		c0-0.1-0.1-0.1-0.2-0.1c0.2-0.1,0.2-0.1,0.3-0.1c0,0.1,0.1,0.2,0,0.4c0,0.1,0,0.1-0.1,0.2C11.5,36,11.4,36,11.2,36
		c0.1,0.2,0.3,0.4,0.4,0.7c0.1-0.3,0.1-0.4,0.2-0.7c0,0,0,0,0.1,0c0.1,0.2,0.3,1.1,0.5,1.3c-0.2,0-0.3,0-0.3,0.1
		c0.1,0.1,0.1,0.3,0.2,0.4c0.1-0.1,0.2-0.3,0.3-0.4l0.3-0.4c0-0.1-0.4-0.1-0.6-0.3c-0.1-0.1-0.1-0.2,0-0.4c0.3,0.5,0.6,0.1,0.8-0.2
		c0,0.1,0,0.1,0,0.2c0,0,0,0.1,0.1,0.1l0.1-0.5l0.5,0.7l-0.1,0.2c0,0,0,0.1,0,0.2l0.3-0.3c-0.1,0-0.1,0-0.1-0.1s0-0.1,0.1-0.3
		c0.1,0.1,0.2,0.1,0.3,0.1c0.1-0.1,0-0.2,0-0.3c-0.1-0.2-0.5-0.4-0.5-0.5c0.2-0.4,0.4-0.3,0.5-0.2c0.1,0.1,0.1,0.3,0.2,0.4
		c0,0,0.1,0.1,0.1,0l0-1.3c0.2,0.2,0.2,0.3,0.3,0.2c0-0.1,0-0.3,0.1-0.5c0.1-0.1,0.1-0.1,0.3,0L15,34.4c0,0,0,0,0,0l0,0.1
		c0,0.1,0,0.1-0.1,0.1L14.9,35c0.2,0.3,0.4-0.7,0.6-0.4c0,0,0,0,0,0.1c0.2-0.3,0.3-0.6,0.5-0.9c0,0,0,0,0,0c0-0.1-0.7-1-0.7-1
		c0.1-0.2,0.2-0.2,0.3-0.1c0.1,0.1,0.1,0.3,0.1,0.3c0,0,0.3,0.1,0.5,0.1l0-0.1l0,0c0.1,0,0.2,0,0.3,0.1c0.1-0.1,0.1-0.2,0.2-0.3l0,0
		c-0.1-0.1-0.1-0.3,0-0.5c0.1,0.1,0.1,0.2,0.2,0.3c0,0,0-0.1,0.1-0.1c-0.1-0.1-0.1-0.1-0.2-0.2c0.2-0.4,0.5-0.5,0.8-1
		c-0.2,0-0.4,0.1-0.6,0.4c0,0,0-0.1,0-0.1c-0.1,0.3-0.4,0.7-0.4,0.8c0.1-0.3,0-0.5-0.1-0.6c0-0.1-0.1-0.1-0.1-0.1c0,0,0,0,0-0.1
		c0,0,0.1-0.1,0.3-0.2c0.1-0.4-0.6-0.7-0.3-1.3c0.1,0.3,0.4,0.5,0.3,0.8l0.1,0c0-0.2-0.1-0.5-0.1-0.7c0.2,0.1,0.3,0.3,0.5,0.4
		c0,0,0,0,0,0l0.1-0.1c0,0,0,0,0.1,0l0,0c0,0,0.1,0,0.1,0.1l0,0.1c0,0.1-0.1,0.1-0.1,0.1c0,0,0,0,0,0l0,0.1c0.1,0.1,0.3,0.2,0.4,0
		c0.1-0.2,0.3-0.5,0.4-0.7c0-0.2,0-0.3-0.1-0.4c0.1-0.1,0.2,0,0.3,0.1c0.2-0.3,0.3-0.6,0.5-0.8l0-0.1c0,0,0,0,0,0.1
		c0.6-1,1.3-2,1.9-2.9c0,0,0-0.1,0-0.2l0.1-0.1h0.1l0,0c0.2-0.3,0.3-0.6,0.5-0.8c0-0.1,0-0.1,0-0.2c0,0,0,0,0.1,0
		c0-0.1,0.1-0.1,0.1-0.2c-0.2,0.2-0.4,0.4-0.5,0.4c0,0-0.1,0-0.1,0c0,0,0,0,0,0l0,0c0,0,0,0-0.1,0c0,0,0,0,0,0l0-0.1
		c0,0,0.1-0.1,0.1-0.1c0,0,0,0,0,0c0-0.4,0.3-1,0.3-1.1l0,0c-0.1-0.2-0.5,0.1-0.7,0.1c0-0.2,0.1-0.7,0.1-0.9c0.2-0.1,0.3-0.1,0.4,0
		l0.2,0.3c0,0.1,0.1,0.1,0.2,0c0.3-0.2-0.4-0.7,0.1-1.1c0,0.1,0,0.2,0.1,0.3c0.1,0.1,0.3,0.2,0.5,0.1c0.4-0.3,0-1.4,0.3-1.8
		c0.1,0,0.2,0,0.2,0.1c0.1,0.1,0.1,0.3,0.2,0.4c0.1,0,0.2-0.2,0.3-0.3c0.1-0.1,0.2-0.1,0.3-0.2c-0.1,0.2-0.1,0.3,0,0.5l0.1-0.1
		c0-0.1,0.1-0.2,0.1-0.2c-0.1-0.2-0.2-0.2-0.5-0.4c0.3-0.2,0.6-0.2,0.8-0.1c1.3-2.5,2.1-4.8,2.1-7.3c0-2.1-0.5-4-1.3-5.8
		c-0.1,0-0.3,0-0.4-0.1c0.1,0,0.2-0.1,0.3-0.1c0,0,0,0,0,0c-0.1-0.2-0.2-0.4-0.4-0.6c-0.5,0-1.2,0.2-1.5,0.1c0-0.1,0-0.2,0.1-0.2
		c0.1-0.1,0.3-0.2,0.3-0.2C23.1,6,23,6,22.8,5.8c-0.1-0.1-0.2-0.2-0.2-0.2c0.2,0.1,0.3,0.1,0.5-0.1L23,5.4c-0.1-0.1-0.1-0.1,0-0.3
		c-0.4,0.4-0.3,0.3-0.6,0.8c-0.3-0.4-0.3-0.7-0.1-0.9c0.2-0.2,0.5-0.2,0.7-0.1C23.1,5,23.1,5,23.1,5.1c0.1,0,0.2,0,0.2,0
		c-0.2-0.2-0.4-0.5-0.6-0.7c-0.2,0-0.4,0-0.6-0.2c0.1,0,0.1,0,0.1,0c0.1-0.1,0-0.3,0-0.4c-0.1-0.1-0.2-0.2-0.3-0.2c0,0,0,0.1,0,0.1
		c-0.2,0.2-0.5,0.6-0.7,0.3c-0.1-0.1-0.2-0.2-0.2-0.5l0.7,0.1c0,0-0.2-0.4-0.3-0.5c-0.1-0.1-0.3-0.2-0.4-0.3c-0.2,0-0.4,0-0.6-0.2
		c0.1-0.1,0.1-0.1,0.1-0.1c-0.6-0.4-1.2-0.8-1.8-1.1c0,0,0,0,0,0c0,0,0,0,0-0.1C17.1,0.5,15.1,0,13,0C7.6,0,3,3.3,1,7.9
		C1.1,8,1.2,8,1.2,8.2z M0.8,13.5L1,13.2C1,13.4,0.9,13.5,0.8,13.5z M11.7,36.3c-0.1,0-0.2-0.1-0.2-0.1c0,0,0,0,0-0.1
		c0-0.1,0.2-0.1,0.2,0C11.7,36.2,11.7,36.2,11.7,36.3z M25,8c0.1,0.1,0.1,0.2-0.1,0.4l-0.2-0.5C24.9,7.9,24.9,8,25,8z M21.1,11.2
		c0-0.2,0.2-0.3,0.4-0.3C21.4,11,21.3,11.1,21.1,11.2z M21.3,11.8C21.3,11.9,21.3,11.9,21.3,11.8C21.2,11.9,21.2,11.8,21.3,11.8
		C21.3,11.8,21.3,11.8,21.3,11.8z M21.2,16.5c0-0.1,0.1-0.2,0.1-0.3L21.2,16.5z M21.3,11.3h0.3c0.1,0,0.3,0,0.5,0.1
		c-0.1,0.1-0.2,0.1-0.3,0.1S21.4,11.5,21.3,11.3z M21.9,11c0-0.2,0-0.2,0-0.2S22,10.9,22,11c0,0,0,0.1,0,0.1
		C21.9,11.1,21.9,11,21.9,11z M21.9,16.2L21.9,16.2c0,0.1,0,0.3-0.1,0.3C21.8,16.3,21.9,16.2,21.9,16.2z M22,22.2c0,0-0.1,0-0.2,0
		c-0.2-0.2-0.2-0.4,0-0.5l0.1,0C21.8,21.6,22.1,22.1,22,22.2z M22.2,21.5c0-0.2,0.1-0.2,0.1-0.2l0,0C22.3,21.3,22.2,21.4,22.2,21.5z
		 M22.4,10.7c-0.1,0-0.1,0-0.1,0l0.5-0.2C22.7,10.6,22.5,10.7,22.4,10.7z M22.3,11c0,0,0,0-0.1-0.1L22.3,11z M24.3,6.8
		c0,0,0.1,0.1,0,0.2c-0.2,0.2-0.3,0.2-0.5,0.1l-0.1-0.1C23.7,7.1,24.2,6.7,24.3,6.8z M23.6,6.8c-0.2,0-0.2,0-0.2,0l0,0
		C23.4,6.7,23.5,6.7,23.6,6.8z M23.4,10.2C23.4,10.2,23.3,10.2,23.4,10.2c-0.1,0-0.1,0-0.1-0.1L23.4,10.2z M23.3,11.4
		c-0.1,0-0.1,0.1-0.2,0.2C23.1,11.5,23.2,11.4,23.3,11.4z M22.7,18.5c0,0-0.1,0-0.1,0c0.1-0.3,0.3-0.4,0.5-0.5
		C23,18.3,22.9,18.5,22.7,18.5z M23,9.3c-0.5,0-0.3-0.1-0.6-0.3C22.7,9,22.9,9.1,23,9.3z M22.2,10.2c0-0.3,0.1-0.4,0.3-0.4h0.1
		c0,0.4-0.1,0.6-0.2,0.6c0,0-0.1,0-0.1-0.1V10.2z M22.3,16.1L21.9,16c0-0.1,0-0.2,0-0.3c0-0.1,0-0.2,0.1-0.2h0.1
		C22.2,15.6,22.3,16.1,22.3,16.1z M22.1,9.6C22,9.7,22,9.8,22,9.9s0,0.2,0.1,0.3c-0.1,0-0.3,0.1-0.4,0.1c-0.1,0-0.2,0-0.3,0
		c0,0.1,0.2,0.3,0.2,0.4c0,0,0,0.1-0.1,0.1l-0.4-0.6C21.5,10.1,21.8,9.9,22.1,9.6z M21.5,8.5c0.1-0.1,0.2-0.1,0.2-0.1h0
		C21.7,8.5,21.7,8.5,21.5,8.5z M21.4,8.4c-0.1,0-0.1-0.1-0.1-0.2c0,0.1,0.1,0.1,0.1,0.1c0.2,0,0.4-0.3,0.6-0.3
		C22,8,21.6,8.4,21.4,8.4z M21.4,7.6c0.1,0,0.2,0.1,0.4,0.2c0,0-0.3,0.2-0.5,0.2c-0.1,0-0.1,0-0.1-0.2C21.3,7.6,21.3,7.6,21.4,7.6z
		 M21.2,7.9c0,0.2,0,0.3-0.1,0.3c0,0-0.1-0.1-0.1-0.1C21,8,21,7.9,21.2,7.9z M3.1,14.6c0,0-0.1-0.1-0.3-0.2
		C3.1,14.5,3.1,14.6,3.1,14.6C3.1,14.6,3.1,14.6,3.1,14.6z M3,12.9l0.1-0.3C3.1,12.6,3.1,12.9,3,12.9z M3.4,13.4h0.1
		c0.1,0,0.2,0.1,0.2,0.4C3.5,13.6,3.4,13.5,3.4,13.4z M3.6,14.8c0.1,0,0.1,0,0.2,0C3.8,14.8,3.6,14.9,3.6,14.8
		C3.6,14.9,3.6,14.8,3.6,14.8z M3.8,17.4L3.8,17.4c0,0,0-0.1,0.1-0.1L3.8,17.4z M3.8,15.2L3.9,15C3.9,15.1,3.8,15.2,3.8,15.2z
		 M3.9,16.8c0-0.2,0.1-0.3,0.3-0.3C4.1,16.5,4,16.7,3.9,16.8z M4.1,16.1c-0.1,0-0.1-0.1-0.2-0.3c0.1-0.1,0.2-0.2,0.3-0.2
		c0,0,0.1,0,0.2,0.2C4.2,15.9,4.1,16.1,4.1,16.1z M4.6,15.8c0,0,0-0.1,0-0.1C4.9,15.8,5,15.9,5,15.9c0,0-0.1,0-0.1,0H4.5
		C4.6,15.9,4.6,15.8,4.6,15.8C4.6,15.8,4.6,15.8,4.6,15.8z M4.6,9c0-0.1,0.1-0.2,0.3-0.2L4.6,9z M4.9,18.4c0,0-0.1,0.1-0.1,0.1
		L4.9,18.4z M4.7,18.2c0-0.1,0.1-0.1,0.1-0.2L4.7,18.2z M5.1,19c-0.1,0-0.3,0-0.3-0.2L5.1,19z M4.5,8.1C4.5,8,4.7,7.8,4.8,7.8
		c0,0,0.1,0,0.1,0.1L4.5,8.1z M4.5,16.3c0,0,0-0.1,0.1-0.2c0.1,0.1,0.1,0.1,0.1,0.2c0,0.1,0,0.2-0.1,0.3C4.6,16.4,4.5,16.4,4.5,16.3
		z M4.8,20.5c0,0-0.1,0-0.1-0.2c0.2,0,0.3,0,0.3,0.1C4.9,20.5,4.9,20.5,4.8,20.5z M5.2,24.7L5.2,24.7L5.2,24.7c-0.1,0-0.1,0-0.2,0
		l0,0c0,0-0.1,0-0.1-0.1c0-0.1,0.1-0.1,0.1-0.1c0,0,0,0,0,0c0,0,0,0,0,0c0,0,0,0,0,0l0-0.1c0.1,0,0.2,0,0.2,0.1
		C5.2,24.6,5.2,24.6,5.2,24.7z M5.3,20.2c0,0-0.1-0.1-0.1-0.3c0-0.3,0.1-0.4,0.4-0.4C5.6,19.7,5.4,20.2,5.3,20.2z M5.1,8.1L5.1,8.1
		c0-0.1,0-0.2,0.1-0.4c0,0,0.1,0,0.1,0.1C5.3,7.9,5.2,8.1,5.1,8.1z M5.5,18.1c-0.1,0-0.1,0-0.1-0.1L5.5,18.1C5.5,18,5.6,18,5.5,18.1
		C5.6,18,5.5,18.1,5.5,18.1z M5.4,17.5c0-0.1,0.1-0.1,0.2-0.1L5.4,17.5z M5.8,23.8L5.8,23.8l-0.1,0.1l-0.1-0.1v-0.1l0.1-0.1l0,0
		c0,0,0.1,0,0.1,0L5.8,23.8C5.9,23.8,5.9,23.8,5.8,23.8z M6.1,26.9L6.1,26.9c-0.1,0-0.1,0-0.1,0l-0.1-0.1c0,0,0,0,0-0.1l0.1-0.1
		c0,0,0,0,0.1,0L6.1,26.9C6.2,26.8,6.1,26.8,6.1,26.9z M6.5,22.5c0.1,0,0.1,0,0.1,0v0C6.7,22.5,6.7,22.6,6.5,22.5
		C6.6,22.6,6.5,22.6,6.5,22.5z M6.9,23.9L6.9,23.9c-0.1,0-0.1,0-0.1,0l-0.1-0.1c0,0,0,0,0-0.1l0.1-0.1c0,0,0,0,0.1,0L6.9,23.9
		C6.9,23.9,6.9,23.9,6.9,23.9z M6.9,23.7c0,0,0,0-0.1,0c0,0,0,0,0,0l-0.1-0.1c0-0.1,0-0.1,0-0.1c0,0,0.1,0,0.1,0l0.1,0.1
		C6.9,23.6,6.9,23.7,6.9,23.7z M6.8,23c0.1-0.1,0.1-0.1,0.1-0.1C6.9,22.9,6.9,23,6.8,23z M7.2,27.9C7.2,27.9,7.2,27.9,7.2,27.9
		L7.2,27.9c-0.1,0-0.1,0-0.1,0c0-0.1,0.1-0.1,0-0.1c0,0,0,0,0,0l0-0.1c0.1,0,0.1,0.1,0.1,0.1C7.3,27.8,7.3,27.9,7.2,27.9z M7.4,24.3
		c0,0-0.1,0.1-0.2,0.1c0,0-0.1,0-0.1,0l0-0.1c0-0.1,0-0.1,0.1-0.1l0.1-0.1c0.1,0,0.1,0,0.1,0c0,0,0,0,0,0L7.4,24.3L7.4,24.3z
		 M7.6,26.6L7.6,26.6c-0.1,0-0.1-0.1-0.1-0.1c0,0,0,0,0,0l0.1-0.1C7.6,26.4,7.6,26.4,7.6,26.6L7.6,26.6C7.6,26.6,7.6,26.6,7.6,26.6z
		 M8,29.8c0,0-0.1,0.1-0.2,0.1l-0.1,0c0-0.1,0-0.1,0-0.2l0,0l0-0.1c0,0,0,0,0.1,0c0,0,0.1,0,0.2,0.1C8.1,29.7,8.1,29.7,8,29.8
		C8.1,29.8,8.1,29.8,8,29.8z M8.5,23.9c0,0,0,0.1-0.1,0.1l0,0L8.2,24v-0.1l0.1-0.1h0.1L8.5,23.9L8.5,23.9z M8.6,30.7
		C8.6,30.7,8.6,30.7,8.6,30.7L8.6,30.7c-0.1,0-0.1,0-0.1,0c0,0,0-0.1,0-0.1c0,0,0,0,0,0c0,0,0,0,0,0l0.1-0.1
		C8.7,30.5,8.7,30.6,8.6,30.7L8.6,30.7z M9.2,30C9.2,30,9.1,30,9,30c0,0,0,0-0.1,0l-0.1-0.1c0,0,0-0.2,0.2-0.2l0.1,0.1
		C9.2,29.9,9.2,29.9,9.2,30z M9.8,33.1C9.8,33,9.8,33,9.8,32.9C9.8,33,9.9,33.1,9.8,33.1L9.8,33.1z M9.7,31.7L9.7,31.7L9.7,31.7
		c-0.1-0.1-0.1-0.1,0-0.2c0,0,0.1-0.1,0.2,0l0,0.1C9.8,31.6,9.8,31.7,9.7,31.7z M9.7,26c0-0.1,0.1-0.2,0.2-0.1l0,0
		c0,0.1,0,0.2-0.1,0.2l-0.1,0C9.7,26.1,9.7,26.1,9.7,26z M9.9,30.6L9.9,30.6l-0.1-0.1c0-0.1,0-0.1,0-0.2l0.1,0c0,0,0.1,0,0.1,0.1
		C10,30.6,9.9,30.6,9.9,30.6z M9.9,24.3c-0.1,0-0.1-0.1-0.1-0.3c0.1,0,0.2,0.1,0.2,0.1C10,24.2,10,24.3,9.9,24.3z M10.2,27.1
		L10.2,27.1C10.3,27,10.3,27,10.2,27.1c0.1-0.1,0.1-0.1,0.2-0.1l0,0l0.1,0c0,0.1,0,0.1,0,0.1c0,0-0.1,0.1-0.1,0.1c0,0-0.1,0-0.1,0
		C10.2,27.2,10.2,27.1,10.2,27.1z M10.6,25.5C10.6,25.5,10.6,25.5,10.6,25.5L10.6,25.5c-0.1,0.1-0.1,0.1-0.2,0c0,0,0-0.1,0-0.1
		c0,0,0,0,0,0l0.1-0.1c0,0,0.1,0,0.1,0.1C10.7,25.4,10.6,25.4,10.6,25.5z M10.6,31C10.6,31,10.6,31,10.6,31l-0.1,0.1c0,0,0,0-0.1,0
		L10.4,31c0,0,0,0,0-0.1l0.1-0.1C10.6,30.9,10.6,30.9,10.6,31L10.6,31z M10.4,25c0-0.1,0-0.1,0-0.1l0.1-0.1c0.1,0,0.1,0,0.1,0.1
		c0,0.1,0,0.1,0,0.1l-0.1,0L10.4,25L10.4,25z M10.3,24.2c0-0.2,0.2-0.3,0.4-0.3L10.3,24.2z M10.3,29.9
		C10.3,29.9,10.3,29.9,10.3,29.9c-0.1-0.1-0.1-0.1-0.1-0.2l0,0l0,0l0,0c0,0,0.1-0.1,0.2,0l0,0.1C10.5,29.8,10.4,29.8,10.3,29.9
		C10.4,29.9,10.4,29.9,10.3,29.9L10.3,29.9z M10.6,33.6c-0.1,0.1-0.1,0.1-0.2,0L10.6,33.6z M10.6,34.5c-0.2-0.3-0.1-0.3-0.1-0.4
		l-0.1,0c0,0,0.1-0.2,0.2-0.4c0.1-0.1,0.1-0.1,0.2-0.1L10.6,34.5z M11.1,33.5C11.1,33.5,11,33.5,11.1,33.5l-0.1,0c0,0-0.1,0-0.1-0.1
		c0,0,0-0.1,0-0.1c0,0,0,0,0,0c0,0,0,0,0,0l0.1-0.1h0.1l0.1,0.1c0,0,0,0,0,0.1C11.2,33.5,11.2,33.5,11.1,33.5L11.1,33.5
		C11.1,33.5,11.1,33.5,11.1,33.5z M11.1,25.9L11.1,25.9c-0.2-0.1-0.2-0.2-0.1-0.3l0,0c0.1,0,0.1,0,0.1,0.1
		C11.2,25.7,11.2,25.9,11.1,25.9z M11.2,26.6c0.1,0,0.1,0.1,0.1,0.1c0,0,0,0.1-0.1,0.1l-0.1,0c0,0-0.1,0-0.1-0.1c0,0,0-0.1,0-0.1
		C11.1,26.7,11.1,26.7,11.2,26.6L11.2,26.6z M11.3,34.4C11.3,34.4,11.3,34.4,11.3,34.4L11.3,34.4l-0.2,0v-0.1l0,0l0.1,0
		C11.4,34.3,11.4,34.3,11.3,34.4L11.3,34.4z M11.4,31L11.4,31l-0.1,0L11.3,31c0-0.1,0-0.1,0-0.1l0.1-0.1c0.1,0,0.1,0,0.1,0.1
		C11.5,31,11.4,31,11.4,31z M10.7,24.5c0.1-0.6,0.5-0.9,1-1.1C11.7,23.7,11.1,24.2,10.7,24.5z M11.6,27.7c0-0.1,0.1-0.1,0.2,0
		c0,0,0,0.1,0,0.1l-0.1,0.1h-0.1l-0.1-0.1C11.6,27.8,11.6,27.7,11.6,27.7z M11.6,30.2c0-0.1,0.1-0.1,0.2-0.1l0.1,0.1v0.1l-0.1,0.1h0
		c0,0,0,0,0,0c0,0,0,0-0.1,0C11.7,30.3,11.6,30.3,11.6,30.2L11.6,30.2z M11.8,32.5L11.8,32.5l-0.1,0c0-0.1,0-0.2,0.1-0.2l0.1,0
		c0.1,0,0.1,0.1,0.1,0.1C11.8,32.4,11.8,32.4,11.8,32.5L11.8,32.5z M11.8,31.6L11.8,31.6c-0.1,0-0.1,0-0.1,0l-0.1-0.1c0,0,0,0,0-0.1
		l0.1-0.1C11.9,31.4,11.9,31.4,11.8,31.6L11.8,31.6z M11.9,35.4c0.1-0.1,0.2-0.1,0.2-0.1C12.1,35.3,12,35.4,11.9,35.4z M12,23.9
		c0.1,0.1,0.1,0.1,0.1,0.2h0C12,24.1,12,24.1,12,23.9z M12.1,29.9C12.1,29.9,12.1,29.9,12.1,29.9L12.1,29.9c-0.1,0-0.1-0.1-0.1-0.1
		c0,0,0,0,0,0l0.1-0.1C12.1,29.7,12.2,29.7,12.1,29.9L12.1,29.9z M12.4,36c0.1-0.1,0.1,0,0.2,0C12.6,36,12.5,36,12.4,36z M12.3,23.8
		v-0.3c-0.1,0.1-0.2,0.2-0.4,0.3c-0.1-0.3-0.1-0.4-0.1-0.4c0,0-0.1,0.1-0.5,0.2c0-0.3,0-0.5,0.1-0.7c-0.3,0-0.6,0.1-0.8,0.3
		c0,0.1,0,0.1,0.1,0.1c0,0,0.1,0,0.1-0.1c0,0,0.1,0.1,0.1,0.1c0,0.1,0,0.1-0.1,0.2c0.2-0.1,0.4-0.2,0.4-0.2c0,0.3-0.3,0.4-0.4,0.7
		c-0.2,0-0.3,0-0.3-0.1v0c-0.1,0.1-0.3,0.2-0.3,0.2c-0.1-0.2-0.2-0.3-0.3-0.4c-0.1,0-0.1,0.1-0.1,0.1c0,0.1,0,0.1,0.2,0.2
		c-0.1,0-0.3,0.1-0.4,0.2c-0.3,0-0.3-0.4-0.3-0.7c0-0.2,0-0.4,0-0.5c-0.1,0-0.1,0.1-0.2,0.1c0,0-0.1,0-0.1-0.1C9,22.6,9,22.8,9,22.9
		c0,0.3,0.1,0.9,0.3,0.9c0,0,0,0,0.1,0C9.4,24,9.2,24,9,24c-0.2,0-0.5-0.1-0.5-0.3c0,0,0.1,0,0.1,0c0.1,0,0.2-0.1,0.3-0.2
		c-0.2-0.6-0.6-0.7-0.8-0.7h0c-0.4,0,0.1,0.6-0.7,0.6c0-0.3,0.1-0.5,0.3-0.6c-0.1,0-0.1-0.1-0.2-0.1c-0.2,0-0.1,0.3-0.4,0.3
		c0-1-1.4-0.6-1.4-1.1c0,0,0.7-0.5,0.7-0.8c0-0.1-0.1-0.1-0.3-0.1c0,0.3,0,0.4-0.2,0.4c-0.1,0-0.2-0.1-0.4-0.2L6,20.8
		c0,0-0.3-0.1-0.4-0.1c0.2-0.1,0.3-0.3,0.4-0.4C6,20.1,5.9,20,5.8,20c0,0-0.1,0-0.2,0.1c0-0.2,1-0.1,1.6-0.3c-0.1,0-0.1-0.1-0.1-0.1
		c0-0.1,0.2-0.1,0.2-0.1c0.3,0.2,0.7,0.6,0.7,0.8c0,0.1-0.1,0.2-0.3,0.3c0.1,0,0.5,0,0.5,0.1c0-0.1,0-0.1,0-0.1c0,0,0.1,0,0.3-0.2
		c0.1,0.3,0.4,0.7,0.4,1C9,21.1,8.9,21.1,9.1,21v0.3c0.1-0.1,0.2-0.1,0.2-0.1c0,0,0,0,0-0.1c0,0,0-0.1,0-0.2
		c0.3,0.2,0.5,0.4,0.7,0.7v-0.2c0-0.1,0-0.2,0.1-0.3c0.5,0.4,0.6,0.5,0.6,0.6s-0.3,0.1-0.3,0.5c0,0,0,0.1,0.1,0.1
		c0.1,0,0.5-0.2,0.6-0.3c0,0,0,0,0-0.1s0,0,0.1-0.1c0-0.1,0-0.1,0-0.1c0-0.1,0.1-0.1,0.1-0.5c0.1,0.1,0.3,0.5,0.6,0.7v0
		c0.1,0.1,0.3,0.3,0.3,0.3c0,0,0.1,0,0.1-0.1c0-0.1,0-0.3-0.1-0.5c0.1,0,0.1,0,0.2,0c0.5,0-0.1-0.6,0.6-0.6
		c-0.2,0.1-0.3,0.4-0.3,0.7c0,0.1,0,0.1,0,0.2c0,0,0.1-0.1,0.3-0.3c0,0.1,0,0.1,0,0.3c0.1,0,0.5-0.3,0.5-0.5h-0.1
		c-0.1,0-0.2,0-0.3,0.1c0.1-0.1,0.3-0.3,0.5-0.3c0,0.5,0,0.7-0.1,0.9c0.1,0.1,0.1,0.1,0.3,0.1c0.1,0,0.2-0.1,0.3-0.2
		c0,0.3-0.2,0.4-0.4,0.4c-0.1,0-0.3,0-0.4,0v0.1c0,0.1,0,0.1,0.1,0.1c0.1,0,0.1,0,0.3,0c-0.1,0.1-0.1,0.1-0.2,0.1
		c-0.1,0-0.1-0.1-0.1-0.1c-0.3,0.1-0.3,0.2-0.3,0.3c0,0,0.2,0,0.3,0.2c-0.1,0-0.1,0-0.3,0c-0.2,0-0.5,0.1-0.7,0.3h0
		c0.1,0,0.2,0,0.3,0c0.1,0,0.2,0,0.2,0.2C12.6,23.5,12.4,23.7,12.3,23.8z M6.5,17.8l0.1,0.1C6.5,17.8,6.5,17.8,6.5,17.8z M6.7,19.2
		c0.1,0,0.3,0.1,0.4,0.3c-0.1,0-0.3,0-0.6,0L6.7,19.2z M7.9,19.8C7.9,19.6,8,19.6,8,19.6C8,19.7,7.9,19.8,7.9,19.8z M14.5,22.7
		c-0.2,0-0.3-0.3-0.3-0.5v-0.1c0.2,0.1,0.3,0.1,0.3,0.1c0,0,0,0.1,0,0.2C14.4,22.5,14.5,22.6,14.5,22.7z M13.8,21.7
		c0-0.1,0-0.2,0.1-0.2c0.1,0,0.3,0.3,0.3,0.4C14.1,21.9,14,21.8,13.8,21.7z M13.8,22.6c0,0-0.2-0.1-0.2-0.1
		C13.8,22.6,13.8,22.6,13.8,22.6z M13.1,23.6L13.1,23.6c0.1,0.2,0,0.2-0.1,0.2s-0.3,0-0.3,0C12.6,23.6,13,23.6,13.1,23.6z
		 M12.9,26.8c0,0,0,0.1-0.1,0.1c0,0,0,0,0,0l0-0.1c0,0,0-0.1,0-0.1c0,0,0,0,0.1,0l0,0L12.9,26.8z M12.8,32.2
		C12.8,32.2,12.8,32.2,12.8,32.2C12.8,32.2,12.8,32.2,12.8,32.2l-0.1,0c0,0-0.1,0-0.1-0.1c0,0,0-0.1,0.1-0.1c0,0,0,0,0,0
		c0,0,0,0,0,0l0.1-0.1C12.8,32,12.9,32,12.8,32.2L12.8,32.2z M13,29.9L13,29.9c-0.1-0.1,0-0.2,0-0.2c0,0,0.1,0,0.1,0l0,0.1
		C13.1,30,13.1,30,13,29.9C13,30,13,29.9,13,29.9C13,29.9,13,29.9,13,29.9z M13.1,30.7C13.1,30.7,13.1,30.7,13.1,30.7L13.1,30.7
		c-0.1-0.1,0-0.2,0-0.2c0,0,0,0,0,0l0.1-0.1c0.2,0.1,0.1,0.2,0.1,0.3l-0.1,0C13.1,30.7,13.1,30.7,13.1,30.7z M13.5,35.4
		c-0.1,0-0.2,0-0.3-0.1s0-0.2,0-0.4c0.1,0,0.2,0,0.3,0.1C13.5,35.1,13.5,35.2,13.5,35.4z M13.4,24.5c0-0.1,0-0.1,0.1-0.1
		C13.5,24.4,13.4,24.4,13.4,24.5z M13.5,24.1c0-0.2,0.1-0.2,0.1-0.2c0,0,0,0,0,0C13.6,24,13.5,24.1,13.5,24.1z M13.9,31.7L13.9,31.7
		l-0.1-0.1v-0.1l0.1-0.1h0.1l0.1,0.1C14,31.6,13.9,31.7,13.9,31.7L13.9,31.7z M13.9,28.9L13.9,28.9c0.1,0,0.2,0.1,0.2,0.1l0,0.1
		c0,0,0,0-0.1,0c0,0-0.1,0-0.1-0.1C13.9,29,13.9,28.9,13.9,28.9z M14,34.9c-0.1-0.1-0.1-0.2,0.1-0.4l0.1,0.6L14,34.9z M14,34.1
		c0.2,0,0.4,0.1,0.6,0.3C14.4,34.5,14.2,34.4,14,34.1z M14.2,28c0-0.1,0.1-0.1,0.1-0.1c0,0,0.1,0,0.1,0c0,0,0,0.1,0,0.1l0,0
		c0,0,0,0-0.1,0C14.3,28.1,14.2,28.1,14.2,28C14.2,28,14.2,28,14.2,28L14.2,28z M15.6,33.6c0.1,0.1,0.1,0.2-0.1,0.4
		c-0.1-0.1-0.2-0.2-0.3-0.1c0,0,0,0.1-0.1,0.3c-0.2-0.3-0.2-0.4-0.1-0.6C15.2,33.4,15.5,33.4,15.6,33.6z M14.6,23.8
		c-0.2,0-0.4-0.2-0.5-0.3c0,0.3-0.1,0.4-0.1,0.4c0,0-0.1-0.1-0.1-0.2c0,0.1,0,0.1,0,0.1c-0.1,0-0.5-0.4-0.5-0.7
		c0-0.1,0.1-0.2,0.2-0.2c0,0.2,0.1,0.2,0.4,0.4v-0.6c0,0-0.2,0.3-0.3,0.3c0,0,0,0,0-0.1c0-0.1,0.1-0.2,0.3-0.2
		c0.3,0,0.6,0.2,0.6,0.4c-0.3,0-0.4,0-0.4,0c0,0,0,0-0.1,0c0.2,0.2,0.3,0.3,0.4,0.3s0.3-0.1,0.6-0.1C15,23.7,14.8,23.8,14.6,23.8z
		 M15.1,22.2L15.1,22.2C15,22.3,15,22.4,15,22.5c0,0.1,0,0.2,0.1,0.4H15c-0.1,0-0.2,0-0.3,0c0,0-0.1,0-0.1,0
		c0.1-0.4,0.1-0.5,0.1-0.9c0.1,0.1,0.1,0.1,0.2,0.1c0.1,0,0.2-0.1,0.3-0.2L15.1,22.2z M15.6,31.3c0,0,0-0.1,0.1-0.3
		C15.7,31.2,15.7,31.3,15.6,31.3L15.6,31.3z M15.9,32.7C15.9,32.7,15.9,32.7,15.9,32.7L15.9,32.7c-0.1,0.1-0.2,0-0.2-0.1
		c0-0.1,0.1-0.1,0.2-0.1l0.1,0.1C15.9,32.6,15.9,32.6,15.9,32.7z M15.8,30.4c0.1-0.1,0.1-0.1,0.2,0c0.1,0.1,0.1,0.4,0,0.5
		c-0.1,0.1-0.1,0.1-0.2,0C15.8,30.8,15.8,30.7,15.8,30.4z M15.9,31.3c0.1-0.1,0.2-0.1,0.2-0.1C16,31.3,15.9,31.4,15.9,31.3z
		 M16.1,27.3L16.1,27.3C16,27.3,16,27.3,16.1,27.3L16.1,27.3l-0.2,0.1l-0.1-0.1c0,0,0,0,0,0l0,0v-0.1l0.1-0.1c0,0,0,0,0,0l0,0H16
		L16.1,27.3C16.1,27.2,16.1,27.2,16.1,27.3L16.1,27.3L16.1,27.3z M16.1,24.5L16.1,24.5l-0.2-0.1v-0.1l0.1-0.1c0.1,0,0.1,0,0.1,0
		C16.1,24.4,16.2,24.4,16.1,24.5L16.1,24.5z M16.3,23.8c0-0.1,0.2-0.1,0.3-0.1L16.3,23.8z M17.1,29.1L17.1,29.1
		C17,29.2,17,29.2,17.1,29.1c0,0.3-0.1,0.6-0.1,0.6l-0.2-0.6c0,0-0.2,0.7-0.2,0.7l0-0.7c0.2-0.3,0.3-0.3,0.3-0.2c0,0,0,0,0,0
		c0,0,0,0,0,0c0,0,0.1,0,0.1,0L17.1,29.1L17.1,29.1z M16.9,21.6c0.1-0.1,0.1-0.2,0.1-0.2C17,21.4,16.9,21.6,16.9,21.6z M17.1,29
		C17.1,29,17,28.9,17.1,29L17.1,29L17,28.8l0.1-0.1c0,0,0,0,0,0c0,0,0,0,0,0l0,0l0,0c0,0,0.1,0,0.1,0c0,0,0,0,0,0.1
		C17.2,28.9,17.1,29,17.1,29z M17.3,27.4c0,0-0.1,0-0.1,0l-0.1-0.1c0,0,0,0,0-0.1l0.1-0.1h0.1L17.3,27.4
		C17.3,27.4,17.3,27.4,17.3,27.4z M17.3,28.5c0.1,0,0.1,0,0.2,0.1c0.1,0.1,0.1,0.2,0.1,0.3c-0.1,0-0.1-0.1-0.2-0.2
		c0,0,0-0.1-0.1-0.1c0,0-0.1,0-0.1,0l-0.1-0.1c0,0,0,0,0-0.1L17.3,28.5L17.3,28.5L17.3,28.5z M17.7,30.2c-0.2,0.2-0.3,0.3-0.6,0
		c0.2-0.3,0.2-0.5,0.1-0.6c0-0.1-0.1-0.1-0.1-0.1c0.1-0.1,0.7,0.3,0.7,0.4C17.8,30,17.8,30.1,17.7,30.2z M18.1,27.1
		C18.1,27.1,18.1,27.1,18.1,27.1L18.1,27.1L18,26.9l0.1-0.1c0,0,0,0,0,0l0.1,0.1C18.2,27,18.2,27.1,18.1,27.1z M18.4,25.3
		C18.4,25.3,18.3,25.3,18.4,25.3c-0.1,0-0.1,0-0.1,0c0,0,0,0,0,0l-0.1-0.1v-0.1l0.1-0.1h0.1l0.1,0C18.4,25.2,18.4,25.2,18.4,25.3z
		 M18.5,27.6L18.5,27.6c-0.1,0.1-0.1,0.1-0.1,0.1l-0.1-0.1v-0.1l0.1-0.1C18.5,27.5,18.5,27.5,18.5,27.6z M18.1,28.4
		c0.2,0,0.2,0,0.3,0C18.4,28.5,18.2,28.5,18.1,28.4z M18.6,29c0,0.1-0.1,0.1-0.3,0.1c0-0.1,0-0.3,0.1-0.4c0.1-0.1,0.2-0.1,0.3,0
		C18.6,28.8,18.6,28.9,18.6,29z M18.7,28L18.7,28l-0.2,0.1L18.4,28v-0.1l0.1-0.1h0.1L18.7,28L18.7,28z M18.8,24.1
		c-0.1,0-0.2-0.1-0.2-0.2l0.1-0.1c0.1,0,0.2,0.1,0.2,0.2L18.8,24.1C18.8,24.1,18.8,24.1,18.8,24.1z M19.1,27.1c0,0-0.1,0.1-0.1,0.1
		c0,0-0.1,0-0.1,0l0-0.1c0-0.1,0.1-0.2,0.3-0.1l0.1,0.1C19.2,27,19.2,27,19.1,27.1z M18.9,24.1C18.9,24.1,18.9,24.1,18.9,24.1L19,24
		c0,0,0.1,0,0.1,0c0,0,0,0,0,0l0.1,0.1c0,0,0,0.1,0,0.1c0,0,0,0,0,0.1L19,24.3C18.9,24.3,18.9,24.2,18.9,24.1z M19.5,26.8
		C19.5,26.8,19.5,26.8,19.5,26.8L19.5,26.8c0,0.1-0.1,0.1-0.1,0c0,0,0-0.1,0-0.1v0c0-0.1,0-0.1,0.1-0.1l0,0.1c0,0,0,0,0,0
		C19.5,26.8,19.5,26.8,19.5,26.8z M19.9,24.3C19.9,24.3,19.9,24.3,19.9,24.3l-0.1-0.1v-0.1l0,0c0,0,0,0,0,0l-0.1-0.1V24l0.1-0.1
		c0,0,0,0,0,0c0,0,0.1,0,0.2,0l0,0.1c0,0,0,0,0,0.1c0,0,0,0,0,0c0,0,0,0,0,0l0.1,0.1C20.1,24.3,20.1,24.3,19.9,24.3z M20,8
		c0-0.1,0.1-0.2,0.2-0.2c0.1,0,0.3,0.1,0.4,0.2c-0.1,0.1-0.1,0.3-0.1,0.3c0,0,0,0,0-0.1C20.4,8.1,20.3,8,20.1,8L20,8z M20.2,6
		c0.1,0,0.1-0.1,0.1-0.1V5.8c0-0.1,0-0.1,0.3-0.1c0,0.1,0,0.2,0,0.3c0,0,0,0.1-0.1,0.1C20.5,6.1,20.4,6,20.2,6z M20.3,8.9L20.4,9
		C20.3,9,20.3,8.9,20.3,8.9z M20.9,24.1c-0.1,0.2-0.1,0.3,0,0.4l0,0.1c-0.2,0.1-0.3,0.1-0.4,0L20.9,24.1z M20.8,22.7
		c-0.1,0.1-0.2,0.1-0.4-0.2l0.5-0.1C20.9,22.6,20.8,22.7,20.8,22.7z M20.7,8.9c0-0.2,0.1-0.3,0.1-0.5v0.1c0,0.1-0.1,0.6-0.1,0.6
		S20.7,9,20.7,8.9z M21,11.3c0,0.1-0.1,0.2-0.1,0.2C20.9,11.5,20.9,11.5,21,11.3z M20.6,3.1C20.7,3.1,20.7,3,20.7,3
		c0.2,0.2,0.2,0.5,0,0.7c-0.2,0.1-0.4,0.1-0.5,0c0,0-0.1-0.1-0.1-0.2C20.2,3.5,20.4,3.3,20.6,3.1z M20.1,3c0,0,0,0.1-0.1,0.3
		C20.1,3.1,20.1,3,20.1,3z M20.1,5.5c0,0,0,0-0.1,0.1C20,5.5,20.1,5.5,20.1,5.5z M20.1,6.1c-0.1,0.3-0.1,0.5-0.1,0.5c0,0,0,0,0-0.1
		C19.9,6.4,20,6.1,20.1,6.1z M19.8,5.8c-0.1,0-0.2,0-0.3,0v0C19.8,5.7,19.9,5.8,19.8,5.8L19.8,5.8z M19.8,5c-0.1,0-0.3,0-0.3-0.1
		L19.8,5z M19.3,2.1c0.1,0.1,0.1,0.2,0,0.2L19.3,2.1z M19.4,5.3C19.4,5.3,19.4,5.3,19.4,5.3c0.1,0.1,0,0.2-0.1,0.2
		c0,0-0.1,0-0.1-0.1L19.4,5.3z M18.6,4.4C18.6,4.4,18.6,4.4,18.6,4.4c-0.1,0-0.1,0-0.1-0.1C18.6,4.3,18.6,4.3,18.6,4.4z M18.1,3.6
		L18.1,3.6c0,0.1,0,0.2,0,0.2C18.1,3.7,18.1,3.7,18.1,3.6z M17.9,4.4c0,0,0.1,0,0.1,0c0,0,0.1,0.1,0.1,0.4c-0.1-0.1-0.1-0.1-0.2-0.1
		l-0.1,0.3c0.3-0.1,0.7-0.2,1-0.3c0,0.1-0.1,0.3-0.1,0.3c0,0,0,0.1,0.3,0.1c-0.1,0.2-0.8,0.3-0.9,0.4c-0.1,0.1-0.4,0.1-0.5,0.5
		c-0.6-0.3-0.2-0.6-1.1-0.6c0-0.2,0.3-0.8,0.4-1c0.1,0.1,0.1,0.1,0.1,0.1c0,0.1-0.3,0.3-0.3,0.4c0.1,0,0.2,0,0.2,0l-0.1,0.2h0.3
		L17,5.3c0,0,0.4,0,0.5,0.1c0,0,0-0.1,0-0.2c0-0.3,0.2-0.8,0.2-0.9C17.8,4.3,17.9,4.4,17.9,4.4z M18.9,5.9c0,0-0.1,0.1-0.2,0.1h0
		C18.8,5.9,18.8,5.8,18.9,5.9C18.9,5.8,18.9,5.8,18.9,5.9z M18.2,5.7c0,0-0.1,0.4-0.5,0.6C17.8,6,17.9,5.8,18.2,5.7z M17.4,6.1
		C17.4,6.1,17.4,6.1,17.4,6.1c0.1,0.1,0.1,0.1,0,0.1C17.4,6.2,17.4,6.2,17.4,6.1L17,6.2C17,6.2,17.2,6.1,17.4,6.1z M16.9,5.9
		c0,0-0.2-0.2-0.2-0.3c0,0,0-0.1,0.2-0.1C17,5.6,17,5.7,17,5.7C17,5.8,17,5.9,16.9,5.9z M15.7,4.5c0.1-0.2,0.3-0.3,0.5-0.3h0.1
		c-0.1,0-0.1,0.1-0.1,0.1c0,0.1,0.2,0.1,0.6,0.1l-0.3,0.3c0,0,0,0,0,0v0.1C16.3,4.7,16,4.6,15.7,4.5z M16.2,5.2c0,0.1,0,0.1-0.1,0.1
		c-0.1,0-0.2-0.1-0.3-0.1c0-0.3,0.1-0.4,0.1-0.4C16,4.7,16.2,4.9,16.2,5.2z M16.6,5.6c-0.1,0-0.4,0-0.4-0.2L16.6,5.6z M17.3,4.7V4.2
		c0.1,0.1,0.2,0.1,0.2,0.1C17.4,4.5,17.3,4.5,17.3,4.7z M17.6,3c0,0.1,0,0.1-0.1,0.1c0,0-0.1,0-0.1-0.1C17.4,3,17.5,3,17.6,3z
		 M16.2,2.7c0.1,0.3,0.5,0.7,0.5,1.2c0.4-0.3,0.4-0.3,0.4-0.3c0,0,0.1,0,0.4,0c-0.1,0.1-0.7,0.5-0.7,0.7c-0.3,0-1.2-0.1-1.2-0.3
		c0,0,0,0,0.1-0.1c-0.1,0-0.1-0.1-0.1-0.2C15.6,3.3,16.2,2.8,16.2,2.7z M15.5,4.7c0,0-0.1,0.2-0.2,0.2C15.4,4.8,15.5,4.7,15.5,4.7z
		 M15.5,5.1l-0.3,0.2C15.3,5.2,15.4,5.1,15.5,5.1z M15.3,4.2c0,0.1-0.1,0.2-0.1,0.2c0,0,0,0,0,0C15.1,4.3,15.1,4.3,15.3,4.2
		c-0.2,0.2-0.3,0.3-0.4,0.3c-0.1,0-0.1,0-0.2-0.1c0-0.3,0.2-0.4,0.4-0.4c0.1,0,0.2,0,0.3,0.1L15.3,4.2z M15,2.9c0,0,0.1,0,0.2,0.1
		c-0.1,0.1-0.1,0.1-0.2,0.1c-0.1,0-0.1,0-0.2-0.1C14.8,3,14.8,2.9,15,2.9z M14.8,3.2c0,0,0.1,0,0.1,0.2l-0.2-0.1
		C14.8,3.3,14.8,3.2,14.8,3.2z M14.4,2.9c-0.1,0.1-0.2,0.2-0.3,0.2c-0.1,0-0.1,0-0.2-0.1c0.3,0,0.3-0.1,0.4-0.1
		C14.4,2.8,14.4,2.8,14.4,2.9z M14.3,2.4l-0.2,0.3C14.1,2.6,14.2,2.4,14.3,2.4z M11.9,2.4C11.9,2.4,11.9,2.4,11.9,2.4
		c-0.1,0-0.2,0-0.2,0C11.9,2.3,11.9,2.4,11.9,2.4z M11.5,2.4c-0.1,0-0.3,0.1-0.4,0.1c-0.1,0-0.1,0-0.2-0.1
		C11.1,2.4,11.3,2.4,11.5,2.4z M11.1,2.8C11,2.9,11,2.9,11,3C11,2.9,11,2.9,11.1,2.8l-0.2-0.1C11,2.6,11,2.7,11.1,2.8z M11.2,3
		c0,0.1-0.1,0.2-0.1,0.2C11.1,3.2,11.1,3.1,11.2,3z M10.8,3.3c0.2,0,0.5,0.3,0.6,0.3c0-0.3,0-0.4,0.4-0.4c0-0.3,0.6-1.3,1.2-1.3
		c0.4,0.4-0.3,0.5,1.1,0.5L13.3,3c-0.1,0-0.1-0.1-0.1-0.2c0,0,0,0,0-0.1C13.1,2.8,13,2.9,13,3c0,0.3,0.3,0.6,0.6,0.6
		c0,0-0.4,0.7-0.4,0.8h0c0.3-0.3,0.3-0.4,0.6-0.5c-0.1-0.1-0.1-0.3-0.1-0.4c0-0.3,0.3-0.3,0.9-0.3c0,0,0-0.4,0.1-0.5
		c0,0.4,0,0.5,0,0.6c0,0-0.1,0-0.1,0c-0.1,0-0.2,0.1-0.3,0.1c0,0,0.5,0.2,0.5,0.3c-0.4,0-1.1,0.6-1.1,1.1c0-0.1-0.1-0.1-0.1-0.2v0
		l-0.2,0.3c0,0.1,0,0.1-0.1,0.1c-0.1,0-0.4-0.2-0.5-0.3c0,0,0,0.1,0,0.1c0,0.1,0,0.1-0.1,0.1h-0.1c0.1-0.2,0.2-0.4,0.4-0.6
		c-0.1-0.1-0.1-0.1-0.2-0.1c-0.1,0-0.1,0-0.2,0.1C12.5,4.1,12.4,4,12.1,4c0,0.3,0.1,0.3,0.2,0.3c0,0,0.1,0,0.2,0
		c-0.2,0.1-0.5,0.4-0.7,0.4C11.9,4.5,12,4.4,12,4.3s-0.1-0.2-0.3-0.2c-0.1,0.3,0.1,0.6-0.6,0.6c0.1-0.1,0.2-0.3,0.2-0.3
		c0-0.1,0-0.1-0.1-0.2c-0.2,0.2-0.2,0.3-0.3,0.3c0,0-0.1,0-0.3,0c0,0,0,0,0-0.1s-0.1-0.1-0.1-0.1c0.1,0,0.3,0,0.4,0h0.1c0,0,0,0,0,0
		c0.1,0,0.1-0.1,0.1-0.2c0-0.2-0.2-0.5-0.4-0.5c0,0-0.1,0-0.1,0C10.7,3.3,10.7,3.3,10.8,3.3z M14.1,5.2C14,5.1,14,5.1,14,5.1
		L14.1,5.2z M12.1,5.1L12.1,5.1C12.1,5,12.1,5,12.1,5.1L11.9,5c0,0,0.1-0.1,0.1-0.1l-0.1-0.1c0.1,0.1,0.2,0.1,0.3,0.1
		c0.1,0,0.3-0.1,0.3-0.2l0.1,0.5h-0.1l-0.3,0.1c0,0,0.1-0.1,0.2-0.1C12.2,5.2,12.1,5.1,12.1,5.1z M11.7,5.2c0,0.1-0.1,0.1-0.2,0.2
		l0.1-0.5C11.7,5,11.7,5.1,11.7,5.2z M11.4,4.8c0,0,0,0.1-0.1,0.1L11.4,4.8z M11.1,4.6c0,0.2-0.1,0.3-0.1,0.3s0,0,0-0.1
		C10.9,4.8,11,4.7,11.1,4.6z M10.6,2.6c0,0.2-0.1,0.2-0.1,0.2C10.5,2.7,10.5,2.6,10.6,2.6z M10.2,2.9c0,0-0.2-0.1-0.2-0.1L10.2,2.9z
		 M10.2,3.3c0.1,0,0.2,0.1,0.3,0.3c-0.1,0-0.1,0-0.2,0c-0.1,0-0.3,0-0.4-0.1C10,3.4,10.1,3.3,10.2,3.3z M10.1,4.5l0,0.1h0
		C10,4.6,10.1,4.6,10.1,4.5z M9.5,4.7L9.5,4.7C9.5,4.8,9.5,5,9.4,5C9.5,4.8,9.5,4.7,9.5,4.7z M8.5,5.5c0,0-0.1-0.1-0.1-0.2L8.5,5.5z
		 M8.1,3.6c0,0-0.1,0.1-0.1,0.2C8.1,3.6,8.1,3.6,8.1,3.6z M7.9,5.4L7.7,5.3C7.7,5.3,7.9,5.4,7.9,5.4z M7.6,6.7L7.5,6.5
		C7.5,6.5,7.6,6.7,7.6,6.7z M6.9,6.1C6.9,6.1,6.9,6.1,6.9,6.1c0,0.1,0,0.2-0.1,0.2h0C6.8,6.1,6.9,6.1,6.9,6.1z M6.9,6.9
		C7,6.9,7,7,7,7c0,0.1-0.1,0.1-0.2,0.3c0,0,0,0,0,0c0,0-0.1-0.1-0.1-0.2C6.7,7,6.8,6.9,6.9,6.9z M6.7,6.6c0,0.2,0,0.2,0,0.2
		c0,0,0,0,0,0C6.6,6.7,6.7,6.6,6.7,6.6z M13,6.2c3.8,0,6.8,3.1,6.8,6.9c0,3.8-3,6.9-6.8,6.9s-6.7-3-6.7-6.9C6.2,9.3,9.2,6.2,13,6.2z
		 M5.7,7.7c-0.1,0-0.3-0.2-0.3-0.2l0.3,0c0,0-0.1-0.1-0.1-0.1c0,0,0.1-0.1,0.3-0.1C5.8,7.6,5.8,7.7,5.7,7.7z M5.4,6.5
		c0.1,0.1,0.1,0.1,0.1,0.2C5.5,6.6,5.4,6.6,5.4,6.5z M5.5,5.3c0.1,0,0.2,0,0.3,0.1H5.2C5.3,5.3,5.4,5.3,5.5,5.3z M5.1,6.3
		c0,0,0.1,0.1,0.1,0.3C5.1,6.5,5.1,6.4,5.1,6.3L5.1,6.3z M5.1,15.5L5.1,15.5C5.2,15.6,5.1,15.6,5.1,15.5C5.1,15.5,5.1,15.5,5.1,15.5
		z M5,6.7c0,0,0,0.2-0.1,0.2C5,6.7,5,6.7,5,6.7z M5,7.3L4.8,7.2C4.8,7.2,5,7.2,5,7.3z M4.8,7.4l0,0.1h0C4.8,7.5,4.8,7.5,4.8,7.4z
		 M4.7,6.8v0.1c-0.2,0-0.3-0.3-0.3-0.4C4.6,6.6,4.7,6.7,4.7,6.8z M4.5,6c0,0.1-0.1,0.2-0.2,0.3L4.5,6z M4.1,6.6c0,0,0-0.1,0.1-0.1
		C4.2,6.6,4.1,6.6,4.1,6.6L4.1,6.6z M4.4,13.6l-0.3,0.2C4.2,13.7,4.2,13.6,4.4,13.6z M3.7,9c0.1,0,0.2,0.2,0.2,0.3
		c0,0.1-0.1,0.1-0.1,0.1c0,0,0-0.2-0.2-0.2C3.6,9,3.7,9,3.7,9z M3.5,8.3c0,0.1-0.1,0.2-0.1,0.2s0,0,0-0.1S3.3,8.3,3.5,8.3z M3.5,9.2
		c-0.1,0-0.1,0.1-0.2,0.2C3.3,9.3,3.4,9.2,3.5,9.2z M3.1,13.8l0.2,0.1C3.1,13.9,3.1,13.9,3.1,13.8z M3,7.6c0.1,0,0.2,0.1,0.2,0.3
		c-0.2,0-0.4,0-0.5-0.1C2.8,7.6,2.9,7.6,3,7.6z M2.6,12.4c0,0,0,0.1-0.1,0.1L2.6,12.4z M1.6,16.5L1.6,16.5l-0.2-0.1l0,0
		C1.5,16.4,1.6,16.5,1.6,16.5z M1.5,14.2c0,0,0,0.1-0.1,0.1C1.4,14.2,1.5,14.2,1.5,14.2L1.5,14.2z M1.5,9.8c-0.1,0-0.1-0.1-0.1-0.1
		C1.4,9.7,1.4,9.7,1.5,9.8z M0.7,10.6c0-0.1,0.1-0.3,0.1-0.4l0,0.5c0,0.2-0.1,0.3-0.1,0.3C0.8,11,0.7,10.8,0.7,10.6z M0.5,12L0.5,12
		c0,0,0,0.1-0.1,0.1L0.5,12z M0.5,12.3l-0.2,0l0.4-0.1C0.7,12.2,0.7,12.3,0.5,12.3z M0.5,11.7c0-0.1,0.2-0.3,0.4-0.3
		c0.1,0,0.1,0,0.1,0.2L0.5,11.7z M0.8,11.3L1,11C1,11.1,1,11.3,0.8,11.3z M0.8,9.4L0.8,9.4c0,0,0-0.1,0.2-0.1C1,9.3,0.9,9.4,0.8,9.4
		z M0.9,16.9c-0.1,0-0.1-0.1-0.2-0.2c0.1-0.1,0.2-0.2,0.3-0.2c0.1,0,0.1,0,0.1,0.2C1.1,16.8,1,16.9,0.9,16.9z M1.3,8.5
		C1.1,8.6,1,8.6,1,8.6C1,8.6,1.1,8.4,1.3,8.5C1.3,8.4,1.3,8.4,1.3,8.5z"/>
	<path class="st0" d="M15.2,4.3C15.2,4.2,15.2,4.2,15.2,4.3l0.1-0.1C15.2,4.2,15.2,4.2,15.2,4.3z"/>
	<path class="st0" d="M22.1,23.5L22.1,23.5l0.1-0.1l0,0.1c0,0,0,0,0-0.1l-0.2-0.1C22.1,23.4,22.1,23.4,22.1,23.5
		C22.1,23.5,22.1,23.5,22.1,23.5C22.1,23.5,22.1,23.5,22.1,23.5z"/>
	<path class="st0" d="M17.9,5.3l-0.2-0.2C17.7,5.2,17.9,5.3,17.9,5.3z"/>
	<path class="st0" d="M16.3,3.3c-0.1,0-0.1,0-0.2,0l-0.3,0.4c0.2-0.1,0.7-0.2,0.7-0.3C16.4,3.3,16.4,3.3,16.3,3.3z"/>
	<path class="st0" d="M11.1,4.1C11.1,4.1,11.1,4.2,11.1,4.1C11.1,4.2,11.1,4.1,11.1,4.1z"/>
	<polygon class="st0" points="7.2,27.8 7.3,27.8 7.2,27.8 	"/>
	<path class="st0" d="M16,33.2c0,0.1,0.1,0.1,0.2,0.1c0,0,0,0,0,0c0-0.1-0.1-0.2-0.1-0.3l0,0C16,33.1,16,33.1,16,33.2z"/>
	<path class="st0" d="M12,3.8c0,0-0.1,0-0.1,0.1C12,3.9,12.1,3.8,12,3.8C12.1,3.8,12,3.8,12,3.8z"/>
	<path class="st0" d="M12.3,3.3c0,0.1-0.1,0.2-0.1,0.3c0,0.2,0.1,0.3,0.1,0.3c0,0,0.1,0,0.1-0.1c-0.1-0.2-0.1-0.3-0.1-0.3
		c0,0,0-0.1,0.1-0.4h-0.1c-0.1,0-0.4,0-0.4,0.1C12.3,3.2,12.3,3.2,12.3,3.3z"/>
	<path class="st0" d="M13.4,38.2c0.1-0.2,0.1-0.3,0.1-0.3C13.4,37.8,13.1,38,13,38L13.4,38.2z"/>
	<path class="st0" d="M13.4,37.7l-0.2-0.5l-0.5,0.2C13,37.8,13,37.1,13.4,37.7z"/>
	<path class="st0" d="M13.4,36.6l-0.6,0.1l0.4,0.3C13.3,36.9,13.3,36.8,13.4,36.6z"/>
	<path class="st0" d="M13.4,36.8c-0.1,0.1-0.1,0.2-0.1,0.2c0,0,0.1,0,0.2-0.2l0,0C13.5,36.7,13.5,36.7,13.4,36.8z"/>
	<path class="st0" d="M11.7,36.7c0,0.1,0.1,0.2,0.1,0.3C11.8,36.9,11.8,36.8,11.7,36.7C11.8,36.7,11.7,36.7,11.7,36.7z"/>
	<path class="st0" d="M0.2,15.2c0,0.1,0,0.1,0,0.2l0.2,0C0.3,15.3,0.2,15.2,0.2,15.2z"/>
	<path class="st0" d="M13,38.4L12.9,39c0,0.1,0.1,0.1,0.1,0.2c0.1-0.2,0.2-0.4,0.3-0.5C13.1,38.5,13,38.4,13,38.4z"/>
	<path class="st0" d="M0.1,14.5c0,0,0,0.1,0,0.1c0,0,0,0,0,0C0.1,14.6,0.1,14.5,0.1,14.5z"/>
	<path class="st0" d="M15.1,35c0.1,0,0.1,0,0.1-0.1C15.2,35,15.2,35,15.1,35z"/>
	<path class="st0" d="M13.7,37.3l0.1,0C13.8,37.3,13.8,37.3,13.7,37.3z"/>
	<path class="st0" d="M13.5,37.2L13.5,37.2c-0.1,0.1-0.1,0.3-0.1,0.5C13.5,37.4,13.7,37.4,13.5,37.2z"/>
</g>
</svg>
