<?xml version="1.0" encoding="utf-8"?>
<!-- Generator: Adobe Illustrator 22.1.0, SVG Export Plug-In . SVG Version: 6.00 Build 0)  -->
<svg version="1.1" id="Layer_1" xmlns="http://www.w3.org/2000/svg" xmlns:xlink="http://www.w3.org/1999/xlink" x="0px" y="0px"
	 viewBox="0 0 28 38.2" style="enable-background:new 0 0 28 38.2;" xml:space="preserve">
<style type="text/css">
	.st0{fill:#FFFFFF;}
</style>
<g>
	<path class="st0" d="M5.9,6.2L5.9,6.2c-0.1,0,0,0.1,0.1,0.3C6,6.3,5.9,6.2,5.9,6.2z"/>
	<path class="st0" d="M4.4,5.8c0.1,0,0.3,0.1,0.4,0.1C4.7,5.9,4.5,5.8,4.4,5.8z"/>
	<path class="st0" d="M17,35.8c0.1-0.1,0.2-0.2,0.2-0.2l0,0C17,35.7,17,35.7,17,35.8z"/>
	<path class="st0" d="M3.4,8.2c-0.1,0-0.2-0.1-0.3,0C3.2,8.2,3.4,8.2,3.4,8.2z"/>
	<path class="st0" d="M3.1,8.4C2.9,8.6,2.9,8.8,2.9,9C3,8.8,3.1,8.6,3.1,8.4z"/>
	<path class="st0" d="M16.9,33.8c-0.1,0-0.2,0.1-0.2,0.1l0.1,0C16.8,33.9,16.9,33.9,16.9,33.8c0,0.1,0,0.2,0,0.3c0,0,0,0.1,0,0.1
		l0,0c0.1,0,0.2-0.3,0.1-0.4C17,33.8,16.9,33.8,16.9,33.8z"/>
	<path class="st0" d="M17.1,34.5c0.1,0.1,0.2,0.1,0.2,0.1C17.3,34.6,17.1,34.5,17.1,34.5z"/>
	<path class="st0" d="M16.4,34.5l-0.2,0.1C16.2,34.6,16.2,34.5,16.4,34.5z"/>
	<path class="st0" d="M21.1,35.4C21,35.5,21,35.7,21,35.8C21.1,35.6,21.1,35.5,21.1,35.4z"/>
	<path class="st0" d="M2.2,10.2L2.2,10.2c0,0-0.1,0-0.2,0C2.1,10.2,2.2,10.2,2.2,10.2z"/>
	<path class="st0" d="M4.4,8.8L4.4,8.8c0.1-0.1,0-0.6,0-0.6C4.2,8.4,4,8.6,3.9,8.8C4.3,8.7,4.1,9,4.4,8.8z"/>
	<path class="st0" d="M3.5,10.3C3.5,10.3,3.5,10.3,3.5,10.3L3.5,10.3c0.1-0.1,0.1-0.1,0.1-0.1c0.1-0.1,0.1,0,0.1-0.1
		c0,0,0-0.1-0.1-0.4C3.6,9.9,3.5,10.1,3.5,10.3z"/>
	<path class="st0" d="M3.5,10.5c0,0.1,0,0.1,0,0.3C3.5,10.8,3.5,10.6,3.5,10.5L3.5,10.5z"/>
	<path class="st0" d="M3.6,11.2L3.6,11.2c0,0,0.1,0.1,0.1,0.1c0.1,0,0.2,0,0.3,0c0,0,0,0.1-0.1,0.2l-0.1,0.1C4,11.6,4,11.5,4.1,11.4
		c0.1-0.1,0.1-0.1,0-0.1C4.1,11.2,3.7,11.2,3.6,11.2z"/>
	<path class="st0" d="M4.2,10.1C4.3,10,4.3,9.9,4.4,9.8l-0.5,0.4C4.1,10.2,4.1,10.1,4.2,10.1z"/>
	<path class="st0" d="M5,6.6L4.5,7.1C4.3,7.2,4.2,7.2,4.2,7.3l0,0c0,0,0.1,0.1,0.4,0.2C4.7,7.2,4.8,6.9,5,6.6z"/>
	<path class="st0" d="M2.9,11.8l0.2-0.1C3,11.7,2.9,11.8,2.9,11.8z"/>
	<path class="st0" d="M4.2,8c0.1,0.2,0.5,0.3,1,0.2L5.1,8.1c-0.3-0.4-0.5-0.3-1-0.4C4.1,7.8,4.1,7.9,4.2,8z"/>
	<path class="st0" d="M4.8,8.3c0,0.1,0,0.2,0,0.2c0.1,0.1,0.2,0.1,0.4,0c0-0.1,0-0.1,0-0.2C5.1,8.3,5,8.3,4.8,8.3z"/>
	<path class="st0" d="M2.7,10C2.6,9.9,2.6,9.8,2.6,9.6c-0.1,0.2-0.1,0.4,0,0.5l0.1,0.1c0,0.2,0,0.3,0,0.3c0.1,0.1,0.1,0,0.2-0.1
		l0.2-0.2C3,10.2,2.8,10.1,2.7,10z"/>
	<path class="st0" d="M7.4,5.5c-0.2-0.3-0.4,0-0.7,0C6.9,5.6,7.2,5.6,7.4,5.5z"/>
	<path class="st0" d="M19.6,34.3c-0.2,0.3-0.3,0.7-0.2,0.8c0,0.1,0.1,0.1,0.2,0.2C19.7,34.8,19.8,34.7,19.6,34.3L19.6,34.3z"/>
	<path class="st0" d="M19.8,35.4L19.8,35.4c0.1,0,0.2-0.1,0.3-0.2l0.5-0.2c-0.3,0-0.6,0-0.8,0C19.8,35.2,19.8,35.4,19.8,35.4z"/>
	<path class="st0" d="M18.9,34.6c-0.3,0.1,0,0.1-0.2,0.4c0.2,0,0.4-0.1,0.6-0.1C19.3,34.9,18.9,34.6,18.9,34.6L18.9,34.6z"/>
	<path class="st0" d="M19.4,34.1c-0.1,0.1-0.2,0.2-0.1,0.3c0,0,0.1,0.1,0.1,0.1c0.1-0.1,0.1-0.2,0.1-0.3
		C19.4,34.2,19.4,34.2,19.4,34.1z"/>
	<path class="st0" d="M21.1,34.3c0.1,0.2,0.2,0.2,0.2,0.2l0,0C21.3,34.5,21.3,34.4,21.1,34.3z"/>
	<path class="st0" d="M27.4,31l-6.2-4.5c-0.6-0.5-1.5-0.4-2.1,0.1l-2.6,2.2c-1.3,0.8-2.6-0.4-3.2-1.2c-0.6-0.9-6.5-10-6.7-12
		c-0.1-2,0.7-2.3,1.8-2.7c0.6-0.2,1.6-0.6,2.4-1c0.4-0.2,0.8-0.6,0.9-1c0-0.1,0-0.2,0.1-0.3c0.1-0.2,0.1-0.4,0.1-0.6l-0.7-7.6
		c-0.1-0.7-0.5-1.3-1.2-1.5L7.8,0.1C7.4,0,7,0,6.5,0.1c-4,1.2-8.6,7.5-5.5,17c3.4,10.1,10.2,16.1,12.1,18.1c1.9,1.9,8,5.2,13.4,0.8
		c0.4-0.3,0.7-0.8,0.9-1.3c0.2-0.6,0.4-1.5,0.6-2.1C28.2,32,27.9,31.4,27.4,31z M11.5,10.1c0,0.1-0.1,0.1-0.1,0.2c0,0,0,0,0,0
		l-0.1,0c0,0-0.1,0-0.1-0.1c0-0.1,0-0.1,0.1-0.1c0,0,0,0,0,0l0.2-0.1C11.4,9.9,11.5,10,11.5,10.1z M11.3,9.2l0.2-0.1
		c0.1,0,0.1,0.1,0.1,0.2c0,0.1-0.1,0.2-0.1,0.2l-0.1,0l-0.1,0l-0.1-0.1C11.2,9.3,11.3,9.2,11.3,9.2z M10,10.6L10,10.6
		c0.1,0.3-0.1,0.3-0.1,0.3l-0.1,0c-0.1,0-0.1-0.1-0.1-0.2C9.7,10.6,9.9,10.5,10,10.6z M9.6,1.3C9.5,1.4,9.3,1.5,9.2,1.4L9.6,1.3z
		 M8.5,3.4c0.1-0.1,0.2-0.2,0.2-0.3l0.1-0.1C8.9,3.3,9,3.4,9,3.5c0.1,0.1,0.3,0.2,0.4,0.2l0,0l0.3,0.2c-0.1,0-0.3,0-0.4,0
		C9.2,3.9,9.2,4,9.2,4.1C8.9,3.8,8.8,3.7,8.5,3.4C8.4,3.4,8.5,3.4,8.5,3.4z M8.9,5.1c0,0-0.1,0-0.2-0.1c0-0.2,0-0.4,0.2-0.5
		C9,4.6,9,5.1,8.9,5.1z M8.7,4.3L8.7,4.3C8.5,4.1,8.3,3.8,8.5,3.6c0.1,0.1,0.1,0.2,0.1,0.2C8.7,4,8.8,4,8.8,4C8.8,4,8.8,4.1,8.7,4.3
		z M7.6,3.2c0-0.1,0-0.4,0.2-0.6c0.2-0.1,0.4-0.2,0.8,0C8.3,2.9,8.1,2.9,8,3C7.9,3.1,7.9,3.2,7.9,3.5c0,0,0.1,0,0.1,0
		c0,0,0-0.1,0.3-0.3C8.4,3.4,8.2,3.8,8,4C7.9,4.1,7.7,4.1,7.6,4C7.5,3.9,7.5,3.9,7.5,3.9c0.1-0.1,0.4,0.1,0.4,0L7.5,3.4
		C7.5,3.9,7.3,3.9,7.5,4.1c-0.1,0.1-0.2,0.1-0.3,0C7,3.9,6.9,3.3,7,3.2c0,0,0,0,0.1,0c0-0.2-0.1-0.3,0-0.3C7.2,2.8,7.3,2.9,7.6,3.2z
		 M7.9,4.5c0,0,0.1-0.2,0.1-0.2S8,4.3,7.9,4.5z M6.8,3.3C6.8,3.3,6.8,3.3,6.8,3.3c0,0.1-0.1,0.1-0.2-0.1C6.6,3.2,6.8,3.2,6.8,3.3z
		 M6.7,3.9L6.7,3.9C6.5,4,6.2,4.2,6.1,4.1c0.1-0.1,0.2-0.2,0.3-0.3C6.4,3.7,6.6,3.7,6.7,3.9z M6.4,2.9C6.3,3,6.3,3,6.2,2.9
		C6.3,2.9,6.4,2.9,6.4,2.9z M5.3,4.2c0,0,0.1,0.1,0,0.2C5.3,4.4,5.3,4.3,5.3,4.2L5.3,4.2z M5.6,5.1C5,5.4,4.5,5.3,3.9,4.9
		C4.4,4.9,5.4,4.8,5.6,5.1z M4.1,5.4l0-0.1l0.1-0.1l0,0c0.1,0,0.1,0.1,0.1,0.1l0.1,0.2c0,0-0.1,0.1-0.1,0.1L4.2,5.6l-0.1,0l0,0
		c-0.1,0-0.3,0-0.4-0.1L4.1,5.4z M3.6,5.7c0.1,0.1,0,0.2-0.1,0.3C3.3,5.9,3.3,5.8,3.4,5.7C3.4,5.7,3.5,5.7,3.6,5.7z M1.8,9.6
		C1.6,9.5,1.5,9.4,1.5,9.2l0.1-0.1c0.1,0,0.1,0,0.2,0c0,0,0,0,0.1,0L2,9.1l0.1,0l0,0.2c0,0,0,0,0,0c0,0,0,0,0,0.1l0,0.1
		c0,0.2-0.2,0.2-0.2,0.2L1.8,9.6C1.8,9.7,1.8,9.7,1.8,9.6C1.7,9.7,1.7,9.6,1.8,9.6z M1.6,9.1c0,0,0.2,0,0.2,0
		C1.8,9.1,1.8,9.1,1.6,9.1z M1.7,13c-0.1-0.1-0.1-0.2,0-0.2c0.1-0.1,0.2-0.1,0.2,0C1.9,12.7,1.9,12.8,1.7,13z M2.5,13
		c-0.2-0.2-0.2-0.3-0.2-0.3C2.5,12.6,3,12.9,3.2,13C2.9,13.2,2.8,13.2,2.5,13z M3.2,13.9l-0.1,0.4C3,14.1,3.1,13.9,3.2,13.9z
		 M3.4,14.8l0.2,0.1C3.5,14.8,3.4,14.8,3.4,14.8z M3.3,14.5c0,0,0.1,0,0.2,0L3.3,14.5z M3.1,16.2L3.1,16.2l0.2,0
		C3.2,16.3,3.1,16.3,3.1,16.2z M4.3,12.4L4,12.4c0.3-0.2,0.4-0.4,0.5-0.5C4.4,12.1,4.4,12.3,4.3,12.4z M4.4,11.8c0,0-0.1-0.1,0-0.2
		c-0.6,0.2-1.4,1.1-1.6,0.9c0.1,0,0.2,0,0.2-0.1c0.1-0.1,0.1-0.2,0-0.4c-0.2,0-0.4-0.1-0.7,0c0-0.1,0.2-0.3,0.2-0.4l-0.6,0
		c0-0.3,0.1-0.4,0.2-0.5c0.1-0.1,0.3,0,0.5,0.2c0.2-0.2,0.2-0.3,0.1-0.3c-0.2-0.2-1.2-0.1-1.2-0.1c-0.4-0.5,1.1-1.1,0.3-2
		c0.2-0.2,0.4,0.1,0.5-0.1c0,0,0.1-0.1,0.1-0.2C2.3,8.7,2.1,8.5,1.9,8.3c0.7-0.6,0.6,0.3,1,0l0,0C3,8.2,3.4,7.8,3.1,7.1
		C2.9,7,2.8,7,2.7,7.1c0,0-0.1,0.1-0.1,0.1c-0.1-0.2,0-0.5,0.2-0.6c0,0-0.1-0.1-0.1-0.1l-0.1,0c0,0-0.1-0.1-0.1-0.2
		c0-0.1,0.1-0.1,0.1-0.1c0,0,0,0,0,0c0,0,0,0,0,0c0,0,0,0,0,0l0.1-0.1C2.9,6.2,3,6.3,3,6.4c0,0,0,0,0,0c0.1,0,0.2,0,0.2,0.1
		c-0.1,0-0.1,0-0.1,0C3,6.7,3.3,7.3,3.6,7.6c0.1,0.1,0.2,0.3,0.3,0.2c0-0.1,0-0.1,0-0.1C4,7.6,4,7.6,4.1,7.6C4,7.5,3.9,7.3,3.7,7.1
		C3.4,6.8,3.2,6.5,3.4,6.3c0.2,0,0.3,0,0.5-0.1c-0.1,0.2-0.1,0.2,0,0.3c0,0,0.1,0.1,0.2,0c0-0.2,0-0.4,0-0.6c0,0,0.2,0,0.4,0l0,0
		c-0.1-0.1,0-0.2,0.1-0.3c0.3,0.1,0.6,0,0.8,0.3c0,0-0.3,0.1-0.5,0.1C4.9,5.9,5,6,5.1,6c0,0,0,0.1,0,0.2C5,6.1,4.9,6.1,4.9,6.1
		c0,0,0,0.1,0,0.2c0.3,0,0.6-0.1,0.8-0.3l0,0c0,0,0-0.1,0.1-0.1l0,0C5.5,5.7,5.4,5.6,5.1,5.4c0.3-0.2,0.5-0.2,0.6-0.2
		c0,0-0.1-0.1-0.2-0.5C5.6,4.6,5.8,4.6,6,4.6L5.8,4.4c0.2,0,0.5-0.1,0.7-0.1c0.1,0.1,0,0.2-0.1,0.3C6.3,4.7,6.1,4.7,6.1,4.8l0,0
		c0.3,0,0.6-0.1,0.8-0.2C6.9,4.5,7,4.4,7,4.4c0.1,0.2-0.1,0.3-0.1,0.4c0,0,0.1,0,0.5,0c0-0.1-0.1-0.2,0-0.2c0,0,0.1-0.1,0.2,0
		C7.5,4.6,7.4,4.6,7.4,4.7c0,0.1,0,0.1,0,0.2l0.1,0.1c0.1-0.1,0.2-0.3,0.4-0.4c0.2-0.2,0.4-0.3,0.7,0c-0.2,0-0.4,0-0.5,0.1
		C8,4.7,7.9,4.8,7.9,4.9c0.2,0,0.4,0.2,0.8,0.6C8.5,5.7,8.3,5.7,8.1,5.7c0.1,0,0.2,0,0.3-0.1l0.1-0.1c-0.1-0.1-0.7-0.1-0.8,0
		c0.1,0.1,0.1,0.2,0.2,0.2C7.5,5.6,7.4,5.6,7.3,5.6c0,0.1,0.1,0.2,0.1,0.2c0.2,0.3,0.6,0.4,0.8,0.4c-0.7,0.6-0.5-0.4-1,0
		c0,0-0.1,0.1-0.1,0.2C7.1,6.1,7,6,6.9,5.9C6.8,5.8,6.8,5.8,6.7,5.8C6.7,5.8,6.7,6,6.6,6.3l0,0c0,0.1,0,0.3,0,0.4c0,0,0,0,0,0
		c0,0,0,0,0,0l0,0.2l0,0c0,0.2,0,0.3,0,0.4C6.5,7,6.4,7.1,6.2,7c0,0-0.1-0.1-0.1-0.2c-0.1,0-0.1,0-0.1,0c0,0-0.1-0.1,0-0.1
		c-0.1,0-0.5,0.1-0.7,0.2c0,0,0,0.1,0,0.1C5.6,7.4,5.9,7.2,6,7.3c0.1,0.1,0,0.3-0.1,1c-0.1,0-0.2-0.1-0.3-0.2L5.4,7.9
		c0,0.4-0.1,0.8-0.1,1.2C5.2,9,5.2,9,5.1,8.9C5.1,8.9,5.1,8.8,5.1,8.8c0,0-0.1,0-0.2,0l0.2,0.3c-0.2,0-0.2,0-0.5-0.1
		C4.8,9.2,4.8,9.9,5,10.2c-0.3,0-0.4,0.1-0.4,0c0,0,0-0.1-0.1-0.2c0.1,0.2-0.3,0.4-0.3,0.5c0.2-0.1,0.4,0,0.4,0.1
		c0.2,0.2,0.1,0.7,0,1.2C4.6,11.8,4.4,11.9,4.4,11.8z M5.3,13.7l-0.1,0.2C5.2,13.9,5.2,13.8,5.3,13.7z M4.2,14.4L4.2,14.4
		C4.1,14.5,4.1,14.4,4.2,14.4c0-0.1,0.1-0.1,0.1-0.1C4.3,14.4,4.3,14.4,4.2,14.4z M4.9,11.1c0.1-0.1,0.2,0,0.3,0.1
		C5.2,11.2,5.1,11.2,4.9,11.1z M3.8,16.7c0.2,0,0.3,0.1,0.5,0C4.1,16.8,3.9,16.8,3.8,16.7z M4.4,14.9l0.3,0C4.6,15,4.5,15,4.4,14.9z
		 M5.9,10.8c-0.1-0.1-0.1-0.2-0.1-0.2c0,0,0,0,0,0l0.1-0.1c0.1,0,0.2,0,0.2,0.2L5.9,10.8C5.9,10.8,5.9,10.8,5.9,10.8L5.9,10.8z
		 M4.5,16.3c0.2,0,0.3,0,0.3,0.1c0.1,0.1,0.1,0.1,0,0.3c-0.1,0-0.2,0-0.2-0.1C4.5,16.5,4.6,16.4,4.5,16.3z M4.8,17.5
		c-0.1,0.1-0.2,0-0.4,0c-0.1-0.2-0.1-0.3-0.1-0.4c0.1-0.1,0.2,0,0.5,0C4.9,17.4,4.9,17.5,4.8,17.5z M4.9,16.9l0.3-0.2
		c0.1-0.1,0.1-0.1,0.2-0.1c0,0,0,0.2-0.1,0.6c-0.1,0-0.1-0.1-0.1-0.1c0,0,0-0.1,0-0.1C5.1,16.9,5,16.9,4.9,16.9z M5.1,18.1l-0.3-0.1
		C4.8,18,5,18,5.1,18.1z M4.6,19.5c0-0.2,0-0.4,0.1-0.4c0,0,0.1,0,0.1,0C4.7,19.1,4.7,19.2,4.6,19.5z M4.9,18.6
		C4.9,18.6,4.9,18.5,4.9,18.6c0-0.1,0.2-0.1,0.2-0.1C5.1,18.5,5,18.5,4.9,18.6z M5.7,16.8c0,0-0.1,0.1-0.1,0
		C5.7,16.8,5.7,16.7,5.7,16.8L5.7,16.8z M8.5,6.8c0,0.1-0.1,0.2-0.3,0.2l0,0L8.2,6.8l0.1-0.2l0.1-0.1l0.1,0L8.5,6.8L8.5,6.8z
		 M5.3,19.6l-0.1,0.3C5.2,19.8,5.2,19.7,5.3,19.6z M7.4,22.4l0.1-0.1l0.1,0l0.1,0.1c0,0.1,0,0.1-0.1,0.1c-0.1,0.1-0.1,0-0.2,0
		L7.4,22.4C7.4,22.4,7.4,22.4,7.4,22.4z M5.8,19.4c0.2,0.3,0.2,0.4,0.1,0.5L5.8,20C5.7,19.8,5.7,19.6,5.8,19.4z M6.1,19.1l0.4,0
		C6.4,19.1,6.2,19.1,6.1,19.1z M5.8,21.9l-0.2,0.1c0,0,0,0,0,0l-0.1,0l-0.1,0l-0.1-0.2c0,0,0,0,0,0l0-0.1l0-0.1l0.2-0.1c0,0,0,0,0,0
		l0.1,0l0.1,0l0.1,0.2c0,0,0,0,0,0L5.8,21.9L5.8,21.9z M5.7,21.3c0.1,0,0.2,0,0.2,0L5.7,21.3z M5.8,20.7c0.1-0.1,0.3,0.1,0.3,0.1
		L5.8,20.7z M7,17.4l-0.1,0l-0.1-0.1l0-0.1l0.1-0.1c0.1,0,0.2,0.1,0.2,0.1c0,0,0,0.1,0,0.2L7,17.4z M6.6,25.3L6.6,25.3
		c-0.1,0.1-0.2,0.1-0.2,0.1c0,0-0.1,0-0.1,0c0,0,0,0,0,0l-0.1-0.1l0-0.1L6.4,25c0,0,0,0,0,0c0,0,0,0,0,0c0,0,0,0,0.1,0
		c0.1,0,0.1,0.1,0.1,0.1L6.6,25.3L6.6,25.3z M6.7,25C6.6,25,6.6,24.9,6.7,25l-0.1-0.2l0-0.1l0.2-0.1c0,0,0,0,0,0c0,0,0,0,0,0l0.1,0
		l0,0c0.1,0,0.1,0.1,0.1,0.1c0,0,0,0.1,0,0.1C6.9,24.9,6.8,25,6.7,25z M7.2,24.5c-0.1,0.1-0.1,0-0.2,0l-0.1-0.2c0,0,0.1-0.1,0.1-0.1
		l0.1-0.1l0.1,0l0.1,0.1C7.3,24.5,7.3,24.5,7.2,24.5z M13.4,30.5l0.1-0.1l0.1,0l0.1,0.1l0,0.1l-0.1,0.1l-0.1,0l-0.1-0.1L13.4,30.5z
		 M11.5,29.3c0.1,0,0.2,0,0.3,0.3C11.6,29.5,11.5,29.5,11.5,29.3L11.5,29.3z M9.2,22.4C9.2,22.4,9.2,22.4,9.2,22.4l-0.1-0.1l0-0.1
		l0.2,0c0,0,0,0.1,0,0.1l0.1,0.2C9.4,22.4,9.2,22.4,9.2,22.4z M9.3,23.5l-0.1-0.1l0-0.1l0.1-0.1c0.1,0,0.2,0.1,0.2,0.3L9.3,23.5
		C9.4,23.6,9.3,23.5,9.3,23.5z M9.6,24.1l-0.1,0.1l-0.1,0L9.3,24l0-0.1l0.1-0.1l0.1,0L9.7,24L9.6,24.1z M9.3,30.5
		C9.3,30.5,9.3,30.5,9.3,30.5l-0.1-0.1l0,0c0,0-0.1-0.1-0.1-0.2c0,0,0-0.1,0-0.1C9,30.1,9,30,9,30c0,0,0,0,0,0L9,29.8
		c0,0,0,0,0.1-0.1l0.1-0.1c0,0,0,0,0,0c0-0.1,0-0.1,0.1-0.2l0.1,0l0,0c0.1,0,0.1,0.1,0.1,0.1l0.1,0.1c0,0,0,0.1-0.1,0.1
		c0,0,0,0-0.1,0l0,0.1c0,0,0,0,0,0c0,0,0,0,0,0l0,0.1l0,0l0.1,0L9.6,30c0,0.1,0,0.2-0.1,0.2l0.1,0.1c0,0,0,0,0,0l0,0.1
		C9.5,30.5,9.4,30.6,9.3,30.5z M10.4,28.9l0.1-0.1C10.5,28.8,10.5,28.9,10.4,28.9z M10.9,29.1l0-0.3C11,28.8,11,29,10.9,29.1z
		 M11.8,26.7C11.8,26.7,11.8,26.7,11.8,26.7l-0.1-0.1c0-0.2,0.1-0.2,0.1-0.2c0,0,0,0,0,0l0.2,0c0.1,0.1,0.1,0.2,0.1,0.3
		C12,26.7,11.9,26.7,11.8,26.7z M11.3,29.8l0.2,0.1C11.4,29.9,11.3,29.9,11.3,29.8z M11.6,30.5c0,0-0.2,0-0.3-0.1
		C11.5,30.4,11.6,30.5,11.6,30.5C11.6,30.5,11.6,30.5,11.6,30.5z M12.2,29.5c0-0.1,0.1-0.2,0.2-0.3L12.2,29.5z M12.1,30.6
		C12.1,30.6,12.1,30.5,12.1,30.6c0-0.1,0.1-0.1,0.1-0.1C12.2,30.4,12.1,30.5,12.1,30.6z M12.4,30.8l0.1-0.2
		C12.5,30.7,12.4,30.8,12.4,30.8z M12.9,31.4c-0.1,0-0.2,0-0.3-0.2c0.1-0.1,0.1-0.2,0.2-0.2c0,0,0.1,0,0.3,0.1
		C13,31.3,13,31.4,12.9,31.4z M13.7,31c0,0-0.1,0.1-0.1,0.1l-0.3,0.1c0-0.1,0-0.2,0-0.2c0,0,0,0-0.1-0.1c0,0,0-0.1,0-0.1
		C13.5,30.9,13.6,31,13.7,31z M13,32.1c-0.1-0.2,0-0.3,0.2-0.4C13.1,31.8,13.1,32,13,32.1z M13.1,32.7c0,0,0-0.1,0.1-0.1L13.1,32.7
		L13.1,32.7z M13.6,31.7c0-0.1-0.2-0.1-0.2-0.2c0,0,0-0.1,0-0.2c0.1,0,0.2,0,0.2,0.1C13.6,31.5,13.6,31.6,13.6,31.7z M14.4,30.7
		L14.4,30.7l-0.2,0l-0.1-0.1c0-0.1,0.1-0.1,0.1-0.2l0.2-0.1c0.1,0,0.1,0.1,0.1,0.2C14.5,30.6,14.4,30.7,14.4,30.7z M25.4,31l0.1,0
		c0.1,0.1,0.1,0.2,0.1,0.3c0,0,0,0,0,0l-0.1,0.1l-0.1,0l-0.1-0.1C25.2,31,25.3,31,25.4,31z M24.3,33c0.1,0,0.1-0.1,0.2-0.2l0,0.2
		l0,0c-0.1,0.1-0.1,0.3,0,0.3c0,0.1,0.1,0.2,0.2,0.3l-0.1,0c-0.1,0-0.2,0-0.3,0.1c0,0-0.1,0.1-0.1,0.1c-0.1-0.4-0.1-0.5-0.2-0.8
		C24.1,33,24.2,33,24.3,33z M24.1,33.6c-0.2,0.1-0.4-0.2-0.4-0.3l0-0.1c0.2,0,0.3,0,0.3,0c0,0,0,0.1,0,0.2
		C24,33.5,24.1,33.6,24.1,33.6z M23.8,32.4C23.8,32.4,23.8,32.4,23.8,32.4C23.8,32.4,23.8,32.4,23.8,32.4l0.2-0.1l0.2,0.1l0.1,0.2
		c0,0-0.1,0.1-0.1,0.1c0,0,0,0-0.1,0.1l-0.1,0c0,0-0.1,0-0.1,0c-0.1,0-0.1-0.1-0.1-0.1l0,0c0,0-0.1-0.1-0.1-0.1
		C23.7,32.4,23.7,32.4,23.8,32.4z M23.5,33.8c0,0-0.2,0-0.2,0C23.5,33.8,23.5,33.8,23.5,33.8z M23.2,32.8c0.1,0,0.4,0.1,0.4,0.2
		c-0.2,0.1-0.3,0-0.4-0.1C23.2,32.9,23.2,32.8,23.2,32.8z M22.5,28.9c0.1,0,0.2,0,0.3,0l0,0.2c-0.1,0.1-0.2,0.2-0.3,0.1l0,0L22.4,29
		C22.4,29,22.4,28.9,22.5,28.9z M20.3,31.2C20.3,31.2,20.3,31.3,20.3,31.2L20.3,31.2c0.2,0.2,0.1,0.3,0.1,0.3c0,0.1-0.1,0.1-0.2,0.1
		c-0.1,0-0.1,0-0.1-0.1l0-0.1l0-0.1l0.1,0L20.3,31.2z M21,26.8C21,26.8,21,26.8,21,26.8C21,26.8,21,26.8,21,26.8l0.2-0.1
		c0.1,0.1,0.1,0.2,0.1,0.3l-0.1,0.1c0,0,0,0,0,0l-0.1,0c0,0-0.1-0.1-0.1-0.1C20.9,26.9,21,26.9,21,26.8z M17.5,33.1
		c0,0.1,0,0.2-0.1,0.2C17.4,33.2,17.5,33.1,17.5,33.1z M16.7,33.4c-0.1,0-0.2,0.1-0.5,0.2l0.1-0.2C16.3,33.3,16.5,33.3,16.7,33.4z
		 M14.2,32.9l0,0.2C14.2,33,14.2,32.9,14.2,32.9z M14.5,32.3c0-0.1,0-0.2,0.1-0.2L14.5,32.3z M14.8,32.6c0.1,0,0.1,0,0.1,0
		C14.9,32.6,14.8,32.7,14.8,32.6C14.8,32.7,14.7,32.7,14.8,32.6L14.8,32.6z M14.5,33.5l0.3,0.1C14.7,33.6,14.6,33.6,14.5,33.5z
		 M15.7,32.1c-0.1,0-0.2,0-0.2,0L15.7,32.1z M15,35c0,0-0.1,0-0.2-0.1c0.2-0.1,0.2-0.1,0.3,0C15.2,35,15.1,35,15,35z M15.3,34.6
		c0,0-0.1,0-0.2-0.2c-0.1-0.2,0-0.4,0.2-0.5C15.4,34,15.4,34.6,15.3,34.6z M16.9,29.1C16.8,29,16.8,29,16.9,29.1l-0.1-0.2
		c0,0,0,0,0,0c0,0,0,0,0,0.1c0,0,0,0,0,0.1l0-0.2c0,0,0.1-0.1,0.2-0.1c0.1,0,0.1,0.1,0.1,0.1c0,0,0,0,0,0.1l0.1,0.1
		c-0.1,0.1-0.2,0.1-0.2,0.1C17,29.1,16.9,29.1,16.9,29.1z M17.3,36.2C17.3,36.2,17.2,36.2,17.3,36.2C17.3,36.1,17.3,36.1,17.3,36.2
		L17.3,36.2C17.3,36.1,17.3,36.2,17.3,36.2z M17.6,36.5c0-0.1,0-0.2,0-0.2C17.7,36.3,17.7,36.5,17.6,36.5z M20.7,36.5
		c-0.1,0-0.1,0-0.2-0.2c0.1,0,0.2,0,0.2,0.1C20.8,36.4,20.7,36.5,20.7,36.5z M21,36.4c0-0.2,0.1-0.4,0.3-0.4L21,36.4z M21.5,36.4
		c-0.1-0.5,0.1-1,0.5-1.3C22.1,35.4,21.7,36.1,21.5,36.4z M22.5,35.7c0,0-0.1,0-0.1-0.1C22.4,35.6,22.5,35.6,22.5,35.7L22.5,35.7z
		 M22.4,35c0.1,0,0.2-0.1,0.3-0.1c0.1,0,0.2,0,0.3,0.1c-0.1,0.1-0.3,0.3-0.3,0.4l-0.1-0.3c0,0.2-0.1,0.3-0.2,0.3
		C22,35.2,22,35.1,22,35.1c0,0-0.1,0.1-0.4,0.3c-0.1-0.3-0.1-0.4-0.1-0.7c-0.3,0.1-0.5,0.3-0.6,0.5c0,0.1,0.1,0.1,0.1,0.1
		c0,0,0.1-0.1,0-0.2c0,0,0.1,0,0.1,0.1c0,0.1,0,0.1,0,0.2c0.1-0.2,0.2-0.3,0.3-0.3c0.1,0.3-0.1,0.5-0.1,0.7c-0.2,0.1-0.2,0.1-0.3,0
		l0,0c-0.1,0.1-0.2,0.2-0.2,0.2c-0.2-0.1-0.3-0.2-0.4-0.3c-0.1,0.1-0.1,0.1,0,0.2c0,0.1,0.1,0.1,0.2,0.1c-0.1,0-0.2,0.2-0.3,0.3
		c-0.2,0.1-0.4-0.2-0.5-0.5c-0.1-0.2-0.1-0.4-0.1-0.5c-0.1,0.1-0.1,0.1-0.1,0.1c0,0-0.1,0-0.1,0c-0.1,0.1,0,0.2,0,0.3
		c0.1,0.3,0.4,0.7,0.6,0.7c0,0,0,0,0.1-0.1c0.1,0.2,0,0.3-0.2,0.3c-0.2,0.1-0.5,0-0.5-0.1c0,0,0.1,0,0.1,0c0.1,0,0.1-0.1,0.1-0.3
		c-0.4-0.5-0.8-0.4-0.9-0.3l0,0c-0.4,0.1,0.3,0.5-0.4,0.7c-0.1-0.2-0.1-0.4,0.1-0.6c-0.1,0-0.2,0-0.2,0c-0.2,0.1,0,0.3-0.2,0.3
		c-0.3-0.9-1.4,0-1.6-0.5c0,0,0.4-0.7,0.3-0.9c0-0.1-0.1-0.1-0.3,0c0.1,0.3,0.1,0.4,0,0.4c-0.1,0-0.2,0-0.4-0.1l0.2-0.4
		c0,0-0.3,0-0.4,0c0.1-0.2,0.2-0.3,0.2-0.5c-0.1-0.1-0.2-0.2-0.3-0.1c0,0-0.1,0.1-0.1,0.1c-0.1-0.2,0.9-0.4,1.2-0.8
		c-0.1,0-0.2,0-0.2-0.1c0-0.1,0.1-0.2,0.1-0.2c0.4,0.1,0.8,0.3,0.8,0.4c0,0.1,0,0.2-0.1,0.3c0.1,0,0.4-0.2,0.5,0
		c0-0.1-0.1-0.1-0.1-0.1c0,0,0.1-0.1,0.2-0.3c0.2,0.2,0.6,0.5,0.7,0.8c0-0.3,0-0.2,0.1-0.4l0.1,0.3c0.1-0.1,0.1-0.1,0.1-0.2
		c0,0,0,0-0.1-0.1c0,0,0-0.1,0-0.2c0.3,0.1,0.6,0.2,0.9,0.4l-0.1-0.2c0-0.1-0.1-0.2,0-0.2c0.5,0.2,0.7,0.2,0.7,0.3
		c0,0.1-0.2,0.2,0,0.5c0,0,0.1,0.1,0.1,0c0.1,0,0.4-0.3,0.4-0.4c0,0,0,0-0.1-0.1c0,0,0,0,0-0.1c-0.1-0.1-0.1-0.1-0.1-0.1
		c0-0.1,0-0.2-0.1-0.5c0.1,0.1,0.4,0.3,0.7,0.5l0,0c0.2,0.1,0.3,0.1,0.4,0.1c0,0,0.1-0.1,0-0.2c0-0.1-0.1-0.2-0.2-0.4
		c0.1,0,0.1,0,0.2,0c0.4-0.2-0.3-0.4,0.4-0.7c-0.1,0.2-0.1,0.5,0,0.8c0,0.1,0,0.1,0.1,0.2c0,0,0-0.2,0.1-0.4c0,0.1,0,0.1,0.1,0.2
		c0.1,0,0.3-0.5,0.3-0.6l-0.1,0c-0.1,0-0.1,0.1-0.2,0.2c0.1-0.2,0.2-0.3,0.4-0.4c0.2,0.4,0.2,0.6,0.2,0.8c0.1,0,0.2,0,0.3,0
		c0.1,0,0.2-0.1,0.2-0.3c0.1,0.3-0.1,0.4-0.3,0.5c-0.1,0-0.3,0.1-0.4,0.1l0,0.1c0,0.1,0,0.1,0.1,0.1c0.1,0,0.1,0,0.3-0.1
		c0,0.1-0.1,0.1-0.1,0.2C23,34.1,23,34,23,34c-0.2,0.2-0.2,0.3-0.2,0.3c0,0,0.2-0.1,0.3,0.1c-0.1,0-0.1,0-0.2,0.1
		C22.6,34.6,22.4,34.7,22.4,35L22.4,35z M23.2,35.1c-0.1,0-0.2,0.1-0.3,0.1c0-0.1,0.2-0.3,0.4-0.3l0.1,0
		C23.3,35,23.3,35.1,23.2,35.1z M23.7,35.2c0-0.2,0-0.2,0-0.2c0,0,0,0,0,0C23.8,35,23.7,35.2,23.7,35.2z M23.8,35.6
		c0-0.1,0-0.1,0.1-0.2C23.8,35.4,23.8,35.5,23.8,35.6z M24.6,34.6c-0.2,0.1-0.4-0.1-0.5-0.1c0.1,0.3,0.1,0.4,0,0.4
		c0,0-0.1,0-0.2-0.1c0,0.1,0,0.1,0,0.1c-0.1,0-0.6-0.2-0.7-0.4c0-0.1,0-0.2,0.1-0.2c0.1,0.2,0.2,0.1,0.5,0.2l-0.1-0.2c0,0,0,0-0.1,0
		l0,0l-0.1-0.1l0-0.1c0,0.1-0.1,0.2-0.1,0.3c0,0,0,0-0.1-0.1c0-0.1,0-0.2,0.1-0.3c0.2-0.1,0.6-0.1,0.7,0.1c-0.1,0-0.2,0.1-0.2,0.1
		c0,0,0,0.1,0,0.1c0.2,0.1,0.2,0.1,0.3,0c0.1,0,0.2-0.2,0.5-0.3C24.9,34.3,24.8,34.5,24.6,34.6z M25.8,31.7c0,0,0,0.2,0,0.2
		C25.8,31.8,25.8,31.7,25.8,31.7z M26,34c0-0.1,0.1-0.2,0.2-0.2L26,34z M27.3,31.4C27.3,31.4,27.3,31.4,27.3,31.4
		C27.2,31.3,27.3,31.3,27.3,31.4l-0.2,0c0,0-0.1-0.1-0.1-0.2c0-0.1,0.1-0.1,0.1-0.1c0,0,0,0,0,0c0,0,0,0,0,0l0.2-0.1
		c0,0,0.2,0.1,0.1,0.4L27.3,31.4z"/>
	<path class="st0" d="M22.1,34.2c0.1-0.2,0.4-0.2,0.3-0.5C22.2,33.8,22.1,34,22.1,34.2z"/>
	<path class="st0" d="M23.7,34L23.7,34L23.7,34C23.7,33.9,23.7,34,23.7,34z"/>
	<path class="st0" d="M18.9,35.8c0,0,0-0.1,0.1-0.2C18.9,35.6,18.9,35.7,18.9,35.8z"/>
	<path class="st0" d="M18.2,35.6c0.1,0.1,0.3,0.1,0.5,0.1C18.5,35.6,18.3,35.6,18.2,35.6z"/>
	<path class="st0" d="M17.6,34.4l0.5-0.2c-0.1,0-0.2,0-0.3,0C17.8,34.3,17.7,34.3,17.6,34.4z"/>
	<path class="st0" d="M17.4,35l-0.2,0.1c-0.1,0-0.2,0.1-0.1,0.1c0,0,0.1,0.1,0.2,0.1l0,0.1c0.1,0.2,0.2,0.2,0.4,0.2
		c-0.1-0.1-0.2-0.2-0.3-0.3C17.3,35.2,17.3,35.1,17.4,35z"/>
	<path class="st0" d="M17.6,34.6c0,0-0.1,0-0.2,0c0.1,0.1,0.3,0.1,0.5,0.1C17.7,34.6,17.7,34.6,17.6,34.6
		C17.7,34.6,17.7,34.6,17.6,34.6z"/>
</g>
</svg>
