<?xml version="1.0" encoding="utf-8"?>
<!-- Generator: Adobe Illustrator 22.1.0, SVG Export Plug-In . SVG Version: 6.00 Build 0)  -->
<svg version="1.1" id="Layer_1" xmlns="http://www.w3.org/2000/svg" xmlns:xlink="http://www.w3.org/1999/xlink" x="0px" y="0px"
	 viewBox="0 0 38.7 38.6" style="enable-background:new 0 0 38.7 38.6;" xml:space="preserve">
<style type="text/css">
	.st0{fill:#FFFFFF;}
</style>
<g>
	<path class="st0" d="M11.9,18.4c-1.2,0-2.3,1-2.3,2.3c0,1.2,1,2.3,2.3,2.3c1.2,0,2.3-1,2.3-2.3C14.2,19.4,13.1,18.4,11.9,18.4z
		 M11.9,22c-0.7,0-1.3-0.6-1.3-1.3s0.6-1.3,1.3-1.3s1.3,0.6,1.3,1.3S12.6,22,11.9,22z"/>
	<path class="st0" d="M26.8,15c-3.1,0-5.7,2.5-5.7,5.7s2.5,5.7,5.7,5.7s5.7-2.5,5.7-5.7S30,15,26.8,15z M26.8,24.5
		c-2.1,0-3.8-1.7-3.8-3.8s1.7-3.8,3.8-3.8s3.8,1.7,3.8,3.8S28.9,24.5,26.8,24.5z"/>
	<path class="st0" d="M19.4,18.6c0.3-1.3,1-2.4,1.9-3.4c1.2-1.2,2.7-2,4.3-2.2c-1.9-0.7-4.1-1.1-6.3-1.1C17,12,14.9,12.3,13,13
		C16.1,13.5,18.6,15.7,19.4,18.6z"/>
	<path class="st0" d="M11.9,15c-3.1,0-5.7,2.5-5.7,5.7s2.5,5.7,5.7,5.7s5.7-2.5,5.7-5.7S15,15,11.9,15z M11.9,24.5
		c-2.1,0-3.8-1.7-3.8-3.8s1.7-3.8,3.8-3.8s3.8,1.7,3.8,3.8S14,24.5,11.9,24.5z"/>
	<path class="st0" d="M30.8,0H8C3.6,0,0,3.6,0,8v22.6c0,4.4,3.6,8,8,8h12.4v-1.5l2.3,0.9l-1.4,0.6h9.5c4.4,0,8-3.6,8-8V8
		C38.7,3.6,35.2,0,30.8,0z M34.5,2.4l0.6,0.4l-1-0.1L34.5,2.4z M33.7,3.3l0.4,0.4C34,4,34,4.4,33.8,4.8c-0.5-0.1-0.2-0.7-0.7-0.9
		L33.7,3.3z M30.5,4.2L30.6,4l-0.1,0.4V4.2z M30.8,5.7c0.5,0,0.9,0.4,1.2,0.7c-0.4,0.1-0.8,0.2-1.2,0.2c-0.5,0-0.9-0.2-1.1-0.7
		C30,5.9,30.5,5.7,30.8,5.7z M31.9,7l-0.1,0.1l-0.5-0.1C31.6,7.1,31.7,7.1,31.9,7z M28.8,11.7c-0.5,0-0.7-0.4-0.8-0.8
		C28.4,11,28.6,11.3,28.8,11.7z M20.5,5l0.3,0.7c0,0.4-0.4,0.6-0.6,1L20.5,5z M18.1,2.7C18.5,3,19,3.2,19,3.8V4
		c-0.3-0.1-0.9-0.1-1.2,0L18.1,2.7z M17,2L17,2c-0.4,0-0.8-0.2-1.1-0.4C16.3,1.6,16.7,1.7,17,2z M13.7,3.2c0.1-0.3,0.5-0.5,0.9-0.6
		l-0.5,0.7l0.6,0.5V3l0.6,0.4l-0.4,0.7l0.7,0.3L15.9,4c0-0.3-0.3-0.6-0.5-0.8h0.3c1.3,0,1.1,1.4,0.8,2.2L19,4.8l-0.2,0.3l0.4,0.5
		c-0.6,0.3-1.1,0.8-1.8,0.8c-0.5,0-0.7-0.5-0.9-0.9L16,6.3c-0.4,0-0.7-0.3-0.9-0.7h0.7c-1.4-0.2-3.5-0.3-3.5-2.2c0.8,0,1,1,1.9,1
		C14.2,3.9,13.7,3.6,13.7,3.2z M19,6.6c-0.1,0.2-0.2,0.5-0.4,0.7C18.6,7,18.6,6.6,19,6.6z M18.2,9.2c-0.5-0.2-1.4-0.8-1.4-1.4
		l0.8-0.3L18,7.7L17.8,8l-0.3-0.1C17.7,8.4,18,8.8,18.2,9.2z M14.3,6.1c-0.1,0-0.3-0.1-0.4-0.3C14,5.9,14.2,6,14.3,6.1z M12.6,5.6
		c-0.4,0-0.6-0.4-0.6-0.7L12.6,5.6z M11.3,3.4c0.3,0.1,0.6,0.4,0.8,0.7l-0.7,0.5c0-0.1-0.1-0.3-0.1-0.5V3.4z M10.9,2.8l-0.8,0.8
		L9.8,3.2C10.1,3,10.5,2.8,10.9,2.8z M9.5,3.8L9.5,3.8L9.3,3.9C9.4,3.9,9.4,3.8,9.5,3.8z M10,5.4L9.6,5.5L8.9,5.3L8.4,5.8l2.5,0.3
		c0-0.1-0.1-0.2-0.2-0.3h0.4l0.2-0.1L10.9,5c0.5,0,0.8,0.4,0.8,0.9c0,0.1,0,0.2,0,0.2l0.9,0.1c0-0.1-0.1-0.1-0.1-0.2
		c0.7,0,1.5,0.1,1.8,0.8l-0.3,0.5c-0.6,0-0.9-0.7-1.3-1.1c-2,0.2-4,0.5-6,0.9C7,6.8,7.4,6.3,7.7,5.7l0.7,0.1L8.1,5l1.2-0.1L10,5.4z
		 M12.9,7.7L12,8.3C12.1,8,12.5,7.8,12.9,7.7z M12,9.4c-0.1,0.1-0.2,0.1-0.4,0.2C11.7,9.5,11.8,9.5,12,9.4z M9.5,9
		C9,9,8.5,8.9,8,8.9C8.9,8.5,9.8,8,10.4,7.2c0.1,0.3,0.3,0.6,0.3,1C10.7,8.9,10,9,9.5,9z M10.1,9C9.9,9.2,9.8,9.3,9.6,9.4L10.1,9z
		 M7.1,8.3C6.9,8.6,6.8,8.8,6.6,9C6.7,8.8,6.8,8.5,7.1,8.3z M7.9,4.4C8.3,4.5,8.7,4.6,9,4.8H8L7.9,4.4z M6.5,3.1l0.7,0.3
		C7.4,3,7.9,2.9,8.4,2.9l0.5,0.9h0l0.1,0.3H8.2C8,4.1,7.6,4,7.3,3.9l0,0h0l0-0.2L7.2,3.4c0,0-0.1,0.3,0,0.3h-1L6.5,3.1z M4.8,4.3
		C4.6,4.5,4.4,4.6,4.2,4.6L4.8,4.3z M1.2,4.6l0,0.1C1.1,4.7,1.1,4.7,1.2,4.6z M1,29.7l0.1-0.2L1,30V29.7z M2.3,32.7l-0.5-0.1
		c0.2,0,0.4,0,0.6-0.1L2.3,32.7z M1.2,32.2c-0.5,0-0.9-0.2-1.1-0.7c0.3-0.1,0.8-0.2,1.1-0.2c0.5,0,0.9,0.4,1.2,0.7
		C2.1,32.1,1.6,32.2,1.2,32.2z M2.9,7.9L2.9,7.9L3,8.1L2.9,7.9z M3.2,6.4c0-0.1,0.2-0.5,0.2-0.7c0-0.3-0.3-0.6-0.3-0.9
		c0.4,0,0.7,0.5,1,0.8C3.9,5.9,3.7,6.2,3.5,6.4H3.2z M4.3,30.3c-0.5-0.1-0.2-0.7-0.7-0.9l0.6-0.6l0.4,0.4C4.5,29.6,4.4,30,4.3,30.3z
		 M4.5,28.2L4.9,28l0.6,0.4L4.5,28.2z M16.4,34.4c-0.2-0.3-0.6-0.5-0.6-1l0.8-0.7L16.4,34.4z M17.6,34.3c0.4,0,0.4,0.4,0.4,0.7
		C17.8,34.7,17.7,34.5,17.6,34.3z M18.4,36.9c0.2-0.4,0.5-0.8,0.7-1.3l-0.3,0.1l-0.2-0.3l0.4-0.2l0.8,0.3
		C19.8,36.1,18.9,36.7,18.4,36.9z M20.2,35.3c0.1,0,0.1,0.1,0.2,0.2L20.2,35.3z M20.6,34l-0.5-0.8c-0.1,0.4-0.4,0.9-0.9,0.9
		c-0.7,0-1.2-0.5-1.8-0.8l0.4-0.5l-0.2-0.3l2.5,0.6c-0.1-0.3-0.2-0.7-0.2-1c0-1.1,0.3-1.2,1.3-1.2c-0.2,0.2-0.5,0.5-0.5,0.8l0.3,0.4
		l0.7-0.3l-0.4-0.7l0.6-0.4v0.8l0.6-0.5L22,30.3c0.3,0.1,0.7,0.2,0.9,0.6c0,0.4-0.5,0.7-0.5,1.2c0.9,0,1.1-1,1.9-1
		c0,1.9-2.1,2-3.5,2.2h0.7C21.3,33.6,21,34,20.6,34z M17.6,31.7v-0.2c0-0.5,0.4-0.9,0.9-1l0.3,1.2C18.5,31.6,17.9,31.5,17.6,31.7z
		 M19.6,29.7c0.3-0.3,0.7-0.4,1.1-0.4C20.4,29.5,20,29.7,19.6,29.7z M21.4,30.1c0-0.2,0.1-0.5,0.4-0.5L21.4,30.1z M24.6,32.6
		c0,0.3-0.2,0.7-0.6,0.7L24.6,32.6z M24.5,31.8c0.2-0.3,0.5-0.5,0.8-0.7v0.7c0,0.1,0,0.3-0.1,0.5L24.5,31.8z M22.7,33.5
		c0,0.1-0.2,0.2-0.4,0.3C22.4,33.6,22.6,33.5,22.7,33.5z M22.7,35.1l-0.3-0.5c0.3-0.7,1.2-0.8,1.8-0.8
		C23.9,34.2,23.3,35.1,22.7,35.1z M24.6,36l-0.8-0.6C24.1,35.5,24.5,35.7,24.6,36z M24.6,37.1c0.1,0,0.3,0.1,0.4,0.2
		C24.8,37.2,24.7,37.2,24.6,37.1z M25,34.1c0-0.1-0.1-0.3-0.1-0.5c0-0.5,0.3-0.9,0.8-0.9l-0.4,0.7l0.2,0.1h0.4
		C25.7,33.8,25.4,34.1,25,34.1z M28.7,32.1c-0.2,0.4-0.2,1-0.5,1.4L27.7,33L27,33.2l-0.4-0.1C27.2,32.6,27.9,32.3,28.7,32.1z
		 M27.1,31.5c0.1,0,0.1,0.1,0.1,0.2C27.1,31.6,27.1,31.6,27.1,31.5z M26.5,31.3l-0.8-0.8l0.1-0.1c0.3,0.1,0.7,0.3,1,0.5L26.5,31.3z
		 M26.5,36.7L26.5,36.7l0.5,0.4C26.8,37,26.7,36.8,26.5,36.7z M27.1,36.7c-0.5,0-1.2-0.2-1.2-0.8c0-0.3,0.1-0.7,0.3-1
		c0.6,0.8,1.5,1.3,2.4,1.6C28.1,36.6,27.6,36.7,27.1,36.7z M29.5,36L29.5,36l0.5,0.7C29.8,36.5,29.7,36.2,29.5,36z M28.6,34l0.3-0.6
		c0.2,0.6,0.6,1.1,1.1,1.5C29.6,34.8,28.6,34.5,28.6,34z M30,32.9l-0.5-0.2l0.9-0.2L30,32.9z M29.7,31.7l-0.4-0.2
		c-0.3,0.3-0.7,0.3-1.1,0.3h-0.7c0.1-0.4,0.4-0.9,0.7-1.2c0.4,0,1,0.1,1.2,0.5l0.7-0.3l0.3,0.5L29.7,31.7z M26.8,28.4
		c-2.3,0-4.4-1-5.8-2.7l-1.7,2.5l-1.6-2.4c-1,1.1-2.2,1.9-3.5,2.3c0,0,0,0,0,0h-0.1c-0.7,0.2-1.4,0.3-2.2,0.3
		c-4.3,0-7.7-3.5-7.7-7.7c0-1.6,0.5-3.2,1.5-4.5c-0.2-1.6-1.4-2.7-1.4-2.8l-0.4-0.5l5.3,0c2.7-1.8,6.3-2.8,10.2-2.8
		c3.9,0,7.5,1,10.2,2.8h5.5l-0.4,0.5c0,0-1.1,1.2-1.4,2.8c1,1.3,1.5,2.9,1.5,4.5C34.6,25,31.1,28.4,26.8,28.4z M31.2,33.5
		c0.2,0.1,0.4,0.3,0.6,0.5L31.2,33.5z M31.8,32l0.6,0.3C32.2,32.2,32,32.1,31.8,32z M33.4,33.7h-0.2L33,33.9v0.2
		c-0.2-0.2-0.4-0.5-0.5-0.8c0.2-0.3,0.5-0.8,1-0.8c0,0.3-0.3,0.6-0.3,0.9L33.4,33.7z M34.7,31.8l-0.3-0.3
		C34.6,31.5,34.7,31.6,34.7,31.8z M34.6,35.3c0.2,0.2,0.5,0.4,0.5,0.7L34.6,35.3z M36.4,28.7c0-0.1,0-0.3,0.1-0.5l0.4,1.6
		C36.6,29.5,36.4,29.2,36.4,28.7z"/>
	<polygon class="st0" points="29.5,31.3 29.4,31.1 29.2,31.3 	"/>
	<path class="st0" d="M26.8,18.4c-1.3,0-2.3,1-2.3,2.3c0,1.3,1,2.3,2.3,2.3s2.3-1,2.3-2.3C29.1,19.4,28.1,18.4,26.8,18.4z M26.8,22
		c-0.7,0-1.3-0.6-1.3-1.3s0.6-1.3,1.3-1.3c0.7,0,1.3,0.6,1.3,1.3S27.6,22,26.8,22z"/>
	<polygon class="st0" points="7.3,3.9 9,3.9 8.9,3.8 7.3,3.8 	"/>
	<path class="st0" d="M11.6,6.2l-0.8,0c0.2,0.2,0.4,0.3,0.7,0.3C11.6,6.4,11.6,6.3,11.6,6.2z"/>
</g>
</svg>
