<?xml version="1.0" encoding="utf-8"?>
<!-- Generator: Adobe Illustrator 22.1.0, SVG Export Plug-In . SVG Version: 6.00 Build 0)  -->
<svg version="1.1" id="Layer_1" xmlns="http://www.w3.org/2000/svg" xmlns:xlink="http://www.w3.org/1999/xlink" x="0px" y="0px"
	 viewBox="0 0 43.2 42.8" style="enable-background:new 0 0 43.2 42.8;" xml:space="preserve">
<style type="text/css">
	.st0{fill:#FFFFFF;}
</style>
<g>
	<path class="st0" d="M39.3,18.5L39.3,18.5c-0.1-0.1-0.3-0.3-0.4-0.6l-0.6-1c0.1,0.5,0.2,1.2,0.3,1.7C39,18.6,39.2,18.5,39.3,18.5z"
		/>
	<path class="st0" d="M39.6,16c-0.2-0.1-0.5-0.1-0.8-0.1C39.2,15.9,39.5,16,39.6,16z"/>
	<path class="st0" d="M2.6,29.9c-0.3,0.2-0.4,0.6-0.2,0.9C2.7,30.6,2.8,30.3,2.6,29.9z"/>
	<path class="st0" d="M37,15.7c-0.1,0-0.2,0.1-0.3,0.4C37,16,37.1,15.8,37,15.7L37,15.7z"/>
	<path class="st0" d="M39,16.5c0.2,0,0.5,0.1,0.5,0.1L39,16.5z"/>
	<path class="st0" d="M36.6,13.3l-0.2,0.3C36.6,13.4,36.6,13.3,36.6,13.3z"/>
	<path class="st0" d="M35,13.8c0.2,0.4,0.6,0.5,1.1,0.4C35.7,14.1,35.6,13.4,35,13.8z"/>
	<path class="st0" d="M4.7,34.9c0.2,0.3,0.4,0.5,0.6,0.8c0-0.4,0.1-0.8,0.1-0.9C5,34.9,4.8,35,4.7,34.9z"/>
	<path class="st0" d="M17.7,42.8c0.2,0,0.3,0.1,0.5,0.1C18.1,42.8,17.9,42.7,17.7,42.8C17.7,42.7,17.7,42.7,17.7,42.8z"/>
	<path class="st0" d="M2.6,27.7c-0.1,0-0.1,0-0.2,0l-0.1,0C2.4,27.7,2.5,27.7,2.6,27.7z"/>
	<path class="st0" d="M0.4,25.6C0.4,25.6,0.4,25.6,0.4,25.6C0.4,25.6,0.4,25.6,0.4,25.6C0.4,25.6,0.4,25.6,0.4,25.6z"/>
	<path class="st0" d="M0.7,26.8c0,0.1,0.1,0.3,0.1,0.4l0.4,0C1,27.1,0.8,26.9,0.7,26.8z"/>
	<path class="st0" d="M5.3,33.6C5.2,33.4,5,33.3,5,33.3c-0.1,0,0,0.1,0,0.1C5,33.5,5.2,33.6,5.3,33.6z"/>
	<path class="st0" d="M4,32.4c0-0.1-0.3,0-0.4,0.1c-0.2,0.1-0.3,0.2-0.3,0.4c0,0,0,0.1,0,0.1C3.9,32.7,4,32.5,4,32.4z"/>
	<path class="st0" d="M4.7,32.7c0-0.1-0.1-0.1-0.3-0.2C4.2,32.9,4.1,32.9,4,33c-0.1,0-0.2,0-0.6,0.2c0.2,0.2,0.3,0.5,0.5,0.7
		c0,0,0,0,0,0c-0.2-0.3-0.2-0.4-0.1-0.4c0.1-0.1,0.4-0.1,0.6-0.2C4.7,33,4.8,32.8,4.7,32.7z"/>
	<path class="st0" d="M1.9,30.5c0.3,0.7,0.6,1.3,1,1.9c0.3-0.4,0.4-1,0.2-1.3c0.1,0,1.6,0,1.7-0.1l0-0.1c-0.8-0.1-1-0.2-1.5-0.5
		c-0.2,0.3-0.4,0.4-0.5,0.5C2.5,31.1,2.3,30.9,1.9,30.5z"/>
	<path class="st0" d="M37.6,18l-0.3-0.3C37.2,17.7,37.3,17.8,37.6,18z"/>
	<path class="st0" d="M40.1,23.7c-0.2,0.1-0.4,0.1-0.7,0l0.3,0.4c0.1,0.2,0.2,0.3,0.3,0.2c0.1,0,0.1-0.2,0.2-0.5l0.1-0.1
		c0.3-0.2,0.4-0.5,0.3-0.9C40.4,23.3,40.3,23.5,40.1,23.7z"/>
	<path class="st0" d="M40.4,21.9c0.1-0.3,0.1-0.7,0-1C40.3,21.2,40.2,21.6,40.4,21.9z"/>
	<path class="st0" d="M24,0c6.3,3.2,6.2,11.4,2.9,11.4c-2.9,0-2.5-3-1.2-5.8c-0.5,0.3-2.3,0.5-4.1,0.5c-1.8,0-3.7-0.2-4.1-0.5
		c1.4,2.8,1.7,5.8-1.1,5.8c-2.1,0-2.9-3.3-1.7-6.5c0,0-0.1-0.1-0.1-0.1l-0.1-0.2c0.1,0,0.5-0.6,0.7-0.8c0.6-1.1,1.5-2.1,2.6-3
		c-0.1-0.1-0.2-0.1-0.3-0.2c0.4-0.1,0.6-0.2,0.8-0.2c0.3-0.2,0.5-0.3,0.8-0.5C13.4,0.6,8.3,3.6,4.8,7.9c0,0,0,0-0.1,0.1
		c-0.5,0.6-1,1.3-1.4,2c0.1,0.2-0.1,0.3-0.2,0.8c-0.1-0.1-0.1-0.2-0.1-0.3c-0.4,0.7-0.8,1.4-1.1,2.1c0.2,0.1,1.2,0.3,1.3,0.6
		c0.1,0.2,0,0.3-0.2,0.5c0.1-0.1,0-0.3,0-0.3c-0.2-0.4-0.8-0.4-1.1-0.7c-0.7,1.5-1.2,3-1.5,4.7c0,0.1,0.1,0.1,0.1,0.2
		c0,0-0.1,0-0.1,0c-0.1,0.7-0.2,1.4-0.3,2.1c0.1,0,0.3,0.1,0.4,0.2c0,0.1,0,0.2-0.1,0.3l-0.4-0.3C0,20.1,0,20.6,0,21.1
		c0.1,0,0.2,0,0.2,0c0.1,0,0.1-0.1-0.1-0.5c0.5,0.1,1.3,1,1.5,1.1c0.3,0.1,0.5,0.5,1.4,0.3c0.1,1.3-0.8,1,0.1,2.4
		c-0.4,0.2-1.6,0.4-2.1,0.3c0-0.3,0-0.4,0.1-0.4c0.2-0.1,0.8,0.1,1,0.1c0-0.2-0.1-0.3-0.1-0.3l0.4,0l-0.3-0.4l0.4,0
		c0-0.1-0.4-0.7-0.4-0.9c0,0.1-0.1,0.2-0.3,0.2c-0.5,0.3-1.5,0.5-1.7,0.5c0-0.1,0-0.3,0-0.3c0,0,0,0,0,0c0,0.6,0.1,1.3,0.2,1.9
		C0.6,25,0.8,25,0.9,25c0.3,0.5,0.9,2.1,0.7,2.3c-0.1,0-0.1,0-0.2,0c0,0.2,0,0.4-0.2,0.4c-0.1,0.1-0.2,0.1-0.3,0.1
		C1,28.2,1.2,28.6,1.3,29c0,0,0-0.1,0.1-0.1l0,0.4c0.1,0.2,0.1,0.3,0.2,0.5c0.1,0.1,0.3,0.2,0.4,0.3c0,0-0.1-1,0.1-1.1
		c0.4,0.7,2.1,1.3,2.9,0.8C5,29.8,4.9,29.9,4.8,30l-0.1,0l0.7,0c0.2-0.1,0.3-0.1,0.4,0c0.1,0.2,0.1,0.8,0,1.2c0-0.1,0.1-0.2,0.1-0.2
		c0.1-0.1,0.2,0,0.2,0l0.1,0.1c-0.5,0-0.9,0-1.4,0c0,0.2,0,0.4,0,0.5C5,31.8,5.2,31.9,5.3,32c-0.2,0.4-0.3,0.7,0,1.1
		c0.4-0.3,0.5-0.5,0.3-0.7c0-0.1-0.2-0.2-0.3-0.3c0.5,0.2,1.1,0.4,1.3,0.8c-0.3,0-0.6,0-0.8,0.1c-0.2,0.1-0.2,0.4-0.1,0.7
		c0.6-0.1,0.9-0.7,1.6,0.3c-0.3-0.1-0.7-0.1-0.8,0c-0.1,0.1-0.2,0.2-0.2,0.4C7,34.4,7,34.4,7.1,34.6c0,0.1,0.1,0.3,0.2,0.5
		c-0.1,0-0.1,0-0.2,0c-0.1,0-0.1,0.2-0.1,0.3C7,35.3,6.7,35,6.6,34.8l-0.1-0.2c0,0,0.1,0,0.1,0.1c-0.1-0.2-0.3-0.2-0.5-0.1
		c-0.4,0.2-0.7,0.8-0.4,1.3c0,0.1,0.1,0.2,0.2,0.2c-0.1,0-0.1,0.1-0.2,0.1c0.1,0.1,0.2,0.2,0.3,0.4c0-0.1,0.1-0.2,0.2-0.3
		c0.1,0.1,0.2,0.2,0.3,0.3c0.1,0.2,0.2,0.4,0.2,0.6c2.9,2.8,6.6,4.8,10.7,5.6c0,0,0.1,0,0.1-0.1l0,0c-0.3-0.1-0.7-0.3-1-0.4
		c-0.1,0.1-0.1,0.2-0.2,0.2l-0.1,0c0,0,0.1-0.1,0.2-0.3c-2.1-1-3.8-2.5-5.1-4.4c0,0.1-0.1,0.2-0.2,0.4l0.1-0.4c-1.2-1.9-2-4.2-2-6.6
		c0-6.7,5.5-12.2,12.2-12.2c6.7,0,12.2,5.5,12.2,12.2c0,0.6,0,1.2-0.1,1.7c0.1,0,0.1,0,0.2,0.1c-0.2,0.1-0.2,0.3-0.3,0.4
		c-0.1,0.3-0.1,0.6-0.2,1c0.1,0,0.1,0.1,0.2,0.1c0.1,0.1,0,0.4-0.3,0.6c0,0,0,0-0.1,0c-0.3,0.9-0.7,1.7-1.1,2.4c0,0,0,0,0,0
		c0,0,0.1,0,0.1,0c0,0.1,0,0.3-0.1,0.7c-0.1-0.4-0.1-0.6,0-0.6C30.5,40,28,42,25,42.8c10.3-1.6,18.2-10.6,18.2-21.4
		C43.2,10.4,34.8,1.2,24,0z M0.5,24.2c0-0.3,0-0.4,0.1-0.5c0.1-0.1,0.4,0.1,0.7,0L0.5,24.2z M11.8,38.6l0,0.5
		C11.9,39.1,11.8,38.6,11.8,38.6z M11.9,9.5c0,0,0.1,0,0.3,0.2c0.2,0.3,0.2,0.4,0,0.6C12,10.2,11.8,9.6,11.9,9.5z M12.2,14.6
		c0,0-0.1,0-0.2,0L12.2,14.6z M10.3,16.1c0.1,0.3,0,0.4,0,0.4c0,0,0,0-0.1,0C10.3,16.5,10.3,16.3,10.3,16.1z M9.6,13.8
		c0.1,0.2,0.1,0.3,0,0.3C9.5,14,9.5,13.9,9.6,13.8z M9.7,18c0.2,0.1,0.3,0.1,0.3,0.1c0,0,0,0.1,0,0.3c-0.3,0-0.4,0-0.5-0.1
		C9.5,18.3,9.5,18.1,9.7,18z M9.1,9.9C9.2,9.8,9.2,9.8,9.1,9.9c0.1,0,0.1,0.1,0,0.2C9.1,9.9,9.1,9.9,9.1,9.9z M9,10.8
		c-0.1,0-0.2,0-0.4,0C8.8,10.7,9,10.8,9,10.8z M8.5,20.9L8.6,21c0,0.1,0.1,0.1,0,0.1c0,0-0.1,0-0.1,0C8.5,21,8.5,20.9,8.5,20.9z
		 M8.3,9.4c0.1,0.2,0.1,0.5,0,0.9L8.1,9.9C8,9.7,7.8,9.5,7.7,9C8,9.1,8.2,9.2,8.3,9.4z M7.5,5.9C7.4,5.8,7.4,5.8,7.4,5.8
		C7.4,5.8,7.5,5.9,7.5,5.9z M8.2,10.7c-0.4,0.2-0.8,0-1-0.4C7.6,10.4,7.9,10.5,8.2,10.7z M7.9,20.7c-0.1,0-0.1,0-0.1-0.1L7.9,20.7z
		 M7.8,20.4c0.1,0,0.2,0,0.3,0L7.8,20.4z M8.1,23c0,0.1,0,0.3,0,0.6c0-0.1-0.1-0.3-0.3-0.6L8.1,23z M8,19L8,19c0-0.1,0.1-0.1,0.2,0
		L8,19z M7.4,20.9l0,0.4C7.3,21.2,7.3,21,7.4,20.9z M7,6L7,6C7,6,7,6.1,7,6C7,6.2,7,6.2,7,6.2C7,6.1,7,6.1,7,6z M7,9.5
		c0.1,0,0.1-0.1,0.2,0c0,0.1,0,0.2,0,0.3C6.8,9.9,6.7,9.9,6.7,9.9C6.7,9.8,6.8,9.6,7,9.5z M6.8,7C6.6,7.1,6.4,7.1,6.3,6.9
		C6.5,7,6.6,7,6.8,7z M6.6,9.2l0-0.3C6.6,8.9,6.7,9,6.6,9.2z M6.1,9.1c0.1,0.1,0.1,0.2,0.1,0.3L5.3,8.8C5.6,8.6,6,8.9,6.1,9.1z
		 M5.8,9.5c0,0.1,0.1,0.2,0,0.3L5.6,10c-0.4,0.3-0.7,0.3-0.9-0.1L4.6,9.8C5.3,9.4,5.7,9.3,5.8,9.5z M3,12.5L3,12.5
		c0-0.1,0.2,0,0.3,0.3C3.2,12.7,3.1,12.6,3,12.5z M4.1,22.6c0,0-0.5-0.2-0.6-0.5c0-0.1,0-0.2,0-0.2c0.1,0,0.1-0.1,0.2,0
		c0,0.1,0,0.1,0,0.2L4.1,22.6z M3.8,15.6L4,15.8c-0.3,0.1-0.5,0-0.6-0.1c-0.1-0.2,0-0.6,0-0.9c0.3,0,0.7-0.2,0.7-0.1
		c0,0,0,0.1-0.1,0.2C3.8,15.1,3.7,15.4,3.8,15.6z M3.1,13.8c0,0.1,0,0.2-0.2,0.3c-0.1,0-0.1,0.1-0.3-0.1C2.9,13.8,3.1,13.7,3.1,13.8
		z M1.7,13c0,0.1,0.6,0.3,0.8,0.6c0.1,0.1,0.1,0.3-0.2,0.4c-0.3,0-0.5-0.1-0.6-0.2C1.7,13.7,1.7,13.4,1.7,13z M0.7,18.8L0.7,18.8
		c-0.2-0.4-0.2-0.5-0.2-0.5l0,0.1C0.6,18.6,0.7,18.7,0.7,18.8z M0.8,17.6c0.6-0.2,1-0.2,1-0.2c0,0.1,0,0.1-0.1,0.1
		C1.5,17.6,0.9,17.8,0.8,17.6z M1.5,20C1.5,19.9,1.5,19.9,1.5,20c0.1-0.1,0.3-0.1,0.4,0.1l0,0.1C1.7,20,1.6,20,1.5,20z M2,21.2
		c0,0,0.7-0.2,1.5,0.2C2.9,21.6,2.5,21.5,2,21.2z M3.1,25.1c0.1-0.1,0.2-0.1,0.3,0c0.1,0.1,0.1,0.4,0.1,0.6
		c-0.5,0.2-0.7,0.2-0.8,0.1C2.6,25.7,2.7,25.3,3.1,25.1z M1.5,26l-0.1-0.2c0.1,0.1,0.2,0.1,0.3,0.1c0.1-0.1,0-0.4-0.4-1L2.1,25
		c0-0.1,0-0.1,0-0.1l0.1-0.1c0,0.6,0.1,1.2,0.3,1.7C2,26.6,1.8,26.4,1.5,26z M3.2,28.5c-0.6,0.3-0.9,0.1-1.2-0.3
		c-0.1-0.2-0.2-0.4-0.2-0.6l0.6,0c0.3-0.1,0.4-0.1,0.4-0.1c0,0.1,0,0.1,0,0.1c0,0-0.1,0-0.2,0C3,27.8,3.2,27.9,3.3,28
		C3.3,28.2,3.4,28.3,3.2,28.5z M3.1,26.6c0,0,0.5,0,0.6,0.1C3.2,26.7,3.1,26.7,3.1,26.6z M3.5,24.8l0-0.8
		C3.6,24.2,3.8,24.6,3.5,24.8z M3.4,23.7c-0.1,0-0.2,0-0.3-0.2c-0.1-0.2,0-0.4,0.1-0.4c0.1-0.1,0.3-0.1,0.5,0
		C3.6,23.2,3.6,23.6,3.4,23.7z M3.7,26.2l0.6,0.2C4.1,26.6,3.9,26.5,3.7,26.2z M4.8,13.8c-0.3,0.1-0.7,0.2-1,0.2L3.9,14
		c0.2-0.1,1-0.4,1-0.4C5,13.7,5,13.7,4.8,13.8z M5.2,28.9l0.1-0.3C5.3,28.8,5.2,28.9,5.2,28.9z M5.3,14.5l0.1-0.3
		C5.4,14.4,5.3,14.5,5.3,14.5z M4.5,10.8c0.3,0,0.4,0,0.6-0.1c0.2-0.1,0.3-0.2,0.4-0.5c0.2,0.2,0.4,0.4,0.6,0.7
		c0.1,0.2,0.2,0.3,0.2,0.5c0.1-0.1,0.3-0.7,0.5-0.8c0.1,0,0.1-0.1,0.3,0l-0.6,1.2C6,11.2,5.3,10.9,4.5,10.8z M6.3,22.2
		c0,0,0-0.1,0.2-0.3c0.3-0.1,0.5-0.1,0.6,0.1C7,22.2,6.3,22.4,6.3,22.2z M6.9,32.4l0,0.2c0-0.3-0.1-0.4-0.1-0.5
		c-0.1-0.2-0.4-0.4-0.7-0.3l0.8-0.6l0.1,0.2l0.5,0.5c-0.1,0-0.2,0-0.4-0.2c0.1,0.1,0.1,0.3,0.1,0.4L7,31.9c0,0.2,0,0.3,0,0.3
		l0.1,0.2C7.1,32.4,7,32.4,6.9,32.4z M7.3,33c0-0.3,0.2-0.4,0.3-0.5c0.1-0.1,0.3,0,0.6,0.1L7.3,33z M7.7,33.5l-0.4,0
		C7.4,33.4,7.6,33.3,7.7,33.5z M7.8,34.2c-0.1,0-0.2,0-0.5,0C7.7,34,7.9,34,7.9,34.1C8,34.2,7.9,34.2,7.8,34.2z M8.2,35.9l0.3-0.1
		l0,0.1C8.4,35.9,8.3,35.9,8.2,35.9z M8.3,24.5c0.2,0,0.3,0,0.3,0C8.6,24.6,8.4,24.6,8.3,24.5z M9.2,18.8c-0.1-0.1-0.3-0.1-0.5-0.1
		C8.9,18.6,9.1,18.6,9.2,18.8z M9.2,20.7l-0.3-0.1C9.1,20.6,9.1,20.6,9.2,20.7z M9.7,36.7c-0.4,0-0.6,0-0.6,0l0.1,0
		C9.2,36.5,9.6,36.5,9.7,36.7z M9.7,19.2c-0.1,0-0.2,0.1-0.3,0C9.5,19.1,9.5,19,9.6,19c0,0,0.1,0,0.3,0C9.8,19.1,9.8,19.2,9.7,19.2z
		 M10.2,19.2c0,0-0.1,0-0.1-0.1l-0.2-0.3c0.1,0,0.2,0,0.2,0c0,0,0-0.1,0-0.1c0,0,0.1,0,0.2-0.1C10.3,19,10.3,19.2,10.2,19.2z
		 M10.2,17.6l0.3,0C10.4,17.7,10.2,17.6,10.2,17.6z M10.4,17.2C10.4,17.1,10.4,17.1,10.4,17.2c0.1,0,0.1,0.1,0.2,0.1
		C10.6,17.3,10.4,17.2,10.4,17.2z M10.6,19.1c0.1,0,0.1,0,0.1,0l0,0C10.7,19.1,10.7,19.1,10.6,19.1z M10.4,13.5
		c0.1,0,0.3-0.2,0.6-0.4l0,0.3C10.9,13.4,10.7,13.5,10.4,13.5z M11.1,16.2c-0.1-0.1-0.1-0.2,0-0.3L11.1,16.2z M11.7,16l0.1,0.1
		c0.1,0.1,0.1,0.3-0.3,0.5C11.5,16.3,11.6,16.1,11.7,16z M11.7,17c0.2,0,0.3,0,0.4,0.1L11.7,17z M11.9,15.3l0.4,0
		C12.3,15.3,12,15.4,11.9,15.3z M13,12.4l-0.4,0C12.8,12.4,12.9,12.3,13,12.4z M13.1,13.6C13,13.6,13,13.7,13,13.6
		C13,13.6,13,13.6,13.1,13.6C13.1,13.5,13.1,13.5,13.1,13.6L13.1,13.6z M13.3,12.9c0-0.1,0-0.1,0-0.2L13.3,12.9z M13.5,14.2l0.1-0.3
		C13.6,14,13.6,14.1,13.5,14.2z M13.6,13l0-0.2C13.6,12.9,13.6,13,13.6,13z M15.4,13.5c0.1,0.2,0.1,0.3,0,0.5
		C15.4,13.8,15.4,13.7,15.4,13.5z M15.1,12.7c0,0,0.1,0.1,0,0.2L15.1,12.7L15.1,12.7z M14.9,14.2c0.1,0.1,0.2,0.1,0.3,0.1
		c0,0,0.1,0.1,0,0.2c-0.2,0-0.2,0-0.3-0.1C14.9,14.5,14.9,14.3,14.9,14.2z M15.2,15.5L15.2,15.5c-0.1,0,0,0,0-0.1
		C15.3,15.4,15.3,15.5,15.2,15.5z M15.1,15c0,0,0-0.1,0.1-0.1l0.3-0.2c0.1,0.1,0,0.2,0,0.2c0,0,0.1,0,0.1,0c0,0,0.1,0.1,0.1,0.2
		C15.3,15.1,15.1,15.1,15.1,15z M16.1,14.7c0,0-0.1,0.1-0.3,0c0-0.2,0-0.4,0-0.5c0.1-0.1,0.2,0,0.4,0.1
		C16.2,14.6,16.2,14.7,16.1,14.7z M18.4,15.5l-0.3,0C18.3,15.4,18.4,15.4,18.4,15.5z M16.7,14.8l0,0.3C16.6,15,16.6,14.8,16.7,14.8z
		 M17,15.1c0,0,0-0.2,0.1-0.2c0,0,0.1,0,0.1,0C17.1,15.1,17.1,15.1,17,15.1z M17.4,16.7l0.1-0.4C17.5,16.4,17.5,16.5,17.4,16.7z
		 M17.7,14.8C17.7,14.8,17.7,14.8,17.7,14.8c0-0.1,0.2-0.1,0.4-0.1C17.9,14.8,17.8,14.8,17.7,14.8z M18.4,16.2
		c-0.1,0.1-0.3,0.1-0.5-0.2C18.1,16,18.3,16,18.4,16.2L18.4,16.2z M23.3,8.5c-0.2,0.1-0.2,0.1-0.3,0.1C23.1,8.6,23.3,8.5,23.3,8.5z
		 M23.2,9.4c0,0,0,0.1-0.1,0.3c-0.1,0.2-0.3,0.2-0.5,0.2C22.7,9.7,23.1,9.3,23.2,9.4z M23.3,10L23,10.2C23,10.1,23.1,10,23.3,10z
		 M22.7,10.9l-0.1,0C22.7,10.9,22.7,10.9,22.7,10.9z M21.8,8.8c0,0,0,0.3-0.2,0.3L21.8,8.8z M19.2,16.2l0.1,0.4
		C19.2,16.6,19.1,16.3,19.2,16.2z M19.8,16.4c0,0,0-0.1,0-0.2L19.8,16.4z M19.5,13.7c0.4-0.1,0.5,0.1,0.6,0.9
		c0.2,0.8,0.2,0.8,0.2,0.8C18.9,14.8,19.1,13.7,19.5,13.7z M20.8,8.7c0-0.1,0.1-0.1,0.2-0.1C20.9,8.7,20.8,8.7,20.8,8.7z M21.1,8.7
		l0.1-0.1C21.3,8.6,21.2,8.7,21.1,8.7z M21.9,9.4l-0.2,0.1c-0.1-0.1-0.1-0.2-0.2-0.4C21.5,9.2,21.6,9.3,21.9,9.4z M22,10.3
		c-0.1,0-0.2,0-0.2-0.2L22,10.3z M21.5,10.9c0.3,0.1,0.3,0.2,0.3,0.2c0,0,0,0,0,0C21.7,11.2,21.6,11.1,21.5,10.9z M21.8,11.4l0.2,0
		C21.9,11.4,21.9,11.5,21.8,11.4z M22.1,11C22,11,22,10.9,22.1,11C22,10.9,22,10.9,22.1,11C22.1,10.9,22.1,11,22.1,11L22.1,11z
		 M22.1,9.7h0.1c0.2,0,0.3,0.1,0.3,0.5C22.3,10,22.2,9.9,22.1,9.7z M22.4,11.5C22.4,11.5,22.4,11.4,22.4,11.5
		c0.1-0.1,0.1-0.1,0.2-0.1C22.6,11.4,22.4,11.5,22.4,11.5z M22.6,11.2l0.2-0.1C22.7,11.2,22.6,11.2,22.6,11.2z M22.9,10.6l-0.1-0.3
		C22.8,10.4,22.9,10.5,22.9,10.6z M22.9,15.3c0,0,0,0,0.2-0.8c0.2-0.8,0.2-0.9,0.6-0.9C24.2,13.8,24.3,14.8,22.9,15.3z M25,17
		c-0.1-0.1-0.1-0.3,0-0.3C25,16.9,25,17,25,17z M25.8,16.4c0.1,0,0.3-0.2,0.6-0.4l0,0.3C26.3,16.4,26.1,16.4,25.8,16.4z M27.2,15.2
		c-0.1-0.1-0.4-0.8-0.3-0.9c0,0,0.1,0,0.3,0.2C27.4,14.9,27.4,15,27.2,15.2z M28.4,15.4l-0.4,0C28.1,15.3,28.3,15.2,28.4,15.4z
		 M28.5,16.5c-0.1,0.1-0.1,0.1-0.1,0.1C28.3,16.6,28.3,16.5,28.5,16.5C28.4,16.4,28.5,16.4,28.5,16.5L28.5,16.5z M28.6,15.8
		c0-0.1,0-0.1,0-0.2L28.6,15.8z M28.9,17.1l0.1-0.3C29,16.9,29,17,28.9,17.1z M29,16l0-0.2C29,15.8,29,15.9,29,16z M29.4,7.3
		c0.1,0,0.4-0.1,0.5,0C29.6,7.3,29.5,7.4,29.4,7.3z M41.1,16.2c0.1,0,0.3,0,0.3,0.1c0.1,0.1,0,0.3-0.3,0.4
		C40.9,16.5,40.9,16.3,41.1,16.2z M38.1,14.1c0.5-0.3,2,0.3,2.8,0.6C39.8,15,38.9,14.8,38.1,14.1z M40.9,15.7c-0.4,0.2-0.8,0-1-0.4
		L40.9,15.7z M38.9,12.9L38.9,12.9c0.1,0.1,0,0.2-0.2,0.4C38.8,13,38.9,12.9,38.9,12.9z M38.3,10.2c-0.2,0.1-0.3,0.1-0.4-0.1
		C38,10.1,38.1,10.2,38.3,10.2z M37.1,10.5c0.1,0,0.3,0,0.4,0C37.2,10.6,37.1,10.6,37.1,10.5C37,10.5,37,10.5,37.1,10.5z M37.5,11.7
		c0.1,0.2,0.2,0.5,0.3,0.6c-0.2,0.1-0.6-0.4-0.8-0.6L37,11.5C37.3,11.3,37.4,11.5,37.5,11.7z M35.9,8.9c0.2,0.4,0,0.9,0.1,1.1
		c0.5-0.2,0.8-0.3,0.9-0.2c0,0.1,0,0.2-0.2,0.5c0.1-0.1,0.2,0,0.2,0c0.1,0.2-0.3,1.3-0.7,1.5c-0.2,0.1-0.4,0.1-0.5-0.2
		c0.4-0.2,0.2-0.4,0.3-1.2l-0.9,0.6c0,0.1,0.6,0,0.7,0.2c0,0.1,0,0.1-0.2,0.2c-0.2,0.1-0.5,0-0.6-0.2c-0.3-0.4-0.3-1.2,0-1.5
		c0.3,0.6,0.3,0.7,0.3,0.7c0,0.1,0.1,0,0.1,0.1c0.1-0.6,0.1-0.8,0-0.9c-0.1-0.2-0.4-0.4-0.8-1C35.3,8.4,35.7,8.6,35.9,8.9z
		 M34.7,11.9c0-0.3,0-0.4,0-0.4S34.8,11.8,34.7,11.9z M34.2,6.2C34,6.3,33.7,6,33.6,5.8L34.2,6.2z M30.8,16.4c0.1,0.2,0.1,0.3,0,0.5
		C30.8,16.7,30.8,16.6,30.8,16.4z M30.4,15.7c0,0,0.1,0.1,0,0.2L30.4,15.7L30.4,15.7z M30.3,17.1c0.1,0.1,0.2,0.1,0.3,0.1
		c0,0,0.1,0.1,0,0.2c-0.2,0-0.2,0-0.3-0.1C30.3,17.4,30.3,17.3,30.3,17.1z M30.6,18.4L30.6,18.4c-0.1,0,0,0,0-0.1
		C30.7,18.4,30.7,18.4,30.6,18.4z M30.4,18c0,0,0-0.1,0.1-0.1l0.3-0.2c0.1,0.1,0,0.2,0,0.2c0,0,0.1,0,0.1,0c0,0,0.1,0.1,0.1,0.2
		C30.7,18,30.5,18,30.4,18z M31.5,17.6c0,0-0.1,0.1-0.3,0c0-0.2,0-0.4,0-0.5c0.1-0.1,0.2,0,0.4,0.1C31.5,17.5,31.6,17.6,31.5,17.6z
		 M32,17.7l0,0.3C32,17.9,32,17.7,32,17.7z M32.6,9.7c0.2,0.1,0.6,0,0.7,0c0.1-0.1,0.3-0.2,0.5-0.5L34,9.2c0.1,0.1,0.1,0.3,0.2,0.5
		c0,0.1,0.1,0.1,0.1,0.1c-0.8,0.3-1,0.3-1.7,0.7c0.1-0.2,0.1-0.4,0-0.5c-0.1-0.2-0.3-0.2-0.6-0.2L32.6,9.7L32.6,9.7z M33.6,11.2
		l-0.1,0.1c0-0.5,0-0.6,0-0.6c0.1,0,0.2,0,0.3-0.1c0.1,0,0.1-0.2,0.3-0.3C34.3,10.6,33.9,11,33.6,11.2z M32.4,18c0,0,0-0.2,0.1-0.2
		c0,0,0.1,0,0.1,0C32.5,18,32.4,18,32.4,18z M33,11.4c0.2,0.3,0.2,0.6,0,0.9c-0.2,0.1-0.3,0.1-0.4,0.1C32.6,12.2,32.8,11.6,33,11.4z
		 M32.8,19.6l0.1-0.4C32.9,19.3,32.9,19.5,32.8,19.6z M33.1,17.7C33.1,17.7,33.1,17.7,33.1,17.7c0-0.1,0.2-0.1,0.4-0.1
		C33.3,17.8,33.1,17.8,33.1,17.7z M33.7,19.1c-0.1,0.1-0.3,0.1-0.5-0.2C33.5,18.9,33.7,18.9,33.7,19.1L33.7,19.1z M33.5,18.4
		c0.1-0.1,0.2-0.1,0.3,0L33.5,18.4z M34,28.6l0-0.3C34,28.5,34,28.6,34,28.6z M34.1,33.7c0.2,0.1,0.5,0.1,0.8,0.2
		C34.6,34.1,34.3,34,34.1,33.7z M34.7,30.7c-0.2,0-0.3,0-0.4-0.2L34.7,30.7z M34.5,19.1l0.1,0.4C34.6,19.5,34.4,19.2,34.5,19.1z
		 M35.2,19.3c0,0,0-0.1,0-0.2L35.2,19.3z M35.5,30.3l-0.1-0.2c-0.1-0.1-0.1-0.2-0.1-0.2c0,0,0.1,0,0.1,0.1
		C35.5,30.1,35.5,30.2,35.5,30.3z M35.5,24.2c0.1-0.1,0.4-0.1,0.5,0C35.6,24.3,35.5,24.2,35.5,24.2z M35.9,33.5l0.3,0l0,0.1
		C36.1,33.6,36,33.6,35.9,33.5z M36.1,31l0.4,0C36.4,31.1,36.2,31.1,36.1,31z M36.5,30.6c0.1,0,0.2,0,0.2,0.1L36.5,30.6z M36.2,26.7
		c-0.1-0.2,0-0.6,0-1c0,0.2,0.2,0.5,0.5,1L36.2,26.7z M37.3,30.3l0-0.6C37.4,29.8,37.5,30.1,37.3,30.3z M38.9,28.6
		c-0.5,0.2-0.8,0.1-1.1-0.2c0.2-0.1,1.4-0.4,1.5-0.2C39.3,28.2,39.2,28.3,38.9,28.6z M40.1,29c-0.2-0.3-0.2-0.5-0.1-0.5
		c0.1,0,0.2,0,0.3,0.2C40.4,28.7,40.4,28.8,40.1,29z M41.9,23.7c-0.1-0.1-0.2-0.1-0.2-0.2l0.1,0c0,0,0.1,0,0.1,0.1
		C41.9,23.6,42,23.6,41.9,23.7z M41.5,25.6c0,0-1.6-0.7-2-0.4c-0.1,0.1-0.2,0.3,0.1,0.6c0.5-0.3,0.8-0.4,0.9-0.1
		c0.1,0.2,0.1,0.4,0,0.9l-1-0.3c0,0.1,0.2,0.7,0.1,0.8c-0.4-0.2-0.8-0.3-1.1-0.3c-0.2,0.3-0.3,0.5-0.2,0.7c0,0.1,0.2,0.1,0.3,0.2
		c-0.4,0.2-1.2-1.7-2.1-2.3c0,0.2,0,0.4-0.1,0.4c-0.1,0.1-0.4-0.2-0.4-0.2c0-0.8,0.3-1.7,0.6-1.9c0.2-0.1,0.4-0.1,0.8,0.1
		c0-0.2-0.5-0.8-0.3-1c-0.1,0.1-0.1,0.2-0.2,0.2c-0.1,0-0.1-0.1-0.7-0.3c0.4-0.4,0.8-1.4,1.3-1.7c-0.6,0-0.5,0.1-0.9-0.1l0.5-0.3
		c-0.3-0.2-0.3-0.2-0.4-0.2c0,0,0,0.1-0.1,0.2c-0.1,0-0.2,0.1-0.3,0.1c0.1-0.7,0.2-1.3,0.4-2L36.5,19c-0.1,0.1-0.3,0.2-0.5,0.1
		c0.1-1.2,0.2-1.5,0.3-1.6c0.1-0.1,0.4,0.3,1.1-0.1c0.1,0,0.1-0.1,0-0.2c-0.1-0.2-0.8-0.6-1-0.7c0,0.1,0,0.1-0.1,0.1
		c-0.1,0-0.1,0-0.2,0c-0.1,0.1-0.1,0.2-0.2,0.2c-0.2,0.1-0.4,0-1,0.3c0.1-0.3,0.5-1,0.7-1.7l0.1,0c0.1-0.4,0.2-0.7,0.1-0.8
		c0-0.1-0.1-0.1-0.3,0c-0.2,0.1-0.4,0.3-0.8,0.6c0-0.2-0.1-0.3-0.1-0.3c-0.5-0.8-0.8,0.8-1.6-0.5c0.4,0.2,1.1,0.1,1.6-0.2
		c0.1-0.1,0.2-0.1,0.3-0.3c0-0.1-0.4,0-0.8-0.1c0.2,0,0.3-0.1,0.5-0.2c-0.1-0.2-1.1-0.5-1.3-0.4l0.1,0.1c0.1,0.2,0.2,0.3,0.4,0.4
		c-0.4-0.1-0.7-0.2-1-0.6c0.8-0.5,1.2-0.6,1.6-0.6c0-0.2,0-0.4-0.1-0.5c-0.1-0.2-0.3-0.3-0.7-0.3c0.5-0.3,0.8,0,1.1,0.4
		c0.1,0.2,0.3,0.6,0.4,0.8l0.1-0.1c0.1-0.1,0.2-0.1,0.2-0.3c0-0.2-0.1-0.3-0.2-0.5c0.2,0,0.3,0.1,0.4,0.2c0.1,0.1-0.1,0.2-0.1,0.3
		c0.5,0.3,0.7,0.3,0.8,0.3c0.1,0-0.2-0.4,0-0.6c0.1,0.1,0.1,0.3,0.2,0.5c0.2,0.4,0.7,0.7,1.2,0.8l0-0.1c-0.1-0.2-0.3-0.3-0.4-0.5
		c-0.1-0.2-0.2-0.4,0.1-0.6c0.3,0.2,0.7,0.4,1,0.6l-0.5,0.3c0.3,0,0.6,0.1,0.8,0.4c-0.4,0.5-0.7,0.6-0.6,0.6c0,0.1,0.3,0.1,0.8,0.6
		c-0.6,0.3-0.8,0.4-1.4,0.5c0.3,0.5,0.7,0.9,1.3,1.1c0.1-0.1,0.1-0.2,0.1-0.2c0-0.1-0.1-0.1-0.4,0c0-0.1,0-0.2,0.1-0.2
		c0.1-0.1,0.3-0.1,0.5,0c-0.4-0.2-0.7-0.4-0.8-0.5c0.5-0.3,1,0,1.5,0c0.2,0.3,0.2,0.5,0.1,0.5l-0.1,0c0.3,0.1,0.6,0.2,0.6,0.2
		c-0.2,0.4-0.3,0.7-0.4,1c0.1,0.1,0.3,0.1,0.4,0c0.1-0.1,0.1-0.2,0.1-0.5c0.1,0.2,0.4,0.4,0.7,0.4c0.3,0.4-0.3,0.9-0.9,1.2
		c-0.4,0.2-0.7,0.4-0.9,0.5c0.1,0.1,0.2,0.1,0.3,0.2c0,0.1,0,0.2,0,0.3c0.1,0.1,0.4-0.1,0.6-0.2c0.6-0.3,1.4-1.1,1.2-1.4
		c0,0,0-0.1-0.1-0.1c0.3-0.2,0.6,0,0.8,0.3c0.2,0.4,0.2,1-0.1,1.1c0-0.1,0-0.2-0.1-0.2c-0.1-0.2-0.3-0.2-0.6-0.2
		c-0.9,0.9-0.5,1.8-0.4,2l0,0.1c0.4,0.7,0.8-0.8,1.7,0.5c-0.4,0.3-0.9,0.4-1.3,0.1c0,0.2,0,0.3,0.1,0.4c0.2,0.3,0.6,0,0.8,0.4
		C40.3,23.2,42.5,25,41.5,25.6z M42.1,22.6c0,0,0.3,0,0.4,0C42.2,22.7,42.1,22.7,42.1,22.6z"/>
	<path class="st0" d="M1.5,22.6c0.1,0,0.1-0.5,0.1-0.6L1.5,22.6z"/>
	<path class="st0" d="M0.4,22.7L1,22.6c-0.3-0.3-0.7-0.6-1-0.9c0,0.3,0,0.7,0,1c0.1-0.1,0.2-0.2,0.4-0.4C0.4,22.4,0.4,22.6,0.4,22.7
		z"/>
	<path class="st0" d="M40.4,20.3c0-0.1-0.2,0-0.5-0.1C40,20.3,40.4,20.4,40.4,20.3z"/>
	<path class="st0" d="M40.8,24.1c0,0.1,0.2,0.1,0.4,0.2C41,24.1,40.8,24.1,40.8,24.1L40.8,24.1z"/>
	<path class="st0" d="M37.1,25c-0.1,0-0.1,0.1,0,0.3c0.1,0.1,0.2,0.3,0.4,0.5l-0.1-0.2c-0.1-0.2-0.1-0.3-0.1-0.4
		c0.1,0,0.3,0,0.5,0.1c0.1,0,0.2,0,0.2,0l0.1,0C37.9,25,37.3,24.8,37.1,25z"/>
	<path class="st0" d="M37.7,23c0.1,0.1,0.1,0.2,0.4,0.4l-0.6-1C37.5,22.6,37.6,22.7,37.7,23z"/>
	<path class="st0" d="M38.9,21.1c-0.1-0.4-0.3-0.9-0.5-1.3c0,0.1-0.4,0.8-0.4,0.8l0.1,0.2C38.4,21.3,38.3,20.7,38.9,21.1z"/>
	<path class="st0" d="M37,19.7c-0.1,0-0.1,0.1-0.1,0.2c0.2,0.2,0.4,0.3,0.6,0.1c0.1,0,0.1-0.2,0.2-0.3C37.4,19.6,37.1,19.6,37,19.7z
		"/>
	<path class="st0" d="M38.9,26.4c0,0-0.1-0.1-0.3-0.3L38.9,26.4z"/>
	<path class="st0" d="M38.7,24c0,0-0.3,0.4-0.2,0.5C38.6,24.2,38.7,24.1,38.7,24z"/>
	<path class="st0" d="M38.5,23.4c0,0.1,0.1,0.2,0.1,0.3c0.1-0.3,0.1-0.7,0-1c-0.3,0.4-0.3,0.5-0.3,0.5
		C38.4,23.3,38.5,23.3,38.5,23.4z"/>
	<path class="st0" d="M37.2,19.2L37,19.3c0.8,0.4,1.5,0.4,1.8,0.2c0.2-0.1,0.3-0.2,0.3-0.4C38.2,19.1,37.9,18.8,37.2,19.2z"/>
</g>
</svg>
