<?xml version="1.0" encoding="utf-8"?>
<!-- Generator: Adobe Illustrator 23.0.0, SVG Export Plug-In . SVG Version: 6.00 Build 0)  -->
<svg version="1.1" id="Layer_1" xmlns="http://www.w3.org/2000/svg" xmlns:xlink="http://www.w3.org/1999/xlink" x="0px" y="0px"
	 viewBox="0 0 329.2 324.1" style="enable-background:new 0 0 329.2 324.1;" xml:space="preserve">
<style type="text/css">
	.st0{fill:#FFFFFF;}
</style>
<path class="st0" d="M37.5,37v250.1h254.1V37H37.5z M188.4,228.4h-0.1c0,4.9-0.5,9.5-1.6,13.8s-3,8-5.7,11.3
	c-2.7,3.2-6.4,5.7-11,7.6c-4.6,1.8-10.4,2.8-17.4,2.8c-6.4,0-12-0.8-16.6-2.4c-4.7-1.5-8.5-3.4-11.5-5.5l7.4-17.3
	c2.7,1.6,5.7,3,8.8,4.3c3.1,1.3,6.6,1.8,10.3,1.8c5.4,0,9.3-1.3,11.7-4c2.4-2.7,3.6-7.2,3.6-13.5v-64.8h22.2V228.4z M266,255.9
	c-6.5,5.1-16.3,7.7-29.4,7.7c-4.4,0-8.3-0.2-11.9-0.8c-3.5-0.5-6.7-1.2-9.4-1.9c-2.7-0.8-5.1-1.5-7-2.4c-2-0.8-3.6-1.7-4.9-2.4
	l6.3-17.8c3,1.6,6.6,3.1,11,4.4c4.7,1.4,10,2,16.3,2c3.2,0,5.8-0.2,7.8-0.8c2-0.5,3.7-1.3,4.9-2.1s2.1-2,2.6-3.2
	c0.5-1.3,0.7-2.6,0.7-4.2c0-3.2-1.6-6-4.6-8.1c-3-2.1-8.3-4.5-15.8-7c-3.3-1.1-6.5-2.4-9.8-3.9c-3.3-1.5-6.1-3.3-8.8-5.6
	c-2.6-2.3-4.7-4.9-6.3-8.2c-1.6-3.2-2.4-7.1-2.4-11.7c0-4.6,0.8-8.7,2.6-12.4c1.7-3.7,4.2-6.8,7.3-9.4c3.2-2.6,7-4.6,11.4-6
	c4.5-1.4,9.5-2.1,15.2-2.1c6.7,0,12.5,0.7,17.3,2.1c4.9,1.4,8.9,3,12,4.7l-6.4,17.6c-2.8-1.4-5.8-2.7-9.2-3.8
	c-3.4-1.1-7.5-1.7-12.3-1.7c-5.4,0-9.2,0.7-11.6,2.2c-2.3,1.5-3.5,3.8-3.5,6.8c0,1.8,0.4,3.3,1.3,4.6c0.8,1.3,2.1,2.4,3.6,3.4
	c1.6,1,3.4,1.9,5.4,2.7c2,0.8,4.4,1.7,6.8,2.5c5.2,1.9,9.7,3.8,13.5,5.7c3.8,1.8,7,4.1,9.5,6.5c2.5,2.5,4.4,5.4,5.7,8.8
	s1.8,7.4,1.8,12.2C275.7,243.6,272.5,250.8,266,255.9z"/>
</svg>
