<?xml version="1.0" encoding="utf-8"?>
<!-- Generator: Adobe Illustrator 22.1.0, SVG Export Plug-In . SVG Version: 6.00 Build 0)  -->
<svg version="1.1" id="Layer_1" xmlns="http://www.w3.org/2000/svg" xmlns:xlink="http://www.w3.org/1999/xlink" x="0px" y="0px"
	 viewBox="0 0 636 636" style="enable-background:new 0 0 636 636;" xml:space="preserve">
<style type="text/css">
	.st0{fill:#FFFFFF;}
</style>
<g>
	<path class="st0" d="M177.8,267.8L39.4,406.2C14,431.6,0,465.4,0,501.4c0,36,14,69.8,39.4,95.2C64.8,622,98.6,636,134.6,636
		s69.8-14,95.2-39.4l90-89.9c5.2-5.3,5.3-13.9,0-19.2c-5.3-5.2-13.9-5.3-19.2,0l-89.9,89.9c-20.3,20.3-47.3,31.5-76.1,31.5
		s-55.8-11.2-76.1-31.5s-31.5-47.3-31.5-76.1s11.2-55.8,31.5-76.1l138.3-138.4c20.3-20.3,47.3-31.5,76.1-31.5s55.8,11.2,76.1,31.5
		c5.3,5.3,13.9,5.3,19.2,0c5.3-5.3,5.3-13.9,0-19.2c-25.4-25.4-59.2-39.4-95.2-39.4C237,228.4,203.2,242.4,177.8,267.8z"/>
	<path class="st0" d="M458.3,368.3l138.4-138.5c25.4-25.4,39.4-59.2,39.4-95.2c0-36-14-69.8-39.4-95.2C571.3,14,537.5,0,501.5,0
		c-36,0-69.8,14-95.2,39.4L321,124.6c-5.2,5.3-5.3,13.9,0,19.2c5.3,5.3,13.9,5.3,19.2,0l85.2-85.2c20.3-20.3,47.3-31.5,76.1-31.5
		c28.8,0,55.8,11.2,76.1,31.5c20.3,20.3,31.5,47.3,31.5,76.1s-11.2,55.8-31.5,76.1L439.2,349.1c-42,42-110.2,42-152.2,0
		c-2.7-2.6-6.1-3.9-9.6-3.9c-3.5,0-6.9,1.3-9.6,3.9c-5.3,5.3-5.3,13.9,0,19.2c25.4,25.4,59.2,39.4,95.2,39.4
		S432.9,393.7,458.3,368.3z"/>
</g>
</svg>
