<?xml version="1.0" encoding="utf-8"?>
<!-- Generator: Adobe Illustrator 23.0.0, SVG Export Plug-In . SVG Version: 6.00 Build 0)  -->
<svg version="1.1" id="Layer_1" xmlns="http://www.w3.org/2000/svg" xmlns:xlink="http://www.w3.org/1999/xlink" x="0px" y="0px"
	 viewBox="0 0 179.2 105.1" style="enable-background:new 0 0 179.2 105.1;" xml:space="preserve">
<style type="text/css">
	.st0{opacity:0.75;fill:#FFFFFF;}
	.st1{fill:#FFFFFF;}
</style>
<path class="st0" d="M175.4,62.6l-28-48.5c-5.2-9-14.5-14.3-24.9-14.2C112.4,0.1,103.1,5.9,98,14.7l-2.1,3.7
	c-4.3,7.4-1.5,16.9,6.1,20.8c7.2,3.7,16,0.8,20.1-6.2l0.7-1.3l19.6,34c2.4,4.2-0.6,9.4-5.4,9.4h-17.3c-2.2,0-4.3-1.2-5.4-3.1
	L89.6,29.3v60l4.8,8.4c2.7,4.6,7.6,7.5,13,7.5h43.4c10.2,0,19.4-5.3,24.5-14.2C180.5,82.1,180.5,71.5,175.4,62.6z"/>
<path class="st0" d="M80.9,14.2C75.7,5.2,66.4-0.1,56,0C45.9,0.1,36.6,5.9,31.5,14.7l-27.7,48c-5.2,9-5.1,19.7,0.2,28.6
	c5.2,8.7,14.8,13.9,24.9,13.9l39.8,0c8.5,0,15.4-7.1,15-15.7c-0.4-8.1-7.3-14.3-15.4-14.3l-26.2,0c-4.8,0-7.9-5.2-5.4-9.4l14.2-24.6
	c2.4-4.2,8.5-4.2,10.9,0l27.8,48.2v-60L80.9,14.2z"/>
<g>
	<path class="st1" d="M68.3,75.1c0,0-28.2-0.1-28.6-0.1c-13.8,0-35.7,2.4-32-19.1l-3.9,6.7c-5.2,9-5.1,19.7,0.2,28.6
		c5.2,8.7,14.8,13.9,24.9,13.9h39.8c8.5,0,15.4-7.1,15-15.7C83.4,81.3,76.4,75.1,68.3,75.1z"/>
</g>
<g>
	<path class="st1" d="M102,39.2c6.9,3.6,15.3,1,19.5-5.4C130,23.9,132.1,10,145.9,12C140.5,4.3,132-0.1,122.5,0
		C112.3,0.1,103.1,5.9,98,14.7l-2.1,3.7C91.6,25.7,94.3,35.2,102,39.2z"/>
</g>
<g>
	<path class="st1" d="M114.9,72.8c-0.2-0.3-0.4-0.5-0.6-0.9L80.9,14.2C75.7,5.2,66.4-0.1,56.1,0C45.9,0.1,36.7,5.9,31.6,14.7
		l-1.5,2.6C49.6,11,54.1,29,61.8,41.1c0,0,0,0,0,0l0,0c0.8,1.2,1.5,2.5,2.2,3.8l30.5,52.7c2.7,4.6,7.6,7.5,13,7.5h43.4
		c4.1,0,8.1-0.9,11.6-2.5C145.7,109.2,128.4,92.9,114.9,72.8z"/>
</g>
</svg>
