<?xml version="1.0" encoding="utf-8"?>
<!-- Generator: Adobe Illustrator 22.1.0, SVG Export Plug-In . SVG Version: 6.00 Build 0)  -->
<svg version="1.1" id="Layer_1" xmlns="http://www.w3.org/2000/svg" xmlns:xlink="http://www.w3.org/1999/xlink" x="0px" y="0px"
	 viewBox="0 0 323.6 62" style="enable-background:new 0 0 323.6 62;" xml:space="preserve">
<style type="text/css">
	.st0{fill:#FFFFFF;}
</style>
<g>
	<g>
		<path class="st0" d="M8.4,21.8c0-0.5-0.1-0.9-0.2-1.2C8.1,20.3,8,20,7.8,19.8c-0.2-0.2-0.4-0.4-0.6-0.5s-0.5-0.2-0.8-0.2H6v7.7
			h0.9v0.2H2.8v-0.2h0.9v-7.7H3.3c-0.3,0-0.5,0.1-0.8,0.2c-0.2,0.1-0.5,0.3-0.7,0.5c-0.2,0.2-0.3,0.5-0.5,0.8
			c-0.1,0.3-0.2,0.7-0.2,1.2H1v-2.9h7.7v2.9H8.4z"/>
		<path class="st0" d="M18.6,19.1h-0.9v7.7h0.9v0.2h-4.1v-0.2h0.9v-3.8h-2.9v3.8h0.9v0.2H9.2v-0.2h0.9v-7.7H9.2v-0.2h4.1v0.2h-0.9
			v3.6h2.9v-3.6h-0.9v-0.2h4.1V19.1z"/>
		<path class="st0" d="M23.3,26.8c0.4,0,0.7-0.1,1.1-0.2c0.3-0.1,0.6-0.3,0.9-0.5c0.3-0.2,0.5-0.4,0.6-0.7s0.2-0.6,0.2-0.9h0.3v2.5
			h-7.3v-0.3H20v-7.6h-0.8v-0.3h7v2.3h-0.3c0-0.4-0.1-0.7-0.2-1c-0.1-0.3-0.3-0.5-0.6-0.6s-0.5-0.3-0.8-0.3c-0.3-0.1-0.6-0.1-1-0.1
			h-1v3.6h0.6c0.2,0,0.4,0,0.5-0.1c0.2-0.1,0.3-0.2,0.5-0.3s0.2-0.3,0.3-0.5c0.1-0.2,0.1-0.4,0.1-0.6h0.3v3.4h-0.3
			c0-0.6-0.1-1-0.4-1.2c-0.3-0.2-0.6-0.4-1-0.4h-0.6v3.7H23.3z"/>
		<path class="st0" d="M29.4,21.4c0.2-0.5,0.5-1,0.9-1.3c0.4-0.4,0.8-0.7,1.3-0.9c0.5-0.2,1.1-0.3,1.6-0.3s1.1,0.1,1.6,0.3
			c0.5,0.2,1,0.5,1.3,0.9c0.4,0.4,0.7,0.8,0.9,1.3c0.2,0.5,0.3,1.1,0.3,1.6c0,0.4-0.1,0.8-0.2,1.2c-0.1,0.4-0.3,0.7-0.5,1.1
			s-0.5,0.6-0.8,0.9c-0.3,0.3-0.6,0.5-1,0.6c0,0,0,0.1,0,0.1c0,0,0,0.1,0,0.1c0.1,0.1,0.1,0.3,0.2,0.4c0,0.1,0.1,0.3,0.2,0.4
			c0.1,0.1,0.1,0.2,0.2,0.3c0.1,0.1,0.2,0.1,0.3,0.1c0.2,0,0.3-0.1,0.4-0.2s0.1-0.4,0.2-0.7h0.3c0,0.5-0.2,0.9-0.5,1.2
			c-0.3,0.3-0.7,0.4-1.2,0.4c-0.3,0-0.6,0-0.8-0.1c-0.2-0.1-0.4-0.2-0.6-0.3c-0.2-0.1-0.3-0.3-0.4-0.5c-0.1-0.2-0.2-0.4-0.3-0.6
			l0-0.1c-0.6,0-1.1-0.1-1.6-0.4c-0.5-0.2-0.9-0.5-1.3-0.9c-0.4-0.4-0.6-0.8-0.8-1.3c-0.2-0.5-0.3-1-0.3-1.6
			C29.1,22.4,29.2,21.9,29.4,21.4z M34.7,21.1c0-0.4-0.1-0.8-0.2-1.1s-0.2-0.5-0.4-0.7S33.6,19,33.3,19s-0.6,0.1-0.8,0.2
			S32.1,19.7,32,20s-0.2,0.7-0.2,1.1c0,0.5,0,1,0,1.6v0.8c0,0.5,0,1,0,1.4c0,0.4,0.1,0.7,0.2,1c0.1-0.2,0.3-0.3,0.5-0.3
			c0.2-0.1,0.4-0.1,0.7-0.1c0.3,0,0.6,0,0.8,0.1c0.2,0.1,0.4,0.2,0.6,0.3c0.1-0.3,0.1-0.6,0.2-1c0-0.4,0-0.9,0-1.4v-0.9
			C34.8,22,34.7,21.5,34.7,21.1z M32.4,26.7c0.1,0.1,0.3,0.2,0.6,0.2c-0.1-0.2-0.2-0.4-0.3-0.6s-0.2-0.2-0.4-0.2
			c-0.1,0-0.2,0-0.2,0.1C32.2,26.4,32.3,26.6,32.4,26.7z"/>
		<path class="st0" d="M43.7,26.6c0.3-0.1,0.5-0.3,0.7-0.5c0.2-0.2,0.4-0.5,0.5-0.8c0.1-0.3,0.2-0.7,0.2-1.1v-5h-0.9v-0.2h2.2v0.2
			h-0.9v4.9c0,0.5-0.1,0.9-0.2,1.2c-0.1,0.4-0.3,0.7-0.6,1c-0.3,0.3-0.6,0.5-1,0.6c-0.4,0.2-0.9,0.2-1.5,0.2c-0.5,0-0.9-0.1-1.4-0.2
			c-0.4-0.1-0.8-0.3-1.1-0.6c-0.3-0.3-0.6-0.6-0.8-1c-0.2-0.4-0.3-0.9-0.3-1.5v-4.8h-0.9v-0.2h4.1v0.2h-0.9v5.2c0,0.3,0,0.6,0.1,0.9
			c0.1,0.3,0.2,0.6,0.4,0.8c0.2,0.2,0.4,0.4,0.6,0.5c0.3,0.1,0.6,0.2,0.9,0.2C43.2,26.8,43.5,26.8,43.7,26.6z"/>
		<path class="st0" d="M51.1,19.1h-0.9v7.7h0.9v0.2h-4.1v-0.2h0.9v-7.7h-0.9v-0.2h4.1V19.1z"/>
		<path class="st0" d="M58.9,27.1h-0.2c0-0.1-0.1-0.1-0.1-0.2c0,0-0.1-0.1-0.2-0.1c-0.1,0-0.2,0-0.3,0.1c-0.1,0-0.3,0.1-0.6,0.1
			c-0.2,0-0.5,0.1-0.8,0.1c-0.3,0-0.7,0.1-1.1,0.1c-0.6,0-1.1-0.1-1.6-0.2s-1-0.4-1.3-0.8c-0.4-0.3-0.7-0.8-0.9-1.3
			c-0.2-0.5-0.3-1.1-0.3-1.8v0v0c0-0.7,0.1-1.3,0.3-1.9s0.5-1,0.9-1.3c0.4-0.3,0.8-0.6,1.3-0.8s1.1-0.2,1.6-0.2c0.4,0,0.8,0,1.1,0.1
			s0.6,0.1,0.8,0.1c0.2,0,0.4,0.1,0.6,0.1c0.1,0,0.2,0.1,0.3,0.1c0.1,0,0.2,0,0.2-0.1c0,0,0.1-0.1,0.1-0.2h0.2v2.5h-0.2
			c-0.2-0.4-0.3-0.7-0.5-1s-0.3-0.6-0.5-0.8c-0.2-0.2-0.4-0.4-0.7-0.5S56.2,19,55.7,19c-0.3,0-0.6,0.1-0.9,0.3s-0.4,0.5-0.5,0.8
			c-0.1,0.3-0.2,0.8-0.3,1.3S54,22.4,54,23v0c0,0.6,0,1.1,0.1,1.6s0.1,0.9,0.3,1.2c0.1,0.3,0.3,0.6,0.5,0.8c0.2,0.2,0.5,0.3,0.9,0.3
			c0.5,0,0.9-0.1,1.2-0.2s0.5-0.3,0.7-0.5c0.2-0.2,0.4-0.5,0.5-0.8s0.3-0.7,0.5-1h0.2V27.1z"/>
		<path class="st0" d="M62.6,23.3v3.6h0.9v0.2h-4.1v-0.2h0.9v-7.7h-0.9v-0.2h4.1v0.2h-0.9v3.7l3.4-3.7h-0.9v-0.2h2.3v0.2h-0.9
			l-2.1,2.3l3.3,5.4h0.7v0.2h-4v-0.2H65L62.6,23.3L62.6,23.3z"/>
		<path class="st0" d="M76.7,19c0.4,0.1,0.7,0.2,1,0.3s0.5,0.3,0.6,0.6s0.2,0.5,0.2,0.9c0,0.6-0.2,1-0.5,1.3
			c-0.3,0.3-0.8,0.5-1.4,0.6c0.7,0.1,1.3,0.3,1.7,0.6c0.4,0.3,0.6,0.8,0.6,1.4c0,0.5-0.1,0.8-0.3,1.1c-0.2,0.3-0.4,0.5-0.8,0.7
			c-0.3,0.2-0.7,0.3-1.2,0.4c-0.5,0.1-1,0.1-1.5,0.1h-4.2v-0.2H72v-7.7h-0.9v-0.2h4.2C75.8,18.9,76.3,19,76.7,19z M75.1,22.7
			c0.2,0,0.4-0.1,0.5-0.2c0.1-0.1,0.3-0.3,0.3-0.4s0.1-0.4,0.2-0.6c0-0.2,0.1-0.5,0.1-0.7c0-0.6-0.1-1-0.2-1.2
			c-0.1-0.3-0.4-0.4-0.8-0.4h-1v3.6H75.1z M75.4,26.9c0.2,0,0.4-0.1,0.6-0.2c0.1-0.1,0.3-0.3,0.4-0.5c0.1-0.2,0.2-0.4,0.2-0.7
			c0-0.2,0.1-0.5,0.1-0.8c0-0.2,0-0.5-0.1-0.7c0-0.2-0.1-0.4-0.2-0.6c-0.1-0.2-0.3-0.3-0.4-0.4C75.6,23,75.4,23,75.1,23h-0.9v3.9
			H75.4z"/>
		<path class="st0" d="M79.1,27.1v-0.2H80v-7.7h-0.9v-0.2h4.2c0.5,0,1,0,1.4,0.1s0.7,0.2,1,0.3c0.3,0.2,0.5,0.3,0.6,0.6
			s0.2,0.5,0.2,0.9c0,0.6-0.2,1.1-0.6,1.4c-0.4,0.3-0.9,0.5-1.6,0.6c0.3,0,0.7,0,1,0.1c0.3,0.1,0.5,0.2,0.7,0.3
			c0.2,0.2,0.4,0.4,0.5,0.6c0.1,0.3,0.1,0.6,0.1,1c0,0.2,0,0.3,0,0.5c0,0.2,0,0.4,0,0.5s0,0.3,0.1,0.4c0.1,0.1,0.1,0.2,0.3,0.2
			c0.1,0,0.1,0,0.2,0c0,0,0.1-0.1,0.1-0.1c0-0.1,0.1-0.2,0.1-0.3c0-0.1,0.1-0.3,0.1-0.5h0.2c0,0.3-0.1,0.6-0.2,0.8s-0.2,0.4-0.3,0.5
			c-0.1,0.1-0.3,0.2-0.5,0.3c-0.2,0-0.4,0.1-0.7,0.1c-0.4,0-0.7,0-0.9-0.1s-0.4-0.2-0.6-0.4s-0.3-0.5-0.3-0.9s-0.1-0.9-0.1-1.5
			c0-0.4-0.1-0.7-0.2-0.9C84,23.1,83.8,23,83.5,23h-1.2v3.9h0.9v0.2H79.1z M83.2,22.7c0.2,0,0.4-0.1,0.5-0.2
			c0.1-0.1,0.3-0.3,0.3-0.4s0.1-0.4,0.2-0.6c0-0.2,0.1-0.5,0.1-0.7c0-0.6-0.1-1-0.2-1.2c-0.1-0.3-0.4-0.4-0.8-0.4h-1v3.6H83.2z"/>
		<path class="st0" d="M88.3,21.4c0.2-0.5,0.5-1,0.9-1.3c0.4-0.4,0.8-0.7,1.3-0.9c0.5-0.2,1.1-0.3,1.6-0.3s1.1,0.1,1.6,0.3
			c0.5,0.2,1,0.5,1.3,0.9c0.4,0.4,0.7,0.8,0.9,1.3c0.2,0.5,0.3,1.1,0.3,1.6s-0.1,1.1-0.3,1.6c-0.2,0.5-0.5,1-0.9,1.3
			c-0.4,0.4-0.8,0.7-1.3,0.9c-0.5,0.2-1.1,0.3-1.6,0.3s-1.1-0.1-1.6-0.3c-0.5-0.2-1-0.5-1.3-0.9c-0.4-0.4-0.7-0.8-0.9-1.3
			C88.1,24.1,88,23.6,88,23S88.1,21.9,88.3,21.4z M93.6,21.1c0-0.4-0.1-0.8-0.2-1.1s-0.2-0.5-0.4-0.7S92.5,19,92.1,19
			s-0.6,0.1-0.8,0.2S91,19.7,90.9,20s-0.2,0.7-0.2,1.1c0,0.5,0,1,0,1.6v0.8c0,0.6,0,1,0,1.5c0,0.4,0.1,0.8,0.2,1.1
			c0.1,0.3,0.3,0.5,0.5,0.7c0.2,0.2,0.5,0.2,0.8,0.2c0.3,0,0.6-0.1,0.8-0.2c0.2-0.1,0.3-0.4,0.4-0.6c0.1-0.3,0.2-0.6,0.2-1.1
			c0-0.4,0-0.9,0-1.5v-0.9C93.6,22,93.6,21.5,93.6,21.1z"/>
		<path class="st0" d="M108.7,19.1h-0.9v-0.2h2.2v0.2H109l-3.2,8h-1l-2-5l-2,5h-1l-3.2-8h-0.9v-0.2h4.2v0.2H99l2.3,5.8l1.3-3.2
			l-1-2.6h-0.8v-0.2h4.2v0.2H104l2.3,5.8L108.7,19.1z"/>
		<path class="st0" d="M111.8,19.5v7.3h0.9v0.2h-2.2v-0.2h0.9v-7.7h-0.9v-0.2h3.5l3.6,5.8v-5.6h-0.9v-0.2h2.3v0.2H118v7.9h-1.6
			L111.8,19.5z"/>
		<path class="st0" d="M128.7,21.2h-0.3c0-0.4-0.1-0.7-0.2-1c-0.1-0.3-0.3-0.5-0.6-0.6s-0.5-0.3-0.8-0.3c-0.3-0.1-0.6-0.1-1-0.1h-1
			v3.6h0.6c0.2,0,0.4,0,0.5-0.1c0.2-0.1,0.3-0.2,0.5-0.3s0.2-0.3,0.3-0.5c0.1-0.2,0.1-0.4,0.1-0.6h0.3v3.4h-0.3c0-0.6-0.1-1-0.4-1.2
			c-0.3-0.2-0.6-0.4-1-0.4h-0.6v3.7h0.9v0.3h-4v-0.3h0.8v-7.6h-0.8v-0.3h7V21.2z"/>
		<path class="st0" d="M129.6,21.4c0.2-0.5,0.5-1,0.9-1.3c0.4-0.4,0.8-0.7,1.3-0.9c0.5-0.2,1.1-0.3,1.6-0.3s1.1,0.1,1.6,0.3
			c0.5,0.2,1,0.5,1.3,0.9c0.4,0.4,0.7,0.8,0.9,1.3c0.2,0.5,0.3,1.1,0.3,1.6s-0.1,1.1-0.3,1.6c-0.2,0.5-0.5,1-0.9,1.3
			c-0.4,0.4-0.8,0.7-1.3,0.9c-0.5,0.2-1.1,0.3-1.6,0.3s-1.1-0.1-1.6-0.3c-0.5-0.2-1-0.5-1.3-0.9c-0.4-0.4-0.7-0.8-0.9-1.3
			c-0.2-0.5-0.3-1.1-0.3-1.6S129.4,21.9,129.6,21.4z M134.9,21.1c0-0.4-0.1-0.8-0.2-1.1s-0.2-0.5-0.4-0.7s-0.5-0.2-0.8-0.2
			s-0.6,0.1-0.8,0.2s-0.4,0.4-0.5,0.7s-0.2,0.7-0.2,1.1c0,0.5,0,1,0,1.6v0.8c0,0.6,0,1,0,1.5c0,0.4,0.1,0.8,0.2,1.1
			c0.1,0.3,0.3,0.5,0.5,0.7c0.2,0.2,0.5,0.2,0.8,0.2c0.3,0,0.6-0.1,0.8-0.2c0.2-0.1,0.3-0.4,0.4-0.6c0.1-0.3,0.2-0.6,0.2-1.1
			c0-0.4,0-0.9,0-1.5v-0.9C134.9,22,134.9,21.5,134.9,21.1z"/>
		<path class="st0" d="M145.3,19.2l-0.9,0v-0.2l2.3,0v0.2h-0.9l-2.5,3.2l2.9,4.5h0.9v0.2h-4.4v-0.2h0.9l-2.1-3.2l-2.4,3.2h0.9v0.2
			h-2.2v-0.2h0.9l2.6-3.5l-2.7-4.2h-0.9v-0.2h4.4v0.2h-0.9l1.9,2.9L145.3,19.2z"/>
		<path class="st0" d="M150,25.3c0.2-0.2,0.5-0.3,0.8-0.3s0.6,0.1,0.8,0.3c0.2,0.2,0.3,0.5,0.3,0.8c0,0.2-0.1,0.5-0.2,0.7
			c-0.1,0.2-0.3,0.3-0.5,0.4c0.1,0.1,0.2,0.1,0.3,0.1c0.1,0,0.2,0,0.3,0c0.2,0,0.3,0,0.4-0.1c0.1-0.1,0.2-0.1,0.3-0.3
			s0.2-0.3,0.2-0.6s0.1-0.6,0.1-1v-6.2h-1v-0.2h4v0.2h-0.8v5.4c0,0.5-0.1,1-0.2,1.4c-0.2,0.4-0.4,0.7-0.6,0.9
			c-0.3,0.2-0.6,0.4-1,0.5c-0.4,0.1-0.8,0.2-1.3,0.2c-0.5,0-1-0.1-1.4-0.2c-0.4-0.1-0.7-0.4-0.8-0.7c-0.1-0.2-0.1-0.4-0.1-0.5
			C149.7,25.8,149.8,25.5,150,25.3z"/>
		<path class="st0" d="M162.6,26.6c0.3-0.1,0.5-0.3,0.7-0.5c0.2-0.2,0.4-0.5,0.5-0.8s0.2-0.7,0.2-1.1v-5h-0.9v-0.2h2.2v0.2h-0.9v4.9
			c0,0.5-0.1,0.9-0.2,1.2c-0.1,0.4-0.3,0.7-0.6,1c-0.3,0.3-0.6,0.5-1,0.6c-0.4,0.2-0.9,0.2-1.5,0.2c-0.5,0-0.9-0.1-1.4-0.2
			c-0.4-0.1-0.8-0.3-1.1-0.6c-0.3-0.3-0.6-0.6-0.8-1c-0.2-0.4-0.3-0.9-0.3-1.5v-4.8h-0.9v-0.2h4.1v0.2h-0.9v5.2c0,0.3,0,0.6,0.1,0.9
			s0.2,0.6,0.4,0.8c0.2,0.2,0.4,0.4,0.6,0.5c0.3,0.1,0.6,0.2,0.9,0.2C162.1,26.8,162.3,26.8,162.6,26.6z"/>
		<path class="st0" d="M170.9,27.1h-1l-2.9-7.2v7h0.6v0.2h-1.6v-0.2h0.6v-7.7h-0.9v-0.2h3.3l2.4,6l2.4-6h2.8v0.2h-0.6v7.7h0.6v0.2
			h-3.6v-0.2h0.6v-6.8L170.9,27.1z"/>
		<path class="st0" d="M182.9,19c0.4,0.1,0.8,0.2,1.1,0.4c0.3,0.2,0.5,0.4,0.7,0.7s0.2,0.7,0.2,1.1c0,0.5-0.1,0.9-0.3,1.2
			s-0.4,0.6-0.8,0.8c-0.3,0.2-0.7,0.3-1.2,0.4c-0.5,0.1-1,0.1-1.5,0.1h-0.7v3.1h0.9v0.2h-4v-0.2h0.9v-7.7h-0.9v-0.2h4.1
			C181.9,18.9,182.4,19,182.9,19z M181.2,23.5c0.2,0,0.4-0.1,0.6-0.2s0.3-0.3,0.4-0.5c0.1-0.2,0.2-0.4,0.2-0.7
			c0-0.3,0.1-0.6,0.1-0.9c0-0.7-0.1-1.2-0.2-1.5c-0.2-0.4-0.5-0.6-0.9-0.6h-0.9v4.4H181.2z"/>
		<path class="st0" d="M189.1,26.9c0.3,0,0.5-0.1,0.7-0.2c0.2-0.1,0.4-0.2,0.6-0.4c0.2-0.2,0.3-0.3,0.3-0.5c0-0.4-0.1-0.6-0.4-0.8
			c-0.3-0.2-0.6-0.4-1-0.5c-0.4-0.1-0.8-0.3-1.3-0.4s-0.9-0.3-1.3-0.5c-0.4-0.2-0.7-0.5-1-0.8s-0.4-0.8-0.4-1.3
			c0-0.3,0.1-0.6,0.2-0.9c0.1-0.3,0.3-0.6,0.5-0.8c0.2-0.2,0.5-0.4,0.9-0.6c0.3-0.1,0.7-0.2,1.2-0.2c0.3,0,0.5,0,0.8,0.1
			s0.5,0.1,0.8,0.1c0.2,0,0.5,0.1,0.6,0.1c0.2,0,0.3,0.1,0.4,0.1c0.2,0,0.3-0.1,0.4-0.2h0.1v2.4h-0.2c0-0.3-0.1-0.5-0.3-0.8
			c-0.2-0.3-0.5-0.5-0.8-0.7c-0.3-0.2-0.7-0.4-1-0.5c-0.4-0.1-0.7-0.2-1-0.2c-0.4,0-0.8,0.1-1,0.3c-0.3,0.2-0.4,0.5-0.4,0.8
			c0,0.3,0.1,0.5,0.2,0.6s0.4,0.3,0.6,0.4c0.2,0.1,0.5,0.2,0.8,0.3c0.3,0.1,0.6,0.2,1,0.3c0.3,0.1,0.7,0.2,1,0.3s0.6,0.3,0.8,0.5
			s0.4,0.4,0.6,0.7s0.2,0.6,0.2,1.1s-0.1,0.8-0.3,1.1c-0.2,0.3-0.5,0.6-0.8,0.9c-0.3,0.2-0.7,0.4-1.1,0.6c-0.4,0.1-0.8,0.2-1.3,0.2
			c-0.3,0-0.5,0-0.8-0.1c-0.3,0-0.5-0.1-0.7-0.1c-0.2,0-0.4-0.1-0.6-0.1s-0.3-0.1-0.4-0.1c-0.1,0-0.2,0-0.3,0.1
			c-0.1,0.1-0.2,0.1-0.2,0.3h-0.2v-2.8h0.2c0,0.3,0.1,0.6,0.3,0.9s0.4,0.6,0.7,0.8c0.3,0.2,0.6,0.4,0.9,0.6s0.7,0.2,1,0.2
			C188.7,26.9,188.9,26.9,189.1,26.9z"/>
		<path class="st0" d="M195,21.4c0.2-0.5,0.5-1,0.9-1.3c0.4-0.4,0.8-0.7,1.3-0.9c0.5-0.2,1.1-0.3,1.6-0.3s1.1,0.1,1.6,0.3
			c0.5,0.2,1,0.5,1.3,0.9c0.4,0.4,0.7,0.8,0.9,1.3c0.2,0.5,0.3,1.1,0.3,1.6s-0.1,1.1-0.3,1.6c-0.2,0.5-0.5,1-0.9,1.3
			c-0.4,0.4-0.8,0.7-1.3,0.9c-0.5,0.2-1.1,0.3-1.6,0.3s-1.1-0.1-1.6-0.3c-0.5-0.2-1-0.5-1.3-0.9c-0.4-0.4-0.7-0.8-0.9-1.3
			c-0.2-0.5-0.3-1.1-0.3-1.6S194.7,21.9,195,21.4z M200.2,21.1c0-0.4-0.1-0.8-0.2-1.1c-0.1-0.3-0.2-0.5-0.4-0.7
			c-0.2-0.1-0.5-0.2-0.8-0.2s-0.6,0.1-0.8,0.2c-0.2,0.2-0.4,0.4-0.5,0.7c-0.1,0.3-0.2,0.7-0.2,1.1s0,1,0,1.6v0.8c0,0.6,0,1,0,1.5
			s0.1,0.8,0.2,1.1c0.1,0.3,0.3,0.5,0.5,0.7c0.2,0.2,0.5,0.2,0.8,0.2c0.3,0,0.6-0.1,0.8-0.2c0.2-0.1,0.3-0.4,0.4-0.6
			c0.1-0.3,0.2-0.6,0.2-1.1c0-0.4,0-0.9,0-1.5v-0.9C200.3,22,200.3,21.5,200.2,21.1z"/>
		<path class="st0" d="M210.3,19.1h-0.9v-0.2h2.2v0.2h-0.9l-3.2,8h-1l-3.2-8h-0.9v-0.2h4.3v0.2h-0.9L208,25L210.3,19.1z"/>
		<path class="st0" d="M216.3,26.8c0.4,0,0.7-0.1,1.1-0.2c0.3-0.1,0.6-0.3,0.9-0.5c0.3-0.2,0.5-0.4,0.6-0.7s0.2-0.6,0.2-0.9h0.3v2.5
			h-7.3v-0.3h0.8v-7.6h-0.8v-0.3h7v2.3h-0.3c0-0.4-0.1-0.7-0.2-1c-0.1-0.3-0.3-0.5-0.6-0.6c-0.2-0.2-0.5-0.3-0.8-0.3
			c-0.3-0.1-0.6-0.1-1-0.1h-1v3.6h0.6c0.2,0,0.4,0,0.5-0.1c0.2-0.1,0.3-0.2,0.5-0.3s0.2-0.3,0.3-0.5c0.1-0.2,0.1-0.4,0.1-0.6h0.3
			v3.4h-0.3c0-0.6-0.1-1-0.4-1.2c-0.3-0.2-0.6-0.4-1-0.4h-0.6v3.7H216.3z"/>
		<path class="st0" d="M220.1,27.1v-0.2h0.9v-7.7h-0.9v-0.2h4.2c0.5,0,1,0,1.4,0.1c0.4,0.1,0.7,0.2,1,0.3c0.3,0.2,0.5,0.3,0.6,0.6
			s0.2,0.5,0.2,0.9c0,0.6-0.2,1.1-0.6,1.4c-0.4,0.3-0.9,0.5-1.6,0.6c0.3,0,0.7,0,1,0.1c0.3,0.1,0.5,0.2,0.7,0.3
			c0.2,0.2,0.4,0.4,0.5,0.6c0.1,0.3,0.1,0.6,0.1,1c0,0.2,0,0.3,0,0.5c0,0.2,0,0.4,0,0.5c0,0.2,0,0.3,0.1,0.4s0.1,0.2,0.3,0.2
			c0.1,0,0.1,0,0.2,0s0.1-0.1,0.1-0.1c0-0.1,0.1-0.2,0.1-0.3c0-0.1,0.1-0.3,0.1-0.5h0.2c0,0.3-0.1,0.6-0.2,0.8
			c-0.1,0.2-0.2,0.4-0.3,0.5c-0.1,0.1-0.3,0.2-0.5,0.3c-0.2,0-0.4,0.1-0.7,0.1c-0.4,0-0.7,0-0.9-0.1s-0.4-0.2-0.6-0.4
			s-0.2-0.5-0.3-0.9s-0.1-0.9-0.1-1.5c0-0.4-0.1-0.7-0.2-0.9c-0.1-0.2-0.3-0.3-0.6-0.3h-1.2v3.9h0.9v0.2H220.1z M224.1,22.7
			c0.2,0,0.4-0.1,0.5-0.2c0.1-0.1,0.2-0.3,0.3-0.4c0.1-0.2,0.1-0.4,0.2-0.6c0-0.2,0.1-0.5,0.1-0.7c0-0.6-0.1-1-0.2-1.2
			c-0.1-0.3-0.4-0.4-0.8-0.4h-1v3.6H224.1z"/>
		<path class="st0" d="M238.8,21.8c0-0.5-0.1-0.9-0.2-1.2s-0.3-0.6-0.4-0.8c-0.2-0.2-0.4-0.4-0.6-0.5c-0.2-0.1-0.5-0.2-0.8-0.2h-0.4
			v7.7h0.9v0.2h-4.1v-0.2h0.9v-7.7h-0.4c-0.3,0-0.5,0.1-0.8,0.2s-0.5,0.3-0.7,0.5c-0.2,0.2-0.3,0.5-0.5,0.8
			c-0.1,0.3-0.2,0.7-0.2,1.2h-0.2v-2.9h7.7v2.9H238.8z"/>
		<path class="st0" d="M249,19.1H248v7.7h0.9v0.2h-4.1v-0.2h0.9v-3.8h-2.9v3.8h0.9v0.2h-4.1v-0.2h0.9v-7.7h-0.9v-0.2h4.1v0.2h-0.9
			v3.6h2.9v-3.6h-0.9v-0.2h4.1V19.1z"/>
		<path class="st0" d="M253.6,26.8c0.4,0,0.7-0.1,1.1-0.2c0.3-0.1,0.6-0.3,0.9-0.5c0.3-0.2,0.5-0.4,0.6-0.7s0.2-0.6,0.2-0.9h0.3v2.5
			h-7.3v-0.3h0.8v-7.6h-0.8v-0.3h7v2.3h-0.3c0-0.4-0.1-0.7-0.2-1c-0.1-0.3-0.3-0.5-0.6-0.6c-0.2-0.2-0.5-0.3-0.8-0.3
			c-0.3-0.1-0.6-0.1-1-0.1h-1v3.6h0.6c0.2,0,0.4,0,0.5-0.1c0.2-0.1,0.3-0.2,0.5-0.3s0.2-0.3,0.3-0.5c0.1-0.2,0.1-0.4,0.1-0.6h0.3
			v3.4h-0.3c0-0.6-0.1-1-0.4-1.2c-0.3-0.2-0.6-0.4-1-0.4h-0.6v3.7H253.6z"/>
		<path class="st0" d="M263.6,19.2h-0.9v7.6h1c0.4,0,0.7-0.1,1-0.2s0.6-0.3,0.9-0.5c0.3-0.2,0.5-0.5,0.6-0.8s0.2-0.6,0.2-1h0.2v2.7
			h-7.2v-0.3h0.9v-7.6h-0.9v-0.3h4.1V19.2z"/>
		<path class="st0" d="M269.6,24.3l-1,2.5h0.9v0.2h-2.2v-0.2h0.9l3.2-8h1l3.2,8h0.9v0.2h-4.3v-0.2h0.9l-1-2.5H269.6z M272.1,24.1
			l-1.2-3l-1.2,3H272.1z"/>
		<path class="st0" d="M279.7,26.8h0.4c0.3,0,0.7-0.1,1.1-0.2s0.8-0.3,1.2-0.5c0.4-0.2,0.7-0.5,0.9-0.8c0.2-0.3,0.4-0.7,0.4-1.1h0.2
			l0,2.8h-6.7v-0.2l4.1-7.7h-1.1c-0.3,0-0.7,0-1,0.1c-0.3,0.1-0.6,0.2-0.9,0.4c-0.3,0.2-0.5,0.4-0.6,0.7s-0.2,0.7-0.2,1.1h-0.2v-2.6
			h6.5v0.3L279.7,26.8z"/>
		<path class="st0" d="M292.1,19.2l-0.9,0v-0.2l2.3,0v0.2h-0.9l-2.5,3.2h0v4.5h0.7v0.2H287v-0.2h0.7v-4.1l-2.3-3.6h-0.9v-0.2h4.4
			v0.2h-0.9l1.9,2.9L292.1,19.2z"/>
		<path class="st0" d="M296.1,26.9h0.9v-7.7h-0.9v-0.2h4.4c0.6,0,1.1,0.1,1.6,0.2c0.5,0.2,1,0.4,1.3,0.7c0.4,0.3,0.7,0.8,0.9,1.3
			c0.2,0.5,0.3,1.1,0.3,1.9c0,0.7-0.1,1.3-0.3,1.8c-0.2,0.5-0.5,0.9-0.9,1.2c-0.4,0.3-0.8,0.6-1.3,0.7c-0.5,0.2-1.1,0.2-1.6,0.2
			h-4.4V26.9z M301.2,26.6c0.2-0.2,0.4-0.4,0.5-0.8c0.1-0.3,0.2-0.7,0.3-1.2c0-0.5,0.1-1,0.1-1.6c0-0.6,0-1.1-0.1-1.6
			c-0.1-0.5-0.1-0.9-0.3-1.2c-0.1-0.3-0.3-0.6-0.5-0.8c-0.2-0.2-0.5-0.3-0.9-0.3h-1v7.7h1.1C300.7,26.8,301,26.7,301.2,26.6z"/>
		<path class="st0" d="M305.6,21.4c0.2-0.5,0.5-1,0.9-1.3c0.4-0.4,0.8-0.7,1.3-0.9c0.5-0.2,1.1-0.3,1.6-0.3s1.1,0.1,1.6,0.3
			c0.5,0.2,1,0.5,1.3,0.9c0.4,0.4,0.7,0.8,0.9,1.3c0.2,0.5,0.3,1.1,0.3,1.6s-0.1,1.1-0.3,1.6c-0.2,0.5-0.5,1-0.9,1.3
			c-0.4,0.4-0.8,0.7-1.3,0.9c-0.5,0.2-1.1,0.3-1.6,0.3s-1.1-0.1-1.6-0.3c-0.5-0.2-1-0.5-1.3-0.9c-0.4-0.4-0.7-0.8-0.9-1.3
			c-0.2-0.5-0.3-1.1-0.3-1.6S305.4,21.9,305.6,21.4z M310.9,21.1c0-0.4-0.1-0.8-0.2-1.1c-0.1-0.3-0.2-0.5-0.4-0.7
			c-0.2-0.1-0.5-0.2-0.8-0.2s-0.6,0.1-0.8,0.2c-0.2,0.2-0.4,0.4-0.5,0.7c-0.1,0.3-0.2,0.7-0.2,1.1s0,1,0,1.6v0.8c0,0.6,0,1,0,1.5
			s0.1,0.8,0.2,1.1c0.1,0.3,0.3,0.5,0.5,0.7c0.2,0.2,0.5,0.2,0.8,0.2c0.3,0,0.6-0.1,0.8-0.2c0.2-0.1,0.3-0.4,0.4-0.6
			c0.1-0.3,0.2-0.6,0.2-1.1c0-0.4,0-0.9,0-1.5v-0.9C310.9,22,310.9,21.5,310.9,21.1z"/>
		<path class="st0" d="M316.8,26.9c-0.5-0.2-1-0.4-1.3-0.8c-0.4-0.3-0.7-0.8-0.9-1.3c-0.2-0.5-0.3-1.1-0.3-1.8V23
			c0-0.7,0.1-1.3,0.3-1.9c0.2-0.5,0.5-1,0.9-1.3c0.4-0.3,0.8-0.6,1.3-0.8c0.5-0.2,1.1-0.2,1.6-0.2c0.4,0,0.8,0,1.1,0.1
			c0.3,0,0.6,0.1,0.8,0.1c0.2,0,0.4,0.1,0.6,0.1c0.1,0,0.3,0.1,0.3,0.1c0.1,0,0.2,0,0.2-0.1c0,0,0.1-0.1,0.1-0.2h0.2v2.5h-0.2
			c0-1.6-1-2.4-2.9-2.4c-0.3,0-0.6,0.1-0.9,0.3c-0.2,0.2-0.4,0.5-0.5,0.8c-0.1,0.3-0.2,0.8-0.3,1.3c-0.1,0.5-0.1,1-0.1,1.6v0
			c0,0.6,0,1.1,0.1,1.6c0,0.5,0.1,0.9,0.3,1.2s0.3,0.6,0.5,0.8c0.2,0.2,0.5,0.3,0.9,0.3c0.1,0,0.3,0,0.4,0s0.2,0,0.3,0
			c0.2-0.1,0.3-0.2,0.3-0.3c0-0.1,0.1-0.3,0.1-0.6v-2.8H319v-0.3h3.6v0.3h-0.7v3.9h-0.2c-0.1-0.1-0.1-0.2-0.2-0.2
			c-0.1-0.1-0.2-0.1-0.4-0.1c-0.1,0-0.3,0-0.4,0.1c-0.2,0-0.3,0.1-0.5,0.1c-0.2,0.1-0.4,0.1-0.7,0.1c-0.2,0-0.5,0.1-0.7,0.1h-0.4
			C317.9,27.2,317.3,27.1,316.8,26.9z"/>
	</g>
	<g>
		<path class="st0" d="M8.4,38.1c0-0.5-0.1-0.9-0.2-1.2c-0.1-0.3-0.3-0.6-0.4-0.8c-0.2-0.2-0.4-0.4-0.6-0.5s-0.5-0.2-0.8-0.2H6v7.7
			h0.9v0.2H2.8v-0.2h0.9v-7.7H3.3c-0.3,0-0.5,0.1-0.8,0.2c-0.2,0.1-0.5,0.3-0.7,0.5c-0.2,0.2-0.3,0.5-0.5,0.8
			c-0.1,0.3-0.2,0.7-0.2,1.2H1v-2.9h7.7v2.9H8.4z"/>
		<path class="st0" d="M12.1,38.9c0-0.1,0.1-0.3,0.2-0.4s0.2-0.3,0.3-0.4c0.1-0.1,0.3-0.2,0.5-0.3c0.2-0.1,0.4-0.1,0.7-0.1
			c0.3,0,0.5,0,0.7,0.1c0.2,0.1,0.4,0.2,0.6,0.3c0.2,0.2,0.3,0.4,0.4,0.6c0.1,0.2,0.1,0.5,0.1,0.9v3.5h0.7v0.2h-3.3v-0.2h0.5v-3.8
			c0-0.2,0-0.4,0-0.6c0-0.1,0-0.3-0.1-0.3c0-0.1-0.1-0.1-0.1-0.1s-0.1,0-0.2,0c-0.1,0-0.2,0-0.4,0.1c-0.1,0.1-0.2,0.2-0.3,0.4
			c-0.1,0.2-0.2,0.3-0.2,0.5c-0.1,0.2-0.1,0.4-0.1,0.7v3.2h0.5v0.2H9.2v-0.2h0.6v-8.3H9.2v-0.2h2.8V38.9z"/>
		<path class="st0" d="M17.8,43c-0.2-0.1-0.4-0.3-0.6-0.5c-0.2-0.2-0.3-0.5-0.4-0.8s-0.1-0.6-0.1-1c0-0.6,0.1-1,0.3-1.4
			c0.2-0.4,0.4-0.7,0.7-0.9c0.3-0.2,0.6-0.4,1-0.5c0.4-0.1,0.8-0.1,1.2-0.1c0.4,0,0.7,0,1.1,0.1c0.3,0.1,0.6,0.2,0.9,0.4
			c0.3,0.2,0.5,0.5,0.6,0.8c0.2,0.3,0.2,0.8,0.2,1.3h-3.9v0.7c0,0.3,0,0.6,0.1,0.9c0,0.3,0.1,0.5,0.2,0.6c0.1,0.2,0.3,0.3,0.5,0.4
			c0.2,0.1,0.5,0.1,0.8,0.1c0.3,0,0.5-0.1,0.7-0.2s0.4-0.2,0.6-0.4c0.2-0.2,0.3-0.3,0.4-0.5c0.1-0.2,0.2-0.3,0.2-0.5l0.2,0
			c0,0.2-0.1,0.4-0.2,0.6c-0.1,0.2-0.3,0.4-0.5,0.6c-0.2,0.2-0.5,0.4-0.9,0.5c-0.3,0.1-0.8,0.2-1.2,0.2c-0.4,0-0.8-0.1-1.2-0.2v0
			C18.2,43.2,18,43.1,17.8,43z M19.3,38.1c-0.1,0.1-0.2,0.3-0.3,0.5c-0.1,0.2-0.1,0.4-0.2,0.7c0,0.3-0.1,0.6-0.1,0.9h1.9v0
			c0-0.3,0-0.6,0-0.9c0-0.3-0.1-0.5-0.1-0.7c-0.1-0.2-0.2-0.3-0.3-0.4c-0.1-0.1-0.2-0.2-0.4-0.2C19.6,37.9,19.5,38,19.3,38.1z"/>
		<path class="st0" d="M28.9,46.6v-0.2h0.7v-3.9c-0.1,0.3-0.4,0.5-0.7,0.7c-0.3,0.2-0.7,0.3-1.1,0.3c-0.3,0-0.7-0.1-0.9-0.2
			c-0.3-0.1-0.6-0.3-0.8-0.5s-0.4-0.5-0.5-0.9c-0.1-0.4-0.2-0.8-0.2-1.3c0-0.5,0.1-0.9,0.2-1.3c0.1-0.4,0.3-0.7,0.6-0.9
			c0.2-0.2,0.5-0.4,0.9-0.5c0.3-0.1,0.7-0.2,1.1-0.2c0.4,0,0.7,0,0.9,0.1c0.3,0.1,0.5,0.3,0.6,0.5v-0.5h2.9V38h-0.7v8.3h0.7v0.2
			H28.9z M28.8,42.9c0.1-0.1,0.3-0.2,0.4-0.3c0.1-0.1,0.2-0.3,0.3-0.5c0.1-0.2,0.1-0.4,0.1-0.6v-2.2c0-0.2,0-0.3-0.1-0.4
			s-0.1-0.3-0.2-0.4s-0.2-0.2-0.3-0.3c-0.1-0.1-0.2-0.1-0.4-0.1c-0.3,0-0.5,0.2-0.7,0.7c-0.2,0.5-0.3,1.1-0.3,1.9
			c0,0.4,0,0.8,0.1,1.1c0.1,0.3,0.1,0.5,0.2,0.7c0.1,0.2,0.2,0.3,0.3,0.4c0.1,0.1,0.2,0.1,0.3,0.1C28.5,43,28.7,43,28.8,42.9z"/>
		<path class="st0" d="M37,43.2c-0.3,0.2-0.7,0.3-1.2,0.3c-0.3,0-0.5,0-0.8-0.1c-0.3-0.1-0.5-0.2-0.7-0.3s-0.3-0.4-0.5-0.6
			c-0.1-0.2-0.2-0.5-0.2-0.9V38H33v-0.2h2.9v4c0,0.2,0,0.4,0.1,0.6c0,0.1,0.1,0.3,0.2,0.3c0.1,0.1,0.2,0.1,0.2,0.2s0.2,0,0.2,0
			c0.1,0,0.2,0,0.4-0.1c0.1-0.1,0.3-0.1,0.4-0.3s0.2-0.3,0.3-0.4s0.1-0.4,0.1-0.6V38H37v-0.2h2.9v5.3h0.7v0.2h-2.9v-0.8
			C37.6,42.8,37.3,43.1,37,43.2z"/>
		<path class="st0" d="M44,43.2h0.7v0.2h-3.6v-0.2h0.7V38h-0.7v-0.2H44V43.2z M42.2,35.2c0.2-0.2,0.5-0.3,0.8-0.3s0.5,0.1,0.8,0.3
			c0.2,0.2,0.3,0.5,0.3,0.8s-0.1,0.5-0.3,0.8c-0.2,0.2-0.5,0.3-0.8,0.3s-0.5-0.1-0.8-0.3c-0.2-0.2-0.3-0.5-0.3-0.8
			S42,35.4,42.2,35.2z"/>
		<path class="st0" d="M50.6,40c-0.2,0.2-0.4,0.3-0.7,0.3c-0.3,0-0.5-0.1-0.7-0.3c-0.2-0.2-0.3-0.4-0.3-0.7c0-0.2,0-0.4,0.1-0.5
			s0.2-0.3,0.4-0.4c0-0.1-0.1-0.1-0.2-0.2c-0.1-0.1-0.2-0.1-0.3-0.1c-0.1,0-0.2-0.1-0.3-0.1c-0.1,0-0.2,0-0.3,0
			c-0.3,0-0.6,0.2-0.7,0.6c-0.1,0.4-0.2,1-0.2,1.9v0.6c0,0.7,0.1,1.3,0.4,1.6c0.3,0.3,0.6,0.5,1.1,0.5c0.3,0,0.5-0.1,0.7-0.2
			s0.4-0.2,0.5-0.4s0.3-0.3,0.3-0.5s0.1-0.3,0.2-0.5l0.2,0c0,0.2-0.1,0.4-0.2,0.6c-0.1,0.2-0.2,0.4-0.4,0.6
			c-0.2,0.2-0.5,0.4-0.8,0.5c-0.3,0.1-0.7,0.2-1.2,0.2c-0.5,0-0.9-0.1-1.2-0.2c-0.4-0.1-0.7-0.3-1-0.5c-0.3-0.2-0.5-0.5-0.6-0.9
			s-0.2-0.8-0.2-1.2c0-1,0.3-1.7,0.8-2.2s1.2-0.7,2.2-0.7c0.4,0,0.7,0,1.1,0.1c0.3,0.1,0.7,0.2,0.9,0.3c0.3,0.1,0.5,0.3,0.6,0.5
			s0.2,0.4,0.2,0.7C50.9,39.6,50.8,39.8,50.6,40z"/>
		<path class="st0" d="M55.8,43.2l-1.3-2.7l-0.2,0.1v2.6h0.5v0.2h-3.3v-0.2h0.6v-8.3h-0.7v-0.2h2.9v5.6l0.2-0.1L57,38h-1.1v-0.2h2.3
			V38h-0.8L56,39.2l2,3.9h0.4v0.2h-3.2v-0.2H55.8z"/>
		<path class="st0" d="M61.8,43.2v-8.3h-0.7v-0.2H64v4.1c0.1-0.3,0.4-0.5,0.7-0.7s0.7-0.3,1.1-0.3c0.3,0,0.6,0.1,0.9,0.2
			s0.6,0.3,0.8,0.5c0.2,0.2,0.4,0.5,0.5,0.9c0.1,0.4,0.2,0.8,0.2,1.3c0,0.5-0.1,0.9-0.2,1.3c-0.1,0.4-0.3,0.7-0.6,0.9
			c-0.2,0.2-0.5,0.4-0.9,0.5c-0.3,0.1-0.7,0.2-1.1,0.2c-0.4,0-0.7,0-0.9-0.1c-0.3-0.1-0.5-0.3-0.6-0.5v0.5h-2.9v-0.2H61.8z
			 M64.8,38.3c-0.1,0.1-0.3,0.2-0.4,0.3c-0.1,0.1-0.2,0.3-0.3,0.5S64,39.5,64,39.7V42c0,0.2,0,0.3,0.1,0.5c0.1,0.1,0.1,0.3,0.2,0.4
			c0.1,0.1,0.2,0.2,0.3,0.3c0.1,0.1,0.2,0.1,0.4,0.1c0.3,0,0.5-0.2,0.7-0.7c0.2-0.5,0.3-1.1,0.3-1.9c0-0.4,0-0.8-0.1-1.1
			c-0.1-0.3-0.1-0.5-0.2-0.7c-0.1-0.2-0.2-0.3-0.3-0.4c-0.1-0.1-0.2-0.1-0.3-0.1C65,38.2,64.9,38.2,64.8,38.3z"/>
		<path class="st0" d="M68.6,38v-0.2h2.9v0.8c0.1-0.2,0.2-0.3,0.4-0.4s0.3-0.2,0.6-0.3c0.2-0.1,0.4-0.1,0.7-0.2c0.2,0,0.4,0,0.7,0
			c0.2,0,0.4,0.1,0.6,0.3s0.3,0.3,0.4,0.5c0.1,0.1,0.1,0.3,0.1,0.4c0,0.3-0.1,0.5-0.3,0.8c-0.2,0.2-0.5,0.3-0.8,0.3
			s-0.5-0.1-0.8-0.3c-0.2-0.2-0.3-0.5-0.3-0.8c0-0.2,0-0.3,0.1-0.5c0.1-0.1,0.2-0.3,0.3-0.4c-0.2,0-0.3,0-0.5,0
			c-0.2,0-0.4,0.1-0.5,0.3s-0.3,0.3-0.4,0.5c-0.1,0.2-0.2,0.4-0.2,0.7v3.6h0.7v0.2h-3.6v-0.2h0.7V38H68.6z"/>
		<path class="st0" d="M75.6,39.2c0.2-0.4,0.4-0.7,0.7-0.9c0.3-0.2,0.6-0.4,1-0.5c0.4-0.1,0.8-0.1,1.2-0.1c0.4,0,0.8,0,1.2,0.1
			c0.4,0.1,0.7,0.2,1,0.4c0.3,0.2,0.5,0.5,0.7,0.9c0.2,0.4,0.3,0.9,0.3,1.5s-0.1,1.1-0.3,1.5c-0.2,0.4-0.4,0.7-0.7,0.9
			c-0.3,0.2-0.6,0.4-1,0.4c-0.4,0.1-0.8,0.1-1.2,0.1c-0.4,0-0.8,0-1.2-0.1c-0.4-0.1-0.7-0.3-1-0.5c-0.3-0.2-0.5-0.5-0.7-0.9
			c-0.2-0.4-0.3-0.8-0.3-1.4C75.3,40,75.4,39.6,75.6,39.2z M79.4,39.2c0-0.3-0.1-0.5-0.2-0.7c-0.1-0.2-0.2-0.3-0.3-0.4
			c-0.1-0.1-0.3-0.2-0.4-0.2c-0.2,0-0.3,0.1-0.5,0.2c-0.1,0.1-0.2,0.3-0.3,0.5c-0.1,0.2-0.1,0.4-0.2,0.7c0,0.3-0.1,0.6-0.1,0.9v0.9
			c0,0.7,0.1,1.2,0.2,1.6c0.2,0.4,0.4,0.6,0.8,0.6c0.3,0,0.6-0.2,0.7-0.5c0.2-0.4,0.2-0.9,0.2-1.7v-1C79.5,39.8,79.5,39.5,79.4,39.2
			z"/>
		<path class="st0" d="M91.5,38h-0.7v-0.2h1.8V38h-0.7l-2.2,5.3h-1l-1.6-3.9l-1.6,3.9h-1L82.3,38h-0.7v-0.2h3.8V38h-0.7l1.3,3.2
			l0.9-2.2l-0.4-1h-0.7v-0.2h3.8V38h-0.7l1.3,3.2L91.5,38z"/>
		<path class="st0" d="M93.2,38v-0.2H96v0.8c0.1-0.3,0.3-0.5,0.7-0.7c0.3-0.2,0.7-0.3,1.2-0.3c0.3,0,0.5,0,0.8,0.1
			c0.3,0.1,0.5,0.2,0.7,0.3c0.2,0.2,0.3,0.4,0.5,0.6c0.1,0.2,0.2,0.5,0.2,0.9v3.5h0.7v0.2h-3.6v-0.2h0.7v-3.8c0-0.2,0-0.4-0.1-0.6
			c0-0.1-0.1-0.3-0.2-0.3c-0.1-0.1-0.2-0.1-0.2-0.2c-0.1,0-0.2,0-0.2,0c-0.1,0-0.2,0-0.4,0.1c-0.1,0.1-0.3,0.1-0.4,0.3
			c-0.1,0.1-0.2,0.3-0.3,0.4S96,39.4,96,39.6v3.6h0.7v0.2h-3.6v-0.2h0.7V38H93.2z"/>
		<path class="st0" d="M108.4,36.4c-0.2,0.2-0.4,0.3-0.7,0.3s-0.5-0.1-0.7-0.3c-0.2-0.2-0.3-0.4-0.3-0.7c0-0.2,0.1-0.4,0.2-0.6
			c0.1-0.2,0.3-0.3,0.5-0.4c-0.1-0.1-0.2-0.2-0.4-0.2c-0.2,0-0.3,0-0.4,0.1c-0.1,0.1-0.2,0.2-0.2,0.3c-0.1,0.1-0.1,0.3-0.1,0.4
			c0,0.2,0,0.4,0,0.6v1.9h1.2V38h-1.2v5.1h0.7v0.2h-3.6v-0.2h0.7V38h-0.7v-0.2h0.7v0c0-0.5,0-1,0.1-1.4s0.2-0.8,0.5-1.1
			c0.2-0.3,0.5-0.5,0.9-0.7s0.8-0.2,1.3-0.2c0.3,0,0.5,0,0.8,0.1c0.2,0.1,0.4,0.1,0.5,0.2c0.1,0.1,0.3,0.2,0.3,0.3
			c0.1,0.1,0.1,0.2,0.2,0.3c0,0.1,0.1,0.2,0.1,0.3C108.7,36,108.6,36.2,108.4,36.4z"/>
		<path class="st0" d="M108.6,39.2c0.2-0.4,0.4-0.7,0.7-0.9c0.3-0.2,0.6-0.4,1-0.5c0.4-0.1,0.8-0.1,1.2-0.1c0.4,0,0.8,0,1.2,0.1
			c0.4,0.1,0.7,0.2,1,0.4c0.3,0.2,0.5,0.5,0.7,0.9c0.2,0.4,0.3,0.9,0.3,1.5s-0.1,1.1-0.3,1.5c-0.2,0.4-0.4,0.7-0.7,0.9
			c-0.3,0.2-0.6,0.4-1,0.4c-0.4,0.1-0.8,0.1-1.2,0.1c-0.4,0-0.8,0-1.2-0.1c-0.4-0.1-0.7-0.3-1-0.5c-0.3-0.2-0.5-0.5-0.7-0.9
			c-0.2-0.4-0.3-0.8-0.3-1.4C108.4,40,108.5,39.6,108.6,39.2z M112.5,39.2c0-0.3-0.1-0.5-0.2-0.7c-0.1-0.2-0.2-0.3-0.3-0.4
			c-0.1-0.1-0.3-0.2-0.4-0.2c-0.2,0-0.3,0.1-0.5,0.2c-0.1,0.1-0.2,0.3-0.3,0.5c-0.1,0.2-0.1,0.4-0.2,0.7c0,0.3-0.1,0.6-0.1,0.9v0.9
			c0,0.7,0.1,1.2,0.2,1.6c0.2,0.4,0.4,0.6,0.8,0.6c0.3,0,0.6-0.2,0.7-0.5c0.2-0.4,0.2-0.9,0.2-1.7v-1
			C112.5,39.8,112.5,39.5,112.5,39.2z"/>
		<path class="st0" d="M119.8,38v-0.2h1.7V38h-0.6l-1.5,2.1l1.9,3h0.6v0.2H118v-0.2h0.8l-1.3-2.1l-1.3,2.1h0.8v0.2h-1.8v-0.2h0.8
			l1.5-2.3l-1.8-2.8H115v-0.2h3.9V38h-0.8l1.2,1.9l1.4-1.9H119.8z"/>
		<path class="st0" d="M124.9,44.2c0.2-0.2,0.5-0.3,0.8-0.3s0.5,0.1,0.8,0.3c0.2,0.2,0.3,0.5,0.3,0.8c0,0.2-0.1,0.4-0.2,0.6
			s-0.3,0.3-0.5,0.4c0.1,0.1,0.2,0.1,0.4,0.1c0.1,0,0.2,0,0.3-0.1c0.1-0.1,0.2-0.2,0.2-0.3c0-0.2,0.1-0.4,0.1-0.6s0-0.6,0-1v-6h-0.7
			v-0.2h2.9v4.5c0,0.6-0.1,1.2-0.2,1.6c-0.1,0.5-0.3,0.9-0.5,1.2c-0.2,0.3-0.5,0.6-0.9,0.8c-0.4,0.2-0.8,0.3-1.3,0.3
			c-0.3,0-0.6,0-0.8-0.1c-0.2-0.1-0.4-0.2-0.6-0.3s-0.3-0.2-0.3-0.4s-0.1-0.3-0.1-0.4V45C124.6,44.7,124.7,44.4,124.9,44.2z
			 M127.4,35.2c0.2-0.2,0.5-0.3,0.8-0.3s0.5,0.1,0.8,0.3c0.2,0.2,0.3,0.5,0.3,0.8s-0.1,0.5-0.3,0.8c-0.2,0.2-0.5,0.3-0.8,0.3
			s-0.5-0.1-0.8-0.3c-0.2-0.2-0.3-0.5-0.3-0.8S127.2,35.4,127.4,35.2z"/>
		<path class="st0" d="M133.9,43.2c-0.3,0.2-0.7,0.3-1.2,0.3c-0.3,0-0.5,0-0.8-0.1c-0.3-0.1-0.5-0.2-0.7-0.3s-0.3-0.4-0.5-0.6
			c-0.1-0.2-0.2-0.5-0.2-0.9V38h-0.7v-0.2h2.9v4c0,0.2,0,0.4,0.1,0.6c0,0.1,0.1,0.3,0.2,0.3c0.1,0.1,0.2,0.1,0.2,0.2s0.2,0,0.2,0
			c0.1,0,0.2,0,0.4-0.1c0.1-0.1,0.3-0.1,0.4-0.3c0.1-0.1,0.2-0.3,0.3-0.4s0.1-0.4,0.1-0.6V38h-0.7v-0.2h2.9v5.3h0.7v0.2h-2.9v-0.8
			C134.4,42.8,134.2,43.1,133.9,43.2z"/>
		<path class="st0" d="M144.9,43.2h0.7v0.2H142v-0.2h0.7v-3.8c0-0.2,0-0.4-0.1-0.6c0-0.1-0.1-0.3-0.2-0.3c-0.1-0.1-0.2-0.1-0.2-0.2
			c-0.1,0-0.2,0-0.2,0c-0.1,0-0.2,0-0.4,0.1c-0.1,0.1-0.3,0.1-0.4,0.3c-0.1,0.1-0.2,0.3-0.3,0.4s-0.1,0.4-0.1,0.6v3.6h0.7v0.2H138
			v-0.2h0.7V38H138v-0.2h2.9v0.8c0.1-0.3,0.3-0.5,0.7-0.7c0.3-0.2,0.7-0.3,1.2-0.3c0.4,0,0.8,0.1,1.2,0.3s0.6,0.5,0.8,0.9l0.1-0.2
			c0.1-0.3,0.3-0.5,0.7-0.7s0.7-0.3,1.2-0.3c0.3,0,0.5,0,0.8,0.1c0.3,0.1,0.5,0.2,0.7,0.3c0.2,0.2,0.3,0.4,0.5,0.6
			c0.1,0.2,0.2,0.5,0.2,0.9v3.5h0.7v0.2H146v-0.2h0.7v-3.8c0-0.2,0-0.4-0.1-0.6s-0.1-0.3-0.2-0.3c-0.1-0.1-0.2-0.1-0.2-0.2
			s-0.2,0-0.2,0c-0.1,0-0.2,0-0.4,0.1c-0.1,0.1-0.2,0.1-0.3,0.3c-0.1,0.1-0.2,0.3-0.3,0.4s-0.1,0.4-0.2,0.6v0.1V43.2z"/>
		<path class="st0" d="M150.7,46.4V38H150v-0.2h2.9v0.5c0.1-0.2,0.3-0.4,0.6-0.5s0.6-0.1,0.9-0.1c0.4,0,0.8,0.1,1.1,0.2
			c0.3,0.1,0.6,0.3,0.9,0.5c0.2,0.2,0.4,0.5,0.6,0.9c0.1,0.4,0.2,0.8,0.2,1.3c0,0.5-0.1,0.9-0.2,1.3s-0.3,0.7-0.5,0.9
			s-0.5,0.4-0.8,0.5c-0.3,0.1-0.6,0.2-0.9,0.2c-0.4,0-0.8-0.1-1.1-0.3s-0.5-0.4-0.7-0.7v3.9h0.7v0.2H150v-0.2H150.7z M154.3,42.8
			c0.1-0.1,0.2-0.2,0.3-0.4c0.1-0.2,0.2-0.4,0.2-0.7c0.1-0.3,0.1-0.7,0.1-1.1c0-0.8-0.1-1.4-0.3-1.9c-0.2-0.5-0.4-0.7-0.7-0.7
			c-0.1,0-0.2,0-0.4,0.1c-0.1,0.1-0.2,0.2-0.3,0.3c-0.1,0.1-0.2,0.2-0.2,0.4c-0.1,0.1-0.1,0.3-0.1,0.4v2.2c0,0.2,0,0.5,0.1,0.6
			c0.1,0.2,0.2,0.3,0.3,0.5c0.1,0.1,0.2,0.2,0.4,0.3c0.1,0.1,0.3,0.1,0.4,0.1C154.1,43,154.2,42.9,154.3,42.8z"/>
		<path class="st0" d="M157.8,41.4c0.1,0.4,0.2,0.7,0.4,0.9c0.2,0.2,0.4,0.4,0.6,0.6c0.2,0.1,0.4,0.2,0.7,0.3
			c0.2,0.1,0.5,0.1,0.7,0.1c0.4,0,0.8-0.1,1.1-0.2c0.3-0.1,0.4-0.3,0.4-0.5c0-0.2-0.1-0.4-0.3-0.5c-0.2-0.1-0.4-0.2-0.7-0.3
			c-0.3-0.1-0.6-0.2-1-0.3c-0.3-0.1-0.7-0.2-1-0.4s-0.5-0.3-0.7-0.6c-0.2-0.2-0.3-0.5-0.3-0.9c0-0.3,0.1-0.6,0.2-0.8
			c0.1-0.2,0.3-0.4,0.5-0.6c0.2-0.2,0.5-0.3,0.7-0.4c0.3-0.1,0.6-0.1,0.9-0.1c0.1,0,0.3,0,0.4,0s0.3,0,0.4,0.1
			c0.1,0,0.3,0.1,0.4,0.1c0.1,0,0.2,0.1,0.3,0.1c0.1,0,0.1,0.1,0.2,0.1c0,0,0.1,0,0.2,0c0.1,0,0.2,0,0.2-0.1
			c0.1-0.1,0.1-0.2,0.2-0.3h0.1v1.8h-0.1c-0.1-0.3-0.2-0.5-0.4-0.7c-0.2-0.2-0.3-0.4-0.5-0.5c-0.2-0.1-0.4-0.2-0.6-0.3
			c-0.2-0.1-0.4-0.1-0.6-0.1c-0.2,0-0.4,0-0.5,0.1s-0.3,0.1-0.4,0.1s-0.2,0.1-0.3,0.2c-0.1,0.1-0.1,0.2-0.1,0.3
			c0,0.2,0.1,0.3,0.3,0.5c0.2,0.1,0.4,0.2,0.7,0.3c0.3,0.1,0.6,0.2,1,0.3c0.3,0.1,0.7,0.2,1,0.4s0.5,0.4,0.7,0.6
			c0.2,0.3,0.3,0.6,0.3,1c0,0.3-0.1,0.6-0.2,0.9c-0.1,0.2-0.3,0.4-0.5,0.6c-0.2,0.2-0.5,0.3-0.8,0.3c-0.3,0.1-0.6,0.1-0.9,0.1
			c-0.3,0-0.6,0-0.9-0.1c-0.3-0.1-0.6-0.1-0.8-0.3c0,0-0.1,0-0.1-0.1s-0.1,0-0.1,0c-0.1,0-0.2,0-0.2,0.1c-0.1,0.1-0.2,0.2-0.3,0.3
			h-0.1v-2.1H157.8z"/>
		<path class="st0" d="M165.6,39.2c0.2-0.4,0.4-0.7,0.7-0.9c0.3-0.2,0.6-0.4,1-0.5c0.4-0.1,0.8-0.1,1.2-0.1c0.4,0,0.8,0,1.2,0.1
			c0.4,0.1,0.7,0.2,1,0.4c0.3,0.2,0.5,0.5,0.7,0.9c0.2,0.4,0.3,0.9,0.3,1.5s-0.1,1.1-0.3,1.5c-0.2,0.4-0.4,0.7-0.7,0.9
			c-0.3,0.2-0.6,0.4-1,0.4c-0.4,0.1-0.8,0.1-1.2,0.1c-0.4,0-0.8,0-1.2-0.1c-0.4-0.1-0.7-0.3-1-0.5c-0.3-0.2-0.5-0.5-0.7-0.9
			c-0.2-0.4-0.3-0.8-0.3-1.4C165.4,40,165.5,39.6,165.6,39.2z M169.5,39.2c0-0.3-0.1-0.5-0.2-0.7c-0.1-0.2-0.2-0.3-0.3-0.4
			c-0.1-0.1-0.3-0.2-0.4-0.2c-0.2,0-0.3,0.1-0.5,0.2c-0.1,0.1-0.2,0.3-0.3,0.5c-0.1,0.2-0.1,0.4-0.2,0.7s-0.1,0.6-0.1,0.9v0.9
			c0,0.7,0.1,1.2,0.2,1.6c0.2,0.4,0.4,0.6,0.8,0.6c0.3,0,0.6-0.2,0.7-0.5c0.2-0.4,0.2-0.9,0.2-1.7v-1
			C169.5,39.8,169.5,39.5,169.5,39.2z"/>
		<path class="st0" d="M177.4,38h-0.7v-0.2h1.8V38h-0.7l-2.2,5.3h-1l-2.2-5.3h-0.7v-0.2h3.8V38h-0.7l1.3,3.2L177.4,38z"/>
		<path class="st0" d="M179.5,43c-0.2-0.1-0.4-0.3-0.6-0.5c-0.2-0.2-0.3-0.5-0.4-0.8s-0.1-0.6-0.1-1c0-0.6,0.1-1,0.3-1.4
			c0.2-0.4,0.4-0.7,0.7-0.9c0.3-0.2,0.6-0.4,1-0.5c0.4-0.1,0.8-0.1,1.2-0.1c0.4,0,0.7,0,1.1,0.1c0.3,0.1,0.6,0.2,0.9,0.4
			c0.3,0.2,0.5,0.5,0.6,0.8c0.2,0.3,0.2,0.8,0.2,1.3h-3.9v0.7c0,0.3,0,0.6,0.1,0.9c0,0.3,0.1,0.5,0.2,0.6c0.1,0.2,0.3,0.3,0.5,0.4
			c0.2,0.1,0.5,0.1,0.8,0.1c0.3,0,0.5-0.1,0.7-0.2c0.2-0.1,0.4-0.2,0.6-0.4s0.3-0.3,0.4-0.5s0.2-0.3,0.2-0.5l0.2,0
			c0,0.2-0.1,0.4-0.2,0.6c-0.1,0.2-0.3,0.4-0.5,0.6c-0.2,0.2-0.5,0.4-0.9,0.5c-0.3,0.1-0.8,0.2-1.2,0.2c-0.4,0-0.8-0.1-1.2-0.2v0
			C180,43.2,179.7,43.1,179.5,43z M181.1,38.1c-0.1,0.1-0.2,0.3-0.3,0.5c-0.1,0.2-0.1,0.4-0.2,0.7s-0.1,0.6-0.1,0.9h1.9v0
			c0-0.3,0-0.6,0-0.9s-0.1-0.5-0.1-0.7c-0.1-0.2-0.2-0.3-0.3-0.4c-0.1-0.1-0.2-0.2-0.4-0.2C181.4,37.9,181.2,38,181.1,38.1z"/>
		<path class="st0" d="M184.7,38v-0.2h2.9v0.8c0.1-0.2,0.2-0.3,0.4-0.4s0.3-0.2,0.6-0.3c0.2-0.1,0.4-0.1,0.7-0.2c0.2,0,0.4,0,0.7,0
			c0.2,0,0.4,0.1,0.6,0.3s0.3,0.3,0.4,0.5c0.1,0.1,0.1,0.3,0.1,0.4c0,0.3-0.1,0.5-0.3,0.8c-0.2,0.2-0.5,0.3-0.8,0.3
			s-0.5-0.1-0.8-0.3c-0.2-0.2-0.3-0.5-0.3-0.8c0-0.2,0-0.3,0.1-0.5c0.1-0.1,0.2-0.3,0.3-0.4c-0.2,0-0.3,0-0.5,0s-0.4,0.1-0.5,0.3
			s-0.3,0.3-0.4,0.5c-0.1,0.2-0.2,0.4-0.2,0.7v3.6h0.7v0.2h-3.6v-0.2h0.7V38H184.7z"/>
		<path class="st0" d="M193.5,38v-0.2h0.6v-1.5l2.2-1.1v2.6h0.7V38h-0.7V42c0,0.2,0,0.4,0,0.6s0,0.2,0.1,0.3c0,0.1,0.1,0.1,0.2,0.2
			c0.1,0,0.1,0,0.3,0c0.3,0,0.5-0.1,0.7-0.4c0.2-0.2,0.3-0.6,0.3-0.9l0.2,0c0,0.2-0.1,0.4-0.1,0.7c-0.1,0.2-0.2,0.4-0.3,0.6
			s-0.3,0.3-0.6,0.4c-0.2,0.1-0.5,0.1-0.9,0.1c-0.3,0-0.6,0-0.8-0.1c-0.2-0.1-0.5-0.1-0.6-0.3c-0.2-0.1-0.3-0.3-0.4-0.5
			c-0.1-0.2-0.1-0.5-0.1-0.9V38H193.5z"/>
		<path class="st0" d="M201.4,38.9c0-0.1,0.1-0.3,0.2-0.4c0.1-0.1,0.2-0.3,0.3-0.4c0.1-0.1,0.3-0.2,0.5-0.3c0.2-0.1,0.4-0.1,0.7-0.1
			c0.3,0,0.5,0,0.7,0.1c0.2,0.1,0.4,0.2,0.6,0.3s0.3,0.4,0.4,0.6c0.1,0.2,0.1,0.5,0.1,0.9v3.5h0.7v0.2h-3.3v-0.2h0.5v-3.8
			c0-0.2,0-0.4,0-0.6s0-0.3-0.1-0.3c0-0.1-0.1-0.1-0.1-0.1c-0.1,0-0.1,0-0.2,0c-0.1,0-0.2,0-0.4,0.1c-0.1,0.1-0.2,0.2-0.3,0.4
			c-0.1,0.2-0.2,0.3-0.2,0.5c-0.1,0.2-0.1,0.4-0.1,0.7v3.2h0.5v0.2h-3.3v-0.2h0.6v-8.3h-0.6v-0.2h2.8V38.9z"/>
		<path class="st0" d="M207.1,43c-0.2-0.1-0.4-0.3-0.6-0.5c-0.2-0.2-0.3-0.5-0.4-0.8s-0.1-0.6-0.1-1c0-0.6,0.1-1,0.3-1.4
			c0.2-0.4,0.4-0.7,0.7-0.9c0.3-0.2,0.6-0.4,1-0.5c0.4-0.1,0.8-0.1,1.2-0.1c0.4,0,0.7,0,1.1,0.1c0.3,0.1,0.6,0.2,0.9,0.4
			c0.3,0.2,0.5,0.5,0.6,0.8c0.2,0.3,0.2,0.8,0.2,1.3h-3.9v0.7c0,0.3,0,0.6,0.1,0.9c0,0.3,0.1,0.5,0.2,0.6c0.1,0.2,0.3,0.3,0.5,0.4
			c0.2,0.1,0.5,0.1,0.8,0.1c0.3,0,0.5-0.1,0.7-0.2c0.2-0.1,0.4-0.2,0.6-0.4c0.2-0.2,0.3-0.3,0.4-0.5s0.2-0.3,0.2-0.5l0.2,0
			c0,0.2-0.1,0.4-0.2,0.6c-0.1,0.2-0.3,0.4-0.5,0.6c-0.2,0.2-0.5,0.4-0.9,0.5c-0.3,0.1-0.8,0.2-1.2,0.2c-0.4,0-0.8-0.1-1.2-0.2v0
			C207.6,43.2,207.3,43.1,207.1,43z M208.7,38.1c-0.1,0.1-0.2,0.3-0.3,0.5c-0.1,0.2-0.1,0.4-0.2,0.7s-0.1,0.6-0.1,0.9h1.9v0
			c0-0.3,0-0.6,0-0.9s-0.1-0.5-0.1-0.7c-0.1-0.2-0.2-0.3-0.3-0.4c-0.1-0.1-0.2-0.2-0.4-0.2C209,37.9,208.8,38,208.7,38.1z"/>
		<path class="st0" d="M217.5,43.2h0.7v0.2h-3.5v-0.2h0.6v-8.3h-0.7v-0.2h2.9V43.2z"/>
		<path class="st0" d="M220.9,39.5c-0.1,0.1-0.1,0.2-0.2,0.3c-0.1,0.1-0.2,0.2-0.3,0.2c-0.1,0.1-0.3,0.1-0.4,0.1
			c-0.3,0-0.5-0.1-0.7-0.3s-0.3-0.4-0.3-0.7c0-0.1,0-0.3,0.1-0.4c0.1-0.1,0.1-0.2,0.2-0.3c0.2-0.2,0.5-0.4,0.9-0.5
			c0.4-0.1,0.9-0.2,1.4-0.2c0.5,0,0.9,0,1.2,0.1c0.3,0.1,0.6,0.2,0.9,0.4c0.2,0.2,0.4,0.4,0.5,0.7c0.1,0.3,0.2,0.6,0.2,1.1v2.4
			c0,0.2,0,0.4,0.1,0.5c0.1,0.1,0.1,0.1,0.2,0.1c0.1,0,0.1,0,0.2-0.1c0.1,0,0.1-0.1,0.1-0.2c0-0.1,0.1-0.2,0.1-0.4
			c0-0.2,0.1-0.4,0.1-0.6l0.2,0c0,0.3-0.1,0.6-0.1,0.9c-0.1,0.2-0.2,0.4-0.3,0.6c-0.1,0.1-0.3,0.2-0.5,0.3c-0.2,0.1-0.4,0.1-0.6,0.1
			c-0.9,0-1.5-0.3-1.6-0.9c-0.1,0.3-0.3,0.5-0.6,0.6s-0.6,0.2-1,0.2c-0.2,0-0.4,0-0.7-0.1c-0.2-0.1-0.5-0.2-0.7-0.3
			c-0.2-0.1-0.4-0.3-0.5-0.5c-0.1-0.2-0.2-0.5-0.2-0.8c0-0.6,0.2-1,0.7-1.3s1.1-0.5,2-0.5h0.9v-0.3c0-0.4,0-0.7-0.1-0.9
			c-0.1-0.2-0.2-0.4-0.3-0.6c-0.1-0.1-0.2-0.2-0.4-0.3c-0.1-0.1-0.3-0.1-0.4-0.1c-0.1,0-0.2,0-0.3,0.1c-0.1,0.1-0.2,0.2-0.2,0.3
			c0.1,0.1,0.2,0.2,0.3,0.4c0.1,0.1,0.1,0.3,0.1,0.5C220.9,39.2,220.9,39.4,220.9,39.5z M221.7,42.8c0.1,0,0.2-0.1,0.2-0.2
			c0.1-0.1,0.1-0.2,0.2-0.3c0.1-0.1,0.1-0.3,0.1-0.5v-1.7h-0.1c-0.1,0-0.3,0-0.4,0.1c-0.2,0.1-0.3,0.2-0.4,0.3s-0.2,0.3-0.3,0.5
			c-0.1,0.2-0.1,0.4-0.1,0.6c0,0.2,0,0.4,0.1,0.5c0,0.1,0.1,0.2,0.2,0.3c0.1,0.1,0.1,0.1,0.2,0.2c0.1,0,0.1,0,0.2,0
			C221.5,42.9,221.6,42.9,221.7,42.8z"/>
		<path class="st0" d="M228.3,43.2h0.2c0.3,0,0.7,0,1-0.1c0.3-0.1,0.7-0.2,1-0.4s0.5-0.4,0.7-0.7c0.2-0.3,0.3-0.6,0.3-1h0.2l0,2.4
			h-5.6v-0.2l3.4-5.2h-0.1c-0.4,0-0.8,0-1.1,0.1c-0.4,0.1-0.7,0.2-1,0.3s-0.5,0.4-0.7,0.6s-0.3,0.6-0.3,1H226l0-2.2h5.6V38
			L228.3,43.2z"/>
		<path class="st0" d="M233,46c-0.3-0.2-0.4-0.5-0.4-0.9c0-0.3,0.1-0.5,0.3-0.8c0.2-0.2,0.5-0.3,0.8-0.3s0.5,0.1,0.8,0.3
			c0.2,0.2,0.3,0.5,0.3,0.8c0,0.2,0,0.4-0.1,0.5c-0.1,0.2-0.2,0.3-0.4,0.4c0,0,0,0,0.1,0c0.3,0,0.5-0.1,0.8-0.3
			c0.2-0.2,0.4-0.5,0.6-1l-2.7-6.7h-0.7v-0.2h3.8V38h-0.7l1.4,3.6l1.2-3.6h-0.7v-0.2h1.8V38h-0.7l-2.2,6.3c-0.1,0.4-0.3,0.7-0.4,0.9
			c-0.1,0.3-0.3,0.5-0.5,0.6s-0.3,0.3-0.5,0.3c-0.2,0.1-0.4,0.1-0.6,0.1C233.6,46.3,233.2,46.2,233,46z"/>
		<path class="st0" d="M245.9,43.4v-0.5c-0.1,0.2-0.3,0.4-0.6,0.5c-0.3,0.1-0.6,0.1-0.9,0.1c-0.4,0-0.8-0.1-1.1-0.2
			c-0.3-0.1-0.6-0.3-0.9-0.5c-0.2-0.2-0.4-0.5-0.6-0.9c-0.1-0.4-0.2-0.8-0.2-1.3c0-0.5,0.1-0.9,0.2-1.3c0.1-0.4,0.3-0.7,0.5-0.9
			c0.2-0.2,0.5-0.4,0.8-0.5s0.6-0.2,0.9-0.2c0.4,0,0.8,0.1,1.1,0.3s0.5,0.4,0.7,0.7v-3.9h-0.7v-0.2h2.9v8.5h0.7v0.2H245.9z
			 M244.5,38.4c-0.1,0.1-0.2,0.2-0.3,0.4s-0.2,0.4-0.2,0.7c-0.1,0.3-0.1,0.7-0.1,1.1c0,0.8,0.1,1.4,0.3,1.9s0.4,0.7,0.7,0.7
			c0.1,0,0.2,0,0.4-0.1c0.1-0.1,0.2-0.2,0.3-0.3c0.1-0.1,0.2-0.2,0.2-0.4c0.1-0.1,0.1-0.3,0.1-0.5v-2.2c0-0.2,0-0.5-0.1-0.6
			c-0.1-0.2-0.2-0.3-0.3-0.5s-0.2-0.2-0.4-0.3c-0.1-0.1-0.3-0.1-0.4-0.1C244.7,38.2,244.6,38.3,244.5,38.4z"/>
		<path class="st0" d="M249.4,39.2c0.2-0.4,0.4-0.7,0.7-0.9c0.3-0.2,0.6-0.4,1-0.5c0.4-0.1,0.8-0.1,1.2-0.1c0.4,0,0.8,0,1.2,0.1
			c0.4,0.1,0.7,0.2,1,0.4c0.3,0.2,0.5,0.5,0.7,0.9c0.2,0.4,0.3,0.9,0.3,1.5s-0.1,1.1-0.3,1.5c-0.2,0.4-0.4,0.7-0.7,0.9
			c-0.3,0.2-0.6,0.4-1,0.4c-0.4,0.1-0.8,0.1-1.2,0.1c-0.4,0-0.8,0-1.2-0.1c-0.4-0.1-0.7-0.3-1-0.5c-0.3-0.2-0.5-0.5-0.7-0.9
			c-0.2-0.4-0.3-0.8-0.3-1.4C249.1,40,249.2,39.6,249.4,39.2z M253.2,39.2c0-0.3-0.1-0.5-0.2-0.7c-0.1-0.2-0.2-0.3-0.3-0.4
			c-0.1-0.1-0.3-0.2-0.4-0.2c-0.2,0-0.3,0.1-0.5,0.2c-0.1,0.1-0.2,0.3-0.3,0.5c-0.1,0.2-0.1,0.4-0.2,0.7s-0.1,0.6-0.1,0.9v0.9
			c0,0.7,0.1,1.2,0.2,1.6c0.2,0.4,0.4,0.6,0.8,0.6c0.3,0,0.6-0.2,0.7-0.5c0.2-0.4,0.2-0.9,0.2-1.7v-1
			C253.2,39.8,253.2,39.5,253.2,39.2z"/>
		<path class="st0" d="M256.2,44.2c0.2-0.2,0.5-0.3,0.8-0.3h0.1c0,0,0.1,0,0.1,0c-0.3-0.1-0.5-0.2-0.6-0.4c-0.1-0.2-0.2-0.3-0.2-0.5
			c0-0.2,0-0.3,0.1-0.4s0.1-0.3,0.2-0.4c0.1-0.1,0.2-0.2,0.4-0.3c0.2-0.1,0.4-0.2,0.6-0.4c-0.5-0.1-0.8-0.3-1-0.6
			c-0.2-0.3-0.3-0.7-0.3-1.2c0-0.3,0-0.5,0.1-0.8c0.1-0.2,0.2-0.4,0.5-0.6c0.2-0.2,0.5-0.3,0.8-0.4c0.3-0.1,0.7-0.2,1.1-0.2
			c0.3,0,0.5,0,0.7,0.1c0.2,0,0.4,0.1,0.6,0.2c0-0.2-0.1-0.4-0.1-0.6c0-0.2,0-0.4,0.1-0.6c0.1-0.2,0.2-0.3,0.3-0.4
			c0.1-0.1,0.2-0.2,0.4-0.2c0.1,0,0.3-0.1,0.4-0.1h0.1c0.2,0,0.4,0.1,0.6,0.2c0.2,0.2,0.3,0.4,0.3,0.6c0,0.2-0.1,0.4-0.3,0.6
			c-0.2,0.2-0.4,0.3-0.6,0.3c-0.2,0-0.4-0.1-0.6-0.3c-0.2-0.2-0.2-0.4-0.2-0.6c0,0,0-0.1,0-0.1c0,0,0-0.1,0-0.1
			c-0.1,0-0.1,0.1-0.2,0.2c0,0.1-0.1,0.3-0.1,0.5c0,0.2,0,0.4,0.1,0.7c0.1,0.1,0.2,0.2,0.3,0.2c0.1,0.1,0.2,0.2,0.3,0.3
			c0.1,0.1,0.1,0.3,0.2,0.4c0.1,0.1,0.1,0.3,0.1,0.5c0,0.3-0.1,0.6-0.2,0.9c-0.1,0.2-0.3,0.5-0.5,0.6s-0.5,0.3-0.8,0.4
			c-0.3,0.1-0.6,0.1-1,0.1c-0.2,0-0.3,0-0.5,0s-0.3,0-0.4-0.1c-0.2,0.1-0.3,0.2-0.4,0.3c-0.1,0.1-0.1,0.1-0.1,0.2
			c0,0.1,0,0.1,0.1,0.1c0.1,0,0.3,0,0.6,0h1.2c0.3,0,0.6,0,1,0.1c0.3,0,0.6,0.1,0.8,0.3c0.2,0.1,0.4,0.3,0.6,0.6s0.2,0.6,0.2,1
			c0,0.3-0.1,0.6-0.2,0.9c-0.1,0.3-0.3,0.5-0.6,0.7c-0.3,0.2-0.6,0.4-1,0.5c-0.4,0.1-0.9,0.2-1.5,0.2c-1,0-1.8-0.1-2.2-0.3
			c-0.5-0.2-0.7-0.5-0.7-0.9v0v0C255.9,44.6,256,44.4,256.2,44.2z M257.4,44c0.2,0.1,0.4,0.2,0.5,0.4c0.1,0.2,0.2,0.4,0.2,0.6
			c0,0.2,0,0.3-0.1,0.4c-0.1,0.1-0.2,0.2-0.3,0.3c0.1,0.1,0.3,0.2,0.5,0.2c0.2,0.1,0.5,0.1,0.8,0.1c0.6,0,1.1-0.1,1.4-0.3
			c0.3-0.2,0.5-0.5,0.5-0.9c0-0.1,0-0.3-0.1-0.4c0-0.1-0.1-0.2-0.2-0.2c-0.1-0.1-0.3-0.1-0.5-0.1s-0.4,0-0.7,0h-1.1
			C257.9,44,257.6,44,257.4,44z M258.4,40.7c0,0.2,0.1,0.3,0.1,0.4c0,0.1,0.1,0.2,0.2,0.2c0.1,0,0.1,0.1,0.2,0.1c0.1,0,0.1,0,0.2,0
			c0.1,0,0.1-0.1,0.2-0.2c0-0.1,0.1-0.2,0.1-0.4s0-0.4,0-0.7v-0.6c0-0.3,0-0.6,0-0.8s-0.1-0.3-0.1-0.4c0-0.1-0.1-0.2-0.2-0.2
			c-0.1,0-0.1,0-0.2,0c-0.1,0-0.2,0-0.2,0.1c-0.1,0-0.1,0.1-0.2,0.2c-0.1,0.1-0.1,0.3-0.1,0.4c0,0.2,0,0.5,0,0.8V40
			C258.3,40.3,258.3,40.5,258.4,40.7z"/>
	</g>
	<g>
		<path class="st0" d="M1.2,54.3c0.2-0.5,0.4-1,0.7-1.3c0.3-0.3,0.7-0.6,1.1-0.7c0.4-0.2,0.9-0.2,1.4-0.2s1,0.1,1.4,0.2
			S6.7,52.7,7,53s0.6,0.8,0.7,1.3c0.2,0.5,0.3,1.2,0.3,2c0,0.8-0.1,1.4-0.3,2c-0.2,0.5-0.4,1-0.7,1.3c-0.3,0.3-0.7,0.6-1.1,0.7
			S5,60.5,4.5,60.5c-0.6,0-1.1-0.1-1.6-0.3c-0.4-0.2-0.8-0.5-1.1-0.9c-0.3-0.4-0.5-0.8-0.6-1.3C1.1,57.4,1,56.9,1,56.3
			C1,55.5,1.1,54.9,1.2,54.3z M3.4,58.4c0,0.4,0.1,0.8,0.1,1s0.2,0.5,0.3,0.6c0.2,0.1,0.4,0.2,0.7,0.2s0.5-0.1,0.6-0.2
			s0.3-0.3,0.3-0.6s0.1-0.6,0.1-1c0-0.4,0-0.9,0-1.5v-1c0-0.7,0-1.3,0-1.7s-0.1-0.8-0.1-1.1s-0.2-0.5-0.3-0.6s-0.4-0.2-0.7-0.2
			c-0.3,0-0.5,0.1-0.6,0.2c-0.2,0.1-0.3,0.3-0.3,0.6c-0.1,0.3-0.1,0.6-0.1,1.1s0,1,0,1.6v1C3.4,57.5,3.4,58,3.4,58.4z"/>
		<path class="st0" d="M11.6,60.1v-6.4c-0.3,0.2-0.6,0.4-0.9,0.5v-0.3c0.4-0.1,0.7-0.4,1-0.7c0.3-0.3,0.5-0.7,0.6-1.1h1.6v8.1h0.9
			v0.2h-4.1v-0.2H11.6z"/>
		<path class="st0" d="M23.4,60.4h-5.9v-1.4c0-0.1,0-0.2,0.1-0.3s0.2-0.2,0.3-0.2c0.2-0.2,0.5-0.4,0.8-0.5c0.3-0.1,0.5-0.3,0.8-0.4
			c0.3-0.1,0.5-0.3,0.7-0.5c0.2-0.2,0.4-0.3,0.6-0.6c0.2-0.2,0.3-0.5,0.5-0.7c0.1-0.3,0.2-0.6,0.2-1c0-0.3,0-0.5,0-0.8
			c0-0.2-0.1-0.5-0.2-0.7s-0.2-0.3-0.4-0.5c-0.2-0.1-0.4-0.2-0.8-0.2c-0.2,0-0.4,0-0.6,0c-0.2,0-0.4,0.1-0.5,0.1
			c-0.1,0.1-0.3,0.2-0.3,0.3c-0.1,0.1-0.1,0.2-0.1,0.4c0,0,0.1,0,0.1,0c0.1,0,0.1,0,0.2,0c0.3,0,0.6,0.1,0.8,0.3
			c0.2,0.2,0.3,0.5,0.3,0.8s-0.1,0.6-0.3,0.8c-0.2,0.2-0.5,0.3-0.8,0.3c-0.3,0-0.5-0.1-0.7-0.2c-0.2-0.1-0.3-0.3-0.4-0.5
			c-0.1-0.2-0.1-0.4-0.1-0.7s0-0.5,0.1-0.7c0.2-0.4,0.4-0.7,0.7-0.9c0.3-0.2,0.7-0.4,1-0.5s0.8-0.1,1.2-0.1c0.4,0,0.8,0.1,1.2,0.2
			c0.4,0.2,0.8,0.4,1.1,0.7s0.5,0.6,0.7,1s0.2,0.7,0.2,1s-0.1,0.7-0.3,0.9c-0.2,0.4-0.6,0.7-0.9,0.9c-0.4,0.2-0.8,0.4-1.2,0.6
			s-0.9,0.3-1.4,0.5s-0.9,0.3-1.3,0.6h3.8c0.2,0,0.3-0.1,0.5-0.2c0.1-0.1,0.2-0.3,0.2-0.6h0.3L23.4,60.4z"/>
		<path class="st0" d="M26.9,53.2c0.1-0.2,0.4-0.4,0.6-0.6c0.3-0.2,0.6-0.3,1-0.4c0.4-0.1,0.8-0.1,1.2-0.1c0.4,0,0.8,0,1.1,0.1
			c0.3,0.1,0.6,0.2,0.9,0.4s0.4,0.4,0.6,0.6c0.1,0.2,0.2,0.5,0.2,0.8c0,0.4-0.1,0.6-0.2,0.9c-0.1,0.2-0.3,0.4-0.5,0.5
			c-0.2,0.1-0.5,0.2-0.8,0.3c-0.3,0.1-0.7,0.1-1.1,0.2c0.5,0,0.9,0.1,1.3,0.2c0.4,0.1,0.7,0.2,0.9,0.4c0.3,0.2,0.4,0.4,0.6,0.6
			c0.1,0.3,0.2,0.6,0.2,0.9c0,0.4-0.1,0.7-0.2,1c-0.2,0.3-0.5,0.6-0.8,0.8c-0.3,0.2-0.7,0.4-1.2,0.5c-0.4,0.1-0.9,0.2-1.3,0.2
			c-0.3,0-0.6,0-0.9-0.1c-0.3-0.1-0.6-0.1-0.9-0.3c-0.3-0.1-0.5-0.3-0.7-0.5c-0.2-0.2-0.3-0.5-0.3-0.8v-0.1c0-0.3,0.1-0.6,0.3-0.8
			c0.2-0.2,0.5-0.3,0.8-0.3s0.6,0.1,0.8,0.3c0.2,0.2,0.3,0.5,0.3,0.8c0,0.2-0.1,0.4-0.2,0.6c-0.1,0.2-0.3,0.3-0.4,0.4
			c0.1,0.1,0.2,0.3,0.4,0.4s0.5,0.2,0.8,0.2c0.5,0,0.8-0.2,1-0.6c0.2-0.4,0.3-0.9,0.3-1.6c0-0.3,0-0.6-0.1-0.8
			c-0.1-0.2-0.2-0.4-0.3-0.6c-0.1-0.2-0.2-0.3-0.4-0.4s-0.3-0.2-0.4-0.3c0,0-0.1,0-0.2-0.1c-0.1,0-0.2-0.1-0.5,0v-0.2
			c0.3,0,0.6-0.1,0.8-0.2c0.2-0.1,0.3-0.2,0.5-0.3c0.1-0.1,0.2-0.3,0.2-0.5c0-0.2,0-0.5,0-0.8c0-0.2,0-0.4-0.1-0.6
			c0-0.2-0.1-0.4-0.2-0.5c-0.1-0.2-0.2-0.3-0.3-0.4c-0.1-0.1-0.3-0.2-0.4-0.2c-0.2,0-0.5,0.1-0.7,0.2c-0.2,0.1-0.3,0.3-0.4,0.4
			c0.2,0.1,0.3,0.2,0.4,0.4c0.1,0.2,0.2,0.4,0.2,0.6c0,0.3-0.1,0.6-0.3,0.8c-0.2,0.2-0.5,0.3-0.8,0.3s-0.6-0.1-0.8-0.3
			c-0.2-0.2-0.3-0.5-0.3-0.8v-0.1C26.6,53.6,26.7,53.4,26.9,53.2z"/>
		<path class="st0" d="M38.8,60.1v-1.9h-3.2v-0.2l3.3-5.8h2V58h0.9v0.3h-0.9v1.9h0.9v0.2h-4.2v-0.2H38.8z M38.8,53.1L36,58h2.8V53.1
			z"/>
		<path class="st0" d="M46.2,55.8c-0.3,0.1-0.6,0.2-0.9,0.4l-0.2-0.1v-3.9h4.6c0.1,0,0.2,0,0.3-0.1c0.1-0.1,0.1-0.2,0.2-0.4l0.2,0
			c0,0.5-0.1,0.9-0.1,1.1c-0.1,0.3-0.1,0.5-0.2,0.7s-0.1,0.2-0.2,0.3c-0.1,0-0.2,0.1-0.3,0.1l-4.1,0l-0.1,1.9c0.3-0.1,0.6-0.2,1-0.3
			c0.4-0.1,0.7-0.1,1.1-0.1c0.6,0,1.1,0.1,1.5,0.2c0.4,0.1,0.8,0.3,1,0.6c0.3,0.2,0.5,0.5,0.6,0.8c0.1,0.3,0.2,0.6,0.2,0.9
			c0,0.4-0.1,0.8-0.3,1.1c-0.2,0.3-0.4,0.6-0.7,0.8s-0.7,0.4-1.1,0.5c-0.4,0.1-0.9,0.2-1.4,0.2c-0.2,0-0.5,0-0.8-0.1
			c-0.3-0.1-0.6-0.1-0.9-0.3s-0.6-0.3-0.8-0.5c-0.2-0.2-0.3-0.5-0.3-0.9l1.1-0.2l1,0l-0.1,0.6h-0.4c0,0.1-0.1,0.3-0.1,0.4
			c0,0.1,0,0.2,0.1,0.2c0.1,0.1,0.2,0.2,0.3,0.2c0.1,0.1,0.3,0.1,0.4,0.2c0.2,0.1,0.3,0.1,0.5,0.1c0.2,0,0.4-0.1,0.6-0.2
			s0.3-0.3,0.3-0.5c0.1-0.2,0.1-0.5,0.2-0.8s0-0.7,0-1.1c0-0.7-0.1-1.3-0.3-1.6c-0.2-0.3-0.6-0.5-1-0.5
			C46.9,55.6,46.6,55.7,46.2,55.8z M44.8,57.9c0.2-0.2,0.5-0.3,0.8-0.3s0.6,0.1,0.8,0.3c0.2,0.2,0.3,0.5,0.3,0.8s-0.1,0.6-0.3,0.8
			c-0.2,0.2-0.5,0.3-0.8,0.3s-0.6-0.1-0.8-0.3c-0.2-0.2-0.3-0.5-0.3-0.8S44.6,58.1,44.8,57.9z"/>
		<path class="st0" d="M58.3,53.2c0.1-0.2,0.3-0.3,0.5-0.4c-0.1-0.1-0.3-0.3-0.5-0.4s-0.5-0.1-0.8-0.1c-0.3,0-0.5,0.1-0.7,0.2
			c-0.2,0.1-0.4,0.3-0.5,0.6s-0.2,0.7-0.3,1.2c-0.1,0.5-0.1,1.1-0.1,1.8c0.2-0.3,0.4-0.5,0.7-0.7c0.3-0.2,0.6-0.3,1.1-0.3
			c0.3,0,0.7,0,1,0.1c0.4,0.1,0.7,0.2,1,0.4c0.3,0.2,0.5,0.4,0.7,0.7c0.2,0.3,0.3,0.7,0.3,1.2c0,0.6-0.1,1-0.3,1.4
			c-0.2,0.4-0.4,0.7-0.8,0.9c-0.3,0.2-0.7,0.4-1.1,0.5c-0.4,0.1-0.9,0.1-1.4,0.1c-0.5,0-1-0.1-1.4-0.2s-0.8-0.4-1.1-0.7
			c-0.3-0.3-0.6-0.7-0.8-1.2c-0.2-0.5-0.3-1-0.3-1.7c0-0.8,0.1-1.4,0.3-2c0.2-0.6,0.4-1.1,0.8-1.5c0.3-0.4,0.7-0.7,1.2-0.9
			c0.5-0.2,1-0.3,1.6-0.3c0.6,0,1.1,0.1,1.6,0.3c0.5,0.2,0.8,0.4,1.1,0.7c0.2,0.2,0.3,0.4,0.3,0.7c0,0,0,0,0,0s0,0,0,0v0
			c0,0.3-0.1,0.6-0.3,0.8c-0.2,0.2-0.5,0.3-0.8,0.3c-0.3,0-0.6-0.1-0.8-0.3c-0.2-0.2-0.3-0.5-0.3-0.8C58.1,53.6,58.2,53.4,58.3,53.2
			z M55.9,57.1c0,0.2,0,0.4,0,0.6c0,0.8,0.1,1.4,0.3,1.8c0.2,0.4,0.5,0.6,1,0.6c0.2,0,0.4-0.1,0.6-0.2s0.3-0.3,0.4-0.5
			c0.1-0.2,0.2-0.5,0.2-0.8s0.1-0.6,0.1-1c0-0.4,0-0.7-0.1-1c0-0.3-0.1-0.5-0.2-0.7c-0.1-0.2-0.2-0.3-0.3-0.4
			c-0.1-0.1-0.3-0.1-0.5-0.1c-0.1,0-0.3,0-0.4,0.1c-0.1,0.1-0.3,0.1-0.4,0.2c-0.1,0.1-0.2,0.2-0.3,0.3s-0.2,0.3-0.2,0.4
			C55.9,56.8,55.9,57,55.9,57.1z"/>
		<path class="st0" d="M64.3,59c0.1-0.5,0.2-0.9,0.4-1.2c0.2-0.3,0.4-0.6,0.6-0.9c0.2-0.2,0.5-0.5,0.8-0.7c0.3-0.2,0.6-0.4,0.8-0.6
			c0.3-0.2,0.6-0.4,0.8-0.7c0.3-0.3,0.5-0.6,0.8-0.9H65h-0.7c-0.2,0-0.3,0-0.4,0.1c-0.1,0-0.2,0.1-0.3,0.2s-0.1,0.2-0.1,0.4h-0.2
			l0-2.5h5.9v1.3c-0.4,0.5-0.7,0.9-1.1,1.4c-0.3,0.5-0.6,1-0.9,1.4c-0.3,0.5-0.5,1-0.6,1.5s-0.2,1-0.2,1.5c0,0.3-0.1,0.6-0.3,0.8
			c-0.2,0.2-0.5,0.3-0.8,0.3s-0.6-0.1-0.8-0.3c-0.2-0.2-0.3-0.5-0.3-0.8C64.2,59.2,64.2,59.1,64.3,59z"/>
		<path class="st0" d="M72.8,55.6c-0.4-0.3-0.6-0.7-0.6-1.4c0-0.4,0.1-0.7,0.2-1s0.4-0.5,0.7-0.7s0.6-0.3,1.1-0.4
			c0.4-0.1,0.9-0.1,1.4-0.1c0.5,0,1,0,1.4,0.1c0.4,0.1,0.8,0.2,1,0.3c0.3,0.2,0.5,0.4,0.7,0.6c0.2,0.3,0.2,0.6,0.2,1
			c0,0.5-0.2,1-0.6,1.3s-1,0.5-1.7,0.6v0c0.5,0,0.8,0.1,1.2,0.2s0.6,0.3,0.8,0.4c0.2,0.2,0.3,0.4,0.4,0.6c0.1,0.2,0.1,0.5,0.1,0.8
			c0,0.7-0.3,1.3-0.9,1.7s-1.5,0.6-2.6,0.6c-1.1,0-2-0.2-2.6-0.6c-0.6-0.4-0.9-0.9-0.9-1.7c0-0.6,0.2-1.1,0.6-1.5
			c0.4-0.4,1.1-0.6,2-0.6v0C73.8,56,73.2,55.9,72.8,55.6z M74.5,56.7c-0.2,0.3-0.3,0.8-0.3,1.5c0,1.3,0.4,2,1.3,2
			c0.9,0,1.3-0.7,1.3-2c0-0.7-0.1-1.2-0.3-1.5c-0.2-0.3-0.5-0.5-1-0.5C75.1,56.2,74.8,56.4,74.5,56.7z M74.7,55.5
			c0.2,0.3,0.5,0.5,0.9,0.5c0.4,0,0.7-0.2,0.8-0.5c0.2-0.3,0.2-0.8,0.2-1.4c0-0.6-0.1-1-0.3-1.3c-0.2-0.3-0.5-0.5-0.8-0.5
			s-0.6,0.2-0.8,0.5s-0.3,0.8-0.3,1.3C74.4,54.7,74.5,55.2,74.7,55.5z"/>
		<path class="st0" d="M84.1,59.3c-0.1,0.2-0.3,0.3-0.5,0.4c0.1,0.1,0.3,0.3,0.5,0.4c0.2,0.1,0.5,0.1,0.8,0.1c0.3,0,0.5-0.1,0.7-0.2
			s0.4-0.3,0.5-0.6s0.2-0.7,0.3-1.2s0.1-1.1,0.1-1.8c-0.1,0.1-0.2,0.3-0.3,0.4c-0.1,0.1-0.2,0.2-0.4,0.3c-0.1,0.1-0.3,0.2-0.5,0.2
			c-0.2,0-0.4,0.1-0.6,0.1c-0.3,0-0.7,0-1-0.1c-0.4-0.1-0.7-0.2-1-0.4c-0.3-0.2-0.5-0.4-0.7-0.7c-0.2-0.3-0.3-0.7-0.3-1.2
			c0-0.6,0.1-1.1,0.3-1.5c0.2-0.4,0.4-0.7,0.8-0.9c0.3-0.2,0.7-0.3,1.1-0.4c0.4-0.1,0.9-0.1,1.4-0.1c0.5,0,1,0.1,1.4,0.2
			s0.8,0.4,1.1,0.7c0.3,0.3,0.6,0.7,0.8,1.2c0.2,0.5,0.3,1,0.3,1.7c0,0.8-0.1,1.4-0.3,2c-0.2,0.6-0.4,1.1-0.8,1.5
			c-0.3,0.4-0.7,0.7-1.2,0.9c-0.5,0.2-1,0.3-1.6,0.3c-0.6,0-1.1-0.1-1.6-0.3c-0.5-0.2-0.8-0.4-1.1-0.7c-0.2-0.2-0.3-0.4-0.3-0.7
			v-0.1c0-0.3,0.1-0.6,0.3-0.8c0.2-0.2,0.5-0.3,0.8-0.3s0.6,0.1,0.8,0.3c0.2,0.2,0.3,0.5,0.3,0.8C84.2,59,84.2,59.2,84.1,59.3z
			 M86.5,55.4c0-0.2,0-0.4,0-0.6c0-0.8-0.1-1.4-0.3-1.8c-0.2-0.4-0.5-0.6-1-0.6c-0.2,0-0.4,0.1-0.6,0.2c-0.2,0.1-0.3,0.3-0.4,0.5
			c-0.1,0.2-0.2,0.5-0.2,0.8c0,0.3-0.1,0.6-0.1,1c0,0.4,0,0.8,0.1,1c0,0.3,0.1,0.5,0.2,0.7s0.2,0.3,0.3,0.4c0.1,0.1,0.3,0.1,0.5,0.1
			c0.1,0,0.3,0,0.4-0.1c0.1-0.1,0.3-0.1,0.4-0.2c0.1-0.1,0.2-0.2,0.3-0.3c0.1-0.1,0.2-0.3,0.2-0.4C86.5,55.8,86.5,55.6,86.5,55.4z"
			/>
	</g>
</g>
</svg>
