<?xml version="1.0" encoding="utf-8"?>
<!-- Generator: Adobe Illustrator 23.0.0, SVG Export Plug-In . SVG Version: 6.00 Build 0)  -->
<svg version="1.1" id="Layer_1" xmlns="http://www.w3.org/2000/svg" xmlns:xlink="http://www.w3.org/1999/xlink" x="0px" y="0px"
	 viewBox="0 0 278 278" style="enable-background:new 0 0 278 278;" xml:space="preserve">
<style type="text/css">
	.st0{fill-rule:evenodd;clip-rule:evenodd;fill:#FFFFFF;}
</style>
<path id="m" class="st0" d="M40.4,129.6V65.6c0-1.8,0.6-3.3,1.8-4.4c1.2-1.1,2.7-1.7,4.3-1.7h28.5c1.8,0,3.3,0.6,4.4,1.7
	c1.1,1.1,1.7,2.6,1.7,4.4v8.4c3.9-4.8,9-8.8,15.2-12.1c6.2-3.3,13.3-4.9,21.1-4.9c18,0,30.4,7.1,37.1,21.2
	c3.9-6.2,9.4-11.3,16.5-15.3s14.6-5.9,22.6-5.9c13.4,0,24.4,4.6,32.8,13.7c8.4,9.1,12.7,22.7,12.7,40.8V182c0,1.6-0.6,3.1-1.7,4.3
	c-1.1,1.2-2.6,1.8-4.4,1.8h-30.2c-1.8,0-3.3-0.6-4.5-1.7c-1.2-1.1-1.8-2.6-1.8-4.4v-68.9c0-7.6-1.6-13.1-4.8-16.6
	c-3.2-3.5-7.5-5.3-12.9-5.3c-5.1,0-9.2,1.8-12.4,5.3s-4.8,9.1-4.8,16.6v16.6c0,2.7-2.2,4.9-4.9,4.9h-33c-2.7,0-4.9-2.2-4.9-4.9
	v-16.6c0-7.6-1.6-13.1-4.9-16.6s-7.5-5.3-12.8-5.3c-5.1,0-9.3,1.8-12.5,5.3s-4.9,9-4.9,16.4v16.8c0,2.7-2.2,4.9-4.9,4.9H45.3
	C42.6,134.5,40.4,132.3,40.4,129.6z"/>
<path id="dot-2" class="st0" d="M123.6,149.1h33.1c2.7,0,4.9,2.2,4.9,4.9v29.3c0,2.7-2.2,4.9-4.9,4.9h-33.1c-2.7,0-4.9-2.2-4.9-4.9
	V154C118.8,151.3,121,149.1,123.6,149.1z"/>
<path id="dot-1" class="st0" d="M45.3,149.1h33.5c2.7,0,4.9,2.2,4.9,4.9v29.3c0,2.7-2.2,4.9-4.9,4.9H45.3c-2.7,0-4.9-2.2-4.9-4.9
	V154C40.4,151.3,42.6,149.1,45.3,149.1z"/>
</svg>
