<?xml version="1.0" encoding="utf-8"?>
<!-- Generator: Adobe Illustrator 22.1.0, SVG Export Plug-In . SVG Version: 6.00 Build 0)  -->
<svg version="1.1" id="Layer_1" xmlns="http://www.w3.org/2000/svg" xmlns:xlink="http://www.w3.org/1999/xlink" x="0px" y="0px"
	 viewBox="0 0 244.6 256.7" style="enable-background:new 0 0 244.6 256.7;" xml:space="preserve">
<style type="text/css">
	.st0{fill:#FFFFFF;}
</style>
<path class="st0" d="M200.9,59.9c-2.4-6.8-9.9-10.4-16.8-8c-6.8,2.4-9.5,8.8-8,16.8l9.5,52.2c0,0-20.8,10.7-29.4,37.6
	c-7.2,22.7,4.6,50.5,10.8,58.2c-4.6,2.6-17.5-7.2-20.6-35c-3.4-31,12.9-49.8,29-63l-9.7-13.3l0,0l-60.1-86.1
	c-4.1-6-12.3-7.4-18.3-3.3s-7.4,12.3-3.3,18.3l58.1,83.3c-2.4,1.4-4.7,2.8-7.1,4.3L72,31.1c-4.1-6-12.3-7.4-18.3-3.3
	s-7.4,12.3-3.3,18.3l63,90.5c-2.4,1.9-4.8,3.7-7.1,5.6L50.9,62.6c-4.1-6-12.3-7.4-18.3-3.3s-7.4,12.3-3.3,18.3L87,160.3
	c-2,2.1-3.8,4.2-5.5,6.2l-43-61.7c-4.1-6-12.3-7.4-18.3-3.3s-7.4,12.3-3.3,18.3l63.2,90.7c21,29.2,42.1,46.2,74.8,46.2
	c46.2,0,83.7-37.5,83.7-83.7C238.6,155.9,200.9,59.9,200.9,59.9z"/>
</svg>
