<?xml version="1.0" encoding="utf-8"?>
<!-- Generator: Adobe Illustrator 22.1.0, SVG Export Plug-In . SVG Version: 6.00 Build 0)  -->
<svg version="1.1" id="Layer_1" xmlns="http://www.w3.org/2000/svg" xmlns:xlink="http://www.w3.org/1999/xlink" x="0px" y="0px"
	 viewBox="0 0 323.6 62" style="enable-background:new 0 0 323.6 62;" xml:space="preserve">
<style type="text/css">
	.st0{enable-background:new    ;}
	.st1{fill:#FFFFFF;}
</style>
<g class="st0">
	<path class="st1" d="M3.2,43.5v-7.6H0.5v-0.4h5.8v0.4H3.5v7.6H3.2z"/>
	<path class="st1" d="M11.6,43.5v-4.1c0-1.2-0.6-1.5-1.5-1.5c-0.8,0-1.6,0.5-2.1,1.1v4.5H7.7v-8h0.4v3.1c0.4-0.5,1.3-1.1,2.1-1.1
		c1.2,0,1.8,0.5,1.8,1.9v4.1H11.6z"/>
	<path class="st1" d="M13.8,40.6c0-1.7,1.2-3,2.7-3c1.8,0,2.7,1.4,2.7,3v0.1h-5c0,1.4,1,2.6,2.4,2.6c0.8,0,1.5-0.3,2-0.9l0.2,0.2
		c-0.6,0.6-1.3,1-2.2,1C14.9,43.7,13.8,42.4,13.8,40.6z M16.5,37.9c-1.5,0-2.3,1.4-2.3,2.5h4.6C18.8,39.3,18.1,37.9,16.5,37.9z"/>
	<path class="st1" d="M23.7,40.6c0-1.8,1-3,2.6-3c0.9,0,1.7,0.5,2.1,1.1v-1h0.4v8h-0.4v-3.2c-0.5,0.7-1.2,1.1-2.1,1.1
		C24.7,43.7,23.7,42.4,23.7,40.6z M28.4,42.2v-3.1c-0.4-0.6-1.2-1.2-2.1-1.2c-1.4,0-2.2,1.2-2.2,2.7s0.8,2.7,2.2,2.7
		C27.2,43.3,28,42.8,28.4,42.2z"/>
	<path class="st1" d="M34.7,43.5v-0.9c-0.5,0.6-1.3,1-2.1,1c-1.2,0-1.8-0.5-1.8-1.9v-4.1h0.4v4.1c0,1.2,0.6,1.5,1.5,1.5
		c0.8,0,1.6-0.5,2.1-1.1v-4.6h0.4v5.8h-0.5V43.5z"/>
	<path class="st1" d="M37,36.4c0-0.2,0.2-0.3,0.3-0.3c0.2,0,0.3,0.2,0.3,0.3c0,0.2-0.2,0.3-0.3,0.3C37.1,36.7,37,36.6,37,36.4z
		 M37.1,43.5v-5.8h0.4v5.8H37.1z"/>
	<path class="st1" d="M39.2,40.6c0-1.7,1.1-3,2.7-3c0.9,0,1.5,0.4,2,1l-0.3,0.2c-0.5-0.6-1-0.9-1.7-0.9c-1.5,0-2.4,1.2-2.4,2.7
		s0.9,2.7,2.4,2.7c0.7,0,1.2-0.2,1.7-0.9l0.3,0.2c-0.5,0.6-1,1-2,1C40.3,43.7,39.2,42.3,39.2,40.6z"/>
	<path class="st1" d="M49.6,43.5L47,40.6l-1.2,1.1v1.8h-0.4v-8h0.4v5.7l3.8-3.5h0.5l-2.8,2.6l2.8,3.2C50.1,43.5,49.6,43.5,49.6,43.5
		z"/>
	<path class="st1" d="M54.5,43.5v-8h0.4v3.2c0.5-0.7,1.2-1.1,2.1-1.1c1.6,0,2.6,1.2,2.6,3s-1,3-2.6,3c-0.9,0-1.7-0.5-2.1-1.1v1
		C54.9,43.5,54.5,43.5,54.5,43.5z M57,43.3c1.4,0,2.2-1.2,2.2-2.7s-0.8-2.7-2.2-2.7c-0.9,0-1.7,0.6-2.1,1.2v3.1
		C55.3,42.8,56.1,43.3,57,43.3z"/>
	<path class="st1" d="M61.3,43.5v-5.8h0.4v1.1c0.5-0.7,1.2-1.2,2-1.2V38c-0.1,0-0.2,0-0.3,0c-0.6,0-1.4,0.6-1.7,1.1v4.3h-0.4V43.5z"
		/>
	<path class="st1" d="M64.7,40.6c0-1.7,1.1-3,2.7-3s2.7,1.3,2.7,3s-1.1,3-2.7,3C65.7,43.7,64.7,42.3,64.7,40.6z M69.7,40.6
		c0-1.4-0.8-2.7-2.3-2.7s-2.3,1.3-2.3,2.7s0.8,2.7,2.3,2.7C68.9,43.3,69.7,42,69.7,40.6z"/>
	<path class="st1" d="M76.8,43.5L75,38.3l-1.8,5.3H73l-1.9-5.8h0.4l1.7,5.2l1.7-5.2h0.3l1.7,5.2l1.7-5.2H79l-2,5.7H76.8z"/>
	<path class="st1" d="M84.2,43.5v-4c0-1.2-0.6-1.6-1.5-1.6c-0.8,0-1.6,0.5-2.1,1.1v4.5h-0.4v-5.8h0.4v0.9c0.4-0.5,1.3-1.1,2.1-1.1
		c1.2,0,1.8,0.5,1.8,1.9v4L84.2,43.5L84.2,43.5z"/>
	<path class="st1" d="M89.9,43.5V38h-1v-0.3h1v-0.6c0-1.1,0.5-1.7,1.5-1.7c0.4,0,0.6,0.1,1,0.4L92.1,36c-0.2-0.2-0.5-0.3-0.8-0.3
		c-0.7,0-1.1,0.5-1.1,1.4v0.6h1.2V38h-1.2v5.5H89.9z"/>
	<path class="st1" d="M92.4,40.6c0-1.7,1.1-3,2.7-3s2.7,1.3,2.7,3s-1.1,3-2.7,3C93.4,43.7,92.4,42.3,92.4,40.6z M97.4,40.6
		c0-1.4-0.8-2.7-2.3-2.7s-2.3,1.3-2.3,2.7s0.8,2.7,2.3,2.7C96.5,43.3,97.4,42,97.4,40.6z"/>
	<path class="st1" d="M102.9,43.5l-2.1-2.7l-2.1,2.7h-0.5l2.4-3l-2.2-2.8h0.5l2,2.6l2-2.6h0.5l-2.2,2.8l2.4,3H102.9z"/>
	<path class="st1" d="M105.6,45.4l0.2-0.3c0.2,0.2,0.5,0.4,0.9,0.4c0.6,0,1.1-0.3,1.1-1.1v-6.7h0.4v6.7c0,1-0.6,1.4-1.4,1.4
		C106.3,45.9,106,45.7,105.6,45.4z M107.7,36.4c0-0.2,0.2-0.3,0.3-0.3c0.2,0,0.3,0.2,0.3,0.3c0,0.2-0.2,0.3-0.3,0.3
		C107.8,36.7,107.7,36.6,107.7,36.4z"/>
	<path class="st1" d="M114.2,43.5v-0.9c-0.5,0.6-1.3,1-2.1,1c-1.2,0-1.8-0.5-1.8-1.9v-4.1h0.4v4.1c0,1.2,0.6,1.5,1.5,1.5
		c0.8,0,1.6-0.5,2.1-1.1v-4.6h0.4v5.8h-0.5V43.5z"/>
	<path class="st1" d="M123.4,43.5v-4.2c0-0.9-0.4-1.4-1.2-1.4c-0.6,0-1.4,0.5-1.8,1.1v4.5H120v-4.2c0-0.9-0.4-1.4-1.2-1.4
		c-0.6,0-1.4,0.5-1.8,1.1v4.5h-0.4v-5.8h0.4v0.9c0.2-0.4,1-1.1,1.9-1.1s1.4,0.6,1.5,1.1c0.3-0.5,1.1-1.1,1.9-1.1
		c1.1,0,1.5,0.6,1.5,1.8v4.2C123.8,43.5,123.4,43.5,123.4,43.5z"/>
	<path class="st1" d="M126.2,42.5v3.2h-0.4v-8h0.4v1c0.4-0.6,1.2-1.1,2.1-1.1c1.6,0,2.6,1.2,2.6,3s-1,3-2.6,3
		C127.4,43.7,126.6,43.2,126.2,42.5z M130.5,40.6c0-1.5-0.8-2.7-2.2-2.7c-0.9,0-1.7,0.5-2.1,1.2v3.1c0.4,0.6,1.2,1.2,2.1,1.2
		C129.7,43.3,130.5,42.1,130.5,40.6z"/>
	<path class="st1" d="M132.1,42.7l0.3-0.3c0.4,0.5,1,0.9,1.8,0.9c1.1,0,1.7-0.6,1.7-1.3c0-1.8-3.7-0.9-3.7-2.9c0-0.9,0.7-1.5,2-1.5
		c1,0,1.6,0.4,2,0.9l-0.3,0.2c-0.3-0.5-0.9-0.8-1.7-0.8c-1,0-1.6,0.5-1.6,1.2c0,1.6,3.7,0.7,3.7,2.9c0,0.9-0.7,1.7-2.1,1.7
		C133.3,43.7,132.6,43.4,132.1,42.7z"/>
	<path class="st1" d="M140.8,40.6c0-1.7,1.1-3,2.7-3c1.6,0,2.7,1.3,2.7,3s-1.1,3-2.7,3C141.9,43.7,140.8,42.3,140.8,40.6z
		 M145.8,40.6c0-1.4-0.8-2.7-2.3-2.7s-2.3,1.3-2.3,2.7s0.8,2.7,2.3,2.7S145.8,42,145.8,40.6z"/>
	<path class="st1" d="M149.6,43.5l-2.5-5.8h0.4l2.3,5.4l2.3-5.4h0.4l-2.5,5.8H149.6z"/>
	<path class="st1" d="M153.3,40.6c0-1.7,1.2-3,2.7-3c1.8,0,2.7,1.4,2.7,3v0.1h-5c0,1.4,1,2.6,2.4,2.6c0.8,0,1.5-0.3,2-0.9l0.2,0.2
		c-0.6,0.6-1.3,1-2.2,1C154.5,43.7,153.3,42.4,153.3,40.6z M156,37.9c-1.5,0-2.3,1.4-2.3,2.5h4.6C158.3,39.3,157.6,37.9,156,37.9z"
		/>
	<path class="st1" d="M160.5,43.5v-5.8h0.4v1.1c0.5-0.7,1.2-1.2,2-1.2V38c-0.1,0-0.2,0-0.3,0c-0.6,0-1.4,0.6-1.7,1.1v4.3h-0.4V43.5z
		"/>
	<path class="st1" d="M167.3,42.5V38h-1v-0.3h1v-1.6h0.4v1.6h1.2V38h-1.2v4.4c0,0.5,0.2,0.8,0.6,0.8c0.3,0,0.5-0.1,0.7-0.3l0.2,0.3
		c-0.2,0.2-0.5,0.4-0.9,0.4C167.6,43.7,167.3,43.2,167.3,42.5z"/>
	<path class="st1" d="M174.2,43.5v-4.1c0-1.2-0.6-1.5-1.5-1.5c-0.8,0-1.6,0.5-2.1,1.1v4.5h-0.4v-8h0.4v3.1c0.4-0.5,1.3-1.1,2.1-1.1
		c1.2,0,1.8,0.5,1.8,1.9v4.1H174.2z"/>
	<path class="st1" d="M176.3,40.6c0-1.7,1.2-3,2.7-3c1.8,0,2.7,1.4,2.7,3v0.1h-5c0,1.4,1,2.6,2.4,2.6c0.8,0,1.5-0.3,2-0.9l0.2,0.2
		c-0.6,0.6-1.3,1-2.2,1C177.5,43.7,176.3,42.4,176.3,40.6z M179,37.9c-1.5,0-2.3,1.4-2.3,2.5h4.6C181.4,39.3,180.6,37.9,179,37.9z"
		/>
	<path class="st1" d="M186.6,43.5v-8h0.4v8H186.6z"/>
	<path class="st1" d="M192.8,43.5v-0.7c-0.5,0.6-1.2,0.9-2,0.9c-1,0-2-0.7-2-1.9s1-1.9,2-1.9c0.8,0,1.5,0.3,2,0.9v-1.3
		c0-0.9-0.7-1.4-1.6-1.4c-0.8,0-1.3,0.3-1.9,0.9l-0.3-0.2c0.6-0.7,1.2-1,2.1-1c1.1,0,2,0.6,2,1.8v4.2h-0.3V43.5z M192.8,42.4V41
		c-0.4-0.6-1.2-0.9-1.9-0.9c-1.1,0-1.7,0.7-1.7,1.6s0.7,1.6,1.7,1.6C191.6,43.3,192.3,43,192.8,42.4z"/>
	<path class="st1" d="M194.9,43.5v-0.3l3.7-5.1h-3.7v-0.3h4.1V38l-3.7,5.1h3.8v0.3h-4.2V43.5z"/>
	<path class="st1" d="M200.4,45.4c0.1,0.1,0.4,0.1,0.5,0.1c0.4,0,0.6-0.2,0.9-0.8l0.5-1.2l-2.5-5.8h0.4l2.3,5.4l2.3-5.4h0.4
		l-3.1,7.2c-0.3,0.6-0.7,1-1.3,1c-0.2,0-0.4,0-0.6-0.1L200.4,45.4z"/>
	<path class="st1" d="M213.9,43.5v-1c-0.4,0.6-1.2,1.1-2.1,1.1c-1.6,0-2.6-1.2-2.6-3s1-3,2.6-3c0.9,0,1.6,0.5,2.1,1.1v-3.2h0.4v8
		C214.3,43.5,213.9,43.5,213.9,43.5z M213.9,42.2v-3.1c-0.4-0.6-1.2-1.2-2.1-1.2c-1.4,0-2.2,1.2-2.2,2.7s0.8,2.7,2.2,2.7
		C212.8,43.3,213.6,42.8,213.9,42.2z"/>
	<path class="st1" d="M216.1,40.6c0-1.7,1.1-3,2.7-3c1.6,0,2.7,1.3,2.7,3s-1.1,3-2.7,3C217.1,43.7,216.1,42.3,216.1,40.6z
		 M221.1,40.6c0-1.4-0.8-2.7-2.3-2.7s-2.3,1.3-2.3,2.7s0.8,2.7,2.3,2.7C220.2,43.3,221.1,42,221.1,40.6z"/>
	<path class="st1" d="M223.3,45l0.3-0.3c0.5,0.6,1,0.9,2,0.9c1.2,0,2.1-0.6,2.1-2v-1c-0.4,0.6-1.2,1.1-2.1,1.1c-1.6,0-2.6-1.2-2.6-3
		s1-3.1,2.6-3.1c0.9,0,1.6,0.5,2.1,1.1v-1h0.4v5.8c0,1.7-1,2.3-2.4,2.3C224.5,45.9,223.9,45.7,223.3,45z M227.6,42.2v-3.1
		c-0.4-0.6-1.2-1.2-2.1-1.2c-1.4,0-2.2,1.2-2.2,2.7s0.8,2.7,2.2,2.7C226.4,43.4,227.2,42.8,227.6,42.2z"/>
</g>
<g>
	<path class="st1" d="M1.8,56.3c0-1.9,0.7-4.1,2.9-4.1c2.1,0,2.8,2.3,2.8,4.1s-0.7,4.1-2.8,4.1C2.5,60.4,1.8,58.2,1.8,56.3z
		 M7.1,56.3c0-1.7-0.6-3.8-2.4-3.8s-2.4,2.1-2.4,3.8s0.6,3.8,2.4,3.8S7.1,58,7.1,56.3z"/>
	<path class="st1" d="M12.5,60.3v-7.4l-1.3,1.4L11,54l1.5-1.7h0.4v8H12.5z"/>
	<path class="st1" d="M17.1,60.3V60c2.6-2.1,4.6-3.9,4.6-5.6c0-1.3-1-1.8-2-1.8s-1.8,0.4-2.2,1.1l-0.3-0.2c0.5-0.7,1.4-1.2,2.5-1.2
		c1,0,2.4,0.6,2.4,2.2c0,1.9-2.1,3.6-4.5,5.6h4.5v0.4h-5V60.3z"/>
	<path class="st1" d="M26.1,59.1l0.3-0.2c0.4,0.7,1.2,1.2,2.3,1.2c1.3,0,2.2-0.7,2.2-1.9c0-1.3-1.1-1.8-2.3-1.8c-0.3,0-0.6,0-0.7,0
		V56c0.1,0,0.3,0,0.7,0c1.1,0,2.2-0.5,2.2-1.7c0-1.1-1-1.7-2.1-1.7c-1,0-1.6,0.4-2.2,1.1l-0.3-0.2c0.5-0.7,1.4-1.2,2.5-1.2
		c1.2,0,2.4,0.7,2.4,2.1c0,1.3-1.1,1.8-1.7,1.9c0.7,0.1,1.8,0.6,1.8,2c0,1.3-0.9,2.3-2.6,2.3C27.5,60.4,26.6,59.8,26.1,59.1z"/>
	<path class="st1" d="M38.7,60.3V58h-3.8v-0.4l3.7-5.3h0.5v5.3h1.2V58h-1.2v2.3H38.7z M38.7,52.7l-3.4,4.9h3.4V52.7z"/>
	<path class="st1" d="M44.1,59.1l0.3-0.2c0.5,0.8,1.2,1.2,2.3,1.2c1.2,0,2.2-0.9,2.2-2.2c0-1.4-0.9-2.2-2.2-2.2
		c-0.7,0-1.4,0.3-2,0.8l-0.3-0.2v-4.1h4.4v0.4h-4v3.5c0.4-0.4,1.1-0.8,2-0.8c1.3,0,2.5,0.9,2.5,2.5s-1.2,2.5-2.5,2.5
		C45.4,60.4,44.7,59.9,44.1,59.1z"/>
	<path class="st1" d="M53.2,56.3c0-1.9,0.7-4.1,2.9-4.1c1.1,0,1.7,0.4,2.1,1.1l-0.3,0.3c-0.4-0.6-0.9-1-1.8-1
		c-1.9,0-2.5,2.1-2.5,3.9c0,0.1,0,0.3,0,0.4c0.3-0.6,1.3-1.4,2.4-1.4c1.4,0,2.5,0.8,2.5,2.5c0,1.2-0.9,2.5-2.6,2.5
		C53.9,60.4,53.2,58.4,53.2,56.3z M58.2,57.9c0-1.5-0.9-2.2-2.2-2.2c-1,0-1.9,0.7-2.4,1.6c0.1,1.2,0.7,2.7,2.3,2.7
		C57.5,60.1,58.2,58.9,58.2,57.9z"/>
	<path class="st1" d="M63.2,60.3l3.5-7.6h-4.5v-0.4h5v0.3l-3.5,7.7H63.2z"/>
	<path class="st1" d="M70.8,58.3c0-1.2,1-1.9,2.1-2.1c-1-0.2-1.9-0.9-1.9-1.9c0-1.4,1.2-2.1,2.4-2.1c1.2,0,2.4,0.7,2.4,2.1
		c0,1.1-1,1.7-1.9,1.9c1,0.3,2.1,1,2.1,2.1c0,1.2-1.1,2.1-2.6,2.1C71.9,60.4,70.8,59.6,70.8,58.3z M75.6,58.3c0-1.4-1.7-1.9-2.2-2
		c-0.5,0.1-2.2,0.6-2.2,2c0,1.1,1.1,1.8,2.2,1.8S75.6,59.4,75.6,58.3z M75.5,54.2c0-1.1-0.9-1.7-2.1-1.7c-1.1,0-2.1,0.6-2.1,1.7
		c0,1.3,1.6,1.7,2.1,1.8C73.9,55.9,75.5,55.5,75.5,54.2z"/>
	<path class="st1" d="M80.4,59.4l0.3-0.3c0.4,0.6,0.9,1,1.8,1c1.9,0,2.5-2.1,2.5-3.9c0-0.1,0-0.3,0-0.4c-0.3,0.6-1.3,1.4-2.4,1.4
		c-1.4,0-2.5-0.8-2.5-2.5c0-1.2,0.9-2.5,2.6-2.5c2.1,0,2.8,2,2.8,4.1c0,1.9-0.7,4.1-2.9,4.1C81.4,60.4,80.8,60,80.4,59.4z
		 M84.9,55.3c-0.1-1.2-0.7-2.7-2.3-2.7c-1.5,0-2.2,1.2-2.2,2.1c0,1.5,0.9,2.2,2.2,2.2C83.5,56.8,84.4,56.2,84.9,55.3z"/>
</g>
<g>
	<path class="st1" d="M2.4,26.8v-5.9H0.2v-2.1h6.7v2.1H4.8v5.9H2.4z"/>
	<path class="st1" d="M13.4,26.8v-3.1h-2.9v3.1H8.1v-8h2.4v2.8h2.9v-2.8h2.4v8H13.4z"/>
	<path class="st1" d="M17.4,26.8v-8h6.1v2.1h-3.6v0.8h3.6v2.1h-3.6v0.9h3.6v2.1H17.4z"/>
	<path class="st1" d="M27.8,22.8c0-2.5,1.9-4.1,4.4-4.1c2.5,0,4.4,1.7,4.4,4.1c0,1.1-0.4,2-1,2.7l0.4,0.5l-1.7,1.3l-0.6-0.7
		c-0.5,0.2-1,0.2-1.6,0.2C29.7,26.9,27.8,25.3,27.8,22.8z M32.2,24.8l-0.6-0.7l1.7-1.3l0.6,0.8c0.1-0.2,0.1-0.5,0.1-0.7
		c0-1.1-0.8-2-1.9-2c-1.2,0-1.9,0.9-1.9,2C30.2,23.9,31,24.8,32.2,24.8L32.2,24.8z"/>
	<path class="st1" d="M37.7,23.5v-4.7h2.5v4.6c0,0.8,0.5,1.4,1.5,1.4c1,0,1.5-0.6,1.5-1.4v-4.6h2.5v4.7c0,2-1.2,3.4-3.9,3.4
		S37.7,25.5,37.7,23.5z"/>
	<path class="st1" d="M47.2,26.8v-8h2.4v8H47.2z"/>
	<path class="st1" d="M50.8,22.8c0-2.5,1.9-4.1,4.4-4.1c2.1,0,3.2,1.2,3.6,2.3l-2.1,1c-0.2-0.6-0.8-1.2-1.5-1.2
		c-1.2,0-1.9,0.9-1.9,2c0,1.1,0.8,2,1.9,2c0.7,0,1.3-0.5,1.5-1.2l2.1,1c-0.5,1.1-1.5,2.3-3.6,2.3C52.7,26.9,50.8,25.3,50.8,22.8z"/>
	<path class="st1" d="M64.6,26.8L62.8,24l-0.4,0.6v2.2h-2.4v-8h2.4v3l2.1-3h3l-3,3.7l3.2,4.3H64.6z"/>
	<path class="st1" d="M71.6,26.8v-8h4.9c1.7,0,2.4,1.1,2.4,2c0,1-0.6,1.7-1.4,1.8c0.9,0.1,1.5,0.9,1.5,2c0,1.1-0.8,2.2-2.4,2.2H71.6
		z M76.4,21.3c0-0.3-0.2-0.5-0.5-0.5H74v0.9h1.9C76.1,21.8,76.4,21.6,76.4,21.3z M76.5,24.3c0-0.3-0.2-0.5-0.6-0.5H74v1H76
		C76.3,24.8,76.5,24.6,76.5,24.3z"/>
	<path class="st1" d="M84.7,26.8l-1.1-2.5h-0.9v2.5h-2.4v-8h4.3c1.9,0,2.9,1.2,2.9,2.7c0,1.4-0.8,2.1-1.4,2.4l1.5,2.8H84.7z
		 M85,21.5c0-0.4-0.4-0.6-0.8-0.6h-1.5v1.3h1.5C84.6,22.2,85,22,85,21.5z"/>
	<path class="st1" d="M88.3,22.8c0-2.5,1.9-4.1,4.4-4.1c2.5,0,4.4,1.7,4.4,4.1c0,2.5-1.9,4.1-4.4,4.1C90.2,26.9,88.3,25.3,88.3,22.8
		z M94.6,22.8c0-1.1-0.8-2-1.9-2c-1.2,0-1.9,0.9-1.9,2c0,1.1,0.8,2,1.9,2C93.8,24.8,94.6,23.9,94.6,22.8z"/>
	<path class="st1" d="M104.1,26.8l-1-4.5l-1,4.5h-2.5l-2.3-8h2.7l1,4.9l1.2-4.9h1.8l1.2,4.9l1-4.9h2.7l-2.3,8H104.1z"/>
	<path class="st1" d="M115.1,26.8l-3-4.1v4.1h-2.4v-8h2.5l2.8,3.8v-3.8h2.4v8H115.1z"/>
	<path class="st1" d="M122.4,26.8v-8h6.1v2.1h-3.6v0.8h3.6v2.1h-3.6v3H122.4z"/>
	<path class="st1" d="M129.3,22.8c0-2.5,1.9-4.1,4.4-4.1c2.5,0,4.4,1.7,4.4,4.1c0,2.5-1.9,4.1-4.4,4.1
		C131.2,26.9,129.3,25.3,129.3,22.8z M135.6,22.8c0-1.1-0.8-2-1.9-2c-1.2,0-1.9,0.9-1.9,2c0,1.1,0.8,2,1.9,2
		C134.9,24.8,135.6,23.9,135.6,22.8z"/>
	<path class="st1" d="M143.8,26.8l-1.5-2.4l-1.5,2.4H138l2.7-4.1l-2.5-3.9h2.8l1.3,2.3l1.3-2.3h2.9l-2.5,3.9l2.7,4.1H143.8z"/>
	<path class="st1" d="M150.1,26.3l1-1.8c0.3,0.2,0.6,0.4,1,0.4c0.5,0,0.9-0.3,0.9-0.9v-5.1h2.4v5.1c0,2.1-1.2,3-3.1,3
		C151.6,26.9,150.7,26.8,150.1,26.3z"/>
	<path class="st1" d="M157,23.5v-4.7h2.5v4.6c0,0.8,0.5,1.4,1.5,1.4c1,0,1.5-0.6,1.5-1.4v-4.6h2.5v4.7c0,2-1.2,3.4-3.9,3.4
		C158.3,26.9,157,25.5,157,23.5z"/>
	<path class="st1" d="M173.6,26.8V22l-1.8,4.8h-1.1L169,22v4.8h-2.4v-8h3.3l1.4,3.8l1.4-3.8h3.3v8H173.6z"/>
	<path class="st1" d="M177.6,26.8v-8h4.3c1.9,0,2.9,1.2,2.9,2.7c0,1.5-1,2.7-2.9,2.7h-1.8v2.5H177.6z M182.3,21.5
		c0-0.4-0.3-0.6-0.7-0.6h-1.5v1.3h1.5C182,22.2,182.3,22,182.3,21.5z"/>
	<path class="st1" d="M185.3,25.7l1.3-1.8c0.6,0.6,1.5,1,2.6,1c0.5,0,0.9-0.1,0.9-0.4c0-0.8-4.5,0-4.5-3.1c0-1.4,1.1-2.7,3.3-2.7
		c1.3,0,2.5,0.4,3.4,1.1l-1.3,1.7c-0.7-0.5-1.6-0.8-2.4-0.8c-0.5,0-0.6,0.2-0.6,0.4c0,0.8,4.4,0.1,4.4,3.1c0,1.8-1.3,2.8-3.5,2.8
		C187.3,26.9,186.1,26.4,185.3,25.7z"/>
	<path class="st1" d="M196.5,22.8c0-2.5,1.9-4.1,4.4-4.1s4.4,1.7,4.4,4.1c0,2.5-1.9,4.1-4.4,4.1S196.5,25.3,196.5,22.8z M202.8,22.8
		c0-1.1-0.8-2-1.9-2c-1.2,0-1.9,0.9-1.9,2c0,1.1,0.8,2,1.9,2C202,24.8,202.8,23.9,202.8,22.8z"/>
	<path class="st1" d="M208.2,26.8l-3-8h2.7l1.7,5.4l1.7-5.4h2.7l-2.9,8H208.2z"/>
	<path class="st1" d="M215,26.8v-8h6.1v2.1h-3.6v0.8h3.6v2.1h-3.6v0.9h3.6v2.1H215z"/>
	<path class="st1" d="M226.8,26.8l-1.1-2.5h-0.9v2.5h-2.4v-8h4.3c1.9,0,2.9,1.2,2.9,2.7c0,1.4-0.8,2.1-1.4,2.4l1.5,2.8H226.8z
		 M227.1,21.5c0-0.4-0.4-0.6-0.8-0.6h-1.5v1.3h1.5C226.7,22.2,227.1,22,227.1,21.5z"/>
	<path class="st1" d="M235.9,26.8v-5.9h-2.1v-2.1h6.7v2.1h-2.1v5.9H235.9z"/>
	<path class="st1" d="M247,26.8v-3.1h-2.9v3.1h-2.4v-8h2.4v2.8h2.9v-2.8h2.4v8H247z"/>
	<path class="st1" d="M251,26.8v-8h6.1v2.1h-3.6v0.8h3.6v2.1h-3.6v0.9h3.6v2.1H251z"/>
	<path class="st1" d="M261.8,26.8v-8h2.4v5.9h3v2.1H261.8z"/>
	<path class="st1" d="M273.9,26.8l-0.3-0.9h-2.9l-0.3,0.9h-2.7l3-8h3l2.9,8H273.9z M272.1,21.2l-0.8,2.6h1.6L272.1,21.2z"/>
	<path class="st1" d="M277.1,26.8v-1.9l3-4h-3v-2.1h6.2v1.9l-3.1,4h3.1v2.1H277.1z"/>
	<path class="st1" d="M287,26.8v-3.2l-3-4.8h2.7l1.5,2.7l1.5-2.7h2.7l-3,4.8v3.2H287z"/>
	<path class="st1" d="M296.5,26.8v-8h3.6c2.5,0,4.4,1.4,4.4,4s-1.9,4-4.4,4H296.5z M302,22.8c0-1.1-0.6-1.9-1.9-1.9h-1.2v3.8h1.2
		C301.3,24.7,302,23.8,302,22.8z"/>
	<path class="st1" d="M305.2,22.8c0-2.5,1.9-4.1,4.4-4.1s4.4,1.7,4.4,4.1c0,2.5-1.9,4.1-4.4,4.1S305.2,25.3,305.2,22.8z M311.5,22.8
		c0-1.1-0.8-2-1.9-2c-1.2,0-1.9,0.9-1.9,2c0,1.1,0.8,2,1.9,2C310.7,24.8,311.5,23.9,311.5,22.8z"/>
	<path class="st1" d="M314.7,22.8c0-2.6,2-4.1,4.4-4.1c1.9,0,3,1.1,3.5,2.1l-2,1c-0.2-0.5-0.8-1-1.5-1c-1.2,0-1.9,0.9-1.9,2
		c0,1.1,0.8,2,1.9,2c0.5,0,1-0.2,1.2-0.4v-0.3h-1.5v-2.1h3.9v3.3c-0.9,1-2.1,1.6-3.7,1.6C316.6,26.9,314.7,25.4,314.7,22.8z"/>
</g>
</svg>
