<?xml version="1.0" encoding="utf-8"?>
<!-- Generator: Adobe Illustrator 23.0.0, SVG Export Plug-In . SVG Version: 6.00 Build 0)  -->
<svg version="1.1" id="Layer_1" xmlns="http://www.w3.org/2000/svg" xmlns:xlink="http://www.w3.org/1999/xlink" x="0px" y="0px"
	 viewBox="0 0 2481.6 2213.3" style="enable-background:new 0 0 2481.6 2213.3;" xml:space="preserve">
<style type="text/css">
	.st0{fill:#FFFFFF;}
</style>
<title>Slice 1</title>
<g>
	<path class="st0" d="M1240.8,1572.4c-149.7,0-295.1-11.3-432-33.6c-133-21.7-252.7-52.8-355.8-92.5
		c-105.5-40.6-189-88.5-248.2-142.4c-31.7-28.9-56.4-59.6-73.2-91.2c-18.3-34.4-27.5-70.1-27.5-106.1c0-36.1,9.3-71.8,27.5-106.1
		c16.8-31.6,41.4-62.3,73.2-91.2C264,855.5,347.5,807.6,453,766.9c103.1-39.7,222.8-70.8,355.8-92.5c136.9-22.3,282.2-33.6,432-33.6
		s295.1,11.3,432,33.6c133,21.7,252.7,52.8,355.8,92.5c105.5,40.6,189,88.5,248.2,142.4c31.7,28.9,56.4,59.6,73.2,91.2
		c18.3,34.4,27.5,70.1,27.5,106.1c0,36.1-9.3,71.8-27.5,106.1c-16.8,31.6-41.4,62.3-73.2,91.2c-59.2,53.8-142.6,101.7-248.2,142.4
		c-103.1,39.7-222.8,70.8-355.8,92.5C1535.8,1561.1,1390.5,1572.4,1240.8,1572.4z M1240.8,732.5c-144.8,0-285.2,10.9-417.2,32.4
		c-126.8,20.6-240.4,50.1-337.6,87.5c-93.5,36-169.4,79.1-219.4,124.6c-46.9,42.7-70.8,86.3-70.8,129.6c0,43.3,23.8,86.9,70.8,129.6
		c50,45.5,125.9,88.6,219.4,124.6c97.2,37.4,210.8,66.9,337.6,87.5c132.1,21.5,272.4,32.4,417.2,32.4s285.2-10.9,417.2-32.4
		c126.8-20.6,240.4-50.1,337.6-87.5c93.5-36,169.4-79.1,219.4-124.6c46.9-42.7,70.8-86.3,70.8-129.6c0-43.3-23.8-86.9-70.8-129.6
		c-50-45.5-125.9-88.6-219.4-124.6c-97.2-37.4-210.8-66.9-337.6-87.5C1526,743.4,1385.6,732.5,1240.8,732.5z"/>
</g>
<g>
	<path class="st0" d="M787.5,2120.4c-3.2,0-6.3-0.1-9.4-0.2c-38.9-1.4-74.4-11.2-105.7-29.2c-31.2-18-57.5-43.9-78.2-76.9
		c-19-30.4-33.2-67-42.4-109c-17.1-78.2-16.8-174.4,0.8-286.1c17.2-109.1,50.1-228.4,97.8-354.4c49.1-129.7,112-261.2,186.9-390.9
		c74.9-129.7,157.3-249.9,245.1-357.3c85.3-104.4,172.1-192.5,258-261.9c87.9-71.1,171.1-119.4,247.4-143.7
		c40.9-13,79.8-19,115.6-17.8c38.9,1.4,74.4,11.2,105.7,29.2c31.2,18,57.5,43.9,78.2,76.9c19,30.4,33.2,67,42.4,109
		c17.1,78.2,16.8,174.4-0.8,286.1c-17.2,109.1-50.1,228.4-97.8,354.4c-49.1,129.7-112,261.2-186.9,390.9
		c-74.9,129.7-157.3,249.9-245.1,357.3c-85.3,104.4-172.1,192.5-258,261.9c-87.9,71.1-171.1,119.4-247.4,143.7
		C856.4,2114.4,820.7,2120.4,787.5,2120.4z M1693.8,184.5c-23.6,0-49.6,4.5-78.1,13.6c-64.4,20.6-139.7,64.7-217.6,127.7
		c-81,65.5-163.4,149.2-244.6,248.6C1068.8,678,989.2,794.2,916.8,919.6C844.4,1045,783.6,1172,736.2,1297.1
		c-45.5,120.1-76.8,233.2-93,336.2c-15.6,99-16.2,186.2-1.8,252.3c13.5,62,39.4,104.4,76.9,126.1c37.5,21.6,87.1,22.8,147.6,3.5
		c64.4-20.6,139.7-64.7,217.6-127.7c81-65.5,163.4-149.2,244.6-248.6c84.7-103.6,164.3-219.7,236.7-345.1
		c72.4-125.4,133.2-252.4,180.6-377.5c45.5-120.1,76.8-233.2,93-336.2c15.6-99,16.2-186.2,1.8-252.3c-13.5-62-39.4-104.4-76.9-126.1
		C1743.5,190.2,1720.3,184.5,1693.8,184.5z"/>
</g>
<g>
	<path class="st0" d="M1694,2120.4c-33.2,0-68.8-6-106.2-17.9c-76.2-24.3-159.4-72.7-247.4-143.7c-85.9-69.5-172.7-157.6-258-261.9
		c-87.8-107.4-170.2-227.6-245.1-357.3c-74.9-129.7-137.7-261.2-186.9-390.9c-47.7-126-80.7-245.2-97.8-354.4
		c-17.6-111.7-17.8-207.9-0.8-286.1c9.2-41.9,23.4-78.6,42.4-109c20.6-33,46.9-58.9,78.2-76.9l0,0c31.2-18,66.8-27.9,105.7-29.2
		c35.8-1.3,74.7,4.7,115.6,17.8c76.2,24.3,159.4,72.7,247.4,143.7c85.9,69.5,172.7,157.6,258,261.9
		c87.8,107.4,170.2,227.6,245.1,357.3c74.9,129.7,137.7,261.2,186.9,390.9c47.7,126,80.7,245.2,97.8,354.4
		c17.6,111.7,17.8,207.9,0.8,286.1c-9.2,41.9-23.4,78.6-42.4,109c-20.6,33-46.9,58.9-78.2,76.9c-31.2,18-66.8,27.9-105.7,29.2
		C1700.3,2120.3,1697.2,2120.4,1694,2120.4z M718.3,201.6c-37.5,21.6-63.3,64-76.9,126.1C627,393.7,627.6,481,643.2,580
		c16.2,102.9,47.5,216,93,336.2c47.4,125.1,108.2,252.1,180.6,377.5c72.4,125.4,152,241.5,236.7,345.1
		c81.3,99.5,163.6,183.1,244.6,248.6c77.9,63,153.2,107.1,217.6,127.7c60.5,19.3,110.1,18.1,147.6-3.5c37.5-21.6,63.3-64,76.9-126.1
		c14.4-66.1,13.8-153.3-1.8-252.3c-16.2-102.9-47.5-216-93-336.2c-47.4-125.1-108.2-252.1-180.6-377.5
		c-72.4-125.4-152-241.5-236.7-345.1c-81.3-99.5-163.6-183.1-244.6-248.6c-77.9-63-153.2-107.1-217.6-127.7
		C805.4,178.8,755.7,180,718.3,201.6L718.3,201.6z"/>
</g>
<circle class="st0" cx="1240.8" cy="1106.6" r="117.3"/>
</svg>
