<?xml version="1.0" encoding="utf-8"?>
<!-- Generator: Adobe Illustrator 22.1.0, SVG Export Plug-In . SVG Version: 6.00 Build 0)  -->
<svg version="1.1" id="Layer_1" xmlns="http://www.w3.org/2000/svg" xmlns:xlink="http://www.w3.org/1999/xlink" x="0px" y="0px"
	 viewBox="0 0 13.7 73" style="enable-background:new 0 0 13.7 73;" xml:space="preserve">
<style type="text/css">
	.st0{fill:url(#SVGID_1_);}
</style>
<g>
	
		<linearGradient id="SVGID_1_" gradientUnits="userSpaceOnUse" x1="-123.2169" y1="-75.938" x2="21.1165" y2="56.7286" gradientTransform="matrix(1 0 0 -1 0 75.4)">
		<stop  offset="0" style="stop-color:#00DAB1"/>
		<stop  offset="1" style="stop-color:#00DAD7"/>
	</linearGradient>
	<path class="st0" d="M1.7,73C0.8,73,0,72.2,0,71.3c0-3.9,3.3-5.8,6-7.3c2.6-1.5,4.3-2.5,4.3-4.3S8.7,56.9,6,55.4S0,52,0,48.1
		s3.3-5.8,6-7.3c2.6-1.5,4.3-2.6,4.3-4.3c0-1.8-1.6-2.8-4.3-4.3c-2.7-1.5-6-3.4-6-7.3s3.3-5.8,6-7.3c2.6-1.5,4.3-2.6,4.3-4.3
		S8.7,10.5,6,9S0,5.6,0,1.7C0,0.8,0.8,0,1.7,0s1.7,0.8,1.7,1.7C3.4,3.5,5,4.5,7.7,6s6,3.4,6,7.3s-3.3,5.8-6,7.3
		c-2.6,1.5-4.3,2.6-4.3,4.3c0,1.8,1.6,2.8,4.3,4.3s6,3.4,6,7.3s-3.3,5.8-6,7.3c-2.6,1.5-4.3,2.6-4.3,4.3c0,1.8,1.6,2.8,4.3,4.3
		s6,3.4,6,7.3s-3.3,5.8-6,7.3c-2.6,1.5-4.3,2.5-4.3,4.3C3.4,72.2,2.7,73,1.7,73z"/>
</g>
</svg>
