<?xml version="1.0" encoding="utf-8"?>
<!-- Generator: Adobe Illustrator 22.1.0, SVG Export Plug-In . SVG Version: 6.00 Build 0)  -->
<svg version="1.1" id="Layer_1" xmlns="http://www.w3.org/2000/svg" xmlns:xlink="http://www.w3.org/1999/xlink" x="0px" y="0px"
	 viewBox="0 0 137.8 140.4" style="enable-background:new 0 0 137.8 140.4;" xml:space="preserve">
<style type="text/css">
	.st0{fill:url(#SVGID_1_);}
</style>
<linearGradient id="SVGID_1_" gradientUnits="userSpaceOnUse" x1="1.9239" y1="111.1113" x2="124.1945" y2="-10.0678" gradientTransform="matrix(1 0 0 -1 0 142)">
	<stop  offset="0" style="stop-color:#00DAB1"/>
	<stop  offset="1" style="stop-color:#00DAD7"/>
</linearGradient>
<path class="st0" d="M136.2,137.2l-65.5-113l12.2-21c0.6-1,0.2-2.3-0.8-2.9s-2.3-0.2-2.9,0.8l-11,18.8L57.3,1.1
	c-0.6-1-1.9-1.4-2.9-0.8S53,2.2,53.6,3.2l12.2,21l-65.5,113c-0.4,0.7-0.4,1.5,0,2.1c0.4,0.7,1.1,1.1,1.8,1.1h132.2
	c0.8,0,1.5-0.4,1.8-1.1C136.6,138.7,136.6,137.9,136.2,137.2z M68.2,107.1l16.8,29H51.5L68.2,107.1z M66.1,32.1v70.2l-19.6,33.9H5.8
	L66.1,32.1z M89.9,136.1l-19.6-33.9V32.1l60.3,104H89.9z"/>
</svg>
