<?xml version="1.0" encoding="utf-8"?>
<!-- Generator: Adobe Illustrator 23.0.0, SVG Export Plug-In . SVG Version: 6.00 Build 0)  -->
<svg version="1.1" id="Layer_1" xmlns="http://www.w3.org/2000/svg" xmlns:xlink="http://www.w3.org/1999/xlink" x="0px" y="0px"
	 viewBox="0 0 422 414" style="enable-background:new 0 0 422 414;" xml:space="preserve">
<style type="text/css">
	.st0{fill-rule:evenodd;clip-rule:evenodd;fill:#FFFFFF;}
</style>
<title>tunel_logo</title>
<desc>Created with Sketch.</desc>
<g id="Page-1">
	<g id="tunel_logo">
		<g>
			<path id="path-1" class="st0" d="M374,198c0,0,2.2-0.2,2.5,0.3C374.7,198.2,374.3,198.5,374,198z M369.3,221.5
				c0,0-12.6-5.2-16.1-3.1c-1,0.6-1.4,2.2,0.4,5.2c4-2.4,6.2-3.1,7.4-1.1c0.9,1.5,0.8,3.6,0.3,7.3l-7.7-2.8c-0.2,0.8,1.2,5.4,1,6.2
				c-3-1.6-6.2-2.4-9-2.7c-1.9,2.5-2.3,4.1-1.4,5.6c0.3,0.5,1.4,1.2,2.5,1.9c-3,1.8-9.4-13.3-16.5-18.5c0.4,1.8-0.3,2.9-0.8,3.2
				c-1,0.6-3-1.6-3-1.6c0.3-6.3,2-13.4,5-15.2c1.5-0.9,3.6-0.8,6.1,1.1c-0.4-1.8-3.9-6.5-2.2-8.1c-1,0.6-1.2,1.4-1.7,1.7
				c-0.5,0.3-1.1-0.7-5.4-2.2c3.4-3.4,6.6-11.4,10.6-13.8c-4.7,0.1-4.1,1.1-7-0.5l4-2.4c-2.2-1.4-2.5-1.9-3-1.6c0,0-0.2,0.8-1.2,1.4
				c-0.5,0.3-1.5,0.9-2.8,1c0.9-5.3,1.8-10.5,3.4-15.6l-2.5,1.5c-1,0.6-2.5,1.5-4.1,1.1c1.1-9.5,1.4-12.3,2.3-12.9
				c1-0.6,3.6,2.6,9-0.7c0.5-0.3,0.7-1.1,0.4-1.6c-1.2-2-6.4-5-7.9-5.3c0.3,0.5-0.2,0.8-0.7,1.1c-0.5,0.3-0.5,0.3-1.6-0.4
				c-0.7,1.1-1.2,1.4-1.7,1.7c-2,1.2-2.9-0.3-7.8,2.7c0.6-2.4,3.8-8.4,5.4-13.4l0.5-0.3c0.8-3.2,1.4-5.6,0.8-6.6
				c-0.3-0.5-1.1-0.7-2.6,0.2c-1.5,0.9-3.2,2.6-6.3,5.2c-0.1-1.3-0.7-2.3-1-2.8c-3.9-6.5-6.2,6.5-12.5-4c3,1.6,8.6,0.9,12.6-1.5
				c1-0.6,2-1.2,2.7-2.3c-0.3-0.5-2.9-0.3-6.5-0.8c1.3-0.1,2.3-0.7,3.8-1.6c-1.2-2-8.6-4.3-10.6-3.1l0.6,1c0.9,1.5,2,2.2,3.1,2.9
				c-3.2-0.8-5.9-1.9-7.6-4.9c6.4-3.9,9.7-5.2,12.6-4.9c0.4-1.6,0.3-2.9-0.6-4.4c-0.9-1.5-2.8-2.4-5.7-2.7c4-2.4,6.7,0,8.5,3
				c1.2,2,2.2,4.8,3.1,6.3l1-0.6c1-0.6,1.5-0.9,1.4-2.2c-0.1-1.3-0.7-2.3-1.9-4.3c1.6,0.4,2.7,1.1,3,1.6c0.6,1-0.9,1.9-1.1,2.7
				c4.1,2.3,5.7,2.7,6.2,2.4c0.5-0.3-1.8-3,0.4-5c0.6,1,0.7,2.3,1.6,3.8c1.8,3,5.4,5.5,9.3,6.5l-0.3-0.5c-0.9-1.5-2.3-2.7-3.2-4.2
				c-0.9-1.5-1.3-3.3,0.7-4.5c2.5,1.9,5.5,3.5,8.1,4.6l-4,2.4c2.6-0.2,4.5,0.7,6.5,2.9c-3.6,4.2-5.3,4.6-5,5.1
				c0.3,0.5,2.7,1.1,6.4,5c-4.7,2.2-6.7,3.4-11.1,4c2.4,4,5.5,6.9,10,8.8c1-0.6,1.2-1.4,0.9-1.9c-0.3-0.5-1.1-0.7-2.9-0.3
				c0.2-0.8,0.4-1.6,0.9-1.9c1-0.6,2.3-0.7,3.9-0.3c-3-1.6-6-3.2-6.3-3.7c4-2.4,8.3,0.4,12.2,0.1c1.5,2.5,1.6,3.8,0.6,4.4l-0.5,0.3
				c2.4,0.6,4.6,2,4.6,2c-1.6,3-2.7,5.7-3.3,8.1c1.1,0.7,2.4,0.6,2.9,0.3c1-0.6,1.2-1.4,1-4c1.2,2,3.1,2.9,5.5,3.5
				c2.1,3.5-2.6,7-7.5,10c-3,1.8-5.9,3.6-7.2,3.7c1.1,0.7,1.9,0.9,2.5,1.9c0.3,0.5,0.1,1.3-0.1,2.1c1.1,0.7,3.1-0.5,5-1.7
				c4.5-2.7,11-8.7,9.5-11.2c0,0-0.3-0.5-1.1-0.7c2.5-1.5,4.7-0.1,6.2,2.4c1.8,3,1.9,7.7-0.6,9.1c0.2-0.8-0.1-1.3-0.4-1.8
				c-0.9-1.5-2.5-1.9-5.1-1.7c-6.9,7.6-4.3,14.1-3.1,16.1l0.3,0.5c3.6,6,6.7-6.8,13.3,4.1c-3.5,2.1-7,2.9-10.3,0.8
				c0.1,1.3,0.2,2.6,0.5,3.1c1.5,2.5,4.7-0.1,6.4,2.9C360.3,201.9,377.3,216.7,369.3,221.5z M372.5,205.7c-0.9-0.6-1.2-1-1.5-1.5
				l0.4-0.3c0,0,0.7,0.2,0.9,0.6C372.6,205,372.9,205.5,372.5,205.7z M358.1,248c-1.3-2.2-1.4-3.4-0.5-3.9c0.4-0.3,1.4,0.4,1.9,1.2
				C359.7,245.8,359.8,246.9,358.1,248z M348.5,245.1c-3.8,1.7-6.2,1.1-8.5-1.7c2-1.2,11-3.3,11.9-1.8
				C352.2,242.1,351.5,243.2,348.5,245.1z M336,259l0.3-5C337.1,255.5,337.7,257.8,336,259z M327.2,229.8c-0.4-1.7-0.1-4.5-0.1-7.8
				c0.1,1.3,1.5,3.7,3.9,8L327.2,229.8z M329,261c0.7,0.2,1.4,0.3,1.6,0.8L329,261z M326,265l2.9,0C328.1,265.5,326.7,265.2,326,265
				z M325,284l1.8,0.1l0.3,0.4C326.6,284.8,325.5,284.9,325,284z M321,210.4c1-0.5,3.4-0.7,4,0.2C322,211,321.3,210.9,321,210.4z
				 M321.3,257.8l-0.8-1.3c-0.5-0.9-0.8-1.3-0.4-1.5c0,0,0.7,0.2,0.9,0.6C321.7,256.5,321.5,257.1,321.3,257.8z M319,171.3
				c0,0-0.2-0.7,0.1-1.3L319,171.3z M313.2,170l0.6,2.6C313.7,172.4,312.5,170.6,313.2,170z M315,262.1c-1.5,0.3-2.2,0.2-3-1.1
				L315,262.1z M310,286c1.8,0.8,3.7,0.8,6,1.4C313.7,288.7,311.4,288.1,310,286z M309.2,245.2L309,243
				C309.3,244.5,309.2,245.2,309.2,245.2z M306,164.5c0.7-0.6,1.3-0.7,1.9-0.1L306,164.5z M307.2,169.5c-1.1,0.8-2.1,0.7-4.2-1.3
				c2.1-0.3,3.6-0.2,5,0.8L307.2,169.5z M302.1,158.6c0,0-0.2-0.2,0-0.4c0.2-0.2,1.3-0.3,2.8,0C303.1,158.9,302.3,158.8,302.1,158.6
				z M299,172.9l0.7-2.9C299.8,171.1,299.9,172.2,299,172.9z M301.9,108c1.5,2.5,1.4,4.5,0.3,7.2c-1.5,0.9-2.7,1-3,0.5
				C298.3,114.2,300.4,108.9,301.9,108z M297,161.3c0,0,0.3-1,0.5-1.2c0.2-0.2,0.4,0,0.4,0C297.5,160.9,297.2,161.1,297,161.3z
				 M306.2,105.4l-1,0.6c-0.3-3.7-0.1-4.4-0.1-4.4c0.5-0.3,1.4-0.1,2.9-0.9c0.5-0.3,1.3-1.3,2.5-2.6
				C312.4,100.8,308.3,104.3,306.2,105.4z M298.8,94.2c1.9,0.9,5.1,0.4,6.1-0.2c1-0.6,2.5-1.5,4.4-4l0.6,1c0.6,1,1,2.8,1.9,4.3
				c0.3,0.5,1.1,0.7,1.1,0.7c-6.2,2.3-8,2.7-13.5,6c0.9-1.9,0.8-3.2,0.2-4.2c-0.9-1.5-2.5-1.9-4.7-2l4.2-1.1L298.8,94.2z M294.2,158
				l0.3,2.2C293.9,159.5,294,158.2,294.2,158z M289.2,157.8c-0.3,0.2-1.1,0.4-3,0c-0.4-1.8-0.2-3.2,0.3-3.6c0.6-0.4,1.9-0.1,3.5,0.9
				C289.6,156.7,289.8,157.4,289.2,157.8z M281.1,159.6c-0.2-0.2,0.3-0.6,0.9-1l2.2-1.6c0.4,0.9,0.4,1.3,0.4,1.3
				c0.2,0.2,0.5,0,0.8,0.3c0.2,0.2,0.5,0.5,0.7,1.1C282.8,159.9,281.3,159.8,281.1,159.6z M282.3,163.8l-0.2,0.2
				c-0.2-0.2,0-0.4,0.3-1C282.8,163.5,282.5,163.7,282.3,163.8z M280.1,154c0.8,0.9,1.7,0.6,2.1,1c0.2,0.2,0.4,0.9,0.3,1.7
				c-1.1,0.1-1.5,0.1-1.9-0.4C280.2,155.9,279.8,155,280.1,154z M281.2,142c0.2,0.2,0.4,0.9-0.1,1.3l-0.1-1.1L281.2,142z M283.3,148
				c1,1.3,0.9,2.8-0.3,4C283.3,150.8,283.2,149.5,283.3,148z M310,66.4c-1.4,0.8-3.4-1.5-4-2.4L310,66.4z M315.1,110.9
				c-0.2-2.2,0-2.9,0-2.9S315.5,110.7,315.1,110.9z M324.2,87.7c1.8,3,0.3,7.3,0.4,8.6c4.4-1.9,6.7-2.6,7.3-1.6
				c0.3,0.5-0.4,1.6-1.8,3.8c1-0.6,1.3-0.1,1.3-0.1c1.2,2-2.1,10.1-5.7,12.2c-1.5,0.9-3.1,0.5-4.4-1.5c3-1.8,1.3-3.5,2.4-9.6
				l-7.6,4.5c0.3,0.5,5.1,0.4,5.7,1.4c0.3,0.5-0.2,0.8-1.7,1.7c-2,1.2-4,0.3-5.2-1.7c-2.1-3.5-2.7-10,0.4-11.8
				c2.8,4.5,2.5,5.3,2.5,5.3c0.3,0.5,0.8,0.2,1.1,0.7c0.7-4.5,1.1-6.1,0.2-7.6c-0.9-1.5-3.2-2.9-6.2-7.9
				C319.6,83.6,322.7,85.2,324.2,87.7z M337.8,109.9c0.9,1.5,1.6,3.9,2.2,4.9c-2,1.2-5.2-3-6.4-5.1l-0.6-1
				C335.5,107.2,336.9,108.4,337.8,109.9z M334.4,101.2c0.5-0.3,2.7-0.2,3.6,0c-2.9,0.9-3.8,0.7-3.8,0.7
				C333.9,101.4,333.9,101.4,334.4,101.2z M342.8,98.7c-1.3,0.8-2,0.6-2.8-0.7C340.7,98.2,341.6,98.8,342.8,98.7z M348.4,120
				l0.3,0.4c0.3,0.4,0.1,1.1-1.6,2.2C347.3,121.2,347.9,120.3,348.4,120z M364,142.5c-3.3,1.4-6.2-0.3-8-3.5L364,142.5z M342,129.7
				c3.9-2.6,15.5,2.8,22,5.1C355.5,137.4,348,135.8,342,129.7z M366,146.1c0.6-0.3,2.4,0.1,2.7,0.6c0.7,0.9-0.1,2-2.9,3.3
				C364.5,148.1,364.9,146.7,366,146.1z M273,75.3c0.5-0.3,3.2-0.4,4-0.3C274.3,75.2,273.3,75.8,273,75.3z M269.3,143.7L269,142
				C269.4,142.5,269.3,143.3,269.3,143.7z M268,152.9l0.4-1.9C268.7,151.9,268.7,152.3,268,152.9z M267,143c0-0.4,0.1-0.8,0.3-1
				L267,143z M264.9,148.6c-0.5,0.4-0.7,0.6-0.9,0.4c0,0,0-0.4,0.3-0.6c0.5-0.4,0.9-0.4,1.3-0.3L264.9,148.6z M264.6,139.5l-2.6,0.2
				C262.7,139.1,263.8,138.6,264.6,139.5z M255,139c-0.8-1.1-2.6-6.2-1.9-6.9c0.2-0.2,0.8,0.1,2,1.7
				C256.3,135.9,256.2,137.4,255,139z M244,147.9c0.8-0.2,2.2-1.1,4.7-2.9l0.3,2.2C247.9,147.5,246.1,147.6,244,147.9z M237.5,153.2
				c-0.4-0.5-0.7-1.8-0.3-2.2C237.7,152.5,237.7,153,237.5,153.2z M221,139l1.6-6c1.6-6,1.8-7.4,5.1-6.9
				C231.1,126.8,232.1,135.4,221,139z M219.8,101.7L219,100C219.6,100.3,220.3,101,219.8,101.7z M218,106.7l1.1-0.7
				C218.9,106.4,218.3,106.6,218,106.7z M216.3,108.6c-0.3,0-0.3-0.3-0.3-0.3c0.9-0.3,1.2-0.3,1.5-0.3
				C217.5,108,216.6,108.6,216.3,108.6z M215,94h0.9c1.2,0,1.8,0.7,1.8,4C216.2,96.9,215.3,95.8,215,94z M214.5,104.6
				c-0.4-0.2-0.6-0.3-0.5-0.5c0,0,0.3-0.1,0.5,0c0.4,0.2,0.5,0.5,0.6,0.8L214.5,104.6z M212,108.2l1.4-0.2
				C212.9,108.5,212.6,108.6,212,108.2z M209,104c1.8,0.6,2.4,1.2,2.4,1.5c0,0,0,0.3-0.3,0.3C210.8,105.8,209.9,105.2,209,104z
				 M213.5,99.2c-0.9,0-1.5-0.3-1.5-1.2L213.5,99.2z M212,91.9l-1.4,0.7c-0.5-0.5-0.9-1.5-1.6-2.7C209.3,90.4,210.3,91,212,91.9z
				 M207,86.9l0.9-0.9C207.9,86,207.6,86.6,207,86.9z M204,86.8c0.2-0.4,1-1,1.4-0.7C204.5,86.8,204.2,86.9,204,86.8z M193.4,126.1
				c3.5-0.6,3.6,0.9,5.1,6.9l1.5,6C188.8,135.1,189.9,126.7,193.4,126.1z M196,147.3c0,0-0.2-0.7,0.1-1.3L196,147.3z M191.2,146
				l0.7,2.6C191.7,148.4,190.5,146.6,191.2,146z M212.2,87c0,0.3-0.3,2.4-1.2,2.4L212.2,87z M219.8,104.1l-0.8,0.1
				C219.3,104,219.6,103.9,219.8,104.1z M223.4,97l-2.4,1.8C221.6,97.9,222.2,97,223.4,97z M222.9,92c0.2,0.1,0.2,0.8-0.5,2.3
				c-1,1.6-2,2-3.4,1.4C219.5,94.7,222.3,91.6,222.9,92z M223.9,85c-1.3,0.4-1.7,0.9-1.9,0.7C222.2,85.4,223.5,85,223.9,85z
				 M185.2,146.5c-1.1,0.8-2.1,0.7-4.2-1.3c2.1-0.3,3.6-0.2,5,0.8L185.2,146.5z M179.1,134.6c0,0-0.2-0.2,0-0.4
				c0.2-0.2,1.3-0.3,2.8,0C180.1,134.9,179.3,134.8,179.1,134.6z M177,149.9l0.7-2.9C177.8,148.1,177.9,149.2,177,149.9z M174,137.3
				c0,0,0.3-1,0.5-1.2c0.2-0.2,0.4,0,0.4,0C174.5,136.9,174.2,137.1,174,137.3z M171.2,135l0.3,2.2C170.9,136.5,171,135.2,171.2,135
				z M184.9,140.4l-1.9,0.1C183.7,139.9,184.3,139.8,184.9,140.4z M167.2,133.8c-0.3,0.2-1.1,0.4-3,0c-0.4-1.8-0.3-3.2,0.3-3.6
				c0.6-0.4,1.9-0.1,3.5,0.9C167.6,132.7,167.8,133.3,167.2,133.8z M158.1,136.6c-0.2-0.2,0.3-0.6,0.9-1l2.2-1.6
				c0.4,0.9,0.4,1.3,0.4,1.3c0.2,0.2,0.5,0,0.8,0.3c0.2,0.2,0.5,0.5,0.7,1.1C159.9,136.9,158.3,136.8,158.1,136.6z M159.3,140.8
				l-0.2,0.2c-0.2-0.2,0-0.4,0.3-1C159.8,140.5,159.5,140.7,159.3,140.8z M157.1,130c0.8,0.9,1.7,0.6,2.1,1c0.2,0.2,0.4,0.9,0.3,1.7
				c-1.1,0.1-1.5,0.1-1.9-0.4C157.2,131.9,156.8,131,157.1,130z M158.2,119c0.2,0.2,0.4,0.9-0.1,1.3l-0.1-1.1L158.2,119z M161.3,125
				c1,1.3,0.9,2.8-0.3,4C161.3,127.8,161.2,126.5,161.3,125z M146.3,120.7L146,119C146.4,119.5,146.3,120.3,146.3,120.7z M146,129.9
				l0.4-1.9C146.7,128.9,146.7,129.3,146,129.9z M144,119c0-0.4,0.1-0.8,0.3-1L144,119z M141.9,125.6c-0.5,0.4-0.7,0.6-0.9,0.4
				c0,0,0-0.4,0.3-0.6c0.5-0.4,0.9-0.4,1.3-0.3L141.9,125.6z M141.6,116.5l-2.6,0.2C139.7,116.1,140.8,115.6,141.6,116.5z
				 M133,139.3l2.7-0.3C135.4,139.2,133.5,140.1,133,139.3z M132,152c1.1,0,2.2,0,2.8,1L132,152z M131.3,144l0.5,0.9
				c0.7,1.2,0.5,2.2-1.8,4.1C129.9,146.9,130.2,145.3,131.3,144z M126.4,145.9c-0.5-0.8-0.6-1.4,0.2-1.9L126.4,145.9z M121,123.9
				c0.8-0.2,2.2-1.1,4.7-2.9l0.3,2.2C124.9,123.5,123.1,123.6,121,123.9z M123,169.2c0.5-0.3,0.7-0.1,0.8,0.2l0.2,0.3
				C123.7,169.7,123.6,169.5,123,169.2z M121.1,154.4c-0.2-0.2,0.1-0.4,0.1-0.4c0.7,0.6,0.9,0.8,1.1,1.1
				C122.2,155.1,121.2,154.7,121.1,154.4z M119,157l2.2,0C120.4,157.5,119.2,157.3,119,157z M119.2,171c-0.2,0.2-0.6-0.4-0.9-1
				l-1.3-2.5c0.9-0.3,1.3-0.2,1.3-0.2c0.2-0.2,0.1-0.5,0.3-0.7c0.2-0.2,0.5-0.4,1.2-0.5C119.7,169.2,119.5,170.8,119.2,171z
				 M115.4,169.9c-0.5,0.3-1.4,0.6-2.4,0.2c1-0.7,0.8-1.6,1.2-1.9c0.3-0.2,0.9-0.2,1.8-0.1C116,169.2,115.9,169.6,115.4,169.9z
				 M116,309.9c-3.4,0-4.7,0.1-5-0.3l0.5-0.3C112,309,115.1,308.6,116,309.9z M110.8,181.7l-1.8-0.6
				C109.9,180.9,110.3,181,110.8,181.7z M112,167.2c-1.2-0.4-2.5-0.4-4-0.7C109.5,165.7,111,165.9,112,167.2z M105,212.2
				c1.6-0.3,2-0.2,2.2,0C106.7,212.6,105.3,212.7,105,212.2z M103,303.6l2-0.6l0.3,0.4C104.8,303.7,103.7,303.8,103,303.6z
				 M100.2,290.3c-0.5,0.3-1.8,0.3-4.2-0.2c3-1.6,4.6-1.2,4.9-0.8S100.7,290.1,100.2,290.3z M99.5,283.5l-2.5-0.2
				C97.4,283,99,282.7,99.5,283.5z M96,280c0.1-1.9,1.3-3.2,2.3-3.7c1-0.6,2.6-0.2,4.7,1.1L96,280z M93.2,275.4l-0.4,1.6
				c0.1-2.1-0.5-3.1-1.1-4.1c-1.2-2-3.1-2.9-5.7-2.7l6.4-5.2l0.9,1.5l3.7,3.9c-0.8-0.2-1.6-0.4-3-1.6c0.6,1,1,2.8,0.5,3.1l-0.6-1
				c-0.4,1.6-0.1,2.1,0.2,2.6l1.2,2C94.5,275.3,93.7,275.1,93.2,275.4z M88,194.4c-0.2-0.3,0.2-0.8,1.9-1.8c2.2-0.9,3.6-0.7,5,0.7
				C93.9,193.9,88.6,195.1,88,194.4z M74,102.9c2.1,0.1,3.4,0,4.9-0.9c1.5-0.9,2.2-2.1,3.1-4c1.7,1.7,3.4,3.5,4.7,5.5
				c0.9,1.5,1.5,2.6,1.9,4.4c0.7-1.1,2.2-5.5,4.2-6.8c0.5-0.3,1-0.6,2.1,0.1l-4.5,9.7C85.9,106.8,80.2,104.1,74,102.9z M80,132.1
				l0.5-2.1C80.4,131.8,80,132.1,80,132.1z M80,247.1l0.5-2.1C80.4,246.8,80,247.1,80,247.1z M75.3,127.9c-2.7,1.1-5.1,1.3-7.3,2.1
				l1-0.7c1.9-1.3,7.7-3.8,8-3.3C77.2,126.6,76.7,126.9,75.3,127.9z M68,226l5,1.5C71,228.5,69.2,227.7,68,226z M64.6,206.9
				c-0.5,0.3-1.3,0.1-2.4-2c-0.4-1.9,0.3-3.1,0.8-3.4c1-0.6,2.2-0.8,4.1,0.2C66.5,202,66,205.9,64.6,206.9z M66,215l0-7
				C67,210.1,68.2,213.5,66,215z M63,229c0,0,3.5-0.3,4,0.6C64,229.6,63.3,229.5,63,229z M63.1,244.6c-4.4,2.7-7.4,1.1-9.4-2.4
				c-0.9-1.5-1.3-3.3-1.7-5.1l4.9,0.4c2.3-0.7,3-0.5,3-0.5c0.3,0.5,0.3,0.5-0.2,0.8c0,0-0.5,0.3-1.3,0.1c2.6,1.1,4.5,2,5.1,3
				C64.2,241.9,64.3,243.2,63.1,244.6z M50.5,225.5l-0.9-1.5c1.1,0.7,1.9,0.9,2.4,0.6c1-0.6,0-3.5-3-8.6l5.6,1.4
				c-0.3-0.5,0.2-0.8,0.2-0.8l1-0.6c0.1,4.8,1,9.8,2.1,14C54.6,230,52.4,228.6,50.5,225.5z M62.6,217.4c0.9-0.6,1.7-0.4,2,0.1
				c0.6,1,0.5,3.1,0.4,5.2c-3.5,1.6-5.5,1.5-5.8,1C58.6,222.7,59.8,219.2,62.6,217.4z M54,186.3c0,0,5.9-1.3,12,1.4
				C61.4,189,57.6,188.5,54,186.3z M50.2,175.8c-0.3-0.4-0.3-0.4,0.2-0.7c0.5-0.3,2.3,0.1,3.2,1.4l0.3,0.4
				C51.4,176.4,50.5,176.2,50.2,175.8z M44,157.6c5.2-1.5,7.9-1.6,7.9-1.6c0.3,0.4-0.2,0.7-0.7,1C49.6,157.7,44.9,158.9,44,157.6z
				 M43.6,167.7l-0.4,0.3c-1.1-3.6-1.2-5-1.2-5l0.3,0.5C43,165.2,43.8,166.8,43.6,167.7z M52.2,121c0.3,0.5,4.9,2.3,6.4,4.7
				c0.6,0.9,0.7,2.2-1.3,3.3c-2.6,0.2-3.7-0.5-4.6-1.9C51.8,125.7,51.9,123.7,52.2,121z M62.9,127.2c0.3,0.4-0.4,1.4-1.3,1.9
				c-0.5,0.3-1,0.5-2.6-0.9C61.4,126.9,62.6,126.8,62.9,127.2z M68.6,141.9l1.8,1.8c-2.4,0.7-4,0.3-4.9-1.2
				c-0.9-1.5-0.1-4.9-0.3-7.5c2.7-0.2,5.6-1.2,5.9-0.7c0,0-0.2,0.8-1.2,1.5C68.3,137.9,67.4,139.8,68.6,141.9z M70,197
				c0,0-3.7-1.6-4.8-3.5c-0.3-0.5-0.1-1.2-0.1-1.2c0.5-0.3,1-0.5,1.3-0.1c0.3,0.5,0.3,0.5,0.1,1.2L70,197z M62.3,116.5l-0.3-0.4
				c0.4-0.3,1.4,0.3,2.7,2.5C63,117.8,62.5,116.9,62.3,116.5z M84.7,92.8c0.3,0.5,0.4,1.8,0.2,2.6l-2,1.2c-3.6,2.1-5.7,2-7.2-0.5
				l-0.6-1C80.6,91.8,83.8,91.3,84.7,92.8z M87.3,89.9c0.6,0.9,0.9,1.4,0.7,2.1L81,87.3C82.9,86.2,86.1,88.1,87.3,89.9z M91,89.8
				l0.1-1.8C91.1,88,91.3,88.4,91,89.8z M93,72.8c-1.5,0.8-3.1,0.4-4-0.8C90.1,72.6,91.4,72.5,93,72.8z M93.4,92.4
				c0.6-0.3,1.1-0.6,1.4-0.1c0.3,0.5,0.1,1.3-0.1,2.2c-2.8,1.5-3.3,1.9-3.7,1.3C90.7,95.3,92.3,93,93.4,92.4z M94,65l0.3,0
				c0,0,0.2,0.3,0.2,0.5c0,0.3,0,0.5-0.3,0.5C94,65.5,94,65.3,94,65z M96.6,184l-0.1,2.6C96,185.8,95.6,184.7,96.6,184z
				 M102.2,168.4l-0.2-0.2c0.2-0.2,0.9-0.2,1.3,0.3L102.2,168.4z M102.2,201c0.2,1.1,0.2,2.9,0.2,5c-0.1-0.8-0.9-2.3-2.4-5
				L102.2,201z M100,180.2c0.5-0.3,1.3-0.2,1.7-0.1L100,180.2z M101,182.4c-0.4-0.1-0.8-0.2-1-0.4L101,182.4z M104,102.3
				c-3,1.8-6.2-0.3-8-3.3C98.9,99.3,101.5,100.4,104,102.3z M98,63.9c-0.8-0.6-1-0.6-1-0.9C97,63,98,63.6,98,63.9z M103.3,92.4
				c0.8,1.6,1,4.3,0.3,7.6l-1.9-3.6c-0.8-1.6-1.9-3.6-2.6-7.4C101.2,89.6,102.5,90.9,103.3,92.4z M106.1,184l0.5,0.8
				c0.3,0.5,0.5,0.8,0.2,0.9c0,0-0.4-0.1-0.6-0.3C105.9,184.8,106,184.4,106.1,184z M109.9,103.3c-0.4,0.3-1.1,0.1-2.9,0
				C108.3,102.6,109.9,103.3,109.9,103.3z M110.4,95.2c0.4-0.3,0.4-0.3,0.7,0.2c0,0-0.2,0.7-1,1.2C109.9,95.4,110.4,95.2,110.4,95.2
				z M115.3,161c1.5,0.6,2.2,0.5,2.5,1.1c0.2,0.3,0.3,1.1-0.3,2.9c-1.8,0.1-3.1-0.2-3.5-0.8C113.8,163.5,114.2,162.3,115.3,161z
				 M114.2,127c0.5,1.5,0.5,2,0.3,2.2C114.1,128.7,113.8,127.4,114.2,127z M120.4,146c0.5,1.8,0.3,2.7,0.1,2.8c0,0-0.2,0.2-0.4-0.1
				C119.9,148.5,119.9,147.4,120.4,146z M135.2,134.3c0,0-0.7,0.1-1.2-0.3L135.2,134.3z M133.2,93.1c0.2-0.2,0.8,0.1,2,1.7
				c1.1,2.1,1,3.6-0.1,5.2C134.3,98.9,132.5,93.8,133.2,93.1z M132.1,325l0.3,4C132.4,329,131.7,325.3,132.1,325z M42.1,211
				c-0.2-2.7,0-3.5,0.5-3.8c1-0.6,3.2,0.8,5.4,0.1L42.1,211z M229.9,17c50.5,25.2,49.5,91.2,23,91.2c-22.9,0-20-23.7-9.3-46.2
				c-4,2.3-18.6,3.9-33.1,3.9c-14.5,0.1-29.2-1.4-33.1-3.7c10.8,22.4,13.7,46.2-9.1,46.2c-16.8,0.1-23.4-26.3-13.3-52.1
				c-0.3-0.2-0.6-0.5-0.8-0.9l-0.9-1.5c0.4-0.2,4.4-4.5,5.9-6.4c4.8-8.8,11.8-17.1,21.1-23.9c-0.8-0.4-1.5-0.9-2.2-1.5
				c2.8-1,4.9-1.4,6.5-1.3c2.1-1.3,4.3-2.6,6.6-3.8c-46.3,5.2-87,28.6-114.8,63c0,0.2-0.2,0.3-0.4,0.5c-4.1,5.1-8,10.5-11.5,16.1
				c0.5,1.9-0.8,2.3-1.2,6.2c-0.5-0.8-0.8-1.6-1.1-2.5c-3.2,5.4-6.2,11.1-8.8,16.9c1.9,0.5,9.3,2.5,10.6,4.7
				c0.9,1.5,0.2,2.6-1.8,3.8c0.7-1.1,0.1-2.1-0.2-2.6c-1.7-2.9-6.8-3.1-8.8-5.7c-5.3,11.8-9.4,24.3-11.9,37.3
				c0.2,0.4,0.4,0.9,0.7,1.4c-0.4-0.2-0.7-0.3-0.9-0.4c-1.1,5.5-1.8,11-2.4,16.7c0.8,0,2.7,0.6,3.4,1.8c0.3,0.5,0.1,1.3-0.6,2.4
				l-3-2.8c-0.3,3.8-0.5,7.5-0.6,11.4c0.8,0,1.5,0.1,1.9-0.2c0.5-0.3,0.7-1.1-1.1-4.1c3.7,0.5,10.7,7.7,11.8,8.4
				c2.4,0.6,4,4.4,10.8,2.3c0.8,10.3-6.1,7.7,0.7,19.1c-3,1.8-13,3.1-16.7,2.6c0.1-2.1,0.3-2.9,0.8-3.2c2-1.2,6.1,1.1,7.8,0.7
				c-0.4-1.8-1-2.8-1-2.8l3.4,0l-2.1-3.5l2.9,0.3c-0.3-0.5-2.8-5.7-3.2-7.5c-0.2,0.8-1.2,1.4-2.2,2c-4,2.4-11.9,3.8-13.2,3.9
				c0.2-0.8,0.1-2.1-0.2-2.6c0,0-0.1-0.1-0.1-0.1c0.3,5.1,0.9,10.1,1.7,15c2.3,0.7,4.4,1.1,5.1,0.7c2.4,4,7.6,17,5.6,18.2
				c-0.5,0.3-0.5,0.3-1.6-0.4c0.4,1.8-0.3,2.9-1.3,3.5c-0.7,0.4-1.6,0.7-2.6,0.8c1,3.3,2.1,6.6,3.3,9.9c0.2-0.2,0.4-0.4,0.6-0.7
				l0.2,3c0.5,1.3,1,2.6,1.6,3.8c1,0.8,2.3,1.4,3.6,2.1c0,0-0.9-8.2,0.6-9.1c3.6,5.9,16.4,10.4,23.3,6.2c-0.7,1.1-1.4,2.2-1.9,2.5
				l-0.5,0.3l6-0.2c1.5-0.9,2.3-0.7,2.9,0.3c1.2,2,0.5,6.4,0.2,9.3c0.2-0.8,1.2-1.4,1.2-1.4c1-0.6,1.3-0.1,1.6,0.4l0.6,1
				c-3.9,0.3-7.2,0.3-10.9-0.2c-0.4,1.6-0.3,2.9-0.2,4.2c0.6,1,1.7,1.7,2.8,2.4c-1.6,3-2.2,5.4-0.1,8.8c3.5-2.1,3.9-3.7,2.7-5.7
				c-0.3-0.5-1.7-1.7-2.3-2.7c3.8,1.8,8.8,3.4,10.6,6.4c-2.6,0.2-4.7,0.1-6.1,1c-1.5,0.9-1.6,3-0.9,5.3c4.9-0.9,7.3-5.8,12.4,2.6
				c-2.7-1.1-5.3-0.9-6.3-0.3c-1,0.6-1.7,1.7-1.6,3c4.8,1.2,5.3,0.9,6.2,2.4c0.3,0.5,0.7,2.3,1.9,4.3c-0.8-0.2-0.8-0.2-1.3,0.1
				c-0.5,0.3-0.9,1.9-1.1,2.7c-0.6-1-2.9-3.7-4.1-5.6l-0.9-1.5c0,0,0.8,0.2,1.1,0.7c-0.9-1.5-2.5-1.9-4-1c-3,1.8-5.4,6.7-3.3,10.1
				c0.3,0.5,0.9,1.5,1.7,1.7c-0.6,0.3-1,0.6-1.4,0.8c0.9,0.9,1.8,1.9,2.6,2.8c0.3-0.7,0.8-1.6,1.5-2.5c1.1,0.7,1.7,1.7,2.3,2.7
				c0.9,1.5,1.6,3.3,1.5,5.1c23.3,22.2,52.7,38,85.5,44.5c0.2-0.2,0.4-0.3,0.7-0.5l0.3-0.2c-2.8-1-5.5-2.1-8.1-3.3
				c-0.7,0.9-1.1,1.4-1.4,1.6l-0.5,0.3c0,0,0.6-0.9,1.5-2.1c-16.6-7.7-30.6-20-40.5-35.2c-0.1,0.7-0.5,1.8-1.4,2.8l1.1-3.1
				c-9.9-15.2-15.6-33.4-15.6-52.9c0-53.8,43.6-97.4,97.4-97.4c53.8,0,97.4,43.6,97.4,97.4c0,4.7-0.4,9.4-1,14
				c0.5,0.1,1,0.2,1.5,0.4c-1.5,0.9-1.6,2.2-2.1,3c-0.5,2.6-1,5.2-1.7,7.7c0.6,0.2,1.1,0.6,1.3,0.9c0.6,1-0.3,2.9-2.5,4.9
				c-0.2-0.1-0.3-0.1-0.5-0.2c-2.3,6.9-5.3,13.4-9,19.5c0,0,0.1-0.1,0.1-0.1c0,0,0.5-0.3,0.8,0.2c0.3,0.5,0.2,2.6-0.9,5.3
				c-0.6-2.8-0.5-4.4-0.2-5.1c-12.6,20.7-32.6,36.3-56.4,43.2C320,346,383,274.7,383,188.5C383.1,99.7,316.1,26.6,229.9,17z"/>
		</g>
		<g>
			<path class="st0" d="M374,198c0,0,2.2-0.2,2.5,0.3C374.7,198.2,374.3,198.5,374,198z M369.3,221.5c0,0-12.6-5.2-16.1-3.1
				c-1,0.6-1.4,2.2,0.4,5.2c4-2.4,6.2-3.1,7.4-1.1c0.9,1.5,0.8,3.6,0.3,7.3l-7.7-2.8c-0.2,0.8,1.2,5.4,1,6.2c-3-1.6-6.2-2.4-9-2.7
				c-1.9,2.5-2.3,4.1-1.4,5.6c0.3,0.5,1.4,1.2,2.5,1.9c-3,1.8-9.4-13.3-16.5-18.5c0.4,1.8-0.3,2.9-0.8,3.2c-1,0.6-3-1.6-3-1.6
				c0.3-6.3,2-13.4,5-15.2c1.5-0.9,3.6-0.8,6.1,1.1c-0.4-1.8-3.9-6.5-2.2-8.1c-1,0.6-1.2,1.4-1.7,1.7c-0.5,0.3-1.1-0.7-5.4-2.2
				c3.4-3.4,6.6-11.4,10.6-13.8c-4.7,0.1-4.1,1.1-7-0.5l4-2.4c-2.2-1.4-2.5-1.9-3-1.6c0,0-0.2,0.8-1.2,1.4c-0.5,0.3-1.5,0.9-2.8,1
				c0.9-5.3,1.8-10.5,3.4-15.6l-2.5,1.5c-1,0.6-2.5,1.5-4.1,1.1c1.1-9.5,1.4-12.3,2.3-12.9c1-0.6,3.6,2.6,9-0.7
				c0.5-0.3,0.7-1.1,0.4-1.6c-1.2-2-6.4-5-7.9-5.3c0.3,0.5-0.2,0.8-0.7,1.1c-0.5,0.3-0.5,0.3-1.6-0.4c-0.7,1.1-1.2,1.4-1.7,1.7
				c-2,1.2-2.9-0.3-7.8,2.7c0.6-2.4,3.8-8.4,5.4-13.4l0.5-0.3c0.8-3.2,1.4-5.6,0.8-6.6c-0.3-0.5-1.1-0.7-2.6,0.2
				c-1.5,0.9-3.2,2.6-6.3,5.2c-0.1-1.3-0.7-2.3-1-2.8c-3.9-6.5-6.2,6.5-12.5-4c3,1.6,8.6,0.9,12.6-1.5c1-0.6,2-1.2,2.7-2.3
				c-0.3-0.5-2.9-0.3-6.5-0.8c1.3-0.1,2.3-0.7,3.8-1.6c-1.2-2-8.6-4.3-10.6-3.1l0.6,1c0.9,1.5,2,2.2,3.1,2.9
				c-3.2-0.8-5.9-1.9-7.6-4.9c6.4-3.9,9.7-5.2,12.6-4.9c0.4-1.6,0.3-2.9-0.6-4.4c-0.9-1.5-2.8-2.4-5.7-2.7c4-2.4,6.7,0,8.5,3
				c1.2,2,2.2,4.8,3.1,6.3l1-0.6c1-0.6,1.5-0.9,1.4-2.2c-0.1-1.3-0.7-2.3-1.9-4.3c1.6,0.4,2.7,1.1,3,1.6c0.6,1-0.9,1.9-1.1,2.7
				c4.1,2.3,5.7,2.7,6.2,2.4c0.5-0.3-1.8-3,0.4-5c0.6,1,0.7,2.3,1.6,3.8c1.8,3,5.4,5.5,9.3,6.5l-0.3-0.5c-0.9-1.5-2.3-2.7-3.2-4.2
				c-0.9-1.5-1.3-3.3,0.7-4.5c2.5,1.9,5.5,3.5,8.1,4.6l-4,2.4c2.6-0.2,4.5,0.7,6.5,2.9c-3.6,4.2-5.3,4.6-5,5.1
				c0.3,0.5,2.7,1.1,6.4,5c-4.7,2.2-6.7,3.4-11.1,4c2.4,4,5.5,6.9,10,8.8c1-0.6,1.2-1.4,0.9-1.9c-0.3-0.5-1.1-0.7-2.9-0.3
				c0.2-0.8,0.4-1.6,0.9-1.9c1-0.6,2.3-0.7,3.9-0.3c-3-1.6-6-3.2-6.3-3.7c4-2.4,8.3,0.4,12.2,0.1c1.5,2.5,1.6,3.8,0.6,4.4l-0.5,0.3
				c2.4,0.6,4.6,2,4.6,2c-1.6,3-2.7,5.7-3.3,8.1c1.1,0.7,2.4,0.6,2.9,0.3c1-0.6,1.2-1.4,1-4c1.2,2,3.1,2.9,5.5,3.5
				c2.1,3.5-2.6,7-7.5,10c-3,1.8-5.9,3.6-7.2,3.7c1.1,0.7,1.9,0.9,2.5,1.9c0.3,0.5,0.1,1.3-0.1,2.1c1.1,0.7,3.1-0.5,5-1.7
				c4.5-2.7,11-8.7,9.5-11.2c0,0-0.3-0.5-1.1-0.7c2.5-1.5,4.7-0.1,6.2,2.4c1.8,3,1.9,7.7-0.6,9.1c0.2-0.8-0.1-1.3-0.4-1.8
				c-0.9-1.5-2.5-1.9-5.1-1.7c-6.9,7.6-4.3,14.1-3.1,16.1l0.3,0.5c3.6,6,6.7-6.8,13.3,4.1c-3.5,2.1-7,2.9-10.3,0.8
				c0.1,1.3,0.2,2.6,0.5,3.1c1.5,2.5,4.7-0.1,6.4,2.9C360.3,201.9,377.3,216.7,369.3,221.5z M372.5,205.7c-0.9-0.6-1.2-1-1.5-1.5
				l0.4-0.3c0,0,0.7,0.2,0.9,0.6C372.6,205,372.9,205.5,372.5,205.7z M358.1,248c-1.3-2.2-1.4-3.4-0.5-3.9c0.4-0.3,1.4,0.4,1.9,1.2
				C359.7,245.8,359.8,246.9,358.1,248z M348.5,245.1c-3.8,1.7-6.2,1.1-8.5-1.7c2-1.2,11-3.3,11.9-1.8
				C352.2,242.1,351.5,243.2,348.5,245.1z M336,259l0.3-5C337.1,255.5,337.7,257.8,336,259z M327.2,229.8c-0.4-1.7-0.1-4.5-0.1-7.8
				c0.1,1.3,1.5,3.7,3.9,8L327.2,229.8z M329,261c0.7,0.2,1.4,0.3,1.6,0.8L329,261z M326,265l2.9,0C328.1,265.5,326.7,265.2,326,265
				z M325,284l1.8,0.1l0.3,0.4C326.6,284.8,325.5,284.9,325,284z M321,210.4c1-0.5,3.4-0.7,4,0.2C322,211,321.3,210.9,321,210.4z
				 M321.3,257.8l-0.8-1.3c-0.5-0.9-0.8-1.3-0.4-1.5c0,0,0.7,0.2,0.9,0.6C321.7,256.5,321.5,257.1,321.3,257.8z M319,171.3
				c0,0-0.2-0.7,0.1-1.3L319,171.3z M313.2,170l0.6,2.6C313.7,172.4,312.5,170.6,313.2,170z M315,262.1c-1.5,0.3-2.2,0.2-3-1.1
				L315,262.1z M310,286c1.8,0.8,3.7,0.8,6,1.4C313.7,288.7,311.4,288.1,310,286z M309.2,245.2L309,243
				C309.3,244.5,309.2,245.2,309.2,245.2z M306,164.5c0.7-0.6,1.3-0.7,1.9-0.1L306,164.5z M307.2,169.5c-1.1,0.8-2.1,0.7-4.2-1.3
				c2.1-0.3,3.6-0.2,5,0.8L307.2,169.5z M302.1,158.6c0,0-0.2-0.2,0-0.4c0.2-0.2,1.3-0.3,2.8,0C303.1,158.9,302.3,158.8,302.1,158.6
				z M299,172.9l0.7-2.9C299.8,171.1,299.9,172.2,299,172.9z M301.9,108c1.5,2.5,1.4,4.5,0.3,7.2c-1.5,0.9-2.7,1-3,0.5
				C298.3,114.2,300.4,108.9,301.9,108z M297,161.3c0,0,0.3-1,0.5-1.2c0.2-0.2,0.4,0,0.4,0C297.5,160.9,297.2,161.1,297,161.3z
				 M306.2,105.4l-1,0.6c-0.3-3.7-0.1-4.4-0.1-4.4c0.5-0.3,1.4-0.1,2.9-0.9c0.5-0.3,1.3-1.3,2.5-2.6
				C312.4,100.8,308.3,104.3,306.2,105.4z M298.8,94.2c1.9,0.9,5.1,0.4,6.1-0.2c1-0.6,2.5-1.5,4.4-4l0.6,1c0.6,1,1,2.8,1.9,4.3
				c0.3,0.5,1.1,0.7,1.1,0.7c-6.2,2.3-8,2.7-13.5,6c0.9-1.9,0.8-3.2,0.2-4.2c-0.9-1.5-2.5-1.9-4.7-2l4.2-1.1L298.8,94.2z M294.2,158
				l0.3,2.2C293.9,159.5,294,158.2,294.2,158z M289.2,157.8c-0.3,0.2-1.1,0.4-3,0c-0.4-1.8-0.2-3.2,0.3-3.6c0.6-0.4,1.9-0.1,3.5,0.9
				C289.6,156.7,289.8,157.4,289.2,157.8z M281.1,159.6c-0.2-0.2,0.3-0.6,0.9-1l2.2-1.6c0.4,0.9,0.4,1.3,0.4,1.3
				c0.2,0.2,0.5,0,0.8,0.3c0.2,0.2,0.5,0.5,0.7,1.1C282.8,159.9,281.3,159.8,281.1,159.6z M282.3,163.8l-0.2,0.2
				c-0.2-0.2,0-0.4,0.3-1C282.8,163.5,282.5,163.7,282.3,163.8z M280.1,154c0.8,0.9,1.7,0.6,2.1,1c0.2,0.2,0.4,0.9,0.3,1.7
				c-1.1,0.1-1.5,0.1-1.9-0.4C280.2,155.9,279.8,155,280.1,154z M281.2,142c0.2,0.2,0.4,0.9-0.1,1.3l-0.1-1.1L281.2,142z M283.3,148
				c1,1.3,0.9,2.8-0.3,4C283.3,150.8,283.2,149.5,283.3,148z M310,66.4c-1.4,0.8-3.4-1.5-4-2.4L310,66.4z M315.1,110.9
				c-0.2-2.2,0-2.9,0-2.9S315.5,110.7,315.1,110.9z M324.2,87.7c1.8,3,0.3,7.3,0.4,8.6c4.4-1.9,6.7-2.6,7.3-1.6
				c0.3,0.5-0.4,1.6-1.8,3.8c1-0.6,1.3-0.1,1.3-0.1c1.2,2-2.1,10.1-5.7,12.2c-1.5,0.9-3.1,0.5-4.4-1.5c3-1.8,1.3-3.5,2.4-9.6
				l-7.6,4.5c0.3,0.5,5.1,0.4,5.7,1.4c0.3,0.5-0.2,0.8-1.7,1.7c-2,1.2-4,0.3-5.2-1.7c-2.1-3.5-2.7-10,0.4-11.8
				c2.8,4.5,2.5,5.3,2.5,5.3c0.3,0.5,0.8,0.2,1.1,0.7c0.7-4.5,1.1-6.1,0.2-7.6c-0.9-1.5-3.2-2.9-6.2-7.9
				C319.6,83.6,322.7,85.2,324.2,87.7z M337.8,109.9c0.9,1.5,1.6,3.9,2.2,4.9c-2,1.2-5.2-3-6.4-5.1l-0.6-1
				C335.5,107.2,336.9,108.4,337.8,109.9z M334.4,101.2c0.5-0.3,2.7-0.2,3.6,0c-2.9,0.9-3.8,0.7-3.8,0.7
				C333.9,101.4,333.9,101.4,334.4,101.2z M342.8,98.7c-1.3,0.8-2,0.6-2.8-0.7C340.7,98.2,341.6,98.8,342.8,98.7z M348.4,120
				l0.3,0.4c0.3,0.4,0.1,1.1-1.6,2.2C347.3,121.2,347.9,120.3,348.4,120z M364,142.5c-3.3,1.4-6.2-0.3-8-3.5L364,142.5z M342,129.7
				c3.9-2.6,15.5,2.8,22,5.1C355.5,137.4,348,135.8,342,129.7z M366,146.1c0.6-0.3,2.4,0.1,2.7,0.6c0.7,0.9-0.1,2-2.9,3.3
				C364.5,148.1,364.9,146.7,366,146.1z M273,75.3c0.5-0.3,3.2-0.4,4-0.3C274.3,75.2,273.3,75.8,273,75.3z M269.3,143.7L269,142
				C269.4,142.5,269.3,143.3,269.3,143.7z M268,152.9l0.4-1.9C268.7,151.9,268.7,152.3,268,152.9z M267,143c0-0.4,0.1-0.8,0.3-1
				L267,143z M264.9,148.6c-0.5,0.4-0.7,0.6-0.9,0.4c0,0,0-0.4,0.3-0.6c0.5-0.4,0.9-0.4,1.3-0.3L264.9,148.6z M264.6,139.5l-2.6,0.2
				C262.7,139.1,263.8,138.6,264.6,139.5z M255,139c-0.8-1.1-2.6-6.2-1.9-6.9c0.2-0.2,0.8,0.1,2,1.7
				C256.3,135.9,256.2,137.4,255,139z M244,147.9c0.8-0.2,2.2-1.1,4.7-2.9l0.3,2.2C247.9,147.5,246.1,147.6,244,147.9z M237.5,153.2
				c-0.4-0.5-0.7-1.8-0.3-2.2C237.7,152.5,237.7,153,237.5,153.2z M221,139l1.6-6c1.6-6,1.8-7.4,5.1-6.9
				C231.1,126.8,232.1,135.4,221,139z M219.8,101.7L219,100C219.6,100.3,220.3,101,219.8,101.7z M218,106.7l1.1-0.7
				C218.9,106.4,218.3,106.6,218,106.7z M216.3,108.6c-0.3,0-0.3-0.3-0.3-0.3c0.9-0.3,1.2-0.3,1.5-0.3
				C217.5,108,216.6,108.6,216.3,108.6z M215,94h0.9c1.2,0,1.8,0.7,1.8,4C216.2,96.9,215.3,95.8,215,94z M214.5,104.6
				c-0.4-0.2-0.6-0.3-0.5-0.5c0,0,0.3-0.1,0.5,0c0.4,0.2,0.5,0.5,0.6,0.8L214.5,104.6z M212,108.2l1.4-0.2
				C212.9,108.5,212.6,108.6,212,108.2z M209,104c1.8,0.6,2.4,1.2,2.4,1.5c0,0,0,0.3-0.3,0.3C210.8,105.8,209.9,105.2,209,104z
				 M213.5,99.2c-0.9,0-1.5-0.3-1.5-1.2L213.5,99.2z M212,91.9l-1.4,0.7c-0.5-0.5-0.9-1.5-1.6-2.7C209.3,90.4,210.3,91,212,91.9z
				 M207,86.9l0.9-0.9C207.9,86,207.6,86.6,207,86.9z M204,86.8c0.2-0.4,1-1,1.4-0.7C204.5,86.8,204.2,86.9,204,86.8z M193.4,126.1
				c3.5-0.6,3.6,0.9,5.1,6.9l1.5,6C188.8,135.1,189.9,126.7,193.4,126.1z M196,147.3c0,0-0.2-0.7,0.1-1.3L196,147.3z M191.2,146
				l0.7,2.6C191.7,148.4,190.5,146.6,191.2,146z M212.2,87c0,0.3-0.3,2.4-1.2,2.4L212.2,87z M219.8,104.1l-0.8,0.1
				C219.3,104,219.6,103.9,219.8,104.1z M223.4,97l-2.4,1.8C221.6,97.9,222.2,97,223.4,97z M222.9,92c0.2,0.1,0.2,0.8-0.5,2.3
				c-1,1.6-2,2-3.4,1.4C219.5,94.7,222.3,91.6,222.9,92z M223.9,85c-1.3,0.4-1.7,0.9-1.9,0.7C222.2,85.4,223.5,85,223.9,85z
				 M185.2,146.5c-1.1,0.8-2.1,0.7-4.2-1.3c2.1-0.3,3.6-0.2,5,0.8L185.2,146.5z M179.1,134.6c0,0-0.2-0.2,0-0.4
				c0.2-0.2,1.3-0.3,2.8,0C180.1,134.9,179.3,134.8,179.1,134.6z M177,149.9l0.7-2.9C177.8,148.1,177.9,149.2,177,149.9z M174,137.3
				c0,0,0.3-1,0.5-1.2c0.2-0.2,0.4,0,0.4,0C174.5,136.9,174.2,137.1,174,137.3z M171.2,135l0.3,2.2C170.9,136.5,171,135.2,171.2,135
				z M184.9,140.4l-1.9,0.1C183.7,139.9,184.3,139.8,184.9,140.4z M167.2,133.8c-0.3,0.2-1.1,0.4-3,0c-0.4-1.8-0.3-3.2,0.3-3.6
				c0.6-0.4,1.9-0.1,3.5,0.9C167.6,132.7,167.8,133.3,167.2,133.8z M158.1,136.6c-0.2-0.2,0.3-0.6,0.9-1l2.2-1.6
				c0.4,0.9,0.4,1.3,0.4,1.3c0.2,0.2,0.5,0,0.8,0.3c0.2,0.2,0.5,0.5,0.7,1.1C159.9,136.9,158.3,136.8,158.1,136.6z M159.3,140.8
				l-0.2,0.2c-0.2-0.2,0-0.4,0.3-1C159.8,140.5,159.5,140.7,159.3,140.8z M157.1,130c0.8,0.9,1.7,0.6,2.1,1c0.2,0.2,0.4,0.9,0.3,1.7
				c-1.1,0.1-1.5,0.1-1.9-0.4C157.2,131.9,156.8,131,157.1,130z M158.2,119c0.2,0.2,0.4,0.9-0.1,1.3l-0.1-1.1L158.2,119z M161.3,125
				c1,1.3,0.9,2.8-0.3,4C161.3,127.8,161.2,126.5,161.3,125z M146.3,120.7L146,119C146.4,119.5,146.3,120.3,146.3,120.7z M146,129.9
				l0.4-1.9C146.7,128.9,146.7,129.3,146,129.9z M144,119c0-0.4,0.1-0.8,0.3-1L144,119z M141.9,125.6c-0.5,0.4-0.7,0.6-0.9,0.4
				c0,0,0-0.4,0.3-0.6c0.5-0.4,0.9-0.4,1.3-0.3L141.9,125.6z M141.6,116.5l-2.6,0.2C139.7,116.1,140.8,115.6,141.6,116.5z
				 M133,139.3l2.7-0.3C135.4,139.2,133.5,140.1,133,139.3z M132,152c1.1,0,2.2,0,2.8,1L132,152z M131.3,144l0.5,0.9
				c0.7,1.2,0.5,2.2-1.8,4.1C129.9,146.9,130.2,145.3,131.3,144z M126.4,145.9c-0.5-0.8-0.6-1.4,0.2-1.9L126.4,145.9z M121,123.9
				c0.8-0.2,2.2-1.1,4.7-2.9l0.3,2.2C124.9,123.5,123.1,123.6,121,123.9z M123,169.2c0.5-0.3,0.7-0.1,0.8,0.2l0.2,0.3
				C123.7,169.7,123.6,169.5,123,169.2z M121.1,154.4c-0.2-0.2,0.1-0.4,0.1-0.4c0.7,0.6,0.9,0.8,1.1,1.1
				C122.2,155.1,121.2,154.7,121.1,154.4z M119,157l2.2,0C120.4,157.5,119.2,157.3,119,157z M119.2,171c-0.2,0.2-0.6-0.4-0.9-1
				l-1.3-2.5c0.9-0.3,1.3-0.2,1.3-0.2c0.2-0.2,0.1-0.5,0.3-0.7c0.2-0.2,0.5-0.4,1.2-0.5C119.7,169.2,119.5,170.8,119.2,171z
				 M115.4,169.9c-0.5,0.3-1.4,0.6-2.4,0.2c1-0.7,0.8-1.6,1.2-1.9c0.3-0.2,0.9-0.2,1.8-0.1C116,169.2,115.9,169.6,115.4,169.9z
				 M116,309.9c-3.4,0-4.7,0.1-5-0.3l0.5-0.3C112,309,115.1,308.6,116,309.9z M110.8,181.7l-1.8-0.6
				C109.9,180.9,110.3,181,110.8,181.7z M112,167.2c-1.2-0.4-2.5-0.4-4-0.7C109.5,165.7,111,165.9,112,167.2z M105,212.2
				c1.6-0.3,2-0.2,2.2,0C106.7,212.6,105.3,212.7,105,212.2z M103,303.6l2-0.6l0.3,0.4C104.8,303.7,103.7,303.8,103,303.6z
				 M100.2,290.3c-0.5,0.3-1.8,0.3-4.2-0.2c3-1.6,4.6-1.2,4.9-0.8S100.7,290.1,100.2,290.3z M99.5,283.5l-2.5-0.2
				C97.4,283,99,282.7,99.5,283.5z M96,280c0.1-1.9,1.3-3.2,2.3-3.7c1-0.6,2.6-0.2,4.7,1.1L96,280z M93.2,275.4l-0.4,1.6
				c0.1-2.1-0.5-3.1-1.1-4.1c-1.2-2-3.1-2.9-5.7-2.7l6.4-5.2l0.9,1.5l3.7,3.9c-0.8-0.2-1.6-0.4-3-1.6c0.6,1,1,2.8,0.5,3.1l-0.6-1
				c-0.4,1.6-0.1,2.1,0.2,2.6l1.2,2C94.5,275.3,93.7,275.1,93.2,275.4z M88,194.4c-0.2-0.3,0.2-0.8,1.9-1.8c2.2-0.9,3.6-0.7,5,0.7
				C93.9,193.9,88.6,195.1,88,194.4z M74,102.9c2.1,0.1,3.4,0,4.9-0.9c1.5-0.9,2.2-2.1,3.1-4c1.7,1.7,3.4,3.5,4.7,5.5
				c0.9,1.5,1.5,2.6,1.9,4.4c0.7-1.1,2.2-5.5,4.2-6.8c0.5-0.3,1-0.6,2.1,0.1l-4.5,9.7C85.9,106.8,80.2,104.1,74,102.9z M80,132.1
				l0.5-2.1C80.4,131.8,80,132.1,80,132.1z M80,247.1l0.5-2.1C80.4,246.8,80,247.1,80,247.1z M75.3,127.9c-2.7,1.1-5.1,1.3-7.3,2.1
				l1-0.7c1.9-1.3,7.7-3.8,8-3.3C77.2,126.6,76.7,126.9,75.3,127.9z M68,226l5,1.5C71,228.5,69.2,227.7,68,226z M64.6,206.9
				c-0.5,0.3-1.3,0.1-2.4-2c-0.4-1.9,0.3-3.1,0.8-3.4c1-0.6,2.2-0.8,4.1,0.2C66.5,202,66,205.9,64.6,206.9z M66,215l0-7
				C67,210.1,68.2,213.5,66,215z M63,229c0,0,3.5-0.3,4,0.6C64,229.6,63.3,229.5,63,229z M63.1,244.6c-4.4,2.7-7.4,1.1-9.4-2.4
				c-0.9-1.5-1.3-3.3-1.7-5.1l4.9,0.4c2.3-0.7,3-0.5,3-0.5c0.3,0.5,0.3,0.5-0.2,0.8c0,0-0.5,0.3-1.3,0.1c2.6,1.1,4.5,2,5.1,3
				C64.2,241.9,64.3,243.2,63.1,244.6z M50.5,225.5l-0.9-1.5c1.1,0.7,1.9,0.9,2.4,0.6c1-0.6,0-3.5-3-8.6l5.6,1.4
				c-0.3-0.5,0.2-0.8,0.2-0.8l1-0.6c0.1,4.8,1,9.8,2.1,14C54.6,230,52.4,228.6,50.5,225.5z M62.6,217.4c0.9-0.6,1.7-0.4,2,0.1
				c0.6,1,0.5,3.1,0.4,5.2c-3.5,1.6-5.5,1.5-5.8,1C58.6,222.7,59.8,219.2,62.6,217.4z M54,186.3c0,0,5.9-1.3,12,1.4
				C61.4,189,57.6,188.5,54,186.3z M50.2,175.8c-0.3-0.4-0.3-0.4,0.2-0.7c0.5-0.3,2.3,0.1,3.2,1.4l0.3,0.4
				C51.4,176.4,50.5,176.2,50.2,175.8z M44,157.6c5.2-1.5,7.9-1.6,7.9-1.6c0.3,0.4-0.2,0.7-0.7,1C49.6,157.7,44.9,158.9,44,157.6z
				 M43.6,167.7l-0.4,0.3c-1.1-3.6-1.2-5-1.2-5l0.3,0.5C43,165.2,43.8,166.8,43.6,167.7z M52.2,121c0.3,0.5,4.9,2.3,6.4,4.7
				c0.6,0.9,0.7,2.2-1.3,3.3c-2.6,0.2-3.7-0.5-4.6-1.9C51.8,125.7,51.9,123.7,52.2,121z M62.9,127.2c0.3,0.4-0.4,1.4-1.3,1.9
				c-0.5,0.3-1,0.5-2.6-0.9C61.4,126.9,62.6,126.8,62.9,127.2z M68.6,141.9l1.8,1.8c-2.4,0.7-4,0.3-4.9-1.2
				c-0.9-1.5-0.1-4.9-0.3-7.5c2.7-0.2,5.6-1.2,5.9-0.7c0,0-0.2,0.8-1.2,1.5C68.3,137.9,67.4,139.8,68.6,141.9z M70,197
				c0,0-3.7-1.6-4.8-3.5c-0.3-0.5-0.1-1.2-0.1-1.2c0.5-0.3,1-0.5,1.3-0.1c0.3,0.5,0.3,0.5,0.1,1.2L70,197z M62.3,116.5l-0.3-0.4
				c0.4-0.3,1.4,0.3,2.7,2.5C63,117.8,62.5,116.9,62.3,116.5z M84.7,92.8c0.3,0.5,0.4,1.8,0.2,2.6l-2,1.2c-3.6,2.1-5.7,2-7.2-0.5
				l-0.6-1C80.6,91.8,83.8,91.3,84.7,92.8z M87.3,89.9c0.6,0.9,0.9,1.4,0.7,2.1L81,87.3C82.9,86.2,86.1,88.1,87.3,89.9z M91,89.8
				l0.1-1.8C91.1,88,91.3,88.4,91,89.8z M93,72.8c-1.5,0.8-3.1,0.4-4-0.8C90.1,72.6,91.4,72.5,93,72.8z M93.4,92.4
				c0.6-0.3,1.1-0.6,1.4-0.1c0.3,0.5,0.1,1.3-0.1,2.2c-2.8,1.5-3.3,1.9-3.7,1.3C90.7,95.3,92.3,93,93.4,92.4z M94,65l0.3,0
				c0,0,0.2,0.3,0.2,0.5c0,0.3,0,0.5-0.3,0.5C94,65.5,94,65.3,94,65z M96.6,184l-0.1,2.6C96,185.8,95.6,184.7,96.6,184z
				 M102.2,168.4l-0.2-0.2c0.2-0.2,0.9-0.2,1.3,0.3L102.2,168.4z M102.2,201c0.2,1.1,0.2,2.9,0.2,5c-0.1-0.8-0.9-2.3-2.4-5
				L102.2,201z M100,180.2c0.5-0.3,1.3-0.2,1.7-0.1L100,180.2z M101,182.4c-0.4-0.1-0.8-0.2-1-0.4L101,182.4z M104,102.3
				c-3,1.8-6.2-0.3-8-3.3C98.9,99.3,101.5,100.4,104,102.3z M98,63.9c-0.8-0.6-1-0.6-1-0.9C97,63,98,63.6,98,63.9z M103.3,92.4
				c0.8,1.6,1,4.3,0.3,7.6l-1.9-3.6c-0.8-1.6-1.9-3.6-2.6-7.4C101.2,89.6,102.5,90.9,103.3,92.4z M106.1,184l0.5,0.8
				c0.3,0.5,0.5,0.8,0.2,0.9c0,0-0.4-0.1-0.6-0.3C105.9,184.8,106,184.4,106.1,184z M109.9,103.3c-0.4,0.3-1.1,0.1-2.9,0
				C108.3,102.6,109.9,103.3,109.9,103.3z M110.4,95.2c0.4-0.3,0.4-0.3,0.7,0.2c0,0-0.2,0.7-1,1.2C109.9,95.4,110.4,95.2,110.4,95.2
				z M115.3,161c1.5,0.6,2.2,0.5,2.5,1.1c0.2,0.3,0.3,1.1-0.3,2.9c-1.8,0.1-3.1-0.2-3.5-0.8C113.8,163.5,114.2,162.3,115.3,161z
				 M114.2,127c0.5,1.5,0.5,2,0.3,2.2C114.1,128.7,113.8,127.4,114.2,127z M120.4,146c0.5,1.8,0.3,2.7,0.1,2.8c0,0-0.2,0.2-0.4-0.1
				C119.9,148.5,119.9,147.4,120.4,146z M135.2,134.3c0,0-0.7,0.1-1.2-0.3L135.2,134.3z M133.2,93.1c0.2-0.2,0.8,0.1,2,1.7
				c1.1,2.1,1,3.6-0.1,5.2C134.3,98.9,132.5,93.8,133.2,93.1z M132.1,325l0.3,4C132.4,329,131.7,325.3,132.1,325z M42.1,211
				c-0.2-2.7,0-3.5,0.5-3.8c1-0.6,3.2,0.8,5.4,0.1L42.1,211z M229.9,17c50.5,25.2,49.5,91.2,23,91.2c-22.9,0-20-23.7-9.3-46.2
				c-4,2.3-18.6,3.9-33.1,3.9c-14.5,0.1-29.2-1.4-33.1-3.7c10.8,22.4,13.7,46.2-9.1,46.2c-16.8,0.1-23.4-26.3-13.3-52.1
				c-0.3-0.2-0.6-0.5-0.8-0.9l-0.9-1.5c0.4-0.2,4.4-4.5,5.9-6.4c4.8-8.8,11.8-17.1,21.1-23.9c-0.8-0.4-1.5-0.9-2.2-1.5
				c2.8-1,4.9-1.4,6.5-1.3c2.1-1.3,4.3-2.6,6.6-3.8c-46.3,5.2-87,28.6-114.8,63c0,0.2-0.2,0.3-0.4,0.5c-4.1,5.1-8,10.5-11.5,16.1
				c0.5,1.9-0.8,2.3-1.2,6.2c-0.5-0.8-0.8-1.6-1.1-2.5c-3.2,5.4-6.2,11.1-8.8,16.9c1.9,0.5,9.3,2.5,10.6,4.7
				c0.9,1.5,0.2,2.6-1.8,3.8c0.7-1.1,0.1-2.1-0.2-2.6c-1.7-2.9-6.8-3.1-8.8-5.7c-5.3,11.8-9.4,24.3-11.9,37.3
				c0.2,0.4,0.4,0.9,0.7,1.4c-0.4-0.2-0.7-0.3-0.9-0.4c-1.1,5.5-1.8,11-2.4,16.7c0.8,0,2.7,0.6,3.4,1.8c0.3,0.5,0.1,1.3-0.6,2.4
				l-3-2.8c-0.3,3.8-0.5,7.5-0.6,11.4c0.8,0,1.5,0.1,1.9-0.2c0.5-0.3,0.7-1.1-1.1-4.1c3.7,0.5,10.7,7.7,11.8,8.4
				c2.4,0.6,4,4.4,10.8,2.3c0.8,10.3-6.1,7.7,0.7,19.1c-3,1.8-13,3.1-16.7,2.6c0.1-2.1,0.3-2.9,0.8-3.2c2-1.2,6.1,1.1,7.8,0.7
				c-0.4-1.8-1-2.8-1-2.8l3.4,0l-2.1-3.5l2.9,0.3c-0.3-0.5-2.8-5.7-3.2-7.5c-0.2,0.8-1.2,1.4-2.2,2c-4,2.4-11.9,3.8-13.2,3.9
				c0.2-0.8,0.1-2.1-0.2-2.6c0,0-0.1-0.1-0.1-0.1c0.3,5.1,0.9,10.1,1.7,15c2.3,0.7,4.4,1.1,5.1,0.7c2.4,4,7.6,17,5.6,18.2
				c-0.5,0.3-0.5,0.3-1.6-0.4c0.4,1.8-0.3,2.9-1.3,3.5c-0.7,0.4-1.6,0.7-2.6,0.8c1,3.3,2.1,6.6,3.3,9.9c0.2-0.2,0.4-0.4,0.6-0.7
				l0.2,3c0.5,1.3,1,2.6,1.6,3.8c1,0.8,2.3,1.4,3.6,2.1c0,0-0.9-8.2,0.6-9.1c3.6,5.9,16.4,10.4,23.3,6.2c-0.7,1.1-1.4,2.2-1.9,2.5
				l-0.5,0.3l6-0.2c1.5-0.9,2.3-0.7,2.9,0.3c1.2,2,0.5,6.4,0.2,9.3c0.2-0.8,1.2-1.4,1.2-1.4c1-0.6,1.3-0.1,1.6,0.4l0.6,1
				c-3.9,0.3-7.2,0.3-10.9-0.2c-0.4,1.6-0.3,2.9-0.2,4.2c0.6,1,1.7,1.7,2.8,2.4c-1.6,3-2.2,5.4-0.1,8.8c3.5-2.1,3.9-3.7,2.7-5.7
				c-0.3-0.5-1.7-1.7-2.3-2.7c3.8,1.8,8.8,3.4,10.6,6.4c-2.6,0.2-4.7,0.1-6.1,1c-1.5,0.9-1.6,3-0.9,5.3c4.9-0.9,7.3-5.8,12.4,2.6
				c-2.7-1.1-5.3-0.9-6.3-0.3c-1,0.6-1.7,1.7-1.6,3c4.8,1.2,5.3,0.9,6.2,2.4c0.3,0.5,0.7,2.3,1.9,4.3c-0.8-0.2-0.8-0.2-1.3,0.1
				c-0.5,0.3-0.9,1.9-1.1,2.7c-0.6-1-2.9-3.7-4.1-5.6l-0.9-1.5c0,0,0.8,0.2,1.1,0.7c-0.9-1.5-2.5-1.9-4-1c-3,1.8-5.4,6.7-3.3,10.1
				c0.3,0.5,0.9,1.5,1.7,1.7c-0.6,0.3-1,0.6-1.4,0.8c0.9,0.9,1.8,1.9,2.6,2.8c0.3-0.7,0.8-1.6,1.5-2.5c1.1,0.7,1.7,1.7,2.3,2.7
				c0.9,1.5,1.6,3.3,1.5,5.1c23.3,22.2,52.7,38,85.5,44.5c0.2-0.2,0.4-0.3,0.7-0.5l0.3-0.2c-2.8-1-5.5-2.1-8.1-3.3
				c-0.7,0.9-1.1,1.4-1.4,1.6l-0.5,0.3c0,0,0.6-0.9,1.5-2.1c-16.6-7.7-30.6-20-40.5-35.2c-0.1,0.7-0.5,1.8-1.4,2.8l1.1-3.1
				c-9.9-15.2-15.6-33.4-15.6-52.9c0-53.8,43.6-97.4,97.4-97.4c53.8,0,97.4,43.6,97.4,97.4c0,4.7-0.4,9.4-1,14
				c0.5,0.1,1,0.2,1.5,0.4c-1.5,0.9-1.6,2.2-2.1,3c-0.5,2.6-1,5.2-1.7,7.7c0.6,0.2,1.1,0.6,1.3,0.9c0.6,1-0.3,2.9-2.5,4.9
				c-0.2-0.1-0.3-0.1-0.5-0.2c-2.3,6.9-5.3,13.4-9,19.5c0,0,0.1-0.1,0.1-0.1c0,0,0.5-0.3,0.8,0.2c0.3,0.5,0.2,2.6-0.9,5.3
				c-0.6-2.8-0.5-4.4-0.2-5.1c-12.6,20.7-32.6,36.3-56.4,43.2C320,346,383,274.7,383,188.5C383.1,99.7,316.1,26.6,229.9,17z"/>
		</g>
	</g>
</g>
</svg>
