<?xml version="1.0" encoding="utf-8"?>
<!-- Generator: Adobe Illustrator 22.1.0, SVG Export Plug-In . SVG Version: 6.00 Build 0)  -->
<svg version="1.1" id="Layer_1" xmlns="http://www.w3.org/2000/svg" xmlns:xlink="http://www.w3.org/1999/xlink" x="0px" y="0px"
	 viewBox="0 0 12.6 19.5" style="enable-background:new 0 0 12.6 19.5;" xml:space="preserve">
<style type="text/css">
	.st0{fill:url(#SVGID_1_);}
</style>
<linearGradient id="SVGID_1_" gradientUnits="userSpaceOnUse" x1="-82.4145" y1="-77.9953" x2="46.7753" y2="51.1945">
	<stop  offset="0" style="stop-color:#00DAB1"/>
	<stop  offset="1" style="stop-color:#00DAD7"/>
</linearGradient>
<path class="st0" d="M7.8,7V1.5C7.8,0.7,7.1,0,6.3,0S4.8,0.7,4.8,1.5V7C2,7.7,0,10.2,0,13.2c0,3.5,2.8,6.3,6.3,6.3s6.3-2.8,6.3-6.3
	C12.6,10.2,10.5,7.7,7.8,7z M6.3,16.5C4.5,16.5,3,15,3,13.2s1.5-3.3,3.3-3.3s3.3,1.5,3.3,3.3S8.1,16.5,6.3,16.5z"/>
</svg>
